<svg width="32" height="32" viewBox="0 0 32 32" fill="none" xmlns="http://www.w3.org/2000/svg">
<path d="M29.7147 16.2859V18.9145L29.429 19.0859L29.1433 19.2002V20.8002L28.8576 20.9717L28.4576 20.7431L28.5147 19.1431L28.4004 19.0288V19.2002L20.5147 23.7717V23.8288L19.3718 23.1431V24.8574L19.0861 25.0288L18.8004 25.2002V26.7431L18.5147 26.9145L18.1718 26.6859V25.0859L17.6004 24.1717V22.1145L17.2004 21.8859V23.6002L16.9147 23.7717L16.629 23.9431V25.4859L16.3433 25.6574L15.9433 25.4288V23.8288L15.3718 22.9145V20.8574L15.029 20.6288V22.3431L14.7433 22.5145L14.4004 22.6859V24.2288L14.1718 24.4002L13.7718 24.1717V22.5717L13.2004 21.6574V19.5431L12.8004 19.3145V21.0859L12.5718 21.2574L12.229 21.4288V22.9717L11.9433 23.1431L11.6004 22.9145V21.3145L11.029 20.4002V18.2859L10.629 18.0574V19.8288L10.3433 20.0002L10.0576 20.1717V21.7145L9.77185 21.8859L9.42899 21.6574V20.0574L8.85756 19.0859V17.0288L8.45756 16.8002V18.5717L8.17185 18.7431L7.88613 18.8574V20.4574L7.60042 20.6288L7.20042 20.4002L7.25756 18.8002L6.62899 17.8288V15.7717L6.28613 15.5431V17.3145L6.00042 17.4859L5.7147 17.6002L5.65756 19.2002L5.42899 19.3145L5.02899 19.1431V17.5431L4.45756 16.5717V14.5145L4.05756 14.2859V16.0574L3.82899 16.2288L3.48613 16.3431V17.9431L3.20042 18.0574L2.85756 17.8859V16.2859L2.28613 15.3145V12.9717V12.6859L2.80042 12.4002L2.74328 9.65737L10.6861 5.08594L28.4004 15.3717V15.5431L29.7147 16.2859Z" fill="#B0B8CF"/>
<path d="M28.8574 19.3716L29.1431 19.2002V20.8002L28.8574 20.9716V19.3716Z" fill="#9EA9C9"/>
<path d="M29.4285 16.7427L29.7142 16.5713V18.9141L29.4285 19.0856V16.7427Z" fill="#9EA9C9"/>
<path d="M27.9424 15.8287L28.171 15.6572L29.7138 16.5715L29.4281 16.7429L27.9424 15.8287Z" fill="#E3E7F0"/>
<path d="M29.4286 16.7424V19.0853L28.8572 19.371V20.971L28.5143 20.7424V19.1424L27.8857 18.171L27.9429 15.8281L29.4286 16.7424Z" fill="#B0B8CF"/>
<path d="M29.7146 16.2852V16.628L28.6289 17.2566V16.9137L29.7146 16.2852Z" fill="#9EA9C9"/>
<path d="M28.6283 16.9138V17.2566L27.1426 16.3995V16.0566L28.6283 16.9138Z" fill="#B0B8CF"/>
<path d="M29.714 16.2859L28.6283 16.9144L27.1426 16.0573L28.1711 15.4287L29.714 16.2859Z" fill="#E3E7F0"/>
<path d="M26.6855 18.1138L26.9713 17.9424V19.5424L26.6855 19.6567V18.1138Z" fill="#9EA9C9"/>
<path d="M27.2568 15.4859L27.5426 15.3145V17.6573L27.2568 17.8287V15.4859Z" fill="#9EA9C9"/>
<path d="M25.7139 14.5718L25.9996 14.4004L27.5424 15.3147L27.2567 15.4861L25.7139 14.5718Z" fill="#E3E7F0"/>
<path d="M27.2567 15.4856V17.8284L26.6853 18.1141V19.657L26.2853 19.4856V17.8856L25.7139 16.9141V14.5713L27.2567 15.4856Z" fill="#B0B8CF"/>
<path d="M27.5427 15.0283V15.3712L26.457 15.9997V15.6569L27.5427 15.0283Z" fill="#9EA9C9"/>
<path d="M26.4569 15.6575V16.0003L24.9141 15.1432V14.7432L26.4569 15.6575Z" fill="#B0B8CF"/>
<path d="M27.5426 15.029L26.4569 15.6576L24.9141 14.7433L25.9998 14.1719L27.5426 15.029Z" fill="#E3E7F0"/>
<path d="M24.5146 16.857L24.7432 16.6855V18.2855L24.5146 18.3998V16.857Z" fill="#9EA9C9"/>
<path d="M25.0859 14.2281L25.3717 14.0566V16.3995L25.0859 16.5709V14.2281Z" fill="#9EA9C9"/>
<path d="M23.543 13.314L23.8287 13.1426L25.3715 14.0569L25.0858 14.2283L23.543 13.314Z" fill="#E3E7F0"/>
<path d="M25.0857 14.2287V16.5716L24.5143 16.8573V18.4002L24.1143 18.2287V16.6287L23.5428 15.6573V13.3145L25.0857 14.2287Z" fill="#B0B8CF"/>
<path d="M25.3718 13.7715V14.1143L24.2861 14.7429V14.4001L25.3718 13.7715Z" fill="#9EA9C9"/>
<path d="M24.286 14.3996V14.7425L22.7432 13.8854V13.4854L24.286 14.3996Z" fill="#B0B8CF"/>
<path d="M25.3717 13.7717L24.286 14.4003L22.7432 13.486L23.8289 12.8574L25.3717 13.7717Z" fill="#E3E7F0"/>
<path d="M22.2861 15.543L22.5718 15.4287V17.0287L22.2861 17.143V15.543Z" fill="#9EA9C9"/>
<path d="M22.9143 12.9141L23.1429 12.7998V15.1427L22.9143 15.3141V12.9141Z" fill="#9EA9C9"/>
<path d="M21.3711 12.0572L21.6568 11.8857L23.1425 12.8L22.9139 12.9143L21.3711 12.0572Z" fill="#E3E7F0"/>
<path d="M22.9139 12.9138V15.3138L22.2854 15.5424V17.1424L21.9425 16.9709V15.3709L21.3711 14.3995V12.0566L22.9139 12.9138Z" fill="#B0B8CF"/>
<path d="M23.1428 12.5146V12.8575L22.1143 13.4861V13.1432L23.1428 12.5146Z" fill="#9EA9C9"/>
<path d="M22.1143 13.1428V13.4857L20.5714 12.6285V12.2285L22.1143 13.1428Z" fill="#B0B8CF"/>
<path d="M23.1427 12.5139L22.1141 13.1425L20.5713 12.2282L21.657 11.5996L23.1427 12.5139Z" fill="#E3E7F0"/>
<path d="M20.1143 14.2862L20.4 14.1719V15.7147L20.1143 15.8862V14.2862Z" fill="#9EA9C9"/>
<path d="M20.6857 11.6573L20.9714 11.543V13.8858L20.6857 14.0001V11.6573Z" fill="#9EA9C9"/>
<path d="M19.2002 10.8003L19.4288 10.6289L20.9716 11.5432L20.6859 11.6575L19.2002 10.8003Z" fill="#E3E7F0"/>
<path d="M20.6859 11.6569V13.9998L20.1145 14.2855V15.8855L19.7716 15.6569V14.1141L19.2002 13.1427V10.7998L20.6859 11.6569Z" fill="#B0B8CF"/>
<path d="M20.9715 11.2568V11.5997L19.8857 12.2283V11.8854L20.9715 11.2568Z" fill="#9EA9C9"/>
<path d="M19.8861 11.886V12.2288L18.4004 11.3717V10.9717L19.8861 11.886Z" fill="#B0B8CF"/>
<path d="M20.9718 11.2571L19.8861 11.8856L18.4004 10.9713L19.429 10.3428L20.9718 11.2571Z" fill="#E3E7F0"/>
<path d="M17.9434 13.0283L18.2291 12.9141V14.4569L17.9434 14.6283V13.0283Z" fill="#9EA9C9"/>
<path d="M18.5146 10.4004L18.8004 10.2861V12.629L18.5146 12.7433V10.4004Z" fill="#9EA9C9"/>
<path d="M16.9717 9.54252L17.2574 9.37109L18.8003 10.2854L18.5145 10.3997L16.9717 9.54252Z" fill="#E3E7F0"/>
<path d="M18.5145 10.4001V12.743L17.9431 13.0287V14.6287L17.5431 14.4001V12.8573L16.9717 11.8858V9.54297L18.5145 10.4001Z" fill="#B0B8CF"/>
<path d="M18.7996 10V10.3429L17.7139 10.9714V10.6286L18.7996 10Z" fill="#9EA9C9"/>
<path d="M17.7147 10.6282V10.971L16.1719 10.0567V9.71387L17.7147 10.6282Z" fill="#B0B8CF"/>
<path d="M18.8004 10.0002L17.7147 10.6288L16.1719 9.71451L17.2576 9.08594L18.8004 10.0002Z" fill="#E3E7F0"/>
<path d="M15.7717 11.771L16.0003 11.5996V13.1996L15.7717 13.371V11.771Z" fill="#9EA9C9"/>
<path d="M16.343 9.14311L16.6287 8.97168V11.3717L16.343 11.486V9.14311Z" fill="#9EA9C9"/>
<path d="M14.8 8.28569L15.0858 8.11426L16.6286 8.9714L16.3429 9.14283L14.8 8.28569Z" fill="#E3E7F0"/>
<path d="M16.3429 9.14328V11.4861L15.7715 11.7718V13.3718L15.3715 13.1433V11.5433L14.8 10.629V8.28613L16.3429 9.14328Z" fill="#B0B8CF"/>
<path d="M16.6287 8.74316V9.08602L15.543 9.71459V9.31459L16.6287 8.74316Z" fill="#9EA9C9"/>
<path d="M15.5429 9.31417V9.71417L14 8.79989V8.45703L15.5429 9.31417Z" fill="#B0B8CF"/>
<path d="M16.6286 8.74241L15.5429 9.31384L14 8.4567L15.0857 7.82812L16.6286 8.74241Z" fill="#E3E7F0"/>
<path d="M13.6 10.5142L13.8286 10.3428V11.9428L13.5428 12.1142L13.6 10.5142Z" fill="#9EA9C9"/>
<path d="M14.1719 7.8853L14.4004 7.71387V10.0567L14.1719 10.2282V7.8853Z" fill="#9EA9C9"/>
<path d="M12.6289 7.02885L12.9146 6.85742L14.4003 7.71456L14.1718 7.88599L12.6289 7.02885Z" fill="#E3E7F0"/>
<path d="M14.1718 7.88546V10.2283L13.6003 10.514L13.5432 12.114L13.2003 11.8855V10.2855L12.6289 9.37118V7.02832L14.1718 7.88546Z" fill="#B0B8CF"/>
<path d="M14.3997 7.48535V7.82821L13.3711 8.45678V8.05678L14.3997 7.48535Z" fill="#9EA9C9"/>
<path d="M13.371 8.05734V8.45734L11.8281 7.54305V7.2002L13.371 8.05734Z" fill="#B0B8CF"/>
<path d="M14.3996 7.48558L13.371 8.057L11.8281 7.19986L12.9138 6.57129L14.3996 7.48558Z" fill="#E3E7F0"/>
<path d="M20.5141 23.7146L2.7998 13.3717L10.6855 8.85742L28.3998 19.1431L20.5141 23.7146Z" fill="#414F65"/>
<path d="M20.5143 23.2571L2.80005 12.9142L10.6858 8.34277L28.4 18.6856L20.5143 23.2571Z" fill="#C3C7CF"/>
<path d="M28.4006 18.6855V19.1998L20.5149 23.7713V23.257L28.4006 18.6855Z" fill="#1D2943"/>
<path d="M28.4003 15.3717L10.686 5.08594L2.74316 9.65737L2.80031 12.9145L20.5146 23.2574L28.4003 18.6859V15.3717Z" fill="#1D2943"/>
<path d="M20.5146 23.2572L2.80031 12.9144L2.74316 9.65723L20.5146 19.9429V23.2572Z" fill="#111D33"/>
<path d="M20.5146 19.9431L2.74316 9.65737L10.686 5.08594L28.4003 15.3717L20.5146 19.9431Z" fill="#4C5C75"/>
<path d="M20.5148 19.3143L3.94336 9.6572L10.6862 5.77148L10.7434 5.82863L27.2576 15.4286L20.5148 19.3143ZM4.28622 9.6572L20.4576 19.0858L26.8576 15.3715L10.6862 6.00006L4.28622 9.6572Z" fill="#C9CEE2"/>
<path d="M28.4004 15.3711V18.6854L20.5146 23.2568V19.9425L28.4004 15.3711Z" fill="#1D2943"/>
<path d="M18.4574 14.9141C19.4288 14.3427 21.0288 14.3427 22.0002 14.9141C22.3431 15.0855 22.5145 15.3141 22.6288 15.5427C22.8574 15.0855 22.6288 14.5141 22.0002 14.1141C21.0288 13.5427 19.4288 13.5427 18.4574 14.1141C17.8288 14.5141 17.6002 15.0284 17.8288 15.4855C17.9431 15.3141 18.1145 15.0855 18.4574 14.9141Z" fill="#111D33"/>
<path d="M18.4567 16.2287C19.4281 16.8001 21.0281 16.8001 21.9996 16.2287C22.3424 16.0573 22.5138 15.8287 22.6281 15.6001C22.5138 15.3715 22.2853 15.143 21.9996 14.9715C21.0281 14.4001 19.4281 14.4001 18.4567 14.9715C18.1138 15.143 17.9424 15.3715 17.8281 15.6001C17.9424 15.8287 18.171 16.0573 18.4567 16.2287Z" fill="#ADB2C3"/>
<path d="M14.4576 15.1996C14.1148 15.1996 13.7719 15.371 13.5434 15.5996C13.3148 15.8281 13.2005 16.171 13.2005 16.571C13.2005 15.8281 12.6291 15.1996 11.9434 15.1996C12.2862 15.1996 12.6291 15.0281 12.8576 14.7996C13.0862 14.571 13.2005 14.2281 13.2005 13.8281C13.2005 14.171 13.3148 14.571 13.5434 14.7996C13.7719 15.0281 14.0576 15.1996 14.4576 15.1996Z" fill="white"/>
<path d="M20.5143 23.8284L2.80005 13.4855V12.7998L20.5143 23.0855V23.8284Z" fill="#111D33"/>
<path d="M18.5146 25.314L18.8004 25.1426V26.7426L18.5146 26.914V25.314Z" fill="#9EA9C9"/>
<path d="M19.0859 22.6861L19.3717 22.5146V24.8575L19.0859 25.0289V22.6861Z" fill="#9EA9C9"/>
<path d="M17.5996 21.8287L17.8282 21.6572L19.371 22.5144L19.0853 22.6858L17.5996 21.8287Z" fill="#E3E7F0"/>
<path d="M19.0853 22.6853V25.0281L18.5139 25.3138V26.9138L18.171 26.6853V25.0853L17.5996 24.171V21.8281L19.0853 22.6853Z" fill="#B0B8CF"/>
<path d="M20.1717 21.7715V22.1715L19.0859 22.8001V22.4001L20.1717 21.7715Z" fill="#9EA9C9"/>
<path d="M19.0853 22.4001V22.8001L17.5996 21.8858V21.543L19.0853 22.4001Z" fill="#B0B8CF"/>
<path d="M20.171 21.7712L19.0853 22.3998L17.5996 21.5426L18.6282 20.9141L20.171 21.7712Z" fill="#E3E7F0"/>
<path d="M16.3428 24.0572L16.6285 23.8857V25.4857L16.3428 25.6572V24.0572Z" fill="#9EA9C9"/>
<path d="M16.9141 21.4283L17.1998 21.2568V23.5997L16.9141 23.7711V21.4283Z" fill="#9EA9C9"/>
<path d="M15.3711 20.5718L15.6568 20.4004L17.1997 21.2575L16.914 21.429L15.3711 20.5718Z" fill="#E3E7F0"/>
<path d="M16.914 21.4284V23.7713L16.3425 24.057V25.657L15.9425 25.4284V23.8284L15.3711 22.9141V20.5713L16.914 21.4284Z" fill="#B0B8CF"/>
<path d="M17.9998 20.5146V20.9146L16.9141 21.5432V21.1432L17.9998 20.5146Z" fill="#9EA9C9"/>
<path d="M16.914 21.1423V21.5423L15.3711 20.628V20.2852L16.914 21.1423Z" fill="#B0B8CF"/>
<path d="M17.9997 20.5144L16.914 21.1429L15.3711 20.2858L16.4568 19.6572L17.9997 20.5144Z" fill="#E3E7F0"/>
<path d="M14.1719 22.8003L14.4004 22.6289V24.2289L14.1719 24.4003V22.8003Z" fill="#9EA9C9"/>
<path d="M14.7432 20.1714L15.0289 20V22.3429L14.7432 22.5143V20.1714Z" fill="#9EA9C9"/>
<path d="M13.2002 19.314L13.4859 19.1426L15.0288 19.9997L14.7431 20.1711L13.2002 19.314Z" fill="#E3E7F0"/>
<path d="M14.7428 20.1716V22.5145L14.1714 22.8002V24.4002L13.7714 24.1716V22.5716L13.2 21.6573V19.3145L14.7428 20.1716Z" fill="#B0B8CF"/>
<path d="M15.8289 19.2568V19.6568L14.7432 20.2283V19.8854L15.8289 19.2568Z" fill="#9EA9C9"/>
<path d="M14.7431 19.8855V20.2283L13.2002 19.3712V19.0283L14.7431 19.8855Z" fill="#B0B8CF"/>
<path d="M15.8288 19.2575L14.7431 19.8861L13.2002 19.029L14.2859 18.4004L15.8288 19.2575Z" fill="#E3E7F0"/>
<path d="M11.9434 21.5425L12.2291 21.3711V22.9711L11.9434 23.1425V21.5425Z" fill="#9EA9C9"/>
<path d="M12.5713 18.9146L12.7999 18.7432V21.086L12.5713 21.2575V18.9146Z" fill="#9EA9C9"/>
<path d="M11.0283 18L11.314 17.8857L12.7997 18.7429L12.5712 18.9143L11.0283 18Z" fill="#E3E7F0"/>
<path d="M12.5712 18.9143V21.2571L11.9426 21.5429V23.1429L11.5997 22.9143V21.3143L11.0283 20.4V18L12.5712 18.9143Z" fill="#B0B8CF"/>
<path d="M13.6 18V18.4L12.5714 18.9714V18.6286L13.6 18Z" fill="#9EA9C9"/>
<path d="M12.5712 18.6286V18.9715L11.0283 18.1143V17.7715L12.5712 18.6286Z" fill="#B0B8CF"/>
<path d="M13.5997 17.9997L12.5712 18.6283L11.0283 17.7711L12.114 17.1426L13.5997 17.9997Z" fill="#E3E7F0"/>
<path d="M9.77148 20.2857L10.0572 20.1143V21.7143L9.77148 21.8857V20.2857Z" fill="#9EA9C9"/>
<path d="M10.3428 17.6568L10.6285 17.4854V19.8282L10.3428 19.9996V17.6568Z" fill="#9EA9C9"/>
<path d="M8.85742 16.7432L9.08599 16.6289L10.6289 17.486L10.3431 17.6575L8.85742 16.7432Z" fill="#E3E7F0"/>
<path d="M10.3431 17.6575V20.0003L9.77171 20.286V21.886L9.42885 21.6575V20.0574L8.85742 19.086V16.7432L10.3431 17.6575Z" fill="#B0B8CF"/>
<path d="M11.429 16.7432V17.086L10.4004 17.7146V17.3717L11.429 16.7432Z" fill="#9EA9C9"/>
<path d="M10.4003 17.3718V17.7146L8.85742 16.8575V16.5146L10.4003 17.3718Z" fill="#B0B8CF"/>
<path d="M11.4289 16.7429L10.4003 17.3715L8.85742 16.5143L9.88599 15.8857L11.4289 16.7429Z" fill="#E3E7F0"/>
<path d="M7.59961 19.0289L7.88532 18.8574V20.4574L7.59961 20.6288V19.0289Z" fill="#9EA9C9"/>
<path d="M8.17188 16.3999L8.45759 16.2285V18.5714L8.17188 18.7428V16.3999Z" fill="#9EA9C9"/>
<path d="M6.68555 15.4854L6.91412 15.3711L8.45698 16.2282L8.17126 16.3997L6.68555 15.4854Z" fill="#E3E7F0"/>
<path d="M8.17176 16.3996V18.7425L7.60033 19.0282V20.6282L7.20033 20.3996L7.25748 18.7996L6.62891 17.8282L6.68605 15.4854L8.17176 16.3996Z" fill="#B0B8CF"/>
<path d="M9.25759 15.4854V15.8282L8.17188 16.4568V16.1139L9.25759 15.4854Z" fill="#9EA9C9"/>
<path d="M8.17126 16.1145V16.4573L6.68555 15.6002V15.2002L8.17126 16.1145Z" fill="#B0B8CF"/>
<path d="M9.25698 15.486L8.17126 16.1146L6.68555 15.2003L7.71412 14.6289L9.25698 15.486Z" fill="#E3E7F0"/>
<path d="M5.42871 17.771L5.71443 17.5996L5.65728 19.1996L5.42871 19.3139V17.771Z" fill="#9EA9C9"/>
<path d="M6 15.1431L6.28571 14.9717V17.3145L6 17.486V15.1431Z" fill="#9EA9C9"/>
<path d="M4.45703 14.2281L4.74275 14.0566L6.2856 14.9709L5.99989 15.1424L4.45703 14.2281Z" fill="#E3E7F0"/>
<path d="M6.00001 15.1428V17.4857L5.42858 17.7714V19.3142L5.02858 19.1428V17.5428L4.45715 16.5714V14.2285L6.00001 15.1428Z" fill="#B0B8CF"/>
<path d="M7.08571 14.2285V14.5714L6 15.1999V14.8571L7.08571 14.2285Z" fill="#9EA9C9"/>
<path d="M5.99989 14.8567V15.1995L4.45703 14.3424V13.9424L5.99989 14.8567Z" fill="#B0B8CF"/>
<path d="M7.0856 14.2282L5.99989 14.8568L4.45703 13.9425L5.54275 13.3711L7.0856 14.2282Z" fill="#E3E7F0"/>
<path d="M3.25684 16.5142L3.48541 16.3428V17.9428L3.25684 18.0571V16.5142Z" fill="#9EA9C9"/>
<path d="M3.82812 13.8853L4.11384 13.7139L4.0567 16.0567L3.82812 16.2282V13.8853Z" fill="#9EA9C9"/>
<path d="M2.28613 12.9712L2.57185 12.7998L4.1147 13.7141L3.82899 13.8855L2.28613 12.9712Z" fill="#E3E7F0"/>
<path d="M3.82899 13.886V16.2288L3.25756 16.5145V18.0574L2.85756 17.886V16.286L2.28613 15.3145V12.9717L3.82899 13.886Z" fill="#B0B8CF"/>
<path d="M4.91384 12.9717V13.3145L3.82812 13.9431V13.6003L4.91384 12.9717Z" fill="#9EA9C9"/>
<path d="M3.82899 13.5998V13.9427L2.28613 13.0855V12.6855L3.82899 13.5998Z" fill="#B0B8CF"/>
<path d="M4.9147 12.9709L3.82899 13.5995L2.28613 12.6852L3.37185 12.0566L4.9147 12.9709Z" fill="#E3E7F0"/>
<path d="M12.6282 7.88538L12.0568 8.22824H11.9996C11.9425 8.22824 11.9425 8.22824 11.9425 8.22824C11.9425 8.22824 11.8854 8.22824 11.8854 8.17109C11.8854 8.17109 11.8854 8.11395 11.9425 8.11395L12.1139 7.99967L11.2568 7.48538L11.1996 7.65681C11.1996 7.65681 11.1996 7.65681 11.1425 7.71395H11.0854C11.0282 7.71395 11.0282 7.71395 11.0282 7.71395C10.9711 7.71395 10.9711 7.65681 11.0282 7.65681L11.1425 7.42824C11.1425 7.42824 11.1425 7.42824 11.1996 7.37109H11.2568H11.3711H11.4854L12.4568 7.94252L12.6282 7.82824H12.6854C12.5139 7.77109 12.5711 7.82824 12.6282 7.88538C12.6282 7.82824 12.6282 7.82824 12.6282 7.88538Z" fill="#C9CEE2"/>
<path d="M11.4281 8.51434C11.371 8.57148 11.3138 8.62863 11.2567 8.68577C11.0853 8.74291 10.971 8.8572 10.7424 8.8572H10.6853H10.6281C10.6281 8.8572 10.571 8.8572 10.571 8.80006C10.571 8.80006 10.571 8.74291 10.6281 8.74291H10.6853C10.8567 8.68577 10.971 8.68577 11.0853 8.57148C11.2567 8.4572 11.3138 8.34291 11.1996 8.28577C11.1424 8.28577 11.1424 8.28577 11.0853 8.28577C11.0281 8.28577 10.971 8.28577 10.9138 8.28577C10.8567 8.28577 10.7996 8.34291 10.6853 8.34291C10.571 8.40006 10.4567 8.40006 10.3996 8.4572C10.3424 8.4572 10.2281 8.51434 10.171 8.4572C10.0567 8.4572 9.99955 8.4572 9.94241 8.40006C9.88527 8.34291 9.82812 8.34291 9.82812 8.28577C9.82812 8.22863 9.82812 8.17148 9.82812 8.11434C9.88527 8.0572 9.94241 8.00006 9.99955 7.94291C10.1138 7.88577 10.2853 7.82863 10.3996 7.77148H10.5138C10.5138 7.77148 10.571 7.77148 10.571 7.82863C10.571 7.82863 10.571 7.88577 10.5138 7.88577C10.5138 7.88577 10.5138 7.88577 10.4567 7.88577C10.3424 7.94291 10.2281 7.94291 10.1138 8.00006C9.99955 8.0572 9.94241 8.11434 9.94241 8.17148C9.94241 8.22863 9.94241 8.28577 9.99955 8.28577C10.0567 8.28577 10.0567 8.34291 10.1138 8.34291H10.2853C10.3424 8.34291 10.3996 8.28577 10.5138 8.28577C10.6281 8.22863 10.7424 8.22863 10.7996 8.17148H11.0281C11.1424 8.17148 11.1996 8.22863 11.2567 8.22863C11.3138 8.28577 11.371 8.28577 11.371 8.34291C11.4853 8.4572 11.4853 8.4572 11.4281 8.51434Z" fill="#C9CEE2"/>
<path d="M10.5718 8.97174C10.5718 8.97174 10.5146 8.97174 10.4575 8.97174C10.4003 8.97174 10.4003 8.97174 10.4003 8.97174L9.82891 9.31459L8.85748 8.74316H8.80033C8.74319 8.74316 8.74319 8.74316 8.68605 8.74316L8.62891 8.80031C8.62891 8.80031 8.62891 8.85745 8.68605 8.85745L9.71462 9.42888H9.82891H9.94319L10.5718 9.08602C10.6289 9.02888 10.6289 9.02888 10.5718 8.97174C10.6289 9.02888 10.6289 8.97174 10.5718 8.97174Z" fill="#C9CEE2"/>
<path d="M9.19967 9.48544C9.14252 9.4283 9.08538 9.31401 8.97109 9.25687C8.85681 9.19973 8.74252 9.14258 8.62824 9.14258C8.51395 9.14258 8.34252 9.08544 8.17109 9.14258C7.99967 9.14258 7.88538 9.19973 7.77109 9.31401L7.42824 9.48544L7.37109 9.54258C7.37109 9.54258 7.37109 9.59973 7.42824 9.59973L8.45681 10.2283H8.51395H8.57109L8.91395 9.99973C9.02824 9.94258 9.14252 9.8283 9.14252 9.77116C9.25681 9.65687 9.25681 9.59973 9.19967 9.48544ZM8.51395 9.25687C8.62824 9.25687 8.74252 9.31401 8.79967 9.37116C8.91395 9.4283 8.97109 9.48544 8.97109 9.54258C9.02824 9.59973 8.97109 9.65687 8.97109 9.71401C8.91395 9.77116 8.85681 9.8283 8.79967 9.88544L8.57109 10.0569L7.65681 9.54258L7.88538 9.4283C7.99967 9.37116 8.05681 9.31401 8.17109 9.31401C8.34252 9.25687 8.45681 9.25687 8.51395 9.25687Z" fill="#C9CEE2"/>
<path d="M8.05742 10.4572C8.05742 10.5143 8.00028 10.6286 7.88599 10.6858C7.82885 10.7429 7.71456 10.7429 7.60028 10.8001C7.54314 10.8001 7.54314 10.8001 7.48599 10.8001C7.48599 10.8001 7.42885 10.8001 7.42885 10.7429V10.6858H7.48599C7.54314 10.6858 7.60028 10.6286 7.65742 10.6286C7.71456 10.5715 7.77171 10.5715 7.77171 10.5143C7.77171 10.4572 7.71456 10.4001 7.65742 10.3429L6.91456 9.88577L6.85742 9.82863C6.85742 9.82863 6.85742 9.77148 6.91456 9.77148H7.02885H7.08599L7.82885 10.1715C8.00028 10.2858 8.05742 10.3429 8.05742 10.4572Z" fill="#C9CEE2"/>
</svg>
