<svg width="33" height="32" viewBox="0 0 33 32" fill="none" xmlns="http://www.w3.org/2000/svg">
<path d="M23.8285 3.81047L4.18547 15.152L2.61621 14.2351L22.2593 2.89355L23.8285 3.81047Z" fill="#DEDFFB"/>
<path d="M23.8709 18.789C23.8709 19.349 23.4832 20.0321 22.9909 20.3152L5.10787 30.6413C4.8617 30.7829 4.64633 30.7952 4.48633 30.6967C4.46785 30.6905 4.44941 30.6783 4.43709 30.6659L2.91707 29.7921C2.7571 29.6936 2.65862 29.4967 2.65862 29.2198L2.60938 14.2413L4.1848 15.1521L23.8279 3.81055L23.8709 18.789Z" fill="#DEDFFB"/>
<path d="M4.48619 30.6997L2.91485 29.789C2.75415 29.6908 2.65596 29.4944 2.65596 29.2176L2.61133 14.2402L4.18262 15.1509L4.2273 30.1283C4.2273 30.414 4.3255 30.6104 4.48619 30.6997Z" fill="#DEDFFB"/>
<path d="M4.18639 15.1506L2.61328 14.2364L22.2563 2.89551L23.8294 3.8097L4.18639 15.1506Z" fill="#F3F1FC"/>
<path d="M23.8296 3.80957L23.869 18.7917C23.8706 19.3484 23.4843 20.0307 22.994 20.3138L5.10667 30.641C4.62214 30.9208 4.22752 30.6894 4.22595 30.1326L4.18652 15.1505L23.8296 3.80957Z" fill="#F3F1FC"/>
<path d="M23.834 2.77101V3.79873L4.1848 15.1464L2.61553 14.2295L2.60938 13.2018C2.60938 12.6479 3.00323 11.9587 3.48941 11.6756L21.3725 1.35563C21.6186 1.20794 21.8401 1.19562 22.0002 1.29411L23.5386 2.18639C23.7171 2.27255 23.8279 2.47564 23.834 2.77101Z" fill="#1D2943"/>
<path d="M22.0008 1.29112C21.8406 1.198 21.6187 1.21047 21.3727 1.35254L3.49106 11.6765C3.00085 11.9595 2.60883 12.6451 2.61036 13.2019L2.6133 14.2302L4.18639 15.1445L4.1835 14.1161C4.18192 13.5593 4.57394 12.8737 5.06415 12.5907L22.9458 2.2667C23.1918 2.12469 23.4137 2.11221 23.574 2.20534L22.0008 1.29112Z" fill="#1D2943"/>
<path d="M22.9462 2.26656C23.4364 1.98353 23.831 2.21495 23.8326 2.77171L23.8355 3.80008L4.18676 15.1443L4.18384 14.1159C4.18226 13.5592 4.57428 12.8736 5.06451 12.5905L22.9462 2.26656Z" fill="#4C5C75"/>
<path d="M5.61157 12.9215C5.86808 12.7734 6.07396 12.8907 6.0748 13.1854C6.07565 13.4867 5.87111 13.841 5.6146 13.9891C5.35809 14.1372 5.15222 14.0199 5.15137 13.7186C5.15053 13.4238 5.35506 13.0695 5.61157 12.9215Z" fill="white"/>
<path d="M7.33913 11.9241C7.59564 11.776 7.8072 11.89 7.80804 12.1848C7.80889 12.4861 7.59866 12.8437 7.34215 12.9918C7.08564 13.1399 6.87976 13.0225 6.87891 12.7212C6.87807 12.4265 7.08262 12.0722 7.33913 11.9241Z" fill="white"/>
<path d="M9.07139 10.9239C9.3222 10.7791 9.53378 10.8931 9.53462 11.1879C9.53547 11.4892 9.32523 11.8468 9.07442 11.9916C8.81221 12.143 8.60633 12.0256 8.60547 11.7243C8.60464 11.4296 8.80918 11.0753 9.07139 10.9239Z" fill="white"/>
<path d="M22.5079 3.28469C22.7017 3.17279 22.8675 3.26074 22.8682 3.49C22.8688 3.71925 22.7041 4.00463 22.5103 4.11652L14.2449 8.88853C14.0397 9.00701 13.8796 8.90922 13.8789 8.67996C13.8783 8.45071 14.0373 8.17518 14.2425 8.0567L22.5079 3.28469Z" fill="white"/>
<path d="M22.9224 5.45508L22.9553 18.8263L5.13351 29.1157L5.10059 15.7445L22.9224 5.45508Z" fill="white"/>
<path d="M22.3439 18.555L5.72902 28.1484L5.71582 22.7269C5.71582 22.7269 5.74887 22.6475 5.78854 22.6277C5.84802 22.5947 5.91416 22.6806 5.88769 23.2889C5.88769 23.355 5.94059 24.6112 6.24474 24.4327C6.27117 24.4195 6.29764 24.393 6.33069 24.3599C6.33731 24.3467 6.42984 24.2872 6.44308 23.8971C6.44308 23.5798 6.59513 22.8988 6.75384 22.8062C6.8067 22.7798 6.85299 22.8062 6.89266 22.9186L7.1439 24.2079C7.17033 24.2079 7.63315 24.1814 7.6662 24.512C7.69929 24.8029 7.8381 25.16 7.99677 25.0674C8.02325 25.0542 8.04968 25.0211 8.08273 24.9814C8.27449 24.6707 8.34721 24.2211 8.36044 23.8046C8.36702 23.5203 8.41992 23.4013 8.59845 23.3021C8.67117 23.2558 8.77697 23.2095 8.91579 23.1566C8.94884 23.1434 8.97531 23.1302 9.00174 23.117C9.33894 22.9186 9.23975 22.5087 9.21994 22.3368C9.2067 22.1848 9.28604 20.8029 9.42489 20.7236C9.45133 20.7104 9.4778 20.7368 9.50423 20.8228C9.64966 21.2657 9.68933 21.669 9.7819 21.6161C9.80176 21.6029 9.82819 21.5699 9.85462 21.4971C9.88109 21.4377 9.90091 21.4046 9.92738 21.3914C10.0596 21.3186 10.1654 21.7352 10.1852 21.907C10.2117 22.1186 10.3968 22.998 10.6745 22.9054C10.9588 22.8194 11.2232 23.1104 11.3687 23.2955C11.4282 23.3682 11.4811 23.3748 11.5274 23.3484C11.6001 23.3021 11.6728 23.1831 11.7522 23.1037C11.7654 23.0905 11.7786 23.0773 11.7984 23.0707C11.8447 23.0443 11.9108 23.0376 11.9703 23.031C12.0298 23.0244 12.0893 23.0178 12.1489 22.9914C12.1753 22.9715 12.2084 22.9451 12.2348 22.9054C12.3538 22.7203 12.2216 22.2442 12.7571 21.9335C12.7968 21.9137 12.8364 21.8872 12.8827 21.8674C12.9158 21.8542 12.9489 21.8409 12.9753 21.8211C13.2265 21.6757 13.3522 21.4508 13.4381 21.2459C13.5174 21.0409 13.5704 20.8558 13.6761 20.7963C13.7026 20.7765 13.7422 20.7699 13.7885 20.7765C14.0464 20.8294 14.4497 21.0343 14.7538 20.8558C14.8794 20.7831 14.9918 20.6443 15.0645 20.3996C15.2629 19.7252 15.6993 17.5302 16.0894 17.3054C16.1819 17.2525 16.2678 17.3054 16.3538 17.517C16.691 18.3963 16.7968 19.7848 17.2001 19.5467C17.3059 19.4872 17.4381 19.3352 17.5968 19.0112C17.61 19.0046 17.6166 19.0046 17.6298 18.998C17.6629 18.9848 17.696 18.9649 17.7224 18.9517C17.9736 18.8062 18.0926 18.5815 18.1786 18.3765C18.2645 18.1715 18.3174 17.9864 18.4166 17.9203C18.4496 17.9071 18.4893 17.9004 18.5356 17.9071C18.7935 17.9533 19.1968 18.1583 19.5009 17.9864C19.6265 17.9137 19.7389 17.7682 19.805 17.5236C20.01 16.8492 20.4463 14.6542 20.8364 14.4294C20.929 14.3765 21.0149 14.436 21.0943 14.641C21.4381 15.5269 21.5439 16.9087 21.9406 16.6773C22.0529 16.6178 22.1786 16.4393 22.3372 16.1154L22.3439 18.555Z" fill="#FFD06C"/>
<path d="M8.47937 14.8041C9.87526 13.9982 11.0097 14.6119 11.0141 16.1699C11.0185 17.7293 9.89128 19.6488 8.49654 20.4541C8.24295 20.6005 7.99952 20.6976 7.76855 20.7534L8.14599 19.4982C8.25803 19.4624 8.37344 19.4129 8.49339 19.3436C9.33982 18.8549 10.0242 17.692 10.0215 16.743C10.0188 15.7953 9.3301 15.4251 8.48367 15.9138L8.47937 14.8041Z" fill="#8FABFE"/>
<path d="M8.47953 14.8037L8.48268 15.9141C7.63625 16.4028 6.9519 17.5657 6.95458 18.5134C6.95689 19.3285 7.46599 19.7143 8.14615 19.4978L7.76871 20.7531C6.72709 21.0034 5.96554 20.3624 5.96193 19.0865C5.95751 17.5285 7.08594 15.6083 8.47953 14.8037Z" fill="#F45170"/>
<path d="M19.6703 13.2373L19.6735 14.3936L18.8197 14.8865L18.8164 13.7303L19.6703 13.2373Z" fill="#DBA660"/>
<path d="M16.8549 15.3223L16.8568 16.0187L16.003 16.5117L16.001 15.8153L16.8549 15.3223Z" fill="#FFD06C"/>
<path d="M14.0386 16.4883L14.0419 17.6445L13.1869 18.1382L13.1836 16.9819L14.0386 16.4883Z" fill="#57B3FE"/>
<path d="M14.0328 14.5811L14.0382 16.4886L13.1831 16.9822L13.1777 15.0747L14.0328 14.5811Z" fill="#E9E7FC"/>
<path d="M15.4437 15.082L15.4487 16.8318L14.5948 17.3248L14.5898 15.575L15.4437 15.082Z" fill="#B28AFD"/>
<path d="M15.4361 11.0859L15.4443 15.0825L14.5904 15.5755L14.5811 11.5796L15.4361 11.0859Z" fill="#E9E7FC"/>
<path d="M22.4732 6.625L22.4832 10.6374L21.6281 11.1311L21.6182 7.11865L22.4732 6.625Z" fill="#E9E7FC"/>
<path d="M22.4839 10.6377L22.49 12.7671L21.6349 13.2607L21.6289 11.1313L22.4839 10.6377Z" fill="#F45170"/>
<path d="M21.0765 12.2734L21.0814 13.5801L20.2264 14.0737L20.2227 12.7664L21.0765 12.2734Z" fill="#78E75A"/>
<path d="M21.0707 9.00684L21.0768 12.2735L20.2229 12.7665L20.2168 9.49981L21.0707 9.00684Z" fill="#E9E7FC"/>
<path d="M19.6646 10.2197L19.67 13.2365L18.8161 13.7294L18.8096 10.7134L19.6646 10.2197Z" fill="#E9E7FC"/>
<path d="M18.2544 10.0713L18.2615 13.6869L17.4065 14.1805L17.3994 10.5649L18.2544 10.0713Z" fill="#E9E7FC"/>
<path d="M18.2613 13.6875L18.2656 15.206L17.4106 15.6997L17.4062 14.1812L18.2613 13.6875Z" fill="#8FABFE"/>
<path d="M16.8519 13.0625L16.8552 15.3227L16.0013 15.8156L15.998 13.5555L16.8519 13.0625Z" fill="#E9E7FC"/>
<path d="M30.0252 15.2257C29.9944 15.2072 29.9637 15.1887 29.9268 15.1826C29.9514 15.1887 29.9698 15.1949 29.9944 15.2072C30.0068 15.2134 30.0129 15.2195 30.0252 15.2257Z" fill="#57B3FE"/>
<path d="M30.0252 15.2257C29.9944 15.2072 29.9637 15.1887 29.9268 15.1826C29.9514 15.1887 29.9698 15.1949 29.9944 15.2072C30.0068 15.2134 30.0129 15.2195 30.0252 15.2257Z" fill="#57B3FE"/>
<path d="M30.3886 22.8019C30.3947 23.5219 29.8778 24.408 29.244 24.7773L19.1332 30.6173C18.8193 30.7957 18.5301 30.8142 18.3209 30.6911L17.1147 29.9896C16.9055 29.8727 16.7763 29.6203 16.7763 29.2634L16.7578 22.4142C16.7578 21.6942 17.2686 20.808 17.8963 20.445L28.007 14.605C28.327 14.4203 28.6224 14.408 28.8317 14.525L29.9947 15.208C29.9701 15.1957 29.9517 15.1896 29.927 15.1834C29.9639 15.1896 29.9947 15.208 30.0255 15.2265C30.2409 15.3373 30.3701 15.5957 30.3701 15.9527L30.3886 22.8019Z" fill="#57B3FE"/>
<path d="M28.8286 14.5271C28.6193 14.4054 28.3284 14.422 28.0073 14.6074L17.8934 20.4467C17.269 20.8072 16.7557 21.6961 16.7578 22.4136L16.7772 29.262C16.7782 29.6184 16.9062 29.8704 17.1113 29.9896L18.3207 30.6924C18.1155 30.5732 17.9876 30.3212 17.9865 29.9647L17.9671 23.1165C17.9652 22.399 18.4783 21.51 19.1028 21.1494L29.2166 15.3102C29.5379 15.1248 29.8286 15.1083 30.0379 15.23L28.8286 14.5271Z" fill="#5094FF"/>
<path d="M29.2173 15.3095C29.8527 14.9427 30.3693 15.2371 30.3713 15.9546L30.3907 22.8029C30.3928 23.5204 29.8795 24.4094 29.2441 24.7762L19.1303 30.6155C18.5058 30.976 17.9892 30.6816 17.9872 29.9641L17.9678 23.1158C17.9657 22.3982 18.479 21.5093 19.1034 21.1488L29.2173 15.3095Z" fill="#57B3FE"/>
<path d="M18.6235 30.301C18.4787 30.301 18.4567 30.0897 18.4562 29.9633L18.4365 23.115C18.4352 22.5624 18.8562 21.8339 19.3378 21.5557L29.4517 15.7164C29.5951 15.6335 29.6909 15.6211 29.7349 15.6211C29.8792 15.6211 29.9012 15.831 29.9017 15.9565L29.9214 22.8048C29.9227 23.3574 29.4966 24.0891 29.0091 24.3705L18.8952 30.2098C18.7577 30.2891 18.6661 30.301 18.6235 30.301Z" fill="white"/>
<path d="M24.0479 20.8537L29.2679 17.8399L29.266 17.1426L24.0479 20.1553V20.8537Z" fill="#E3E7F0"/>
<path d="M24.0479 22.4373L29.2724 19.4209L29.2704 18.7236L24.0479 21.7389V22.4373Z" fill="#E3E7F0"/>
<path d="M24.0479 25.6064L26.9639 23.9229L26.9619 23.2256L24.0479 24.908V25.6064Z" fill="#E3E7F0"/>
<path d="M24.0479 24.0219L29.2769 21.0029L29.2749 20.3057L24.0479 23.3235V24.0219Z" fill="#E3E7F0"/>
<path d="M21.3546 24.7493L23.2995 23.6279C23.2552 24.8679 22.3878 26.3364 21.3253 26.9509C20.8252 27.2396 20.3531 27.2994 19.9844 27.123L21.3546 24.7493Z" fill="#78E75A"/>
<path d="M21.3984 22.3456C21.895 22.0828 22.3612 22.0479 22.7165 22.2504C23.0731 22.4532 23.2781 22.8681 23.2992 23.4284L21.4046 24.5223L21.3984 22.3456Z" fill="#DF3260"/>
<path d="M21.2257 22.4434L21.2321 24.6792L19.8618 27.0529C19.526 26.8252 19.3396 26.3897 19.3379 25.8096C19.3332 24.5895 20.1733 23.1029 21.2257 22.4434Z" fill="#986FF9"/>
</svg>
