<svg width="33" height="32" viewBox="0 0 33 32" fill="none" xmlns="http://www.w3.org/2000/svg">
<path d="M30.2147 10.8573V11.943L8.6147 24.5144L7.18613 23.7144V22.743C7.12899 22.743 7.07185 22.8001 7.0147 22.8001L6.27185 23.2001L5.87185 22.9715V21.943L5.07185 22.4001L2.78613 21.143V20.0573L24.3861 7.54297L26.729 8.9144V9.94297L27.5861 9.42868L27.9861 9.65725V10.6858L28.8433 10.1715L30.2147 10.8573Z" fill="#5EC363"/>
<path d="M26.7288 8.85742V9.94314L25.6431 10.5717C25.5288 10.6289 25.4717 10.7431 25.4717 10.8003V9.71456C25.4717 9.60028 25.5288 9.54314 25.6431 9.48599L26.7288 8.85742Z" fill="#5EC363"/>
<path d="M27.9861 9.59961V10.6853L27.0718 11.1996C26.9575 11.2568 26.9004 11.371 26.9004 11.4282V10.3425C26.9004 10.2282 26.9575 10.171 27.0718 10.1139L27.9861 9.59961Z" fill="#5EC363"/>
<path d="M5.07185 21.3138V22.3995L2.78613 21.1424V20.0566L5.07185 21.3138Z" fill="#50B069"/>
<path d="M7.01415 21.0853V22.171C7.01415 22.0567 6.957 21.9996 6.84272 21.8853C6.61415 21.771 6.21415 21.771 5.98558 21.8853L5.07129 22.3996V21.3139L5.98558 20.7996C6.21415 20.6853 6.61415 20.6853 6.84272 20.7996C6.957 20.9139 7.01415 20.971 7.01415 21.0853Z" fill="#5EC363"/>
<path d="M8.09955 21.9432V23.0289C8.09955 22.9146 8.04241 22.8575 7.92813 22.8003C7.69955 22.6861 7.29955 22.6861 7.07098 22.8003L6.32812 23.2003V22.1146L7.07098 21.7146C7.29955 21.6003 7.69955 21.6003 7.92813 21.7146C8.04241 21.7146 8.09955 21.8289 8.09955 21.9432Z" fill="#5EC363"/>
<path d="M6.32871 22.1138V23.1996L5.92871 22.9138V21.8281L6.32871 22.1138Z" fill="#50B069"/>
<path d="M30.2143 10.8574V11.9431L8.61426 24.5146V23.4289L30.2143 10.8574Z" fill="#5EC363"/>
<path d="M30.2147 10.8568L8.6147 23.4282L7.18613 22.6282L7.92899 22.2282C8.04328 22.1711 8.10042 22.0568 8.10042 21.9996C8.10042 21.8854 8.04328 21.8282 7.92899 21.7711C7.70042 21.6568 7.30042 21.6568 7.07185 21.7711L6.32899 22.1711L5.92899 21.9425L6.84328 21.4282C6.95756 21.3711 7.0147 21.2568 7.0147 21.1996C7.0147 21.0854 6.95756 21.0282 6.84328 20.9139C6.6147 20.7996 6.2147 20.7996 5.98613 20.9139L5.07185 21.3139L2.78613 19.9996L24.3861 7.48535L26.729 8.85678L25.6433 9.48535C25.4147 9.59964 25.4147 9.82821 25.6433 9.99964C25.7576 10.0568 25.929 10.1139 26.1004 10.1139C26.2718 10.1139 26.4433 10.0568 26.5576 9.99964L27.6433 9.37107L28.0433 9.59964L27.129 10.1139C26.9004 10.2282 26.9004 10.4568 27.129 10.6282C27.2433 10.6854 27.4147 10.7425 27.5861 10.7425C27.7576 10.7425 27.929 10.6854 28.0433 10.6282L28.9576 10.1139L30.2147 10.8568Z" fill="#78E75A"/>
<path d="M8.61459 23.4284V24.5141L7.24316 23.657V22.5713L8.61459 23.4284Z" fill="#50B069"/>
<path d="M9.35678 22.5717C9.12821 22.6859 8.78535 22.6859 8.61392 22.5717C8.44249 22.4574 8.44249 22.2859 8.61392 22.1717C8.78535 22.0574 9.12821 22.0574 9.35678 22.1717C9.52821 22.2859 9.52821 22.4574 9.35678 22.5717Z" fill="#5EC363"/>
<path d="M9.35712 22.5711C9.12854 22.6854 8.78569 22.6854 8.61426 22.5711C8.84283 22.4568 9.12854 22.4568 9.35712 22.5711Z" fill="white"/>
<path d="M9.75745 20.2285L10.2717 20.5142V20.7428L9.75745 21.0857L9.24316 20.7428V20.5142L9.75745 20.2285Z" fill="#111D33"/>
<path d="M25.4147 10.9145L23.529 12.0002L20.7861 10.4002V10.1717L22.6718 9.08594L25.4147 10.6859V10.9145Z" fill="#111D33"/>
<path d="M15.9283 16.6289L16.4426 16.9718V17.2003L15.9283 17.486L15.4141 17.2003V16.9718L15.9283 16.6289Z" fill="#111D33"/>
<path d="M22.3288 12.686L20.4431 13.7717L17.7002 12.2289V11.9431L19.5859 10.8574L22.3288 12.4574V12.686Z" fill="#111D33"/>
<path d="M18.9576 14.8574L19.4719 15.1431V15.4289L18.9576 15.7146L18.4434 15.4289V15.1431L18.9576 14.8574Z" fill="#111D33"/>
<path d="M19.3 14.4575L17.3571 15.6003L14.6143 14.0003V13.7718L16.5 12.6289L19.3 14.2289V14.4575Z" fill="#111D33"/>
<path d="M13.1291 18.0571L11.2434 19.1428L8.44336 17.5428L8.5005 17.3142L10.3862 16.2285L13.1291 17.8285V18.0571Z" fill="#111D33"/>
<path d="M10.0426 19.8286L8.15692 20.9143L5.41406 19.3714V19.0857L7.29978 18L10.0426 19.6V19.8286Z" fill="#111D33"/>
<path d="M22.0426 13.0859L22.5569 13.3717V13.6002L22.0426 13.9431L21.5283 13.6002V13.3717L22.0426 13.0859Z" fill="#111D33"/>
<path d="M16.214 16.2285L14.2712 17.3713L11.5283 15.7713V15.5427L13.4712 14.457L16.214 15.9999V16.2285Z" fill="#111D33"/>
<path d="M25.6428 11.6002V11.8287L25.1285 12.1145L24.6143 11.8287V11.6002L25.1285 11.3145L25.6428 11.6002Z" fill="#111D33"/>
<path d="M12.8424 18.457L13.3567 18.7427V18.9713L12.8424 19.257L12.3281 18.9713V18.7427L12.8424 18.457Z" fill="#111D33"/>
<path d="M25.414 10.6855V10.9141L23.5283 11.9998V11.7713L25.414 10.6855Z" fill="#111D33"/>
<path d="M23.5285 11.7719V12.0004L20.7285 10.4004L20.7857 10.1719L23.5285 11.7719Z" fill="#1D2943"/>
<path d="M25.4147 10.6859L23.529 11.7717L20.7861 10.1717L22.6718 9.08594L25.4147 10.6859Z" fill="#4C5C75"/>
<path d="M25.6432 11.5996V11.8282L25.1289 12.1139V11.8853L25.6432 11.5996Z" fill="#111D33"/>
<path d="M25.1285 11.8853V12.1139L24.6143 11.8282V11.5996L25.1285 11.8853Z" fill="#1D2943"/>
<path d="M25.6428 11.6002L25.1285 11.8859L24.6143 11.6002L25.1285 11.3145L25.6428 11.6002Z" fill="#4C5C75"/>
<path d="M22.3291 12.457V12.6856L20.4434 13.7713V13.5427L22.3291 12.457Z" fill="#111D33"/>
<path d="M20.4431 13.5424V13.771L17.7002 12.2281V11.9424L20.4431 13.5424Z" fill="#1D2943"/>
<path d="M22.3288 12.4574L20.4431 13.5431L17.7002 11.9431L19.5859 10.8574L22.3288 12.4574Z" fill="#4C5C75"/>
<path d="M22.5573 13.3711V13.5997L22.043 13.9425V13.6568L22.5573 13.3711Z" fill="#111D33"/>
<path d="M22.0426 13.6568V13.9425L21.5283 13.5997V13.3711L22.0426 13.6568Z" fill="#1D2943"/>
<path d="M22.5569 13.3717L22.0426 13.6574L21.5283 13.3717L22.0426 13.0859L22.5569 13.3717Z" fill="#4C5C75"/>
<path d="M19.3003 14.2285V14.4571L17.3574 15.5999V15.3142L19.3003 14.2285Z" fill="#111D33"/>
<path d="M17.3571 15.3143V15.6001L14.6143 14.0001V13.7715L17.3571 15.3143Z" fill="#1D2943"/>
<path d="M19.3 14.2289L17.3571 15.3146L14.6143 13.7718L16.5 12.6289L19.3 14.2289Z" fill="#4C5C75"/>
<path d="M19.4713 15.1426V15.4283L18.957 15.714V15.4854L19.4713 15.1426Z" fill="#111D33"/>
<path d="M18.9576 15.4854V15.714L18.4434 15.4283V15.1426L18.9576 15.4854Z" fill="#1D2943"/>
<path d="M19.4719 15.1431L18.9576 15.486L18.4434 15.1431L18.9576 14.8574L19.4719 15.1431Z" fill="#4C5C75"/>
<path d="M16.2143 16V16.2286L14.2715 17.3714V17.1429L16.2143 16Z" fill="#111D33"/>
<path d="M14.2712 17.143V17.3715L11.5283 15.7715V15.543L14.2712 17.143Z" fill="#1D2943"/>
<path d="M16.214 15.9999L14.2712 17.1427L11.5283 15.5427L13.4712 14.457L16.214 15.9999Z" fill="#4C5C75"/>
<path d="M16.443 16.9717V17.2003L15.9287 17.486V17.2574L16.443 16.9717Z" fill="#111D33"/>
<path d="M15.9283 17.2574V17.486L15.4141 17.2003V16.9717L15.9283 17.2574Z" fill="#1D2943"/>
<path d="M16.4426 16.9718L15.9283 17.2575L15.4141 16.9718L15.9283 16.6289L16.4426 16.9718Z" fill="#4C5C75"/>
<path d="M13.1289 17.8281V18.0567L11.2432 19.1424V18.9138L13.1289 17.8281Z" fill="#111D33"/>
<path d="M11.2434 18.9145V19.143L8.44336 17.543V17.3145L11.2434 18.9145Z" fill="#1D2943"/>
<path d="M13.1291 17.8285L11.2434 18.9142L8.44336 17.3142L10.3862 16.2285L13.1291 17.8285Z" fill="#4C5C75"/>
<path d="M13.3571 18.7432V18.9717L12.8428 19.2575V19.0289L13.3571 18.7432Z" fill="#111D33"/>
<path d="M12.8424 19.0289V19.2575L12.3281 18.9717V18.7432L12.8424 19.0289Z" fill="#1D2943"/>
<path d="M13.3567 18.7427L12.8424 19.0285L12.3281 18.7427L12.8424 18.457L13.3567 18.7427Z" fill="#4C5C75"/>
<path d="M10.0429 19.5996V19.8282L8.15723 20.9139V20.6853L10.0429 19.5996Z" fill="#111D33"/>
<path d="M8.15692 20.6859V20.9145L5.41406 19.3717V19.0859L8.15692 20.6859Z" fill="#1D2943"/>
<path d="M10.0426 19.6L8.15692 20.6857L5.41406 19.0857L7.29978 18L10.0426 19.6Z" fill="#4C5C75"/>
<path d="M10.2711 20.5146V20.7432L9.75684 21.0861V20.8004L10.2711 20.5146Z" fill="#111D33"/>
<path d="M9.75745 20.8004V21.0861L9.24316 20.7432V20.5146L9.75745 20.8004Z" fill="#1D2943"/>
<path d="M10.2717 20.5142L9.75745 20.7999L9.24316 20.5142L9.75745 20.2285L10.2717 20.5142Z" fill="#4C5C75"/>
<path d="M24.1 14.4005L23.3571 14.8576L22.5 14.3434L23.2429 13.9434L24.1 14.4005Z" fill="#FEBC1F"/>
<path d="M17.2997 18.4L16.5569 18.8572L15.6426 18.3429L16.3854 17.8857L17.2997 18.4Z" fill="#FEBC1F"/>
<path d="M15.0146 19.7145L14.2717 20.1716L13.3574 19.6573L14.1003 19.2002L15.0146 19.7145Z" fill="#FEBC1F"/>
<path d="M12.7284 21.0289L11.9856 21.4861L11.0713 20.9718L11.8713 20.5146L12.7284 21.0289Z" fill="#FEBC1F"/>
<path d="M27.4715 12.4576L26.3858 13.0862L25.5287 12.5719L24.7858 13.0291L25.643 13.5434L24.1001 14.4005L23.243 13.9434L22.5001 14.3434L23.3573 14.8576L21.8144 15.7719L20.9573 15.2576L20.2144 15.6576L21.0715 16.1719L19.5858 17.0862L18.6715 16.5719L17.9287 17.0291L18.7858 17.4862L17.3001 18.4005L16.3858 17.8862L15.643 18.3434L16.5573 18.8576L15.0144 19.7148L14.1001 19.2005L13.3573 19.6576L14.2715 20.1719L12.7287 21.0291L11.8715 20.5148L11.0715 20.9719L11.9858 21.4862L10.9001 22.1148L10.043 21.6005L26.6144 11.9434L27.4715 12.4576Z" fill="#FFD06C"/>
<path d="M21.8139 15.7711L21.071 16.1711L20.2139 15.6568L20.9567 15.2568L21.8139 15.7711Z" fill="#FEBC1F"/>
<path d="M26.3861 13.0856L25.6433 13.5427L24.7861 13.0284L25.529 12.5713L26.3861 13.0856Z" fill="#FEBC1F"/>
<path d="M19.5857 17.0856L18.7857 17.4856L17.9286 17.0284L18.6714 16.5713L19.5857 17.0856Z" fill="#FEBC1F"/>
<path d="M28.557 11.4291C28.3284 11.5434 27.9855 11.5434 27.8141 11.4291C27.6427 11.3148 27.6427 11.1434 27.8141 11.0291C27.9855 10.9148 28.3284 10.9148 28.557 11.0291C28.7855 11.1434 28.7855 11.3148 28.557 11.4291Z" fill="#5EC363"/>
<path d="M28.5571 11.4285C28.3285 11.5428 27.9856 11.5428 27.8142 11.4285C28.0428 11.3142 28.3856 11.3142 28.5571 11.4285Z" fill="white"/>
</svg>
