<svg width="24" height="24" viewBox="0 0 24 24" fill="none" xmlns="http://www.w3.org/2000/svg">
<path d="M2.05786 5.37109H3.38349V6.69672H2.05786V5.37109Z" fill="black"/>
<path d="M20.6166 5.37109H21.9422V6.69672H20.6166V5.37109Z" fill="black"/>
<path d="M2.05786 6.69727H3.38349V8.02289H2.05786V6.69727Z" fill="black"/>
<path d="M20.6166 6.69727H21.9422V8.02289H20.6166V6.69727Z" fill="black"/>
<path d="M2.05786 8.02344H3.38349V9.34906H2.05786V8.02344Z" fill="black"/>
<path d="M20.6166 8.02344H21.9422V9.34906H20.6166V8.02344Z" fill="black"/>
<path d="M3.38342 10.6738H4.70905V11.9995H3.38342V10.6738Z" fill="black"/>
<path d="M19.2909 10.6738H20.6165V11.9995H19.2909V10.6738Z" fill="black"/>
<path d="M2.05786 9.34961H3.38349V10.6752H2.05786V9.34961Z" fill="black"/>
<path d="M20.6166 9.34961H21.9422V10.6752H20.6166V9.34961Z" fill="black"/>
<path d="M3.38342 12H4.70905V13.3256H3.38342V12Z" fill="black"/>
<path d="M19.2909 12H20.6165V13.3256H19.2909V12Z" fill="black"/>
<path d="M4.70911 13.3262H6.03473V14.6518H4.70911V13.3262Z" fill="black"/>
<path d="M17.9653 13.3262H19.291V14.6518H17.9653V13.3262Z" fill="black"/>
<path d="M6.03467 14.6504H7.36029V15.976H6.03467V14.6504Z" fill="black"/>
<path d="M16.6396 14.6504H17.9653V15.976H16.6396V14.6504Z" fill="black"/>
<path d="M7.36035 15.9766H8.68598V17.3022H7.36035V15.9766Z" fill="black"/>
<path d="M15.3141 15.9766H16.6397V17.3022H15.3141V15.9766Z" fill="black"/>
<path d="M8.68591 17.3027H10.0115V18.6284H8.68591V17.3027Z" fill="black"/>
<path d="M13.9884 17.3027H15.314V18.6284H13.9884V17.3027Z" fill="black"/>
<path d="M3.38342 4.04688H4.70905V5.3725H3.38342V4.04688Z" fill="black"/>
<path d="M19.2909 4.04688H20.6165V5.3725H19.2909V4.04688Z" fill="black"/>
<path d="M6.03467 2.7207H7.36029V4.04633H6.03467V2.7207Z" fill="black"/>
<path d="M4.70911 2.7207H6.03473V4.04633H4.70911V2.7207Z" fill="black"/>
<path d="M7.36035 2.7207H8.68598V4.04633H7.36035V2.7207Z" fill="black"/>
<path d="M6.03467 4.04688H7.36029V5.3725H6.03467V4.04688Z" fill="#FF3646"/>
<path d="M4.70911 4.04688H6.03473V5.3725H4.70911V4.04688Z" fill="#FF3646"/>
<path d="M7.36035 4.04688H8.68598V5.3725H7.36035V4.04688Z" fill="#FF3646"/>
<path d="M16.6396 4.04688H17.9653V5.3725H16.6396V4.04688Z" fill="#FF3646"/>
<path d="M15.3141 4.04688H16.6397V5.3725H15.3141V4.04688Z" fill="#FF3646"/>
<path d="M17.9653 4.04688H19.291V5.3725H17.9653V4.04688Z" fill="#FF3646"/>
<path d="M8.68591 4.04688H10.0115V5.3725H8.68591V4.04688Z" fill="black"/>
<path d="M3.38342 5.37109H4.70905V6.69672H3.38342V5.37109Z" fill="#FF3646"/>
<path d="M6.03467 5.37109H7.36029V6.69672H6.03467V5.37109Z" fill="white"/>
<path d="M4.70911 5.37109H6.03473V6.69672H4.70911V5.37109Z" fill="white"/>
<path d="M7.36035 5.37109H8.68598V6.69672H7.36035V5.37109Z" fill="#FF3646"/>
<path d="M8.68591 5.37109H10.0115V6.69672H8.68591V5.37109Z" fill="#FF3646"/>
<path d="M3.38342 6.69727H4.70905V8.02289H3.38342V6.69727Z" fill="#FF3646"/>
<path d="M6.03467 6.69727H7.36029V8.02289H6.03467V6.69727Z" fill="#FF3646"/>
<path d="M4.70911 6.69727H6.03473V8.02289H4.70911V6.69727Z" fill="white"/>
<path d="M7.35986 6.69922H8.68549V8.02484H7.35986V6.69922Z" fill="#FF3646"/>
<path d="M8.68555 6.69922H10.0112V8.02484H8.68555V6.69922Z" fill="#FF3646"/>
<path d="M3.38306 8.02344H4.70868V9.34906H3.38306V8.02344Z" fill="#FF3646"/>
<path d="M6.0343 8.02344H7.35993V9.34906H6.0343V8.02344Z" fill="#FF3646"/>
<path d="M4.70874 8.02344H6.03437V9.34906H4.70874V8.02344Z" fill="#FF3646"/>
<path d="M7.35986 8.02344H8.68549V9.34906H7.35986V8.02344Z" fill="#FF3646"/>
<path d="M8.68555 8.02344H10.0112V9.34906H8.68555V8.02344Z" fill="#FF3646"/>
<path d="M3.38306 9.34961H4.70868V10.6752H3.38306V9.34961Z" fill="#FF3646"/>
<path d="M6.0343 9.34961H7.35993V10.6752H6.0343V9.34961Z" fill="#FF3646"/>
<path d="M4.70874 9.34961H6.03437V10.6752H4.70874V9.34961Z" fill="#FF3646"/>
<path d="M7.35986 9.34961H8.68549V10.6752H7.35986V9.34961Z" fill="#FF3646"/>
<path d="M8.68555 9.34961H10.0112V10.6752H8.68555V9.34961Z" fill="#FF3646"/>
<path d="M6.0343 10.6758H7.35993V12.0014H6.0343V10.6758Z" fill="#FF3646"/>
<path d="M4.70874 10.6758H6.03437V12.0014H4.70874V10.6758Z" fill="#FF3646"/>
<path d="M7.35986 10.6758H8.68549V12.0014H7.35986V10.6758Z" fill="#FF3646"/>
<path d="M8.68555 10.6758H10.0112V12.0014H8.68555V10.6758Z" fill="#FF3646"/>
<path d="M6.0343 12H7.35993V13.3256H6.0343V12Z" fill="#FF3646"/>
<path d="M4.70874 12H6.03437V13.3256H4.70874V12Z" fill="#FF3646"/>
<path d="M7.35986 12H8.68549V13.3256H7.35986V12Z" fill="#FF3646"/>
<path d="M8.68555 12H10.0112V13.3256H8.68555V12Z" fill="#FF3646"/>
<path d="M6.0343 13.3262H7.35993V14.6518H6.0343V13.3262Z" fill="#FF3646"/>
<path d="M7.35986 13.3262H8.68549V14.6518H7.35986V13.3262Z" fill="#FF3646"/>
<path d="M8.68555 13.3262H10.0112V14.6518H8.68555V13.3262Z" fill="#FF3646"/>
<path d="M7.35986 14.6523H8.68549V15.978H7.35986V14.6523Z" fill="#FF3646"/>
<path d="M8.68555 14.6523H10.0112V15.978H8.68555V14.6523Z" fill="#FF3646"/>
<path d="M8.68555 15.9785H10.0112V17.3041H8.68555V15.9785Z" fill="#FF3646"/>
<path d="M13.988 5.37305H15.3137V6.69867H13.988V5.37305Z" fill="#FF3646"/>
<path d="M16.6393 5.37305H17.9649V6.69867H16.6393V5.37305Z" fill="#FF3646"/>
<path d="M15.3137 5.37305H16.6393V6.69867H15.3137V5.37305Z" fill="#FF3646"/>
<path d="M17.965 5.37305H19.2906V6.69867H17.965V5.37305Z" fill="#FF3646"/>
<path d="M19.2905 5.37305H20.6162V6.69867H19.2905V5.37305Z" fill="#FF3646"/>
<path d="M13.988 6.69922H15.3137V8.02484H13.988V6.69922Z" fill="#FF3646"/>
<path d="M16.6393 6.69922H17.9649V8.02484H16.6393V6.69922Z" fill="#FF3646"/>
<path d="M15.3137 6.69922H16.6393V8.02484H15.3137V6.69922Z" fill="#FF3646"/>
<path d="M17.965 6.69922H19.2906V8.02484H17.965V6.69922Z" fill="#FF3646"/>
<path d="M19.2905 6.69922H20.6162V8.02484H19.2905V6.69922Z" fill="#FF3646"/>
<path d="M13.988 8.02344H15.3137V9.34906H13.988V8.02344Z" fill="#FF3646"/>
<path d="M16.6393 8.02344H17.9649V9.34906H16.6393V8.02344Z" fill="#FF3646"/>
<path d="M15.3137 8.02344H16.6393V9.34906H15.3137V8.02344Z" fill="#FF3646"/>
<path d="M17.965 8.02344H19.2906V9.34906H17.965V8.02344Z" fill="#FF3646"/>
<path d="M19.2905 8.02344H20.6162V9.34906H19.2905V8.02344Z" fill="#FF3646"/>
<path d="M13.988 9.34961H15.3137V10.6752H13.988V9.34961Z" fill="#FF3646"/>
<path d="M16.6393 9.34961H17.9649V10.6752H16.6393V9.34961Z" fill="#FF3646"/>
<path d="M15.3137 9.34961H16.6393V10.6752H15.3137V9.34961Z" fill="#FF3646"/>
<path d="M17.965 9.34961H19.2906V10.6752H17.965V9.34961Z" fill="#FF3646"/>
<path d="M13.988 10.6758H15.3137V12.0014H13.988V10.6758Z" fill="#FF3646"/>
<path d="M16.6393 10.6758H17.9649V12.0014H16.6393V10.6758Z" fill="#FF3646"/>
<path d="M15.3137 10.6758H16.6393V12.0014H15.3137V10.6758Z" fill="#FF3646"/>
<path d="M17.965 10.6758H19.2906V12.0014H17.965V10.6758Z" fill="#FF3646"/>
<path d="M13.988 12H15.3137V13.3256H13.988V12Z" fill="#FF3646"/>
<path d="M16.6393 12H17.9649V13.3256H16.6393V12Z" fill="#FF3646"/>
<path d="M15.3137 12H16.6393V13.3256H15.3137V12Z" fill="#FF3646"/>
<path d="M13.988 13.3262H15.3137V14.6518H13.988V13.3262Z" fill="#FF3646"/>
<path d="M16.6393 13.3262H17.9649V14.6518H16.6393V13.3262Z" fill="#FF3646"/>
<path d="M15.3137 13.3262H16.6393V14.6518H15.3137V13.3262Z" fill="#FF3646"/>
<path d="M13.988 14.6523H15.3137V15.978H13.988V14.6523Z" fill="#FF3646"/>
<path d="M13.988 15.9785H15.3137V17.3041H13.988V15.9785Z" fill="#FF3646"/>
<path d="M15.3137 14.6523H16.6393V15.978H15.3137V14.6523Z" fill="#FF3646"/>
<path d="M17.965 12H19.2906V13.3256H17.965V12Z" fill="#FF3646"/>
<path d="M19.2905 9.34961H20.6162V10.6752H19.2905V9.34961Z" fill="#FF3646"/>
<path d="M10.0116 5.37109H11.3372V6.69672H10.0116V5.37109Z" fill="black"/>
<path d="M11.3372 6.69727H12.6628V8.02289H11.3372V6.69727Z" fill="black"/>
<path d="M13.9884 4.04688H15.314V5.3725H13.9884V4.04688Z" fill="black"/>
<path d="M12.6628 5.37109H13.9885V6.69672H12.6628V5.37109Z" fill="black"/>
<path d="M10.0116 6.69727H11.3372V8.02289H10.0116V6.69727Z" fill="#FF3646"/>
<path d="M11.3372 8.02344H12.6628V9.34906H11.3372V8.02344Z" fill="#FF3646"/>
<path d="M12.6628 6.69727H13.9885V8.02289H12.6628V6.69727Z" fill="#FF3646"/>
<path d="M10.0116 8.02344H11.3372V9.34906H10.0116V8.02344Z" fill="#FF3646"/>
<path d="M11.3372 9.34961H12.6628V10.6752H11.3372V9.34961Z" fill="#FF3646"/>
<path d="M12.6628 8.02344H13.9885V9.34906H12.6628V8.02344Z" fill="#FF3646"/>
<path d="M10.0116 9.34961H11.3372V10.6752H10.0116V9.34961Z" fill="#FF3646"/>
<path d="M11.3372 10.6738H12.6628V11.9995H11.3372V10.6738Z" fill="#FF3646"/>
<path d="M12.6628 9.34961H13.9885V10.6752H12.6628V9.34961Z" fill="#FF3646"/>
<path d="M10.0116 10.6738H11.3372V11.9995H10.0116V10.6738Z" fill="#FF3646"/>
<path d="M11.3372 12H12.6628V13.3256H11.3372V12Z" fill="#FF3646"/>
<path d="M12.6628 10.6738H13.9885V11.9995H12.6628V10.6738Z" fill="#FF3646"/>
<path d="M10.0116 12H11.3372V13.3256H10.0116V12Z" fill="#FF3646"/>
<path d="M11.3372 13.3262H12.6628V14.6518H11.3372V13.3262Z" fill="#FF3646"/>
<path d="M12.6628 12H13.9885V13.3256H12.6628V12Z" fill="#FF3646"/>
<path d="M10.0116 13.3262H11.3372V14.6518H10.0116V13.3262Z" fill="#FF3646"/>
<path d="M11.3372 14.6504H12.6628V15.976H11.3372V14.6504Z" fill="#FF3646"/>
<path d="M12.6628 13.3262H13.9885V14.6518H12.6628V13.3262Z" fill="#FF3646"/>
<path d="M10.0116 14.6504H11.3372V15.976H10.0116V14.6504Z" fill="#FF3646"/>
<path d="M11.3372 15.9766H12.6628V17.3022H11.3372V15.9766Z" fill="#FF3646"/>
<path d="M12.6628 14.6504H13.9885V15.976H12.6628V14.6504Z" fill="#FF3646"/>
<path d="M10.0116 15.9766H11.3372V17.3022H10.0116V15.9766Z" fill="#FF3646"/>
<path d="M11.3372 17.3027H12.6628V18.6284H11.3372V17.3027Z" fill="#FF3646"/>
<path d="M12.6628 15.9766H13.9885V17.3022H12.6628V15.9766Z" fill="#FF3646"/>
<path d="M10.0116 17.3027H11.3372V18.6284H10.0116V17.3027Z" fill="#FF3646"/>
<path d="M11.3372 18.6289H12.6628V19.9545H11.3372V18.6289Z" fill="#FF3646"/>
<path d="M12.6628 17.3027H13.9885V18.6284H12.6628V17.3027Z" fill="#FF3646"/>
<path d="M10.0116 18.6289H11.3372V19.9545H10.0116V18.6289Z" fill="black"/>
<path d="M11.3372 19.9531H12.6628V21.2787H11.3372V19.9531Z" fill="black"/>
<path d="M12.6628 18.6289H13.9885V19.9545H12.6628V18.6289Z" fill="black"/>
<path d="M15.3141 2.7207H16.6397V4.04633H15.3141V2.7207Z" fill="black"/>
<path d="M16.6396 2.7207H17.9653V4.04633H16.6396V2.7207Z" fill="black"/>
<path d="M17.9653 2.7207H19.291V4.04633H17.9653V2.7207Z" fill="black"/>
</svg>
