<svg width="33" height="32" viewBox="0 0 33 32" fill="none" xmlns="http://www.w3.org/2000/svg">
<path d="M19.2796 6.70068C19.3961 6.63344 19.4918 6.68802 19.4922 6.82185C19.4926 6.95788 19.3974 7.12051 19.281 7.18775L17.198 8.39008C17.0815 8.45733 16.9857 8.40494 16.9854 8.26891C16.985 8.13508 17.0801 7.97026 17.1966 7.90301L19.2796 6.70068Z" fill="#4C5C75"/>
<path d="M16.5327 8.28563C16.653 8.21618 16.745 8.27297 16.7453 8.40681C16.7457 8.54283 16.6544 8.70325 16.5341 8.7727L16.4138 8.84215C16.2973 8.9094 16.2016 8.85701 16.2012 8.72098C16.2008 8.58715 16.2959 8.42233 16.4124 8.35508L16.5327 8.28563Z" fill="#4C5C75"/>
<path d="M24.2447 22.2863C24.2507 23.1738 23.6228 24.2606 22.8499 24.7074L13.1654 30.2984C12.779 30.5218 12.4228 30.5459 12.1692 30.395L9.21673 28.6803C8.96315 28.5353 8.81221 28.2214 8.80617 27.7806L8.75786 9.71571C8.75185 8.82818 9.37976 7.73535 10.1526 7.28853L19.8371 1.69762C20.2235 1.47419 20.5798 1.45609 20.8333 1.60099L23.7315 3.28551C23.7435 3.29155 23.7556 3.2976 23.7677 3.30968C24.0273 3.44854 24.1903 3.76251 24.1964 4.21534L24.2447 22.2863Z" fill="#1D2943"/>
<path d="M23.7825 3.31716C23.5283 3.17062 23.1754 3.19156 22.7866 3.41585L13.1032 9.00521C12.3286 9.4538 11.7036 10.5394 11.7066 11.4276L11.7574 29.4965C11.7574 29.9361 11.9159 30.2472 12.1671 30.3937L9.21545 28.6801C8.96424 28.5336 8.80872 28.2226 8.80575 27.78L8.75489 9.71397C8.7519 8.82578 9.37993 7.73722 10.1515 7.29163L19.8379 1.69927C20.2237 1.47498 20.5766 1.45404 20.8338 1.60357L23.7825 3.31716Z" fill="#4C5C75"/>
<path d="M22.7873 3.41607C23.5606 2.96961 24.1908 3.33095 24.1933 4.21953L24.2446 22.2872C24.2471 23.1758 23.6209 24.2603 22.8477 24.7068L13.1633 30.298C12.39 30.7445 11.7598 30.3853 11.7573 29.4968L11.7061 11.4291C11.7035 10.5405 12.3297 9.45378 13.103 9.00732L22.7873 3.41607Z" fill="#1D2943"/>
<path d="M22.6144 5.12117C22.8836 4.96574 23.102 5.09238 23.1029 5.40173L23.1478 21.271C23.1487 21.5804 22.9318 21.9584 22.6625 22.1138L13.3372 27.4978C13.068 27.6532 12.8496 27.5266 12.8487 27.2173L12.8037 11.3501C12.8028 11.0408 13.0217 10.6595 13.2909 10.5041L15.1621 9.42374C15.3645 9.30689 15.5501 9.32722 15.648 9.47723L15.7786 9.67872C15.8747 9.82764 16.0622 9.84686 16.2646 9.73001L19.6422 7.77991C19.8446 7.66305 20.0314 7.42777 20.1263 7.1686L20.2553 6.8172C20.3521 6.55474 20.537 6.32056 20.7413 6.2026L22.6144 5.12117Z" fill="white"/>
<path d="M17.9731 25.4011C18.313 25.2049 18.5908 25.361 18.5919 25.7515C18.593 26.1442 18.317 26.62 17.9771 26.8162C17.6373 27.0125 17.3595 26.8564 17.3584 26.4637C17.3573 26.0731 17.6333 25.5973 17.9731 25.4011Z" fill="#4C5C75"/>
<path d="M11.0884 15.2055C11.0884 15.4409 11.0039 15.6039 10.871 15.6824L10.3759 15.9662C10.2371 16.0628 10.0439 16.0568 9.82651 15.93C9.41595 15.6945 9.08388 15.127 9.08992 14.656C9.08992 14.3964 9.19256 14.2273 9.34954 14.1609L9.82651 13.8771C9.95936 13.8047 10.1465 13.8107 10.3518 13.9315C10.7624 14.1669 11.0884 14.7405 11.0884 15.2055Z" fill="#DEDFFA"/>
<path d="M9.08992 11.9021C9.08992 11.6425 9.19256 11.4734 9.34954 11.407L9.82651 11.1232C9.95936 11.0508 10.1465 11.0568 10.3518 11.1776C10.7624 11.413 11.0884 11.9866 11.0884 12.4515C11.0884 12.687 11.0039 12.85 10.871 12.9285L10.3759 13.2123C10.2371 13.3089 10.0439 13.3029 9.82651 13.176C9.41595 12.9406 9.08388 12.3731 9.08992 11.9021Z" fill="#DEDFFA"/>
<path d="M11.0897 12.455C11.0864 12.6879 11.0044 12.8519 10.8732 12.9307L10.3515 13.2309C10.4827 13.1555 10.5647 12.9915 10.5647 12.7553C10.568 12.2927 10.24 11.7153 9.82989 11.4791C9.64618 11.3742 9.4756 11.3545 9.34766 11.407L9.82666 11.1264C9.96116 11.0509 10.1449 11.0607 10.3515 11.1789C10.7616 11.415 11.0897 11.9891 11.0897 12.455Z" fill="white"/>
<path d="M9.82881 11.48C10.2382 11.7163 10.5672 12.2909 10.5659 12.7566C10.5645 13.2271 10.2334 13.4158 9.82399 13.1794C9.41456 12.943 9.08558 12.3732 9.08692 11.9027C9.08824 11.437 9.41937 11.2436 9.82881 11.48Z" fill="#DEDFFA"/>
<path d="M11.0897 15.2069C11.0864 15.4398 11.0044 15.6039 10.8732 15.6826L10.3515 15.9829C10.4827 15.9075 10.5647 15.7434 10.5647 15.5072C10.568 15.0447 10.24 14.4673 9.82989 14.2311C9.64618 14.1261 9.4756 14.1064 9.34766 14.1589L9.82666 13.8783C9.96116 13.8029 10.1449 13.8127 10.3515 13.9308C10.7616 14.167 11.0897 14.7411 11.0897 15.2069Z" fill="white"/>
<path d="M9.82881 14.2319C10.2382 14.4683 10.5672 15.0429 10.5659 15.5085C10.5645 15.979 10.2334 16.1677 9.82399 15.9313C9.41456 15.6949 9.08558 15.1251 9.08692 14.6547C9.08824 14.189 9.41937 13.9955 9.82881 14.2319Z" fill="#DEDFFA"/>
<path d="M21.2804 3.36666C21.2362 3.42355 21.173 3.48043 21.0908 3.52463C20.6674 3.76475 19.9787 3.75847 19.5616 3.51834C19.4732 3.46778 19.4037 3.41089 19.3594 3.34772C19.1509 3.11392 19.2078 2.82324 19.5427 2.62736C19.9597 2.38724 20.6611 2.38724 21.0845 2.62736C21.4257 2.82324 21.4889 3.12658 21.2804 3.36666Z" fill="#EDEEF2"/>
<path d="M21.2803 3.36779C21.2361 3.42467 21.1729 3.48156 21.0907 3.52576C20.6674 3.76588 19.9787 3.7596 19.5616 3.51947C19.4731 3.46891 19.4036 3.41202 19.3594 3.34885C19.4036 3.29829 19.4668 3.24773 19.5426 3.20353C19.9597 2.96341 20.6611 2.96341 21.0845 3.20353C21.1729 3.25405 21.2361 3.31094 21.2803 3.36779Z" fill="#111D33"/>
<path d="M11.894 9.14428C11.16 9.14428 10.5661 9.73816 10.5661 10.4722C10.5661 10.1058 10.417 9.77287 10.1779 9.53249C9.93756 9.29339 9.60463 9.14428 9.23828 9.14428C9.60463 9.14428 9.93756 8.99517 10.1779 8.75607C10.417 8.51569 10.5661 8.18276 10.5661 7.81641C10.5661 8.18276 10.7153 8.51569 10.9544 8.75607C11.1947 8.99517 11.5277 9.14428 11.894 9.14428Z" fill="white"/>
<path d="M19.4613 10.5957L19.4915 21.2621L16.082 23.2762L16.0518 12.6098L19.4613 10.5957Z" fill="#162034"/>
<path d="M23.7851 20.0528C23.7791 21.4173 23.3021 22.3833 22.5233 22.8362L20.9836 23.7237C20.9595 23.7418 20.9293 23.7599 20.8991 23.778H20.8931C20.887 23.7841 20.887 23.7841 20.881 23.7841L20.8447 23.8083C20.8568 23.8022 20.8629 23.7962 20.8749 23.7841C20.0779 24.2671 18.9912 24.2067 17.7655 23.5064C17.4455 23.3192 17.1315 23.0898 16.8236 22.8362C16.564 22.6249 16.3164 22.3894 16.0749 22.1298C16.0755 22.223 16.0759 20.9359 16.0508 12.9705V12.6082L16.9987 12.0528C17.6991 11.8897 18.5444 12.0528 19.4682 12.5781C19.4682 12.5841 19.4742 12.5841 19.4742 12.5841C21.8591 13.9667 23.7912 17.3056 23.7851 20.0528Z" fill="#F9A83D"/>
<path d="M23.7869 20.0521C23.7737 22.9751 21.8826 22.9652 20.8479 23.8078C21.6214 23.3562 22.1101 22.3971 22.1101 21.0297C22.1305 17.6389 19.0759 13.2107 16.0527 12.9676V12.6087L16.9994 12.0519C17.6986 11.891 18.5462 12.0519 19.4681 12.5778C19.4681 12.584 19.4743 12.584 19.4743 12.584C21.8627 13.9638 23.7931 17.3049 23.7869 20.0521Z" fill="#FFD06C"/>
<path d="M22.104 20.703C22.0978 20.6287 22.0916 20.5606 22.0854 20.4926V20.4678C22.0854 20.4554 22.0854 20.4492 22.0792 20.4369C22.0518 19.9442 21.8601 19.0047 21.5347 18.2094V18.2032C21.4357 17.9372 21.3182 17.6773 21.1882 17.4175V17.4113C20.8505 16.6984 20.21 15.6992 19.4743 14.9177V14.9116C18.7266 14.1638 17.5145 13.1971 16.6529 13.0739C16.591 13.0553 16.5291 13.043 16.4673 13.0306C16.325 12.9997 16.1888 12.9811 16.0527 12.9688L16.0589 14.4785C16.0775 14.4723 16.0961 14.4723 16.1146 14.4661C16.6034 14.398 17.1788 14.5279 17.7914 14.8868C18.8971 15.5502 19.8102 16.6757 20.322 17.8134C20.3282 17.8196 20.3282 17.8258 20.3344 17.832C20.6646 18.4921 20.9531 19.502 20.9531 20.3688V20.375C20.9531 20.8848 20.8526 21.412 20.588 21.8476C20.143 22.5523 19.2697 22.9031 18.0079 22.3055C17.9584 22.2807 17.9089 22.2498 17.8594 22.225C17.8285 22.2127 17.8037 22.2003 17.7728 22.1817C17.5563 22.058 17.3397 21.9033 17.1355 21.7362C17.0675 21.6743 16.9994 21.6187 16.9313 21.5568C16.622 21.2846 16.3312 20.9752 16.0775 20.6287V22.1322C16.3188 22.3921 16.5663 22.6272 16.8262 22.8376C17.1293 23.0913 17.4449 23.3202 17.7666 23.5058C18.9917 24.205 20.0869 24.2668 20.8789 23.7842C20.8851 23.7842 20.8913 23.7842 20.8974 23.7781C21.5192 23.4051 21.891 22.6397 22.0174 22.0085C22.0297 21.9404 22.0421 21.8661 22.0483 21.7919C22.0483 21.7857 22.0483 21.7857 22.0483 21.7795C22.0483 21.7734 22.0545 21.7672 22.0545 21.761C22.0668 21.7177 22.073 21.6743 22.073 21.6311V21.6001C22.0884 21.5464 22.1101 21.1264 22.1101 21.0309V20.9937C22.1101 20.8948 22.1101 20.7957 22.104 20.703Z" fill="#F9A83D"/>
<path d="M20.9528 20.3693V20.3755C20.9528 20.8853 20.8522 21.4125 20.5877 21.8481C20.1437 22.5511 19.2689 22.9034 18.0076 22.306C17.9581 22.2812 17.9086 22.2503 17.8591 22.2255C17.8344 22.207 17.8034 22.1946 17.7725 22.176C17.5559 22.0523 17.3393 21.9038 17.1352 21.7368C17.0671 21.6749 16.999 21.6192 16.931 21.5573C16.6216 21.2851 16.3308 20.9757 16.0771 20.6292L16.0586 14.479C16.0771 14.4728 16.0957 14.4728 16.1143 14.4666C16.6031 14.3986 17.1785 14.5285 17.791 14.8873C18.8886 15.5458 19.8051 16.6656 20.3217 17.814C20.3279 17.8201 20.3279 17.8263 20.334 17.8325C20.6979 18.651 20.9528 19.4738 20.9528 20.3693Z" fill="#FFD06C"/>
<path d="M18.7378 19.2579C18.6534 19.0893 18.5497 18.9336 18.4264 18.8039C18.3162 18.6872 18.18 18.5575 18.0243 18.4213V17.5328C18.1865 17.6365 18.3357 17.7662 18.4848 17.9089L18.5626 17.9673C18.621 18.0062 18.6729 18.0127 18.7118 17.9803C18.7507 17.9543 18.7637 17.9089 18.7637 17.844C18.7637 17.7338 18.7183 17.6236 18.6275 17.5392C18.4524 17.3512 18.2514 17.1891 18.0243 17.0464V16.8194C18.0243 15.9986 17.7476 16.842 17.6871 16.8583C17.525 16.7869 17.3823 16.7545 17.2656 16.7675C17.1358 16.7805 17.0321 16.8258 16.9672 16.9231C16.8959 17.0204 16.8635 17.1501 16.8635 17.3122C16.8635 17.4874 16.9024 17.669 16.9867 17.8311C17.071 17.9932 17.1748 18.1424 17.2915 18.2786C17.4018 18.3953 17.525 18.525 17.6806 18.6547V19.5108C17.4861 19.3876 17.3045 19.2254 17.1294 19.0374C17.1034 19.005 17.071 18.979 17.0386 18.9596C16.9867 18.9271 16.9283 18.9206 16.8894 18.9466C16.8505 18.9725 16.8311 19.0179 16.8311 19.0828C16.8311 19.1347 16.844 19.193 16.87 19.2449L16.9672 19.4006C17.1877 19.634 17.4277 19.8351 17.6741 20.0037V20.2501C17.6741 20.302 17.6936 20.3604 17.726 20.4123C17.752 20.4707 17.7974 20.5096 17.8428 20.5355C17.8882 20.5614 17.9335 20.5679 17.966 20.5549C17.9984 20.5355 18.0179 20.4966 18.0179 20.4447V20.2047C18.167 20.2761 18.3097 20.315 18.4329 20.315C18.5691 20.3215 18.6729 20.2761 18.7572 20.1853C18.8285 20.101 18.8674 19.9713 18.8674 19.8091C18.8674 19.6146 18.8285 19.4265 18.7378 19.2579ZM17.6806 18.1229C17.5639 18.0127 17.4731 17.9154 17.4082 17.8246C17.3434 17.7338 17.311 17.6365 17.311 17.5328C17.311 17.4225 17.3499 17.3576 17.4212 17.3382C17.4925 17.3122 17.5769 17.3187 17.6871 17.3576L17.6806 18.1229ZM18.0179 19.7053V18.9531C18.1476 19.0763 18.2514 19.18 18.3227 19.2708C18.3875 19.3552 18.4199 19.4395 18.4199 19.5303C18.4199 19.6794 18.381 19.861 18.0179 19.7053Z" fill="#F9A83D"/>
</svg>
