<svg width="100" height="101" viewBox="0 0 100 101" fill="none" xmlns="http://www.w3.org/2000/svg">
<path d="M41.1132 99.6165C40.8416 99.6165 40.5766 99.4832 40.4166 99.2382C40.1732 98.8682 40.2616 98.3732 40.6182 98.1115L42.1582 96.9749L38.8766 98.8682C38.5066 99.0865 38.0282 98.9815 37.7782 98.6265C37.5316 98.2732 37.5932 97.7899 37.9199 97.5115L41.8432 94.1782L37.4066 96.7399C37.0332 96.9599 36.5549 96.8499 36.3082 96.4965C36.0616 96.1432 36.1232 95.6582 36.4532 95.3815L37.7499 94.2882L36.5282 94.9932C36.1666 95.2065 35.6966 95.1115 35.4432 94.7682C35.1916 94.4282 35.2332 93.9532 35.5432 93.6649L36.0349 93.2032L35.7216 93.3832C35.4449 93.5449 35.0982 93.5315 34.8349 93.3482C34.5699 93.1682 34.4332 92.8515 34.4816 92.5349L34.8482 90.1682C34.6382 90.1149 34.4499 89.9799 34.3332 89.7782C34.1016 89.3799 34.2382 88.8699 34.6382 88.6399L35.4732 88.1582C35.7482 87.9965 36.0949 88.0082 36.3599 88.1932C36.6249 88.3732 36.7616 88.6899 36.7132 89.0065L36.3949 91.0715L41.4582 88.1482C41.8199 87.9349 42.2882 88.0315 42.5432 88.3732C42.7949 88.7132 42.7532 89.1882 42.4432 89.4765L41.9532 89.9365L45.0632 88.1415C45.4349 87.9232 45.9149 88.0315 46.1616 88.3849C46.4082 88.7382 46.3466 89.2232 46.0166 89.4999L44.7182 90.5949L48.9799 88.1349C49.3532 87.9182 49.8282 88.0232 50.0782 88.3765C50.3249 88.7299 50.2632 89.2132 49.9366 89.4915L46.0132 92.8249L54.1516 88.1282C54.5332 87.9049 55.0232 88.0249 55.2649 88.3915C55.5082 88.7632 55.4199 89.2582 55.0632 89.5199L53.5216 90.6582L57.9166 88.1232C58.2899 87.9049 58.7699 88.0115 59.0166 88.3665C59.2632 88.7215 59.1982 89.2065 58.8666 89.4832L54.3916 93.2149L63.2316 88.1115C63.6066 87.8899 64.0883 88.0015 64.3349 88.3599C64.5799 88.7182 64.5099 89.2065 64.1716 89.4799L60.1066 92.7749L64.5399 90.2165C64.9099 90.0032 65.3832 90.1049 65.6332 90.4515C65.8816 90.7999 65.8282 91.2799 65.5082 91.5632L62.8666 93.8915L63.4799 93.5382C63.8349 93.3282 64.2916 93.4182 64.5499 93.7415C64.8082 94.0649 64.7882 94.5299 64.5049 94.8299L62.9066 96.5315C62.9916 96.5965 63.0649 96.6782 63.1199 96.7749C63.3516 97.1732 63.2149 97.6832 62.8149 97.9132L60.0716 99.4965C59.7166 99.7049 59.2599 99.6165 59.0016 99.2932C58.7432 98.9699 58.7633 98.5049 59.0466 98.2049L59.4232 97.8049L56.4816 99.5032C56.1149 99.7199 55.6416 99.6182 55.3883 99.2682C55.1399 98.9199 55.1932 98.4399 55.5132 98.1565L58.1532 95.8282L51.7882 99.5032C51.4132 99.7232 50.9316 99.6115 50.6849 99.2549C50.4399 98.8965 50.5099 98.4082 50.8482 98.1349L54.9132 94.8399L46.8349 99.5032C46.4616 99.7232 45.9816 99.6132 45.7349 99.2599C45.4882 98.9065 45.5532 98.4199 45.8849 98.1432L50.3632 94.4082L41.5349 99.5049C41.4049 99.5815 41.2599 99.6165 41.1182 99.6165H41.1132Z" fill="#495659"/>
<path d="M37.2416 92.9502C36.9616 92.9502 36.6882 92.8085 36.5316 92.5535C36.2949 92.1701 36.4082 91.6668 36.7849 91.4185L37.0282 91.2602L34.5232 92.7052C34.1366 92.9302 33.6449 92.8085 33.4049 92.4335C33.1632 92.0585 33.2616 91.5618 33.6249 91.3035L42.1716 85.2552L32.4232 90.8818C32.0416 91.1035 31.5549 90.9868 31.3132 90.6235C31.0699 90.2568 31.1516 89.7651 31.4999 89.4985L40.3699 82.7285L32.1332 87.4852C31.7616 87.7035 31.2816 87.5951 31.0349 87.2418C30.7882 86.8885 30.8499 86.4035 31.1799 86.1268L37.3149 80.9551L32.1349 83.9452C31.7782 84.1535 31.3216 84.0651 31.0632 83.7401C30.8082 83.4168 30.8266 82.9518 31.1116 82.6518L34.4499 79.1285L32.1332 80.4651C31.8516 80.6301 31.4982 80.6118 31.2316 80.4218C30.9649 80.2318 30.8366 79.9018 30.8999 79.5818L31.4499 76.8218C31.2649 76.7585 31.0999 76.6318 30.9966 76.4485C30.7649 76.0501 30.9016 75.5402 31.3016 75.3102L32.1366 74.8285C32.4232 74.6635 32.7716 74.6818 33.0382 74.8718C33.3049 75.0618 33.4332 75.3918 33.3699 75.7118L32.8949 78.1018L38.5799 74.8201C38.9349 74.6118 39.3932 74.6985 39.6516 75.0251C39.9066 75.3485 39.8882 75.8135 39.6032 76.1135L36.2649 79.6368L44.6282 74.8101C45.0016 74.5918 45.4799 74.7018 45.7266 75.0535C45.9732 75.4068 45.9116 75.8918 45.5816 76.1685L39.4466 81.3402L50.7699 74.8035C51.1482 74.5802 51.6382 74.6985 51.8799 75.0618C52.1232 75.4285 52.0416 75.9201 51.6932 76.1868L42.8216 82.9585L56.9616 74.7951C57.3432 74.5701 57.8399 74.6918 58.0799 75.0668C58.3216 75.4418 58.2232 75.9385 57.8599 76.1968L49.3082 82.2485L62.2316 74.7885C62.6232 74.5585 63.1232 74.6885 63.3582 75.0735C63.5949 75.4568 63.4816 75.9601 63.1049 76.2085L62.8666 76.3635L65.6032 74.7851C65.9832 74.5618 66.4716 74.6768 66.7149 75.0468C66.9582 75.4152 66.8732 75.9101 66.5199 76.1735L55.5282 84.4001L67.8682 77.2768C68.2466 77.0535 68.7332 77.1685 68.9766 77.5335C69.2199 77.8985 69.1416 78.3885 68.7949 78.6568L60.3316 85.1968L67.8682 80.8452C68.2432 80.6252 68.7232 80.7368 68.9699 81.0918C69.2166 81.4468 69.1482 81.9352 68.8116 82.2102L63.8516 86.2685L67.8666 83.9501C68.2316 83.7368 68.7016 83.8352 68.9549 84.1785C69.2049 84.5218 69.1582 84.9985 68.8466 85.2868L66.3266 87.5951L67.8666 86.7068C68.2149 86.5018 68.6616 86.5818 68.9216 86.8918C69.1816 87.2018 69.1816 87.6535 68.9216 87.9651L67.9332 89.1385C68.2599 89.0835 68.6232 89.2285 68.8016 89.5418C69.0332 89.9401 68.8966 90.4502 68.4966 90.6802L64.7499 92.8435C64.4016 93.0485 63.9549 92.9668 63.6949 92.6585C63.4349 92.3468 63.4349 91.8968 63.6949 91.5852L64.5916 90.5202L60.5666 92.8435C60.2032 93.0585 59.7316 92.9602 59.4782 92.6152C59.2282 92.2718 59.2749 91.7951 59.5866 91.5068L62.1066 89.2002L55.7949 92.8435C55.4216 93.0635 54.9399 92.9518 54.6932 92.5968C54.4466 92.2418 54.5149 91.7535 54.8516 91.4785L59.8099 87.4218L50.4182 92.8435C50.0416 93.0651 49.5516 92.9518 49.3099 92.5868C49.0666 92.2218 49.1449 91.7318 49.4916 91.4635L57.9582 84.9218L44.2366 92.8435C43.8549 93.0651 43.3682 92.9485 43.1249 92.5818C42.8816 92.2135 42.9666 91.7185 43.3199 91.4552L54.3099 83.2302L37.6582 92.8435C37.5266 92.9201 37.3832 92.9551 37.2416 92.9551V92.9502Z" fill="#5D6B70"/>
<path d="M35.2582 79.6164C34.9782 79.6164 34.7049 79.4748 34.5482 79.2198C34.3099 78.8348 34.4249 78.3314 34.8032 78.0848L56.6799 63.8514L30.3966 79.0248C30.0016 79.2531 29.4982 79.1214 29.2649 78.7314C29.0299 78.3431 29.1532 77.8364 29.5382 77.5948L41.2949 70.2748L29.0132 77.3648C28.6199 77.5964 28.1199 77.4648 27.8832 77.0731C27.6482 76.6864 27.7682 76.1798 28.1516 75.9381L47.6732 63.6398L28.7882 74.5431C28.3966 74.7731 27.8949 74.6448 27.6582 74.2514C27.4216 73.8631 27.5432 73.3581 27.9266 73.1164L47.0516 61.0914L28.5766 71.7564C28.1849 71.9864 27.6849 71.8564 27.4482 71.4681C27.2116 71.0798 27.3299 70.5781 27.7099 70.3331L53.7532 53.6614L27.8932 68.5914C27.4966 68.8198 26.9932 68.6881 26.7616 68.2981C26.5266 67.9081 26.6516 67.4014 27.0366 67.1614L38.1982 60.2498L27.2066 66.5964C26.8149 66.8248 26.3132 66.6964 26.0766 66.3081C25.8416 65.9198 25.9599 65.4164 26.3416 65.1714L51.1766 49.3614L25.9666 63.9148C25.5699 64.1448 25.0666 64.0131 24.8332 63.6198C24.5999 63.2264 24.7266 62.7214 25.1132 62.4814L29.1149 60.0281L25.0549 62.3714C24.6582 62.5998 24.1566 62.4681 23.9232 62.0781C23.6882 61.6881 23.8116 61.1831 24.1982 60.9414L39.0632 51.7014L23.7632 60.5331C23.3716 60.7631 22.8699 60.6348 22.6332 60.2431C22.3982 59.8548 22.5182 59.3498 22.8999 59.1064L46.6416 44.0864L22.0449 58.2864C21.6532 58.5164 21.1516 58.3864 20.9149 57.9964C20.6799 57.6081 20.7999 57.1031 21.1832 56.8598L44.5849 42.0831L20.5232 55.9748C20.1282 56.2031 19.6249 56.0714 19.3916 55.6814C19.1566 55.2914 19.2799 54.7848 19.6666 54.5448L34.6966 45.2148L19.4249 54.0314C19.0332 54.2631 18.5282 54.1314 18.2932 53.7398C18.0582 53.3514 18.1799 52.8464 18.5649 52.6031L39.6932 39.3314L18.2949 51.6848C17.8982 51.9131 17.3982 51.7814 17.1632 51.3914C16.9282 51.0014 17.0516 50.4964 17.4382 50.2548L32.0399 41.1881L17.4766 49.5964C17.0849 49.8281 16.5832 49.6964 16.3466 49.3064C16.1116 48.9198 16.2299 48.4148 16.6132 48.1714L40.5199 32.9998L16.6199 46.7981C16.2282 47.0281 15.7249 46.8981 15.4882 46.5064C15.2532 46.1164 15.3766 45.6114 15.7616 45.3698L32.2499 35.0581L16.0732 44.3981C15.6766 44.6281 15.1732 44.4964 14.9416 44.1048C14.7066 43.7148 14.8316 43.2081 15.2166 42.9681L24.6882 37.1031L15.7366 42.2714C15.3399 42.4998 14.8366 42.3681 14.6049 41.9781C14.3699 41.5881 14.4949 41.0814 14.8816 40.8414L22.1132 36.3681L15.5349 40.1648C15.1382 40.3931 14.6366 40.2614 14.4032 39.8714C14.1682 39.4831 14.2916 38.9764 14.6766 38.7348L24.6432 32.5281L15.4532 37.8331C15.0616 38.0631 14.5599 37.9348 14.3232 37.5431C14.0882 37.1548 14.2082 36.6498 14.5916 36.4064L28.2632 27.7881L15.5716 35.1148C15.1799 35.3448 14.6816 35.2148 14.4416 34.8264C14.2066 34.4398 14.3249 33.9348 14.7066 33.6898L30.1916 23.8048L15.9416 32.0314C15.5482 32.2581 15.0549 32.1331 14.8166 31.7498C14.5782 31.3681 14.6882 30.8681 15.0616 30.6164L36.0149 16.6298L16.9832 27.6181C16.5916 27.8464 16.0916 27.7198 15.8549 27.3314C15.6182 26.9464 15.7349 26.4414 16.1149 26.1964L25.4849 20.1531L18.1432 24.3914C17.7499 24.6231 17.2516 24.4914 17.0132 24.1031C16.7782 23.7164 16.8966 23.2114 17.2782 22.9664L19.3666 21.6348C18.9999 21.7781 18.5749 21.6481 18.3599 21.3064C18.1199 20.9298 18.2199 20.4331 18.5866 20.1748L29.0616 12.8498L22.7566 16.4898C22.3766 16.7114 21.8882 16.5931 21.6449 16.2281C21.4016 15.8581 21.4866 15.3648 21.8399 15.1014L27.7566 10.6814C27.5899 10.6131 27.4466 10.4931 27.3516 10.3264C27.1199 9.9281 27.2566 9.4181 27.6566 9.1881L36.9132 3.84477C37.2916 3.62143 37.7816 3.73977 38.0266 4.10643C38.2699 4.47643 38.1832 4.96977 37.8299 5.2331L34.1166 8.0081L44.8799 1.7931C45.2616 1.56643 45.7599 1.68977 45.9999 2.06643C46.2399 2.4431 46.1399 2.93977 45.7732 3.1981L35.2916 10.5264L50.9316 1.53477C51.3266 1.3081 51.8249 1.43643 52.0616 1.8231C52.2966 2.20977 52.1782 2.71477 51.7966 2.95977L49.9066 4.16477L54.0316 1.78477C54.4249 1.5581 54.9249 1.6831 55.1599 2.07143C55.3966 2.45643 55.2799 2.96143 54.8999 3.20643L45.5432 9.24143L57.4232 2.3831C57.8116 2.1531 58.3099 2.27977 58.5482 2.66477C58.7866 3.04643 58.6766 3.54643 58.3032 3.7981L37.3449 17.7881L61.7632 3.68477C62.1566 3.4581 62.6566 3.58643 62.8932 3.9731C63.1282 4.35977 63.0099 4.86477 62.6282 5.10977L47.1382 14.9998L64.6299 4.89977C65.0249 4.67143 65.5249 4.79977 65.7599 5.18977C65.9949 5.57977 65.8749 6.0831 65.4916 6.32643L51.8166 14.9464L67.0299 6.1631C67.4232 5.9331 67.9249 6.06477 68.1616 6.45643C68.3966 6.84477 68.2732 7.35143 67.8882 7.5931L57.9316 13.7931L69.0066 7.39977C69.3999 7.16977 69.9049 7.30143 70.1382 7.6931C70.3732 8.0831 70.2482 8.58977 69.8616 8.82977L62.6266 13.3048L70.7249 8.62977C71.1182 8.3981 71.6232 8.52977 71.8566 8.9231C72.0916 9.3131 71.9666 9.81977 71.5816 10.0598L62.1099 15.9248L72.3982 9.98643C72.7932 9.75643 73.2932 9.8881 73.5299 10.2781C73.7649 10.6681 73.6416 11.1731 73.2566 11.4148L56.7882 21.7131L74.2116 11.6548C74.6066 11.4281 75.1066 11.5564 75.3416 11.9448C75.5766 12.3314 75.4582 12.8364 75.0749 13.0798L51.1616 28.2531L76.1916 13.8031C76.5849 13.5714 77.0866 13.7031 77.3232 14.0964C77.5582 14.4864 77.4349 14.9914 77.0482 15.2331L62.4432 24.3014L77.5916 15.5564C77.9849 15.3298 78.4882 15.4564 78.7232 15.8481C78.9582 16.2364 78.8366 16.7414 78.4516 16.9848L57.3199 30.2581L79.0832 17.6948C79.4766 17.4648 79.9782 17.5964 80.2149 17.9881C80.4499 18.3781 80.3266 18.8848 79.9399 19.1248L64.9349 28.4381L80.2166 19.6164C80.6116 19.3881 81.1116 19.5181 81.3466 19.9064C81.5816 20.2948 81.4616 20.7998 81.0782 21.0431L57.6616 35.8298L81.4482 22.0964C81.8432 21.8681 82.3449 21.9964 82.5782 22.3864C82.8132 22.7748 82.6932 23.2798 82.3116 23.5231L58.5482 38.5581L82.5182 24.7198C82.9132 24.4898 83.4132 24.6214 83.6499 25.0131C83.8849 25.4031 83.7616 25.9081 83.3749 26.1498L68.5382 35.3731L83.2099 26.9031C83.6032 26.6731 84.1066 26.8031 84.3432 27.1981C84.5766 27.5898 84.4499 28.0964 84.0632 28.3364L80.0732 30.7798L83.6699 28.7048C84.0649 28.4764 84.5649 28.6064 84.7999 28.9931C85.0349 29.3814 84.9166 29.8848 84.5349 30.1298L59.7066 45.9364L84.2182 31.7848C84.6116 31.5531 85.1166 31.6848 85.3499 32.0781C85.5849 32.4681 85.4599 32.9748 85.0749 33.2148L73.9166 40.1248L84.4499 34.0431C84.8432 33.8164 85.3449 33.9448 85.5782 34.3314C85.8149 34.7181 85.6966 35.2214 85.3166 35.4664L59.2599 52.1464L84.5082 37.5698C84.9032 37.3414 85.4032 37.4698 85.6399 37.8614C85.8749 38.2498 85.7532 38.7548 85.3699 38.9964L66.2566 51.0148L84.2982 40.5981C84.6916 40.3714 85.1932 40.4981 85.4282 40.8898C85.6632 41.2764 85.5432 41.7831 85.1599 42.0248L65.6182 54.3348L83.7416 43.8731C84.1366 43.6431 84.6366 43.7748 84.8732 44.1664C85.1082 44.5548 84.9849 45.0614 84.5999 45.3031L72.8682 52.6081L82.9916 46.7631C83.3849 46.5331 83.8832 46.6631 84.1182 47.0481C84.3566 47.4331 84.2416 47.9364 83.8632 48.1831L61.9716 62.4264L81.2249 51.3114C81.6132 51.0831 82.1132 51.2081 82.3499 51.5948C82.5882 51.9764 82.4766 52.4781 82.1032 52.7281L64.3382 64.4898L78.2349 56.4698C78.6216 56.2448 79.1149 56.3664 79.3549 56.7431C79.5949 57.1198 79.4949 57.6164 79.1282 57.8748L63.9699 68.4731L73.9232 62.7281C74.3099 62.5014 74.8032 62.6248 75.0432 63.0014C75.2832 63.3781 75.1832 63.8764 74.8166 64.1331L68.6282 68.4598L72.4066 66.2781C72.7832 66.0564 73.2699 66.1714 73.5132 66.5314C73.7582 66.8948 73.6816 67.3848 73.3382 67.6548L67.5266 72.2131L71.4982 69.9214C71.8582 69.7114 72.3182 69.8014 72.5749 70.1314C72.8282 70.4598 72.8032 70.9281 72.5116 71.2248L68.7732 75.0414L71.2132 73.6331C71.5582 73.4331 71.9982 73.5048 72.2599 73.8081C72.5216 74.1114 72.5316 74.5548 72.2849 74.8698L71.2516 76.1798C71.5299 76.1898 71.7966 76.3381 71.9449 76.5964C72.1766 76.9948 72.0399 77.5048 71.6399 77.7348L68.5366 79.5264C68.1949 79.7281 67.7532 79.6564 67.4899 79.3514C67.2282 79.0481 67.2182 78.6048 67.4649 78.2898L68.2882 77.2464L64.3366 79.5264C63.9799 79.7364 63.5182 79.6464 63.2599 79.3164C63.0066 78.9881 63.0316 78.5198 63.3232 78.2231L67.0632 74.4048L58.1882 79.5264C57.8116 79.7481 57.3249 79.6331 57.0816 79.2731C56.8366 78.9098 56.9132 78.4198 57.2566 78.1498L63.0632 73.5948L52.7866 79.5281C52.3999 79.7531 51.9066 79.6314 51.6666 79.2548C51.4266 78.8781 51.5266 78.3798 51.8932 78.1231L58.0766 73.7998L48.1566 79.5281C47.7732 79.7531 47.2766 79.6314 47.0366 79.2548C46.7966 78.8781 46.8966 78.3814 47.2632 78.1231L62.4249 67.5231L41.6266 79.5281C41.2349 79.7531 40.7366 79.6314 40.5016 79.2448C40.2632 78.8631 40.3749 78.3614 40.7482 78.1114L58.5099 66.3514L35.6866 79.5264C35.5549 79.6031 35.4116 79.6381 35.2699 79.6381L35.2582 79.6164Z" fill="url(#paint0_linear_65_4)"/>
<path d="M53.3633 1.58008C22.645 -1.07159 1.88833 34.4867 21.3 59.1767C24.8417 63.7551 27.0933 68.7251 27.125 74.5967C27.1383 77.0934 28.0633 78.9767 30.4583 79.4284C31.0967 83.4834 28.2583 91.6101 33.86 92.5417C34.8933 94.8167 35.9917 98.4417 38.5 99.4667C43.635 100.41 49.1283 99.4717 54.3583 99.7801C61.7483 100.422 63.3733 99.2617 66.1417 92.3834C71.665 91.0951 68.9283 83.4301 69.5417 79.2351C73.0017 78.4867 73.035 74.7701 72.9717 71.9084C73.28 68.6284 74.3367 65.4451 75.9867 62.5967C96.3583 40.0867 84.1233 4.59341 53.3633 1.58008ZM67.1267 81.5351V84.8884H32.81C32.8133 83.1151 32.8483 81.3384 32.865 79.5701C44.2517 79.9017 55.6883 79.4667 67.075 79.5467C66.995 80.1667 67.1267 80.9817 67.1267 81.5351ZM62.365 94.9401C61.7433 96.1817 61.29 97.7417 59.6967 97.8884C55.16 98.0001 50.5933 97.8217 46.0467 97.8884C39.77 98.0367 39.285 98.8551 36.6333 92.6834H63.495C63.1183 93.4367 62.7417 94.1884 62.3667 94.9417L62.365 94.9401ZM66.0017 91.5117C65.56 91.2001 64.655 91.2401 64.13 91.6517C54.7817 91.5901 45.41 91.7767 36.0667 91.5801C35.8117 91.1467 35.2333 91.1017 34.7167 91.2884C32.8383 90.8501 32.7483 87.9501 32.8117 86.1117H67.1667C67.2517 87.9001 67.3367 90.8451 66.0017 91.5117ZM80.0467 53.0467C77.8583 57.3151 74.36 60.6917 72.4283 65.0984C71.485 67.2517 70.8467 69.5251 70.59 71.8634C70.4983 75.3084 71.2283 78.9067 66.3083 78.1284C54.9183 78.1134 43.51 78.1501 32.13 78.1284C27.8783 77.6467 30.3133 69.7317 28.3033 66.5001C24.1433 57.5517 16.3933 50.2367 16.32 39.6817C14.8933 21.9167 27.9 5.14508 45.8 3.08841C72.1633 -0.384923 92.5683 29.8201 80.0467 53.0467Z" fill="#262626"/>
<path d="M70.4751 26.4999C67.3318 26.8999 63.2934 25.6183 60.5451 27.1516C59.9051 28.5733 67.5651 27.5366 68.7934 27.8349V28.1566C68.2768 28.1016 67.6484 28.2099 67.3351 28.5233C62.1651 33.6933 56.9951 38.8633 51.8251 44.0333C49.7651 42.7099 44.3001 34.4599 42.3368 36.8549C37.8918 41.2999 33.4468 45.7449 29.0034 50.1883C27.9551 51.2366 30.2934 51.5183 31.0001 50.8099C35.0584 46.7516 39.1184 42.6916 43.1768 38.6333C45.2368 39.9566 50.7001 48.2066 52.6651 45.8116L68.7934 29.6833V35.8233C68.7934 36.0083 69.1401 36.1166 69.2584 36.1416C69.9451 36.2333 71.1234 35.9983 71.2084 35.1766C70.8601 33.6449 72.0468 26.2549 70.4751 26.4999Z" fill="#262626"/>
<defs>
<linearGradient id="paint0_linear_65_4" x1="49.9813" y1="1.42285" x2="49.9813" y2="79.641" gradientUnits="userSpaceOnUse">
<stop stop-color="#FFC55F"/>
<stop offset="1" stop-color="#B2677E"/>
</linearGradient>
</defs>
</svg>
