<svg width="53" height="52" viewBox="0 0 53 52" fill="none" xmlns="http://www.w3.org/2000/svg">
<g clip-path="url(#clip0_401_27608)">
<path d="M22.0631 37.2188V27.8707C22.0631 25.4978 20.1395 23.5742 17.7666 23.5742H12.9388C7.3823 23.5742 2.87793 28.0786 2.87793 33.6351L5.50478 31.5869C7.31947 30.172 9.55484 29.4034 11.856 29.4034H14.7838C15.8712 29.4034 16.7527 30.2849 16.7527 31.3723V35.5231C16.7527 37.4578 18.3211 39.0262 20.2558 39.0262C21.2539 39.0262 22.0631 38.217 22.0631 37.2188Z" fill="url(#paint0_linear_401_27608)"/>
<path d="M27.9664 34.9123C27.9497 34.0559 27.5276 33.2989 26.8842 32.8253C26.2414 32.3521 26.0139 31.4962 26.2897 30.7471C26.4123 30.4139 26.4959 30.044 26.4959 29.6544C26.4959 28.1885 25.3067 27 23.8407 27H16.2113C16.2151 27 16.2189 27.0003 16.2227 27.0003H8.68183C7.09349 27.0003 5.62752 27.5242 4.44744 28.4087H1.3026C0.859331 28.4087 0.5 28.768 0.5 29.2113V43.7848C0.5 44.2243 0.853388 44.5885 1.29295 44.5874C2.26078 44.5848 3.19647 44.968 3.86143 45.6711C5.35829 47.2537 7.47776 48.241 9.82816 48.241H20.8007V48.2404H22.6037C24.093 48.2404 25.3399 47.0216 25.3109 45.5326C25.3039 45.1727 25.2168 44.8297 25.09 44.5178C24.7778 43.7498 24.9884 42.8666 25.6445 42.3598C26.2875 41.8632 26.7023 41.0886 26.6854 40.2225C26.6783 39.8582 26.5838 39.512 26.4466 39.1979C26.1086 38.4245 26.3307 37.5367 26.9844 37.0027C27.5937 36.505 27.9826 35.7516 27.9664 34.9123Z" fill="url(#paint1_linear_401_27608)"/>
<path d="M0.5 43.7834C0.5 44.223 0.853388 44.5872 1.29295 44.586C2.26078 44.5835 3.19647 44.9667 3.86143 45.6697C5.35829 47.2523 7.47776 48.2397 9.82816 48.2397H20.8007V48.2391H22.6037C24.093 48.2391 25.3399 47.0202 25.3109 45.5312C25.3039 45.1714 25.2168 44.8284 25.0899 44.5165C24.7778 43.7485 24.9884 42.8653 25.6445 42.3585C26.2875 41.8618 26.7023 41.0872 26.6854 40.2212C26.6785 39.8654 26.5879 39.527 26.4559 39.2188H0.5V43.7834Z" fill="url(#paint2_linear_401_27608)"/>
<path d="M32.1992 27H44.318C45.9063 27 47.3723 27.5239 48.5524 28.4084H51.6972C52.1405 28.4084 52.4998 28.7677 52.4998 29.211V43.7844C52.4998 44.2277 52.1405 44.587 51.6972 44.587C50.7328 44.587 49.8012 44.97 49.1385 45.6708C47.6416 47.2534 45.5222 48.2407 43.1718 48.2407H32.1992V27Z" fill="url(#paint3_linear_401_27608)"/>
<path d="M32.1992 48.2408H43.1718C47.7077 48.2408 51.3845 44.564 51.3845 40.028V34.0654C51.3845 30.1635 48.2209 27 44.3183 27H32.1992V48.2408Z" fill="url(#paint4_linear_401_27608)"/>
<path d="M29.022 42.9295H34.0327C35.4991 42.9295 36.6879 41.7407 36.6879 40.2743C36.6879 38.8079 35.4991 37.6191 34.0327 37.6191H28.9696C27.5212 37.6191 26.343 38.7793 26.315 40.2217C26.2859 41.7107 27.5327 42.9295 29.022 42.9295Z" fill="url(#paint5_linear_401_27608)"/>
<path d="M33.1104 38.7872C33.3745 38.9383 33.6802 39.0251 34.0063 39.0251C35.9411 39.0251 37.5094 37.4567 37.5094 35.522V31.3712C37.5094 30.2839 38.3909 29.4023 39.4783 29.4023H42.406C44.7072 29.4023 46.9426 30.1708 48.7573 31.5858L51.3689 33.6222C51.378 33.7685 51.3841 33.9157 51.3841 34.0644V40.0266C51.3841 44.5623 47.7073 48.2391 43.1716 48.2391H42.5623L33.1104 38.7872Z" fill="url(#paint6_linear_401_27608)"/>
<path d="M29.1591 32.3097H32.1991V31.5894C32.1991 29.0548 34.2539 27 36.7884 27H29.1591C27.6931 27 26.5039 28.1885 26.5039 29.6544C26.5039 31.1213 27.6931 32.3097 29.1591 32.3097Z" fill="url(#paint7_linear_401_27608)"/>
<path d="M27.7409 37.619H34.0326C35.499 37.619 36.6877 36.4302 36.6877 34.9638C36.6877 33.4974 35.499 32.3086 34.0326 32.3086H27.6885C26.2401 32.3086 25.0618 33.4687 25.0337 34.9111C25.0048 36.4001 26.2516 37.619 27.7409 37.619Z" fill="url(#paint8_linear_401_27608)"/>
<path d="M30.3963 48.2401H34.0323C35.4987 48.2401 36.6875 47.0513 36.6875 45.5849C36.6875 44.1185 35.4987 42.9297 34.0323 42.9297H30.3437C28.8954 42.9297 27.7171 44.0898 27.689 45.5322C27.6601 47.0212 28.9069 48.2401 30.3963 48.2401Z" fill="url(#paint9_linear_401_27608)"/>
<path d="M32.1992 37.2188V27.8707C32.1992 25.4978 34.1228 23.5742 36.4957 23.5742H41.3235C46.88 23.5742 51.3844 28.0786 51.3844 33.6351L48.7575 31.5869C46.9428 30.172 44.7074 29.4034 42.4063 29.4034H39.4785C38.391 29.4034 37.5096 30.2849 37.5096 31.3723V35.5231C37.5096 37.4578 35.9412 39.0262 34.0065 39.0262C33.0083 39.0262 32.1992 38.217 32.1992 37.2188Z" fill="url(#paint10_linear_401_27608)"/>
<path d="M37.5098 31.371V30.8425C37.5098 28.1983 39.6533 26.0547 42.2976 26.0547H44.6463C47.5505 26.0547 50.1228 27.9506 50.9595 30.7317C51.2359 31.6506 51.3844 32.6248 51.3844 33.6337L48.7576 31.5856C46.9429 30.1706 44.7075 29.4021 42.4064 29.4021H39.4787C38.3912 29.4021 37.5098 30.2836 37.5098 31.371Z" fill="url(#paint11_linear_401_27608)"/>
<path d="M37.9727 36.7859C37.9727 33.9858 38.957 31.4161 40.5979 29.4023H42.406C44.7072 29.4023 46.9425 30.1708 48.7572 31.5858L51.3689 33.6222C51.3779 33.7685 51.3841 33.9157 51.3841 34.0644V40.0266C51.3841 44.0679 48.465 47.4275 44.6202 48.1117C39.5838 46.8062 37.9727 42.2305 37.9727 36.7859Z" fill="url(#paint12_linear_401_27608)"/>
<path d="M32.3844 11.208C31.396 10.7999 30.9254 9.66775 31.3336 8.67932L32.8701 4.95761C33.2783 3.96919 34.4104 3.49874 35.3988 3.90679C36.3872 4.31483 36.8578 5.44705 36.4496 6.43547L34.9131 10.1572C34.5051 11.1456 33.3728 11.6161 32.3844 11.208Z" fill="url(#paint13_linear_401_27608)"/>
<path d="M4.97905 16.5475C5.3872 15.5591 6.51931 15.0885 7.50774 15.4967L11.2294 17.0332C12.2179 17.4414 12.6884 18.5735 12.2803 19.5619C11.8722 20.5503 10.74 21.0208 9.75159 20.6127L6.02987 19.0762C5.04145 18.6681 4.57101 17.5359 4.97905 16.5475Z" fill="url(#paint14_linear_401_27608)"/>
<path d="M40.7249 19.5297C40.3145 18.5422 40.7824 17.409 41.7699 16.9986L45.488 15.4534C46.4755 15.0431 47.6088 15.511 48.0191 16.4984C48.4295 17.4859 47.9616 18.6192 46.9742 19.0296L43.256 20.5747C42.2686 20.9851 41.1353 20.5172 40.7249 19.5297Z" fill="url(#paint15_linear_401_27608)"/>
<path d="M17.5707 3.92805C18.5582 3.51767 19.6914 3.98556 20.1018 4.97303L21.647 8.69114C22.0573 9.67861 21.5894 10.8119 20.602 11.2223C19.6145 11.6326 18.4812 11.1647 18.0708 10.1773L16.5257 6.45917C16.1153 5.4716 16.5832 4.33842 17.5707 3.92805Z" fill="url(#paint16_linear_401_27608)"/>
</g>
<defs>
<linearGradient id="paint0_linear_401_27608" x1="10.3261" y1="26.6817" x2="14.1527" y2="32.8536" gradientUnits="userSpaceOnUse">
<stop stop-color="#F1B0A2"/>
<stop offset="1" stop-color="#CA6E59"/>
</linearGradient>
<linearGradient id="paint1_linear_401_27608" x1="10.147" y1="31.5649" x2="19.2813" y2="44.8343" gradientUnits="userSpaceOnUse">
<stop stop-color="#F1B0A2"/>
<stop offset="1" stop-color="#CA6E59"/>
</linearGradient>
<linearGradient id="paint2_linear_401_27608" x1="13.593" y1="43.0145" x2="13.593" y2="48.6648" gradientUnits="userSpaceOnUse">
<stop stop-color="#CA6E59" stop-opacity="0"/>
<stop offset="1" stop-color="#883F2E"/>
</linearGradient>
<linearGradient id="paint3_linear_401_27608" x1="31.9018" y1="28.4451" x2="49.7185" y2="45.6871" gradientUnits="userSpaceOnUse">
<stop stop-color="#FFDFCF"/>
<stop offset="1" stop-color="#FFA78F"/>
</linearGradient>
<linearGradient id="paint4_linear_401_27608" x1="40.1061" y1="37.6204" x2="32.5647" y2="37.6204" gradientUnits="userSpaceOnUse">
<stop stop-color="#FFB09E" stop-opacity="0"/>
<stop offset="1" stop-color="#EC806B"/>
</linearGradient>
<linearGradient id="paint5_linear_401_27608" x1="31.5012" y1="37.6299" x2="31.5012" y2="43.4597" gradientUnits="userSpaceOnUse">
<stop stop-color="#FFDFCF"/>
<stop offset="1" stop-color="#FFA78F"/>
</linearGradient>
<linearGradient id="paint6_linear_401_27608" x1="42.9647" y1="38.4319" x2="34.4806" y2="34.1005" gradientUnits="userSpaceOnUse">
<stop stop-color="#FFB09E" stop-opacity="0"/>
<stop offset="1" stop-color="#EC806B"/>
</linearGradient>
<linearGradient id="paint7_linear_401_27608" x1="31.6462" y1="25.9354" x2="31.6462" y2="33.7543" gradientUnits="userSpaceOnUse">
<stop stop-color="#FFDFCF"/>
<stop offset="1" stop-color="#FFA78F"/>
</linearGradient>
<linearGradient id="paint8_linear_401_27608" x1="30.8606" y1="32.3193" x2="30.8606" y2="38.149" gradientUnits="userSpaceOnUse">
<stop stop-color="#FFDFCF"/>
<stop offset="1" stop-color="#FFA78F"/>
</linearGradient>
<linearGradient id="paint9_linear_401_27608" x1="32.188" y1="42.9403" x2="32.188" y2="48.7701" gradientUnits="userSpaceOnUse">
<stop stop-color="#FFDFCF"/>
<stop offset="1" stop-color="#FFA78F"/>
</linearGradient>
<linearGradient id="paint10_linear_401_27608" x1="34.0937" y1="26.2281" x2="53.6669" y2="45.1699" gradientUnits="userSpaceOnUse">
<stop stop-color="#FFDFCF"/>
<stop offset="1" stop-color="#FFA78F"/>
</linearGradient>
<linearGradient id="paint11_linear_401_27608" x1="42.2111" y1="29.8442" x2="24.0768" y2="29.8442" gradientUnits="userSpaceOnUse">
<stop stop-color="#F89580" stop-opacity="0"/>
<stop offset="0.9972" stop-color="#C5715A"/>
</linearGradient>
<linearGradient id="paint12_linear_401_27608" x1="45.5384" y1="39.3746" x2="29.133" y2="27.9647" gradientUnits="userSpaceOnUse">
<stop stop-color="#F89580" stop-opacity="0"/>
<stop offset="0.9972" stop-color="#C5715A"/>
</linearGradient>
<linearGradient id="paint13_linear_401_27608" x1="32.16" y1="6.81178" x2="37.1293" y2="8.86621" gradientUnits="userSpaceOnUse">
<stop stop-color="#CCFC5C"/>
<stop offset="0.1591" stop-color="#C6F95A"/>
<stop offset="0.3653" stop-color="#B6F053"/>
<stop offset="0.5975" stop-color="#9BE248"/>
<stop offset="0.8469" stop-color="#76CF38"/>
<stop offset="1" stop-color="#5CC12D"/>
</linearGradient>
<linearGradient id="paint14_linear_401_27608" x1="9.41698" y1="16.0374" x2="7.36259" y2="21.0067" gradientUnits="userSpaceOnUse">
<stop stop-color="#CCFC5C"/>
<stop offset="0.1591" stop-color="#C6F95A"/>
<stop offset="0.3653" stop-color="#B6F053"/>
<stop offset="0.5975" stop-color="#9BE248"/>
<stop offset="0.8469" stop-color="#76CF38"/>
<stop offset="1" stop-color="#5CC12D"/>
</linearGradient>
<linearGradient id="paint15_linear_401_27608" x1="43.9632" y1="16.5663" x2="46.0284" y2="21.5304" gradientUnits="userSpaceOnUse">
<stop stop-color="#CCFC5C"/>
<stop offset="0.1591" stop-color="#C6F95A"/>
<stop offset="0.3653" stop-color="#B6F053"/>
<stop offset="0.5975" stop-color="#9BE248"/>
<stop offset="0.8469" stop-color="#76CF38"/>
<stop offset="1" stop-color="#5CC12D"/>
</linearGradient>
<linearGradient id="paint16_linear_401_27608" x1="20.6924" y1="7.39398" x2="15.7282" y2="9.45924" gradientUnits="userSpaceOnUse">
<stop stop-color="#CCFC5C"/>
<stop offset="0.1591" stop-color="#C6F95A"/>
<stop offset="0.3653" stop-color="#B6F053"/>
<stop offset="0.5975" stop-color="#9BE248"/>
<stop offset="0.8469" stop-color="#76CF38"/>
<stop offset="1" stop-color="#5CC12D"/>
</linearGradient>
<clipPath id="clip0_401_27608">
<rect width="52" height="52" fill="white" transform="translate(0.5)"/>
</clipPath>
</defs>
</svg>
