<svg width="33" height="32" viewBox="0 0 33 32" fill="none" xmlns="http://www.w3.org/2000/svg">
<path d="M18.2073 28.7122C18.2073 28.7122 14.6809 30.8188 9.48111 31.0187C9.48111 31.0187 4.70707 31.5145 4.22471 29.0105C4.22471 29.0105 3.96773 19.7402 5.59915 17.7555C5.59915 17.7555 7.11198 15.9865 9.96438 14.4063L10.7877 13.3808C10.7877 13.3808 12.4814 16.0156 15.8263 16.0848C15.8263 16.0848 17.0331 14.471 17.0331 12.2694L17.546 11.3549C17.546 11.3549 19.0087 10.6549 20.1356 12.1176C20.1595 12.1485 20.183 12.1803 20.2066 12.213C20.2066 12.213 22.4891 15.0187 21.9186 22.9745C21.9186 22.9745 21.7031 26.6517 18.2073 28.7122Z" fill="#E93565"/>
<path d="M18.6693 25.8668C18.5887 27.1032 18.4429 28.1139 18.2068 28.7127C17.8399 28.0356 17.4671 27.3548 17.0888 26.6709C14.8847 22.6842 12.4953 18.5872 9.96387 14.4069L10.7872 13.3814C10.7872 13.3814 12.4809 16.0162 15.8258 16.0854C15.8258 16.0854 17.0326 14.4716 17.0326 12.2699L17.5455 11.3555L18.2672 13.0745C18.2912 13.3131 18.3165 13.5891 18.3429 13.8967C18.586 16.7359 18.9043 22.2616 18.6693 25.8668Z" fill="white"/>
<path d="M18.6684 25.8662C18.5887 27.103 18.4426 28.1141 18.2065 28.7133C17.8389 28.0358 17.467 27.354 17.0892 26.6706C16.8176 25.5016 16.5696 24.1187 16.3379 22.5969C16.1062 21.0767 15.8907 19.4192 15.6796 17.7011L15.2353 17.707L14.9121 16.6119L15.8257 16.085L17.1541 16.2178V16.9115L16.5932 17.3469L18.6684 25.8662Z" fill="#B28AFD"/>
<path d="M10.8281 11.818V13.381V14.287L14.4787 16.4307L15.8258 16.085C15.8258 16.085 17.2316 14.3063 17.2753 14.287C17.319 14.2677 17.0326 12.2696 17.0326 12.2696L14.0853 9.74512L10.8281 11.818Z" fill="#F5C9C6"/>
<path d="M15.8261 16.0848C15.4645 16.607 15.2606 17.3536 15.1574 18.2435C12.512 17.6135 10.8329 16.2975 9.96411 14.4064L10.7875 13.3809C10.7875 13.3809 12.4812 16.0157 15.8261 16.0848Z" fill="#EDEEF2"/>
<path d="M18.3432 13.8967C18.3394 14.7192 18.2206 15.4812 17.9898 16.1834C17.8507 16.6061 17.6714 17.0068 17.4518 17.3866C17.0874 16.6522 16.5284 16.2477 15.8262 16.0854C15.8262 16.0854 16.9887 14.4335 16.9887 12.2319L17.5458 11.3555L18.298 13.147C18.3173 13.3888 18.3309 13.6415 18.3432 13.8967Z" fill="#EDEEF2"/>
<path d="M18.2072 28.7127C18.7675 25.5096 18.4286 20.9601 17.9898 16.1834C17.843 14.5857 17.6851 12.9623 17.5459 11.3555L18.2676 13.0745L18.2981 13.147L20.1236 17.4943L19.8069 19.7105L20.2 22.0248C19.6484 24.7847 19.247 27.1748 18.2072 28.7127Z" fill="#CC104A"/>
<path d="M18.1443 6.28858C18.4463 10.2086 17.5453 11.3554 17.5453 11.3554C15.8339 14.8818 11.9426 12.7961 10.828 11.8183C9.71317 10.8405 9.02749 8.72729 9.02749 8.72729C8.93056 8.49291 8.85042 8.261 8.78528 8.03199C8.44994 6.85405 8.5106 5.75714 8.72372 4.8382C9.57191 1.18372 13.9936 -0.310307 16.8251 2.15056C17.2941 2.55821 17.6536 3.02361 17.8757 3.47939C18.7944 5.36449 18.156 6.272 18.1443 6.28858Z" fill="#F4D6D4"/>
<path d="M18.5075 3.36372C18.1219 3.04582 17.2965 2.56057 16.8259 2.15275C13.9961 -0.313129 9.57256 1.18645 8.72548 4.83822C8.51217 5.75431 8.4494 6.85235 8.78825 8.03196C9.58509 7.50489 10.0745 7.83745 10.3443 8.20135C10.5137 8.43354 10.6016 8.71586 10.6204 9.0045C10.6392 9.38724 10.7145 10.0273 10.9655 10.0398C11.3169 10.0649 11.3231 9.56294 11.3231 9.56294C11.5867 7.97547 12.3145 7.32922 12.3145 7.32922C12.6031 6.92764 12.9545 6.92136 13.1804 6.98409C13.2996 7.01549 13.4126 7.07822 13.5129 7.14723C14.2282 7.64923 15.6212 7.42331 15.6212 7.42331C17.3278 7.27273 18.6693 6.49397 18.6693 6.49397C18.6818 6.47517 21.0879 5.49106 18.5075 3.36372Z" fill="#51383C"/>
<path d="M10.0233 14.3672L12.3982 22.7807L13.8403 22.3594L13.9983 24.3215C15.4637 25.8537 18.0782 28.7339 18.2125 28.7044L17.1483 26.6312L10.0233 14.3672Z" fill="#CC104A"/>
<path d="M27.7061 19.3111C27.0254 18.9144 27.5204 21.4673 26.4784 22.0652C24.4241 23.2493 24.2067 24.681 24.2126 27.0431C24.2126 28.2212 21.7564 28.0078 22.4254 28.3985L21.1762 27.6704C20.5072 27.2797 20.0929 26.4508 20.0869 25.2727C20.081 22.9105 21.7446 20.0334 23.7989 18.8434C24.8349 18.2455 25.7762 18.1921 26.4511 18.5829L27.7061 19.3111Z" fill="#78E75A"/>
<path d="M25.0509 19.5707C27.1109 18.3814 28.7832 19.3344 28.7899 21.6971C28.7966 24.0686 27.1352 26.9464 25.0751 28.1357C23.0189 29.3229 21.3466 28.3699 21.3399 25.9984C21.3332 23.6357 22.9946 20.7579 25.0509 19.5707Z" fill="#72D561"/>
<path d="M25.0577 21.1011C25.3601 20.9265 25.6028 21.0692 25.6038 21.4122L25.608 22.915L26.9159 22.16C27.2144 21.9876 27.4572 22.1302 27.4581 22.469C27.4591 22.8164 27.218 23.2341 26.9194 23.4065L25.6116 24.1616L25.6158 25.6644C25.6168 26.0118 25.3757 26.4295 25.0733 26.6041C24.7747 26.7765 24.5282 26.6403 24.5272 26.2929L24.523 24.7901L23.2151 25.5452C22.9204 25.7154 22.6738 25.5792 22.6729 25.2318C22.6719 24.893 22.9168 24.4688 23.2116 24.2986L24.5194 23.5436L24.5152 22.0408C24.5142 21.6977 24.7591 21.2734 25.0577 21.1011Z" fill="white"/>
</svg>
