<svg width="40" height="40" viewBox="0 0 40 40" fill="none" xmlns="http://www.w3.org/2000/svg">
<g clip-path="url(#clip0_223_71058)">
<path d="M2.4068 1.72568L24.54 0.0908771C27.2588 -0.142323 27.9572 0.014877 29.6668 1.25768L36.732 6.23488C37.8972 7.09088 38.2852 7.32408 38.2852 8.25608V35.5533C38.2852 37.2641 37.664 38.2761 35.4892 38.4305L9.7868 39.9873C8.1548 40.0645 7.3776 39.8313 6.5228 38.7421L1.32 31.9765C0.3868 30.7313 0 29.7993 0 28.7097V4.44568C0 3.04688 0.6212 1.88048 2.4068 1.72568Z" fill="white"/>
<path fill-rule="evenodd" clip-rule="evenodd" d="M24.54 0.0912771L2.4068 1.72608C0.6212 1.88048 0 3.04728 0 4.44568V28.7097C0 29.7989 0.3868 30.7309 1.32 31.9765L6.5228 38.7417C7.3776 39.8309 8.1548 40.0645 9.7868 39.9869L35.4896 38.4309C37.6628 38.2761 38.2856 37.2641 38.2856 35.5537V8.25648C38.2856 7.37248 37.9364 7.11768 36.9084 6.36328L29.6668 1.25768C27.9576 0.014877 27.2588 -0.142323 24.54 0.0908771V0.0912771ZM10.368 7.80968C8.2692 7.95088 7.7932 7.98288 6.6012 7.01368L3.5708 4.60328C3.2628 4.29128 3.4176 3.90208 4.1936 3.82448L25.4708 2.26968C27.2576 2.11368 28.188 2.73648 28.8868 3.28048L32.536 5.92448C32.692 6.00328 33.08 6.46848 32.6132 6.46848L10.64 7.79128L10.368 7.80968ZM7.9212 35.3205V12.1473C7.9212 11.1353 8.232 10.6685 9.1624 10.5901L34.4 9.11248C35.256 9.03528 35.6428 9.57928 35.6428 10.5897V33.6085C35.6428 34.6205 35.4868 35.4765 34.0896 35.5537L9.9388 36.9537C8.5416 37.0309 7.9216 36.5657 7.9216 35.3205H7.9212ZM31.7612 13.3897C31.916 14.0897 31.7612 14.7897 31.0612 14.8697L29.8972 15.1005V32.2097C28.8864 32.7537 27.956 33.0645 27.1784 33.0645C25.9356 33.0645 25.6252 32.6753 24.6944 31.5097L17.0824 19.5337V31.1205L19.4904 31.6657C19.4904 31.6657 19.4904 33.0657 17.5476 33.0657L12.1916 33.3765C12.0356 33.0645 12.1916 32.2873 12.7344 32.1325L14.1332 31.7445V16.4245L12.192 16.2673C12.036 15.5673 12.424 14.5565 13.512 14.4781L19.2588 14.0913L27.1788 26.2221V15.4901L25.16 15.2581C25.004 14.4009 25.6252 13.7781 26.4012 13.7021L31.7612 13.3897Z" fill="black"/>
</g>
<defs>
<clipPath id="clip0_223_71058">
<rect width="40" height="40" fill="white"/>
</clipPath>
</defs>
</svg>
