<svg width="100" height="101" viewBox="0 0 100 101" fill="none" xmlns="http://www.w3.org/2000/svg">
<g clip-path="url(#clip0_65_41)">
<g filter="url(#filter0_d_65_41)">
<path d="M49.0566 16.1314C48.8944 16.1316 48.7357 16.0843 48.6 15.9956C48.4642 15.9068 48.3573 15.7804 48.2923 15.6317C48.2274 15.4831 48.2073 15.3187 48.2344 15.1588C48.2615 14.9989 48.3347 14.8504 48.445 14.7314L52.0183 10.8798L45.9783 14.3648C45.7998 14.4727 45.5873 14.5098 45.3828 14.4687C45.1783 14.4275 44.9967 14.3112 44.8737 14.1427C44.7508 13.9741 44.6956 13.7656 44.719 13.5583C44.7424 13.351 44.8426 13.1601 45 13.0231L48.715 9.70977L44.4183 12.1948C44.2388 12.2979 44.0273 12.3306 43.825 12.2863C43.6227 12.242 43.4441 12.124 43.3241 11.9553C43.2041 11.7866 43.1511 11.5792 43.1756 11.3736C43.2001 11.168 43.3003 10.9789 43.4566 10.8431L46.34 8.3431L43.84 9.78643C43.6715 9.88359 43.4743 9.91876 43.2827 9.88585C43.091 9.85294 42.9168 9.75402 42.7904 9.60623C42.664 9.45844 42.5932 9.27109 42.5904 9.07662C42.5876 8.88215 42.6529 8.69283 42.775 8.54143L45.3383 5.37476C45.1456 5.46786 44.9246 5.48329 44.7209 5.41785C44.5171 5.35241 44.3464 5.21113 44.244 5.02326C44.1416 4.83538 44.1154 4.61532 44.1708 4.40866C44.2262 4.20199 44.359 4.02455 44.5416 3.9131L48.3883 1.6881C48.5568 1.59094 48.7539 1.55577 48.9456 1.58868C49.1373 1.62159 49.3114 1.72051 49.4379 1.8683C49.5643 2.01609 49.635 2.20344 49.6378 2.39791C49.6407 2.59237 49.5754 2.7817 49.4533 2.9331L46.8916 6.09976L53.0583 2.5431C53.2376 2.44186 53.448 2.41058 53.649 2.45529C53.85 2.50001 54.0273 2.61754 54.1468 2.78525C54.2662 2.95295 54.3194 3.15894 54.296 3.36351C54.2726 3.56807 54.1742 3.75673 54.02 3.8931L51.14 6.3931L54.9283 4.20643C55.1055 4.1125 55.3106 4.08561 55.506 4.1307C55.7014 4.17579 55.874 4.28984 55.9921 4.4519C56.1102 4.61397 56.1659 4.8132 56.149 5.01302C56.1321 5.21285 56.0437 5.39987 55.9 5.53976L52.1816 8.85976L55.9683 6.66643C56.141 6.5674 56.3435 6.5335 56.5391 6.57085C56.7347 6.60819 56.9104 6.71433 57.0345 6.87004C57.1586 7.02575 57.2228 7.22074 57.2155 7.41972C57.2083 7.61869 57.13 7.80849 56.995 7.95476L53.4233 11.8148L55.7133 10.4998C55.9038 10.4001 56.1253 10.3779 56.3318 10.4378C56.5382 10.4977 56.7135 10.635 56.821 10.8211C56.9286 11.0072 56.9601 11.2277 56.909 11.4364C56.8578 11.6452 56.728 11.8261 56.5466 11.9414L49.4733 16.0198C49.3466 16.0929 49.2029 16.1314 49.0566 16.1314Z" fill="#E0005A"/>
<path d="M92.8634 16.0899C92.7001 16.0899 92.5404 16.042 92.4041 15.952C92.2678 15.8619 92.161 15.7339 92.0969 15.5837C92.0328 15.4334 92.0142 15.2677 92.0435 15.107C92.0729 14.9463 92.1487 14.7978 92.2618 14.6799L93.4534 13.4416L89.6318 15.6466C89.4524 15.7511 89.2405 15.7848 89.0375 15.7413C88.8345 15.6977 88.6551 15.58 88.5344 15.4111C88.4137 15.2422 88.3603 15.0344 88.3848 14.8282C88.4093 14.6221 88.5098 14.4325 88.6668 14.2966L91.0351 12.2299L87.5351 14.2516C87.3579 14.3467 87.1522 14.3745 86.9561 14.3298C86.7599 14.2852 86.5866 14.1711 86.468 14.0086C86.3494 13.8462 86.2936 13.6463 86.3108 13.4459C86.328 13.2455 86.4172 13.0581 86.5618 12.9183L90.3951 9.46992L85.9884 11.9999C85.8089 12.1015 85.5982 12.1329 85.3969 12.088C85.1956 12.0432 85.0181 11.9253 84.8986 11.7572C84.7792 11.589 84.7264 11.3826 84.7504 11.1778C84.7743 10.9729 84.8734 10.7843 85.0284 10.6483L87.6951 8.35325L85.4784 9.63159C85.3091 9.72929 85.1109 9.76439 84.9184 9.73074C84.7258 9.69708 84.5512 9.59682 84.4251 9.44749C84.299 9.29815 84.2294 9.10924 84.2285 8.91379C84.2276 8.71834 84.2954 8.52878 84.4201 8.37826L86.8801 5.42159C86.6983 5.48072 86.5017 5.47557 86.3233 5.40699C86.1449 5.33841 85.9955 5.21058 85.9001 5.04492C85.7901 4.85367 85.7605 4.62662 85.8176 4.41354C85.8748 4.20047 86.0141 4.01876 86.2051 3.90825L90.0551 1.68825C90.2244 1.59055 90.4226 1.55545 90.6151 1.58911C90.8077 1.62276 90.9823 1.72302 91.1084 1.87236C91.2345 2.02169 91.3041 2.2106 91.305 2.40605C91.3059 2.60151 91.2381 2.79107 91.1134 2.94159L88.6851 5.86159L94.5668 2.46659C94.7463 2.36503 94.957 2.33364 95.1583 2.37848C95.3596 2.42331 95.5371 2.5412 95.6565 2.70933C95.776 2.87747 95.8288 3.08391 95.8048 3.28874C95.7808 3.49357 95.6818 3.68224 95.5268 3.81825L92.8601 6.10992L96.4318 4.04825C96.6102 3.94541 96.8204 3.91226 97.0218 3.95522C97.2232 3.99817 97.4015 4.11418 97.5225 4.28088C97.6434 4.44757 97.6983 4.65313 97.6767 4.85793C97.655 5.06272 97.5582 5.25224 97.4051 5.38992L93.5768 8.83325L97.6084 6.49992C97.7878 6.39366 98.0006 6.35853 98.2046 6.40145C98.4087 6.44438 98.5892 6.56224 98.7106 6.73178C98.832 6.90132 98.8855 7.11021 98.8604 7.31721C98.8353 7.52422 98.7335 7.7143 98.5751 7.84992L96.2034 9.92992L97.7151 9.05826C97.8888 8.95908 98.0925 8.92571 98.2888 8.96426C98.4851 9.00281 98.661 9.11069 98.7843 9.26821C98.9077 9.42572 98.9702 9.62235 98.9606 9.82218C98.9509 10.022 98.8697 10.2117 98.7318 10.3566L96.9301 12.2299C97.035 12.2583 97.1332 12.3072 97.2191 12.3739C97.3049 12.4406 97.3766 12.5236 97.4301 12.6183C97.5401 12.8095 97.5697 13.0366 97.5125 13.2496C97.4554 13.4627 97.316 13.6444 97.1251 13.7549L93.2751 15.9783C93.1502 16.0514 93.0081 16.0899 92.8634 16.0899Z" fill="#E0005A"/>
<path d="M92.61 57.7981C92.4477 57.7979 92.2891 57.7503 92.1535 57.6613C92.0179 57.5722 91.9113 57.4454 91.8467 57.2966C91.7821 57.1478 91.7623 56.9833 91.7899 56.8234C91.8174 56.6635 91.891 56.5151 92.0017 56.3965L93.7817 54.4998L89.24 57.1198C89.0601 57.2221 88.8486 57.2537 88.6467 57.2087C88.4447 57.1636 88.2668 57.045 88.1474 56.876C88.0281 56.7069 87.9759 56.4996 88.001 56.2942C88.0261 56.0888 88.1268 55.9001 88.2833 55.7648L90.5217 53.8531L87.3133 55.7048C87.1346 55.8052 86.9252 55.8362 86.725 55.7919C86.5249 55.7476 86.3481 55.6311 86.2285 55.4646C86.1089 55.2982 86.0548 55.0935 86.0766 54.8896C86.0984 54.6858 86.1945 54.4972 86.3467 54.3598L89.8783 51.2515L85.9167 53.5315C85.7391 53.6395 85.5276 53.6772 85.3236 53.6373C85.1196 53.5974 84.938 53.4827 84.8142 53.3157C84.6904 53.1487 84.6335 52.9416 84.6546 52.7348C84.6758 52.5281 84.7734 52.3366 84.9283 52.1981L88.52 48.8331L85.58 50.5315C85.4072 50.6317 85.2042 50.6665 85.008 50.6296C84.8117 50.5927 84.6352 50.4865 84.5106 50.3304C84.3861 50.1744 84.3217 49.9787 84.3292 49.7792C84.3367 49.5796 84.4157 49.3894 84.5517 49.2431L86.5083 47.1315C86.3364 47.1077 86.1762 47.0308 86.05 46.9116C85.9239 46.7924 85.8382 46.6367 85.8048 46.4664C85.7714 46.2961 85.792 46.1196 85.8637 45.9615C85.9355 45.8035 86.0548 45.6718 86.205 45.5848L90.055 43.3615C90.2275 43.2636 90.4293 43.2304 90.6241 43.268C90.8189 43.3056 90.9939 43.4114 91.1176 43.5665C91.2413 43.7216 91.3057 43.9157 91.2991 44.114C91.2925 44.3122 91.2154 44.5016 91.0817 44.6481L89.5267 46.3281L93.9083 43.7998C94.0859 43.6936 94.2966 43.6572 94.4995 43.6977C94.7025 43.7383 94.883 43.8528 95.0061 44.0192C95.1292 44.1855 95.186 44.3917 95.1655 44.5976C95.1449 44.8035 95.0485 44.9944 94.895 45.1331L91.3033 48.4998L96.3217 45.6031C96.5004 45.5028 96.7098 45.4718 96.9099 45.5161C97.1101 45.5604 97.2869 45.6769 97.4065 45.8434C97.5261 46.0098 97.5802 46.2145 97.5584 46.4183C97.5366 46.6221 97.4404 46.8108 97.2883 46.9481L93.7533 50.0581L97.5567 47.8631C97.7363 47.7628 97.9467 47.7325 98.1474 47.778C98.348 47.8235 98.5248 47.9416 98.6435 48.1096C98.7623 48.2777 98.8147 48.4837 98.7907 48.688C98.7666 48.8924 98.6678 49.0806 98.5133 49.2165L96.28 51.1248L97.79 50.2548C97.9627 50.1569 98.1647 50.1239 98.3596 50.1617C98.5545 50.1995 98.7295 50.3056 98.8531 50.4609C98.9767 50.6163 99.0407 50.8107 99.0338 51.0091C99.0268 51.2075 98.9492 51.3969 98.815 51.5431L96.8683 53.6281C97.0577 53.6095 97.2477 53.6563 97.4068 53.7606C97.5659 53.8649 97.6846 54.0206 97.743 54.2016C97.8014 54.3827 97.7961 54.5783 97.7279 54.756C97.6598 54.9336 97.5329 55.0826 97.3683 55.1781L93.0183 57.6881C92.8939 57.7593 92.7533 57.7972 92.61 57.7981Z" fill="#E0005A"/>
<path d="M49.0618 57.7982C48.8943 57.798 48.7307 57.7474 48.5925 57.6529C48.4542 57.5583 48.3476 57.4244 48.2866 57.2684C48.2256 57.1124 48.2131 56.9416 48.2505 56.7784C48.288 56.6151 48.3738 56.467 48.4968 56.3532L50.5001 54.4999L46.7384 56.6666C46.5611 56.7629 46.3549 56.7916 46.1581 56.7474C45.9612 56.7032 45.787 56.5891 45.668 56.4262C45.5489 56.2633 45.4929 56.0628 45.5105 55.8618C45.528 55.6608 45.6179 55.473 45.7634 55.3332L49.3518 52.0982L44.8601 54.6916C44.678 54.7974 44.4626 54.8304 44.2571 54.7838C44.0517 54.7373 43.8716 54.6147 43.7529 54.4407C43.6342 54.2666 43.5858 54.0541 43.6174 53.8459C43.6491 53.6377 43.7584 53.4491 43.9234 53.3182L45.4584 52.0932L44.0768 52.8899C43.8947 52.9958 43.6792 53.0287 43.4738 52.9822C43.2684 52.9356 43.0882 52.813 42.9695 52.639C42.8509 52.465 42.8025 52.2525 42.8341 52.0442C42.8658 51.836 42.9751 51.6475 43.1401 51.5166L43.8701 50.9332L43.8518 50.9449C43.6809 51.043 43.4807 51.0774 43.2869 51.0419C43.093 51.0065 42.918 50.9035 42.7929 50.7512C42.6678 50.5989 42.6008 50.4073 42.6036 50.2102C42.6064 50.0132 42.679 49.8235 42.8084 49.6749L45.0368 47.1249C44.8788 47.1346 44.7212 47.101 44.5809 47.0279C44.4405 46.9548 44.3227 46.8449 44.2401 46.7099C44.1301 46.5187 44.1005 46.2916 44.1577 46.0785C44.2148 45.8654 44.3542 45.6837 44.5451 45.5732L48.3951 43.3499C48.566 43.2518 48.7661 43.2174 48.96 43.2529C49.1538 43.2883 49.3288 43.3913 49.4539 43.5436C49.579 43.6959 49.6461 43.8875 49.6433 44.0846C49.6404 44.2816 49.5679 44.4713 49.4384 44.6199L47.3601 46.9999L52.5951 43.9799C52.7769 43.8767 52.9909 43.8455 53.1946 43.8927C53.3983 43.9399 53.5768 44.0619 53.6948 44.2346C53.8127 44.4073 53.8614 44.618 53.8312 44.8249C53.801 45.0318 53.6941 45.2198 53.5318 45.3516L52.8034 45.9349L54.1851 45.1366C54.3672 45.0307 54.5826 44.9978 54.7881 45.0443C54.9935 45.0909 55.1737 45.2135 55.2923 45.3875C55.411 45.5615 55.4594 45.774 55.4278 45.9822C55.3961 46.1905 55.2868 46.379 55.1218 46.5099L53.5868 47.7349L55.3568 46.7149C55.5341 46.6186 55.7403 46.5899 55.9372 46.6341C56.134 46.6783 56.3082 46.7924 56.4273 46.9553C56.5464 47.1181 56.6023 47.3187 56.5848 47.5197C56.5672 47.7207 56.4773 47.9085 56.3318 48.0482L52.7434 51.2849L56.1301 49.3332C56.3076 49.2316 56.5162 49.1988 56.7163 49.241C56.9164 49.2833 57.094 49.3976 57.2153 49.5623C57.3365 49.727 57.393 49.9306 57.3739 50.1342C57.3548 50.3378 57.2615 50.5273 57.1118 50.6666L55.1118 52.5116L55.7101 52.1666C55.9006 52.0669 56.1221 52.0448 56.3286 52.1046C56.535 52.1645 56.7103 52.3019 56.8178 52.4879C56.9254 52.674 56.9569 52.8945 56.9058 53.1032C56.8546 53.312 56.7248 53.4929 56.5434 53.6082L49.4784 57.6882C49.3516 57.7608 49.2079 57.7987 49.0618 57.7982Z" fill="#E0005A"/>
<path d="M8.17983 57.9249C8.01988 57.9251 7.86325 57.8793 7.72865 57.7929C7.59404 57.7065 7.48714 57.5832 7.42072 57.4377C7.35429 57.2922 7.33115 57.1306 7.35404 56.9723C7.37693 56.814 7.4449 56.6657 7.54983 56.5449L10.9015 52.6849L4.60316 56.3199C4.42009 56.425 4.20396 56.4567 3.99842 56.4086C3.79289 56.3605 3.61326 56.2362 3.49583 56.0608C3.3784 55.8854 3.33191 55.672 3.36575 55.4636C3.39959 55.2552 3.51125 55.0675 3.67816 54.9383L3.80483 54.8399L3.38649 55.0816C3.20626 55.183 2.99478 55.2137 2.79315 55.1678C2.59152 55.122 2.41415 55.0028 2.2955 54.8334C2.17685 54.6641 2.1254 54.4567 2.15115 54.2515C2.1769 54.0463 2.27801 53.858 2.43483 53.7233L5.20983 51.3899L2.41983 52.9999C2.23742 53.103 2.02288 53.1336 1.81895 53.0856C1.61501 53.0376 1.43664 52.9145 1.31936 52.7409C1.20208 52.5673 1.1545 52.3559 1.18609 52.1487C1.21768 51.9416 1.32612 51.754 1.48983 51.6233L1.93649 51.2733C1.76473 51.3197 1.58262 51.3099 1.41681 51.2454C1.25101 51.1808 1.11021 51.0649 1.01502 50.9146C0.919835 50.7643 0.875261 50.5874 0.887822 50.41C0.900382 50.2325 0.969418 50.0637 1.08483 49.9283L3.47316 47.1116C3.27901 47.1552 3.07568 47.1278 2.89993 47.0345C2.72418 46.9412 2.58762 46.7881 2.51494 46.6029C2.44225 46.4177 2.43825 46.2125 2.50364 46.0246C2.56904 45.8367 2.69952 45.6784 2.87149 45.5783L6.72149 43.3549C6.89143 43.2565 7.09067 43.2212 7.28407 43.2554C7.47747 43.2895 7.6526 43.3909 7.77856 43.5415C7.90452 43.6922 7.97322 43.8825 7.97253 44.0789C7.97185 44.2753 7.90183 44.4651 7.77483 44.6149L5.45649 47.3483L11.1232 44.0766C11.3059 43.9708 11.5219 43.9383 11.7276 43.9856C11.9334 44.033 12.1135 44.1566 12.2316 44.3316C12.3496 44.5067 12.3969 44.7199 12.3638 44.9285C12.3307 45.137 12.2197 45.3251 12.0532 45.4549L11.7698 45.6766L12.5882 45.2049C12.7686 45.1015 12.9813 45.0693 13.1843 45.1147C13.3873 45.16 13.566 45.2797 13.6853 45.4502C13.8046 45.6206 13.8558 45.8295 13.8289 46.0358C13.8019 46.2421 13.6988 46.4308 13.5398 46.5649L10.7648 48.8983L13.8865 47.0966C14.0696 46.9915 14.2857 46.9598 14.4912 47.0079C14.6968 47.056 14.8764 47.1803 14.9938 47.3557C15.1113 47.5311 15.1577 47.7446 15.1239 47.9529C15.0901 48.1613 14.9784 48.349 14.8115 48.4783L14.5448 48.6816C14.7181 48.6291 14.9037 48.6345 15.0737 48.697C15.2436 48.7594 15.3886 48.8754 15.4867 49.0276C15.5848 49.1797 15.6307 49.3597 15.6174 49.5402C15.6041 49.7208 15.5324 49.8921 15.4132 50.0283L12.0648 53.8849L13.6182 52.9899C13.713 52.9296 13.8191 52.8891 13.93 52.8709C14.0409 52.8527 14.1543 52.8571 14.2635 52.8838C14.3726 52.9105 14.4753 52.9591 14.5652 53.0265C14.6551 53.0939 14.7305 53.1789 14.7867 53.2762C14.8429 53.3735 14.8789 53.4811 14.8925 53.5927C14.906 53.7043 14.8969 53.8174 14.8656 53.9254C14.8342 54.0333 14.7814 54.1338 14.7103 54.2208C14.6391 54.3078 14.5511 54.3795 14.4515 54.4316L8.59649 57.8133C8.47015 57.8872 8.32622 57.9258 8.17983 57.9249Z" fill="#E0005A"/>
<path d="M49.9236 99.6032C49.7559 99.603 49.5921 99.5522 49.4537 99.4575C49.3153 99.3628 49.2087 99.2285 49.1478 99.0722C49.087 98.9159 49.0747 98.7449 49.1126 98.5815C49.1505 98.4182 49.2368 98.27 49.3602 98.1565L50.4052 97.1965L47.6202 98.8015C47.4456 98.901 47.241 98.934 47.0439 98.8945C46.8469 98.855 46.6708 98.7456 46.548 98.5865C46.4253 98.4274 46.3641 98.2293 46.3759 98.0287C46.3876 97.8281 46.4714 97.6385 46.6119 97.4948L50.9302 93.1282L44.9636 96.5748C44.784 96.6797 44.5717 96.7136 44.3684 96.67C44.1651 96.6263 43.9854 96.5082 43.8647 96.3389C43.744 96.1695 43.691 95.9612 43.7161 95.7547C43.7412 95.5483 43.8425 95.3587 44.0002 95.2232L47.2719 92.3898L44.0219 94.2648C43.8399 94.3668 43.6263 94.3968 43.4233 94.3489C43.2203 94.301 43.0426 94.1787 42.9254 94.0062C42.8081 93.8337 42.7599 93.6235 42.7901 93.4171C42.8203 93.2107 42.9268 93.0232 43.0886 92.8915L43.6436 92.4498C43.493 92.4805 43.337 92.4695 43.1922 92.4182C43.0474 92.3668 42.9194 92.2769 42.8219 92.1582C42.6971 92.0035 42.6318 91.8093 42.6376 91.6106C42.6434 91.412 42.72 91.222 42.8536 91.0748L44.9119 88.8015C44.7326 88.792 44.5611 88.7248 44.4231 88.6099C44.2851 88.495 44.1878 88.3387 44.1459 88.1641C44.1039 87.9895 44.1195 87.806 44.1902 87.6409C44.261 87.4759 44.3832 87.3381 44.5386 87.2482L48.3886 85.0248C48.5604 84.9269 48.7616 84.8933 48.9559 84.93C49.1503 84.9668 49.3253 85.0715 49.4495 85.2254C49.5738 85.3793 49.6393 85.5724 49.6342 85.7702C49.6291 85.968 49.5539 86.1575 49.4219 86.3048L47.6569 88.2548L52.3769 85.5315C52.5589 85.4295 52.7725 85.3996 52.9755 85.4474C53.1785 85.4953 53.3562 85.6176 53.4734 85.7901C53.5907 85.9626 53.6389 86.1728 53.6087 86.3792C53.5785 86.5856 53.472 86.7731 53.3102 86.9048L52.9769 87.1715L53.9769 86.5932C54.1564 86.49 54.3679 86.4574 54.5702 86.5016C54.7725 86.5459 54.9511 86.6639 55.0711 86.8326C55.1911 87.0013 55.2441 87.2087 55.2196 87.4143C55.1951 87.6199 55.0949 87.809 54.9386 87.9448L51.6669 90.7782L55.4636 88.5865C55.6382 88.4858 55.8434 88.4518 56.0412 88.4908C56.239 88.5299 56.4159 88.6393 56.5392 88.7988C56.6625 88.9583 56.7237 89.157 56.7117 89.3583C56.6996 89.5595 56.615 89.7495 56.4736 89.8932L52.1536 94.2598L56.1136 91.9748C56.291 91.8746 56.499 91.8429 56.6983 91.8856C56.8975 91.9284 57.0742 92.0427 57.1949 92.2069C57.3156 92.3711 57.3719 92.5738 57.3532 92.7767C57.3346 92.9797 57.2422 93.1687 57.0936 93.3082L55.6602 94.6248C55.843 94.6258 56.0204 94.6869 56.165 94.7986C56.3097 94.9103 56.4136 95.0665 56.4608 95.243C56.5079 95.4196 56.4958 95.6068 56.4261 95.7758C56.3564 95.9448 56.2331 96.0861 56.0752 96.1782L50.3336 99.4998C50.2081 99.5689 50.0668 99.6045 49.9236 99.6032Z" fill="#E0005A"/>
<path d="M7.30168 99.4497C7.13329 99.4496 6.96887 99.3985 6.83009 99.3032C6.69131 99.2078 6.58467 99.0726 6.52422 98.9155C6.46377 98.7583 6.45236 98.5865 6.49147 98.4227C6.53059 98.259 6.6184 98.1109 6.74334 97.998L8.50001 96.413L5.11001 98.368C4.93474 98.4666 4.72974 98.4984 4.53282 98.4577C4.3359 98.417 4.16034 98.3064 4.03852 98.1465C3.9167 97.9865 3.85684 97.7878 3.86998 97.5872C3.88312 97.3865 3.96837 97.1974 4.11001 97.0547L8.66668 92.538L2.92001 95.8547C2.73896 95.9577 2.52589 95.9892 2.32278 95.9429C2.11966 95.8967 1.94124 95.776 1.82267 95.6047C1.70409 95.4335 1.65396 95.224 1.68216 95.0176C1.71036 94.8112 1.81484 94.6228 1.97501 94.4897L4.00001 92.833L2.28668 93.823C2.10463 93.9268 1.89016 93.9582 1.686 93.911C1.48183 93.8637 1.30296 93.7413 1.18502 93.5681C1.06709 93.3948 1.01874 93.1835 1.04963 92.9763C1.08052 92.769 1.18836 92.581 1.35168 92.4496L1.91668 91.9997C1.78427 92.0017 1.65309 91.974 1.53281 91.9186C1.41252 91.8633 1.3062 91.7816 1.22168 91.6797C1.09841 91.521 1.0366 91.3232 1.04763 91.1226C1.05865 90.922 1.14177 90.7322 1.28168 90.588L3.05001 88.763C2.89523 88.7147 2.75789 88.6223 2.65482 88.4972C2.55175 88.372 2.48743 88.2195 2.46974 88.0584C2.45205 87.8972 2.48176 87.7344 2.55522 87.5898C2.62869 87.4453 2.74272 87.3253 2.88334 87.2447L6.73334 85.0213C6.90729 84.9209 7.11165 84.8867 7.30882 84.9249C7.506 84.9632 7.68271 85.0714 7.80644 85.2296C7.93017 85.3879 7.9926 85.5854 7.98223 85.786C7.97186 85.9866 7.8894 86.1767 7.75001 86.3213L6.64834 87.4563L10.3217 85.333C10.504 85.224 10.7211 85.1888 10.9286 85.2346C11.1361 85.2804 11.3182 85.4036 11.4378 85.5792C11.5574 85.7548 11.6054 85.9694 11.5721 86.1792C11.5387 86.389 11.4265 86.5782 11.2583 86.708L11.1783 86.7697L12.0117 86.293C12.1927 86.19 12.4058 86.1585 12.6089 86.2047C12.812 86.251 12.9904 86.3716 13.109 86.5429C13.2276 86.7142 13.2777 86.9237 13.2495 87.13C13.2213 87.3364 13.1168 87.5248 12.9567 87.658L10.9383 89.313L13.4383 87.873C13.6136 87.7744 13.8186 87.7426 14.0155 87.7833C14.2125 87.824 14.388 87.9345 14.5098 88.0945C14.6316 88.2545 14.6915 88.4531 14.6784 88.6538C14.6652 88.8544 14.58 89.0436 14.4383 89.1863L9.87001 93.6947L14.47 91.0397C14.6473 90.9433 14.8535 90.9146 15.0504 90.9588C15.2473 91.003 15.4214 91.1171 15.5405 91.28C15.6596 91.4429 15.7156 91.6434 15.698 91.8444C15.6804 92.0454 15.5905 92.2332 15.445 92.373L13.6883 93.9597L14.0933 93.7263C14.1882 93.6707 14.293 93.6345 14.4019 93.6196C14.5108 93.6047 14.6215 93.6115 14.7278 93.6396C14.834 93.6677 14.9337 93.7165 15.021 93.7832C15.1083 93.85 15.1815 93.9334 15.2365 94.0285C15.2914 94.1237 15.327 94.2288 15.3412 94.3378C15.3553 94.4468 15.3478 94.5575 15.319 94.6636C15.2902 94.7696 15.2407 94.8689 15.1734 94.9558C15.1061 95.0427 15.0222 95.1153 14.9267 95.1696L7.71834 99.333C7.5925 99.4087 7.44854 99.449 7.30168 99.4497Z" fill="#E0005A"/>
<path d="M50.0916 1.22814C48.0283 1.23653 46.0476 2.03931 44.5606 3.46976C43.0737 4.9002 42.1949 6.84841 42.1066 8.90981C42.0183 18.6265 56.4616 18.4348 57.7733 9.54147H76.2033C76.3787 9.53308 76.5513 9.49417 76.7133 9.42647C76.5899 9.55981 76.4716 9.69147 76.4066 9.75981L74.7399 11.4265L72.2399 13.9265C71.7399 14.4265 74.0066 14.1665 74.4266 13.7465L79.4266 8.74647C79.5349 8.63814 79.5933 8.53981 79.4716 8.42481L74.4716 3.42481C74.0316 2.98647 71.8233 3.87647 72.1949 4.24814L74.5566 6.60981L76.0749 8.12814H57.8033C57.623 6.21823 56.7287 4.44668 55.2991 3.1675C53.8694 1.88831 52.0097 1.19573 50.0916 1.22814ZM49.6783 14.5331C48.2732 14.3465 46.9823 13.6598 46.0423 12.5989C45.1023 11.5379 44.576 10.1738 44.5599 8.75647C44.5202 7.32749 45.0411 5.93966 46.0113 4.88975C46.9815 3.83983 48.3239 3.21115 49.7516 3.13814C51.2636 3.17315 52.7027 3.79505 53.7644 4.87224C54.826 5.94944 55.4269 7.39743 55.4399 8.90981C55.2733 11.9998 53.0883 14.8681 49.6783 14.5331Z" fill="#B7B7B7"/>
<path d="M99.5401 8.50964C99.0167 -1.22536 83.7851 -0.437032 83.7884 9.05464C83.7517 9.95569 83.8966 10.8549 84.2144 11.6989C84.5323 12.5428 85.0165 13.3142 85.6385 13.9673C86.2604 14.6203 87.0073 15.1416 87.8347 15.5002C88.6622 15.8588 89.5533 16.0473 90.4551 16.0546V34.3946L87.7884 31.728C87.3001 31.238 85.0517 32.1196 85.5251 32.5913L90.5251 37.5913C91.0034 38.0696 92.3734 37.4963 92.7601 37.108L97.7601 32.108C98.3367 31.533 96.0117 31.7513 95.5534 32.2113L92.8634 34.8996V15.933C94.6397 15.6873 96.2759 14.8333 97.493 13.5165C98.7102 12.1996 99.4331 10.5014 99.5384 8.7113C99.5384 8.66464 99.5167 8.6363 99.5101 8.5963C99.5225 8.56831 99.5325 8.53932 99.5401 8.50964ZM91.3834 14.6763C89.941 14.4525 88.6278 13.716 87.6848 12.6018C86.7418 11.4877 86.2324 10.0708 86.2501 8.6113C86.209 7.81194 86.3493 7.01365 86.6604 6.27616C86.9715 5.53867 87.4453 4.88107 88.0464 4.35256C88.6475 3.82406 89.3604 3.43833 90.1316 3.22425C90.9029 3.01016 91.7125 2.97326 92.5001 3.1163C93.8079 3.46049 94.9667 4.22414 95.7988 5.29017C96.6309 6.35619 97.0904 7.66573 97.1067 9.01797C96.9184 12.0663 94.7901 15.0713 91.3834 14.6763Z" fill="#B7B7B7"/>
<path d="M16.1951 50.0715C15.6667 40.3331 0.438393 41.1248 0.443393 50.6165C0.406953 51.5175 0.551996 52.4166 0.869905 53.2605C1.18781 54.1043 1.6721 54.8756 2.29399 55.5286C2.91588 56.1816 3.66268 56.7029 4.49002 57.0616C5.31736 57.4202 6.20835 57.6089 7.11006 57.6165V75.9565L4.44339 73.2898C3.95339 72.7998 1.70673 73.6815 2.17839 74.1531L7.17839 79.1531C7.65673 79.6315 9.02839 79.0581 9.41506 78.6715L14.4151 73.6715C14.9901 73.0948 12.6651 73.3131 12.2067 73.7731L9.52839 76.4681V57.4998C11.3047 57.2542 12.9409 56.4002 14.158 55.0833C15.3752 53.7664 16.0981 52.0683 16.2034 50.2781C16.2034 50.2331 16.1801 50.2031 16.1751 50.1631C16.1701 50.1231 16.1967 50.1015 16.1951 50.0715ZM8.03839 56.2381C6.59589 56.014 5.28263 55.2771 4.33968 54.1627C3.39672 53.0483 2.88735 51.6312 2.90506 50.1715C2.86319 49.3715 3.0029 48.5725 3.31372 47.8342C3.62454 47.096 4.09841 46.4376 4.69983 45.9085C5.30125 45.3794 6.01461 44.9933 6.78646 44.779C7.55831 44.5648 8.36864 44.528 9.15673 44.6715C10.4647 45.0154 11.6236 45.779 12.4558 46.8451C13.2879 47.9112 13.7473 49.2208 13.7634 50.5731C13.5717 53.6281 11.4451 56.6315 8.03839 56.2381Z" fill="#B7B7B7"/>
<path d="M99.5401 50.1765C99.0502 41.0582 85.2452 41.7149 83.9252 49.6299H65.5001L69.3335 45.7965C70.3751 44.7549 68.0318 44.5182 67.3435 45.2065L62.3435 50.2065C62.1535 50.3965 61.9968 50.7799 62.2268 51.0099L67.2268 56.0099C67.9285 56.7132 70.2268 55.7632 69.4501 54.9932L65.8285 51.3715H83.8468C84.4035 60.4182 99.0701 58.9099 99.5401 50.1765ZM92.6885 44.6249C93.9787 45.0718 95.0984 45.908 95.8934 47.0182C96.6883 48.1284 97.1193 49.4578 97.1268 50.8232C96.9302 54.4665 93.9835 57.9415 90.0552 56.1765C88.9087 55.6471 87.9373 54.801 87.2555 53.738C86.5737 52.675 86.2099 51.4394 86.2068 50.1765C86.2302 46.7149 89.0601 43.4682 92.6885 44.6249Z" fill="#B7B7B7"/>
<path d="M57.8734 50.1764C57.3834 41.0548 43.6251 41.6764 42.2634 49.5831H23.7534L27.6351 45.7014C28.6351 44.7014 26.2684 44.7281 25.6984 45.2981L20.6984 50.2981C20.5317 50.4648 20.3217 50.7498 20.5451 50.9648L25.5451 55.9648C26.1451 56.5631 28.4317 55.6614 27.7884 55.0181L24.1784 51.4164H42.1784C42.7884 60.4298 57.4034 58.9281 57.8734 50.1764ZM45.4334 46.9148C46.1163 45.8831 47.1406 45.1248 48.3267 44.7728C49.5128 44.4208 50.7849 44.4976 51.9201 44.9898C52.9789 45.5554 53.8662 46.3953 54.489 47.4216C55.1118 48.4479 55.4472 49.6227 55.4601 50.8231C55.4277 52.0813 55.0544 53.3071 54.3801 54.3698C53.6251 55.3487 52.5514 56.0328 51.3451 56.3034C50.1388 56.574 48.8759 56.4141 47.7751 55.8514C46.7916 55.2676 45.9764 54.4385 45.4094 53.4452C44.8423 52.4519 44.5428 51.3285 44.5401 50.1848C44.5438 49.035 44.852 47.9067 45.4334 46.9148Z" fill="#B7B7B7"/>
<path d="M1.23499 9.66624H34.5683C34.6404 9.66038 34.7118 9.64811 34.7817 9.62958L34.7217 9.69624L33.055 11.3629L30.555 13.8629C29.925 14.4912 32.2867 14.3112 32.7783 13.8196L37.7783 8.81958C37.8075 8.79268 37.831 8.76029 37.8476 8.72428C37.8642 8.68826 37.8736 8.64933 37.8751 8.6097C37.8767 8.57007 37.8704 8.53052 37.8566 8.49333C37.8429 8.45613 37.8219 8.422 37.795 8.39291L32.795 3.39291C32.265 2.86458 29.9983 3.74791 30.5383 4.28958L32.9 6.64124L34.265 8.00791H2.09832C1.00832 8.00791 -0.391677 9.66624 1.23499 9.66624Z" fill="#B7B7B7"/>
<path d="M94.45 86.6797C93.815 86.0431 91.5234 86.9597 92.2167 87.6531L95.9767 91.4147H57.79C56.6034 82.2664 42.1984 82.7481 42.11 92.2481C42.0184 101.926 56.395 101.681 57.76 92.9147H96.215C96.2763 92.9095 96.337 92.8995 96.3967 92.8847L92.355 96.9281C91.3417 97.9414 93.6984 98.0114 94.3117 97.3981L99.3117 92.3981C99.49 92.2214 99.6784 91.8981 99.45 91.6764L94.45 86.6797ZM49.6884 97.9064C48.2759 97.7104 46.9809 97.0136 46.039 95.9429C45.0971 94.8723 44.5711 93.499 44.5567 92.0731C44.5102 90.6407 45.0268 89.2471 45.9958 88.1912C46.9648 87.1353 48.3089 86.5012 49.74 86.4247C51.26 86.4679 52.704 87.0992 53.7678 88.1857C54.8316 89.2722 55.4323 90.7292 55.4434 92.2497C55.2767 95.3447 53.1134 98.2581 49.6884 97.9064Z" fill="#B7B7B7"/>
<path d="M30.56 97.2046C29.96 97.8029 32.3016 97.5996 32.7733 97.128L37.7733 92.128C37.8025 92.1042 37.8265 92.0746 37.8436 92.041C37.8608 92.0075 37.8708 91.9707 37.873 91.9331C37.8752 91.8955 37.8695 91.8578 37.8564 91.8225C37.8432 91.7872 37.8229 91.755 37.7966 91.728L32.7966 86.728C32.2966 86.228 30.035 87.103 30.5366 87.6046C31.3233 88.3924 32.1105 89.1796 32.8983 89.9663L34.1783 91.248H16.115C14.9883 82.2746 0.499959 83.3329 0.461626 92.4113C0.416626 101.763 14.42 101.208 16.03 93.078H34.6783L33.06 94.698L30.56 97.2046ZM7.19496 97.938C5.94138 97.5091 4.85386 96.6979 4.08548 95.6186C3.3171 94.5393 2.90655 93.2462 2.91163 91.9213C2.91163 88.3446 6.05496 85.0996 9.79496 86.5213C10.968 87.0067 11.9726 87.8261 12.6837 88.8777C13.3949 89.9294 13.7813 91.1668 13.795 92.4363C13.5583 95.7729 10.96 99.1663 7.19496 97.938Z" fill="#B7B7B7"/>
</g>
</g>
<defs>
<filter id="filter0_d_65_41" x="-3.5621" y="1.22705" width="107.117" height="106.376" filterUnits="userSpaceOnUse" color-interpolation-filters="sRGB">
<feFlood flood-opacity="0" result="BackgroundImageFix"/>
<feColorMatrix in="SourceAlpha" type="matrix" values="0 0 0 0 0 0 0 0 0 0 0 0 0 0 0 0 0 0 127 0" result="hardAlpha"/>
<feOffset dy="4"/>
<feGaussianBlur stdDeviation="2"/>
<feComposite in2="hardAlpha" operator="out"/>
<feColorMatrix type="matrix" values="0 0 0 0 0 0 0 0 0 0 0 0 0 0 0 0 0 0 0.25 0"/>
<feBlend mode="normal" in2="BackgroundImageFix" result="effect1_dropShadow_65_41"/>
<feBlend mode="normal" in="SourceGraphic" in2="effect1_dropShadow_65_41" result="shape"/>
</filter>
<clipPath id="clip0_65_41">
<rect width="100" height="100" fill="white" transform="translate(0 0.5)"/>
</clipPath>
</defs>
</svg>
