<svg width="100" height="101" viewBox="0 0 100 101" fill="none" xmlns="http://www.w3.org/2000/svg">
<path d="M42.97 89.5635C42.7567 89.5635 42.545 89.4819 42.3834 89.3219C42.1167 89.0585 42.06 88.6502 42.2417 88.3219L42.74 87.4335L39.7917 89.1352C39.4467 89.3352 39.0034 89.2619 38.7434 88.9585C38.4834 88.6552 38.4734 88.2102 38.7217 87.8952L41.57 84.3135L34.8217 88.2085C34.45 88.4269 33.9784 88.3202 33.7284 87.9735C33.48 87.6252 33.5334 87.1452 33.8534 86.8619L38.13 83.0919L31.16 87.1152C30.785 87.3369 30.3 87.2219 30.0567 86.8652C29.81 86.5069 29.8834 86.0185 30.2217 85.7452L36.0334 81.0635L27.8317 85.7985C27.45 86.0185 26.9634 85.9035 26.72 85.5385C26.4767 85.1702 26.5617 84.6769 26.9134 84.4119L33.5884 79.3785L24.9134 84.3869C24.5317 84.6085 24.045 84.4919 23.8034 84.1285C23.56 83.7619 23.6417 83.2685 23.9917 83.0035L34.0334 75.3552L21.705 82.4735C21.3167 82.7002 20.8217 82.5769 20.5817 82.1952C20.3434 81.8152 20.4484 81.3169 20.82 81.0635L25.835 77.6502L19.7817 81.1452C19.3984 81.3685 18.905 81.2485 18.6634 80.8752C18.4234 80.5002 18.5184 80.0052 18.8817 79.7452L30.2834 71.6185L17.2617 79.1369C16.8784 79.3619 16.3817 79.2402 16.1417 78.8635C15.9017 78.4869 16.0017 77.9885 16.3684 77.7319L28.51 69.2602L14.995 77.0635C14.6017 77.2919 14.1034 77.1652 13.8684 76.7785C13.6317 76.3952 13.745 75.8919 14.1217 75.6435L19.29 72.2669L13.5584 75.5752C13.17 75.8035 12.675 75.6769 12.435 75.2969C12.1967 74.9152 12.3034 74.4152 12.675 74.1635L24.9734 65.8519L11.7534 73.4835C11.3617 73.7085 10.8667 73.5835 10.63 73.2035C10.3917 72.8219 10.4984 72.3219 10.8717 72.0702L24.2284 63.0919L10.0784 71.2602C9.6867 71.4919 9.1867 71.3585 8.94837 70.9719C8.71337 70.5852 8.8317 70.0802 9.2117 69.8369L13.2767 67.2385L9.02003 69.6952C8.63337 69.9219 8.1367 69.7985 7.8967 69.4169C7.65837 69.0352 7.76503 68.5369 8.1367 68.2835L26.7484 55.6802L7.34503 66.8819C6.95337 67.1102 6.45503 66.9835 6.2167 66.5952C5.98003 66.2119 6.0967 65.7069 6.47337 65.4602L22.6834 54.9502L6.15003 64.4952C5.75337 64.7235 5.2517 64.5919 5.01837 64.2019C4.78337 63.8135 4.9067 63.3069 5.29337 63.0652L9.15837 60.6619L5.41003 62.8252C5.01503 63.0535 4.5117 62.9235 4.2767 62.5302C4.04337 62.1402 4.16837 61.6335 4.55503 61.3935L5.16837 61.0152L4.7917 61.2319C4.39503 61.4602 3.89503 61.3285 3.66003 60.9402C3.42503 60.5502 3.54837 60.0452 3.93337 59.8035L17.265 51.4702L4.0667 59.0902C3.67003 59.3185 3.1667 59.1885 2.93337 58.7952C2.70003 58.4052 2.82503 57.8985 3.21337 57.6585L10.4617 53.1935L3.5317 57.1935C3.14003 57.4252 2.6417 57.2935 2.4017 56.9052C2.1667 56.5185 2.28503 56.0135 2.6667 55.7685L33.1684 36.3085L2.8117 53.8502C2.4167 54.0785 1.91337 53.9469 1.68003 53.5585C1.44503 53.1685 1.56837 52.6635 1.95337 52.4219L28.1117 36.0769L2.39503 50.9252C2.00337 51.1569 1.5017 51.0252 1.26337 50.6335C1.02837 50.2452 1.15003 49.7402 1.53337 49.4985L29.8634 31.6852L2.16503 47.6785C1.76837 47.9069 1.26837 47.7752 1.03337 47.3852C0.798367 46.9952 0.921701 46.4902 1.3067 46.2485L22.935 32.7685L2.1717 44.7569C1.78003 44.9869 1.28003 44.8569 1.0417 44.4685C0.806701 44.0819 0.925034 43.5769 1.3067 43.3319L29.7517 25.1769L2.46003 40.9352C2.0667 41.1652 1.56837 41.0352 1.33003 40.6469C1.09503 40.2602 1.21337 39.7552 1.59503 39.5102L26.1184 23.8619L3.08837 37.1585C2.6917 37.3885 2.1917 37.2569 1.9567 36.8652C1.7217 36.4735 1.84503 35.9702 2.2317 35.7285L11.4517 29.9985L3.7767 34.4285C3.38503 34.6602 2.88337 34.5285 2.6467 34.1385C2.4117 33.7519 2.53003 33.2469 2.91337 33.0035L18.0334 23.4052L4.91503 30.9785C4.52337 31.2085 4.0217 31.0802 3.7867 30.6919C3.55003 30.3069 3.6667 29.8019 4.04503 29.5569L18.9667 19.9302L6.64003 27.0485C6.2467 27.2769 5.75003 27.1502 5.51337 26.7635C5.2767 26.3769 5.39003 25.8752 5.7667 25.6285L16.825 18.4235L8.95837 22.9652C8.5667 23.1952 8.0667 23.0669 7.83003 22.6785C7.59337 22.2935 7.71003 21.7885 8.08837 21.5435L11.1817 19.5469C10.8817 19.5969 10.5434 19.4635 10.3584 19.1819C10.115 18.8152 10.2 18.3219 10.5517 18.0569L18.435 12.1269C18.18 12.0985 17.94 11.9535 17.8034 11.7152C17.5717 11.3169 17.7084 10.8069 18.1084 10.5769L28.4284 4.61854C28.8067 4.3952 29.2967 4.51187 29.54 4.8802C29.7834 5.24687 29.6984 5.7402 29.3467 6.0052L22.5217 11.1369L38.5134 1.91354C38.905 1.6852 39.405 1.81187 39.6417 2.2002C39.8784 2.5852 39.7617 3.0902 39.3834 3.3352L37.2517 4.71187L42.7517 1.53687C43.1434 1.30854 43.6417 1.4352 43.8784 1.82187C44.115 2.20854 44.0017 2.7102 43.625 2.95687L32.5684 10.1602L47.3834 1.6052C47.775 1.37687 48.275 1.50354 48.5117 1.89187C48.7484 2.27687 48.6317 2.78187 48.2534 3.02687L33.3267 12.6569L51.5984 2.10687C51.9934 1.8802 52.4934 2.00687 52.7284 2.39687C52.9634 2.78354 52.845 3.28854 52.4617 3.53187L37.35 13.1252L55.1334 2.85854C55.5267 2.62854 56.03 2.7602 56.265 3.15187C56.5 3.54354 56.3767 4.04687 55.99 4.28854L46.7367 10.0385L57.8134 3.64354C58.2067 3.4152 58.7067 3.5452 58.9434 3.93187C59.1784 4.31854 59.06 4.82354 58.6784 5.06854L34.18 20.7002L61.38 4.99187C61.7734 4.76354 62.2734 4.89187 62.51 5.2802C62.745 5.66687 62.6267 6.17187 62.245 6.41687L33.7867 24.5802L64.8267 6.65854C65.2217 6.42687 65.7217 6.55854 65.9584 6.95187C66.1934 7.3402 66.07 7.84687 65.685 8.08854L44.0534 21.5702L67.3267 8.13354C67.7217 7.9052 68.22 8.03354 68.4584 8.4252C68.6934 8.81354 68.5717 9.31854 68.1884 9.5602L39.855 27.3735L68.6767 10.7352C69.07 10.5035 69.5734 10.6369 69.8084 11.0269C70.0434 11.4169 69.92 11.9219 69.535 12.1635L43.3834 28.5052L64.9217 16.0702C65.3167 15.8435 65.8134 15.9719 66.0517 16.3585C66.2867 16.7452 66.1684 17.2502 65.7867 17.4952L35.2784 36.9602L60.375 22.4719C60.7684 22.2402 61.2717 22.3719 61.5084 22.7669C61.7417 23.1569 61.6167 23.6635 61.23 23.9035L54.0367 28.3335L57.725 26.2052C58.1184 25.9735 58.62 26.1069 58.8567 26.4969C59.0917 26.8869 58.9684 27.3919 58.5834 27.6335L45.2367 35.9752L54.6434 30.5452C55.0367 30.3135 55.54 30.4452 55.7767 30.8402C56.01 31.2302 55.885 31.7369 55.4984 31.9769L52.6334 33.7419C52.9267 33.7252 53.255 33.8569 53.4284 34.1435C53.6634 34.5319 53.54 35.0385 53.1534 35.2802L49.3067 37.6735L49.7717 37.4052C50.1634 37.1769 50.6617 37.3035 50.9 37.6919C51.1367 38.0752 51.02 38.5802 50.6434 38.8269L34.425 49.3435L46.0667 42.6235C46.4567 42.3985 46.9517 42.5202 47.19 42.9019C47.4284 43.2835 47.3217 43.7819 46.95 44.0352L28.34 56.6385L44.5384 47.2869C44.9334 47.0602 45.4317 47.1885 45.6684 47.5752C45.9034 47.9619 45.785 48.4669 45.405 48.7102L41.355 51.2985L44.5384 49.4602C44.9267 49.2319 45.425 49.3569 45.6617 49.7402C45.9 50.1219 45.7934 50.6219 45.42 50.8735L32.06 59.8535L44.5367 52.6519C44.9284 52.4269 45.4217 52.5519 45.66 52.9302C45.8984 53.3119 45.7917 53.8119 45.42 54.0635L33.125 62.3719L44.5367 55.7852C44.9284 55.5569 45.4284 55.6852 45.6634 56.0702C45.9 56.4535 45.7867 56.9569 45.41 57.2052L40.2217 60.5969L44.5384 58.1052C44.925 57.8785 45.4184 58.0019 45.6584 58.3785C45.8984 58.7552 45.7984 59.2535 45.4317 59.5102L33.2984 67.9752L44.5384 61.4852C44.9184 61.2602 45.4134 61.3802 45.6567 61.7552C45.8967 62.1302 45.8017 62.6252 45.4384 62.8852L34.04 71.0102L44.5384 64.9485C44.93 64.7235 45.4234 64.8452 45.6617 65.2269C45.9 65.6069 45.795 66.1052 45.4234 66.3585L40.4017 69.7769L44.5367 67.3885C44.915 67.1635 45.405 67.2819 45.6467 67.6469C45.89 68.0135 45.8084 68.5069 45.4584 68.7719L35.4167 76.4202L44.5384 71.1552C44.9167 70.9319 45.4067 71.0485 45.65 71.4152C45.8934 71.7835 45.8084 72.2769 45.4567 72.5419L38.7834 77.5735L44.5384 74.2519C44.9117 74.0302 45.3984 74.1435 45.6417 74.5019C45.8884 74.8602 45.815 75.3485 45.4767 75.6219L39.665 80.3035L44.54 77.4902C44.9084 77.2752 45.3834 77.3769 45.6334 77.7252C45.8817 78.0735 45.8284 78.5535 45.5084 78.8369L41.23 82.6085L44.54 80.6985C44.8834 80.4952 45.3267 80.5735 45.5884 80.8752C45.8484 81.1785 45.8584 81.6235 45.61 81.9385L42.7617 85.5202L44.54 84.4952C44.8634 84.3052 45.2717 84.3602 45.5434 84.6235C45.81 84.8869 45.8667 85.2952 45.685 85.6235L45.005 86.8385C45.2417 86.8785 45.4567 87.0202 45.5867 87.2435C45.8184 87.6419 45.6817 88.1519 45.2817 88.3819L43.3934 89.4719C43.2634 89.5485 43.12 89.5835 42.9767 89.5835L42.97 89.5635Z" fill="url(#paint0_linear_65_13)"/>
<path d="M59.2349 49.6168C58.9549 49.6168 58.6816 49.4751 58.5233 49.2184C58.2866 48.8351 58.4033 48.3301 58.7799 48.0834L64.9933 44.0568L56.9499 48.7001C56.5583 48.9301 56.0566 48.8001 55.8199 48.4101C55.5849 48.0218 55.7049 47.5168 56.0866 47.2734L57.0749 46.6501C56.7416 46.7218 56.3749 46.5834 56.1833 46.2734C55.9466 45.8901 56.0583 45.3868 56.4349 45.1384L66.0833 38.7901L60.6299 41.9384C60.2383 42.1668 59.7383 42.0401 59.5016 41.6518C59.2649 41.2668 59.3816 40.7618 59.7599 40.5168L62.6416 38.6568C62.3716 38.6534 62.1083 38.5184 61.9516 38.2751C61.7099 37.9018 61.8033 37.4068 62.1649 37.1451L73.4566 29.0168L67.4049 32.5101C67.0266 32.7334 66.5333 32.6168 66.2916 32.2451C66.0483 31.8751 66.1383 31.3801 66.4933 31.1184L73.0766 26.2668L71.0549 27.4334C70.6766 27.6534 70.1949 27.5401 69.9516 27.1834C69.7049 26.8234 69.7783 26.3368 70.1166 26.0634L74.6816 22.3951L74.6749 22.3984C74.3249 22.6034 73.8749 22.5218 73.6133 22.2068C73.3549 21.8918 73.3633 21.4351 73.6316 21.1284L78.2166 15.9051C78.1733 15.8601 78.1333 15.8068 78.1016 15.7484C77.8699 15.3501 78.0066 14.8401 78.4066 14.6101L80.4516 13.4284C80.8033 13.2234 81.2533 13.3051 81.5133 13.6201C81.7733 13.9351 81.7633 14.3918 81.4949 14.6984L78.2216 18.4268L83.2433 15.5284C83.6183 15.3068 84.1016 15.4201 84.3483 15.7784C84.5933 16.1384 84.5216 16.6268 84.1816 16.8984L79.6166 20.5668L85.1799 17.3551C85.5616 17.1334 86.0533 17.2501 86.2933 17.6201C86.5366 17.9901 86.4466 18.4851 86.0916 18.7468L79.5116 23.5951L86.9949 19.2751C87.3749 19.0501 87.8683 19.1701 88.1116 19.5434C88.3533 19.9168 88.2599 20.4118 87.8983 20.6734L76.6049 28.8034L88.9566 21.6734C89.3483 21.4468 89.8483 21.5734 90.0849 21.9601C90.3216 22.3468 90.2049 22.8501 89.8266 23.0951L88.9166 23.6834L89.9833 23.0684C90.3766 22.8418 90.8716 22.9684 91.1099 23.3518C91.3466 23.7351 91.2349 24.2384 90.8583 24.4868L81.2133 30.8334L91.2783 25.0234C91.6733 24.7951 92.1733 24.9234 92.4083 25.3134C92.6433 25.7034 92.5233 26.2068 92.1416 26.4501L91.9583 26.5651L92.1449 26.4584C92.5366 26.2318 93.0349 26.3568 93.2733 26.7451C93.5099 27.1284 93.3933 27.6334 93.0166 27.8801L86.7933 31.9134L93.1249 28.2601C93.5116 28.0351 94.0033 28.1568 94.2449 28.5334C94.4849 28.9101 94.3849 29.4068 94.0199 29.6634L81.1899 38.6751L94.4199 31.0368C94.8016 30.8134 95.2899 30.9334 95.5333 31.3001C95.7766 31.6701 95.6883 32.1651 95.3316 32.4284L84.1449 40.6984L95.5916 34.0901C95.9799 33.8618 96.4749 33.9868 96.7149 34.3701C96.9533 34.7501 96.8466 35.2501 96.4749 35.5018L95.4249 36.2101L96.1383 35.8001C96.5149 35.5751 97.0049 35.6951 97.2483 36.0584C97.4916 36.4251 97.4099 36.9184 97.0599 37.1834L91.3566 41.5268L96.8033 38.3834C97.1716 38.1701 97.6499 38.2718 97.8983 38.6218C98.1466 38.9718 98.0899 39.4534 97.7666 39.7351L93.1699 43.7268L97.3633 41.3068C97.7383 41.0868 98.2216 41.1984 98.4649 41.5534C98.7116 41.9118 98.6416 42.3984 98.3066 42.6734L97.8433 43.0518C98.1083 42.9984 98.3933 43.0668 98.5999 43.2618C98.8666 43.5151 98.9349 43.9168 98.7683 44.2451L97.5383 46.6568L97.8666 46.4684C98.2649 46.2351 98.7749 46.3734 99.0049 46.7734C99.2366 47.1718 99.0999 47.6818 98.6999 47.9118L95.9333 49.5084C95.6149 49.6951 95.2099 49.6468 94.9416 49.3918C94.6749 49.1384 94.6066 48.7368 94.7733 48.4084L96.0033 45.9984L89.9216 49.5084C89.5483 49.7284 89.0649 49.6168 88.8199 49.2618C88.5733 48.9034 88.6433 48.4168 88.9783 48.1418L89.2683 47.9051L86.4899 49.5084C86.1199 49.7268 85.6433 49.6184 85.3949 49.2701C85.1466 48.9201 85.2033 48.4384 85.5266 48.1568L90.1216 44.1684L80.8716 49.5068C80.4916 49.7284 80.0033 49.6101 79.7616 49.2484C79.5183 48.8818 79.5999 48.3884 79.9499 48.1234L85.6516 43.7801L75.7316 49.5084C75.3383 49.7334 74.8466 49.6084 74.6083 49.2284C74.3699 48.8484 74.4766 48.3484 74.8483 48.0968L75.9099 47.3801L72.2233 49.5068C71.8433 49.7301 71.3533 49.6118 71.1099 49.2434C70.8666 48.8718 70.9549 48.3784 71.3116 48.1151L82.4933 39.8484L65.7649 49.5068C65.3833 49.7318 64.8883 49.6101 64.6449 49.2334C64.4049 48.8568 64.5049 48.3601 64.8699 48.1034L77.7033 39.0884L59.6583 49.5068C59.5266 49.5834 59.3833 49.6184 59.2416 49.6184L59.2349 49.6168Z" fill="#7E0197"/>
<path d="M59.52 99.4048C59.2433 99.4048 58.9733 99.2665 58.815 99.0165C58.575 98.6382 58.6783 98.1398 59.0466 97.8848L76.02 86.1882L55.4866 98.0415C55.0933 98.2715 54.595 98.1415 54.3583 97.7532C54.1216 97.3682 54.2383 96.8632 54.6183 96.6182L64.94 89.9932L55.4666 95.4615C55.0716 95.6915 54.5683 95.5582 54.335 95.1698C54.1 94.7798 54.2233 94.2748 54.6083 94.0332L55.3666 93.5598C54.9966 93.7132 54.5583 93.5782 54.34 93.2265C54.1033 92.8432 54.215 92.3415 54.59 92.0915L73.0316 79.9532L55.465 90.0948C55.0733 90.3265 54.5716 90.1948 54.335 89.8048C54.1 89.4182 54.22 88.9132 54.6016 88.6682L63.02 83.3365L55.465 87.6982C55.0733 87.9265 54.5716 87.7998 54.3366 87.4115C54.1 87.0265 54.2166 86.5215 54.595 86.2765L69.325 76.7748L55.465 84.7765C55.0733 85.0065 54.57 84.8782 54.3333 84.4848C54.0983 84.0965 54.22 83.5915 54.605 83.3482L59.9816 79.9715L55.465 82.5782C55.0733 82.8082 54.5716 82.6782 54.3366 82.2898C54.1 81.9032 54.2183 81.3998 54.5983 81.1548L65.1666 74.3865L55.465 79.9865C55.0733 80.2148 54.575 80.0865 54.3383 79.7015C54.1016 79.3165 54.215 78.8165 54.59 78.5682L66.0166 71.0848L55.4633 77.1765C55.0766 77.4048 54.5816 77.2798 54.3416 76.8998C54.1016 76.5198 54.2066 76.0215 54.575 75.7682L67.3383 67.0182L55.4633 73.8715C55.0766 74.0982 54.5833 73.9748 54.3433 73.5982C54.1033 73.2215 54.2033 72.7232 54.57 72.4665L63.9933 65.8782L55.4633 70.8015C55.08 71.0282 54.585 70.9048 54.3433 70.5298C54.1033 70.1532 54.2016 69.6565 54.5666 69.3982L59.9933 65.5832L55.4633 68.1965C55.0916 68.4148 54.61 68.3082 54.3633 67.9532C54.1166 67.5982 54.1816 67.1115 54.515 66.8348L61.3516 61.1515L55.465 64.5498C55.0933 64.7682 54.6116 64.6615 54.365 64.3065C54.1183 63.9532 54.1833 63.4682 54.5133 63.1898L57.0566 61.0632L55.465 61.9815C55.1016 62.1948 54.635 62.0982 54.3816 61.7582C54.13 61.4198 54.1683 60.9465 54.4766 60.6565L55.4016 59.7782C55.085 59.9248 54.7083 59.8615 54.46 59.6115C54.195 59.3432 54.1416 58.9298 54.33 58.6048L54.985 57.4782C54.755 57.4348 54.5433 57.2948 54.4183 57.0765C54.1866 56.6782 54.3233 56.1682 54.7233 55.9382L56.6566 54.8215C56.9833 54.6298 57.395 54.6882 57.6633 54.9532C57.9283 55.2215 57.9816 55.6348 57.7933 55.9598L57.3416 56.7365L60.6583 54.8215C61.0216 54.6082 61.4866 54.7048 61.7416 55.0448C61.995 55.3832 61.955 55.8565 61.6466 56.1465L60.7283 57.0182L64.535 54.8215C64.9083 54.6015 65.3866 54.7115 65.635 55.0648C65.8816 55.4182 65.8166 55.9032 65.4866 56.1815L62.9433 58.3082L68.9866 54.8198C69.36 54.5998 69.84 54.7098 70.0866 55.0632C70.3333 55.4165 70.2683 55.9048 69.935 56.1815L63.1 61.8632L75.3016 54.8182C75.685 54.5932 76.1783 54.7148 76.4216 55.0898C76.6616 55.4665 76.5633 55.9632 76.1983 56.2215L70.7683 60.0398L79.8133 54.8182C80.2016 54.5932 80.6933 54.7148 80.9333 55.0915C81.1733 55.4682 81.0733 55.9665 80.7066 56.2232L71.2816 62.8132L85.1316 54.8182C85.5216 54.5932 86.015 54.7165 86.2533 55.0948C86.4933 55.4748 86.3883 55.9732 86.02 56.2265L73.2633 64.9732L90.8533 54.8182C91.245 54.5898 91.745 54.7165 91.98 55.1032C92.2166 55.4865 92.1033 55.9882 91.7283 56.2365L80.3033 63.7198L95.7233 54.8165C96.1183 54.5898 96.6166 54.7182 96.8516 55.1048C97.0883 55.4915 96.97 55.9948 96.59 56.2398L86.03 63.0032L97.84 56.1848C98.235 55.9582 98.7366 56.0848 98.9716 56.4765C99.2066 56.8648 99.085 57.3698 98.7 57.6132L93.315 60.9965L97.7433 58.4398C98.1366 58.2115 98.6366 58.3382 98.8716 58.7265C99.1083 59.1115 98.9916 59.6165 98.6133 59.8615L83.8766 69.3682L97.3533 61.5882C97.7483 61.3598 98.2483 61.4898 98.4833 61.8782C98.7183 62.2665 98.5983 62.7698 98.2166 63.0148L89.8016 68.3448L96.8466 64.2782C97.2383 64.0498 97.735 64.1782 97.9733 64.5615C98.21 64.9448 98.0983 65.4465 97.7233 65.6965L79.2883 77.8298L95.7283 68.3382C96.1233 68.1082 96.6233 68.2398 96.86 68.6298C97.095 69.0198 96.9716 69.5248 96.5866 69.7665L95.0666 70.7165C95.41 70.6415 95.7683 70.7865 95.9583 71.0982C96.195 71.4832 96.0783 71.9882 95.6983 72.2332L85.3616 78.8665L93.255 74.3098C93.6466 74.0832 94.1366 74.2082 94.3766 74.5865C94.6166 74.9648 94.5133 75.4632 94.145 75.7182L77.1766 87.4115L89.6516 80.2098C90.04 79.9798 90.5383 80.1065 90.7783 80.4932C91.015 80.8748 90.9033 81.3782 90.5283 81.6265L86.735 84.1315H86.7383C87.025 84.1315 87.3066 84.2815 87.46 84.5482C87.6916 84.9465 87.555 85.4565 87.155 85.6865L65.035 98.4565C64.6433 98.6832 64.1466 98.5582 63.9083 98.1732C63.6716 97.7915 63.7833 97.2882 64.1583 97.0398L66.395 95.5632L59.94 99.2882C59.8083 99.3648 59.665 99.3998 59.5233 99.3998L59.52 99.4048Z" fill="#FFC55F"/>
<path d="M70.1417 11.6769C71.7217 8.97187 67.3884 7.33021 65.5067 6.38687C57.0484 2.01687 47.1483 0.548539 37.775 2.17354C-13.44 11.5752 -10.645 85.1652 41.6583 89.3735C44.1417 89.6819 46.7167 88.5035 46.2083 85.6269C46.2083 75.2919 46.2083 64.9552 46.2083 54.6202C46.59 51.1752 45.2617 47.1752 47.105 44.1019C54.785 33.2935 62.4633 22.4852 70.1417 11.6769ZM43.7933 47.2502C43.7917 60.4369 43.7967 73.6235 43.7933 86.8085C43.7667 87.8902 43.4783 88.1769 42.185 88.0752C14.9467 86.4835 -4.02499 56.8052 5.20668 31.2869C12.3817 8.91854 39.2317 -3.70813 60.7983 6.18687C62.6184 7.27521 69.0617 9.15187 67.8434 11.7819C61.255 21.0552 54.6683 30.3269 48.08 39.6002C46.4883 41.8402 43.7933 44.3685 43.7933 47.2502Z" fill="#262626"/>
<path d="M95.8617 30.8718C92.8134 24.2768 88.2817 17.8851 82.2651 13.7368C79.2867 12.3785 77.5651 15.4751 76.1567 17.4351C69.3484 27.0518 62.2717 36.5185 55.5117 46.1485C53.7217 49.2135 57.3551 49.4351 59.3751 49.4351H95.9184C100.403 49.5385 99.8434 45.3501 99.1217 42.2135C98.5584 38.3068 97.4584 34.4818 95.8617 30.8718ZM66.0917 48.2318C61.9034 47.7801 53.7034 50.3335 59.5851 43.5301C66.2434 34.2685 72.9017 25.0085 79.5601 15.7468C80.2684 14.0385 81.1017 15.3685 82.0851 16.2318C88.1534 21.4318 92.7267 28.3385 95.1267 35.9618C95.4834 37.0835 98.2001 47.7951 96.8817 48.2318H66.0917Z" fill="#262626"/>
<path d="M53.7934 97.2085C54.0734 100.032 56.9851 99.4068 59.1051 99.1935C80.8251 97.2951 98.7751 78.7268 99.5401 56.8835C99.1534 53.9385 93.4251 54.9301 91.3717 54.9301C80.8817 54.9301 70.3901 54.9301 59.9001 54.9301C57.5884 54.9301 53.9534 54.5668 53.7934 57.7618C53.8284 70.8935 53.6251 84.0985 53.7934 97.2085ZM56.2451 56.6485C56.3884 55.7418 56.0034 56.2868 56.6117 56.0701C68.9801 56.0568 81.4584 56.0801 93.8551 56.0701C95.2217 56.0701 96.8734 55.6151 97.1251 57.5318C96.4417 72.6135 87.8234 86.6501 74.3917 93.6901C71.9917 94.9485 56.4334 101.217 56.2084 96.4785C56.1667 83.2135 56.1817 69.9068 56.2451 56.6485Z" fill="#262626"/>
<defs>
<linearGradient id="paint0_linear_65_13" x1="35.4209" y1="1.42334" x2="35.4209" y2="89.5835" gradientUnits="userSpaceOnUse">
<stop stop-color="#B2667D"/>
<stop offset="1" stop-color="#EFB265"/>
</linearGradient>
</defs>
</svg>
