<svg width="33" height="32" viewBox="0 0 33 32" fill="none" xmlns="http://www.w3.org/2000/svg">
<path d="M30.2147 15.0283V16.9712L16.5576 24.914L2.78613 16.9712V15.0854V15.0283L4.04328 14.3426L4.32899 14.1711L10.4433 10.5711L10.729 10.4569L15.0718 7.94258L15.3004 7.77115L16.4433 7.14258L18.1004 8.05686L18.3861 8.22829L22.2147 10.4569L22.5004 10.6283L28.1576 13.8854L28.4433 14.0569L30.2147 15.0854V15.0283Z" fill="#72D561"/>
<path d="M30.2138 15.0283V16.9712L16.5566 24.914V22.9712L30.2138 15.0283Z" fill="#72D561"/>
<path d="M16.5576 22.9712V24.914L2.78613 16.9712V15.0283L16.5576 22.9712Z" fill="#5EC363"/>
<path d="M30.2147 15.0288L29.0147 15.7145L28.729 15.8859L24.2718 18.5145L23.929 18.6859L18.0433 22.1145L17.7576 22.2859L16.5576 22.9717L14.7861 21.9431L14.5004 21.8288L6.84328 17.4288L6.55756 17.2574L4.72899 16.1717L4.44328 16.0002L2.78613 15.0288L4.04328 14.2859L4.32899 14.1717L10.4433 10.5717L10.729 10.4002L15.0718 7.94308L15.3004 7.77165L16.4433 7.08594L18.1004 8.05737L18.3861 8.22879L22.2147 10.4574L22.5004 10.6288L28.1576 13.8859L28.4433 14.0002L30.2147 15.0288Z" fill="#78E75A"/>
<path d="M28.4429 14L14.7857 21.9429L14.5 21.8286L28.1571 13.8857L28.4429 14Z" fill="#5EC363"/>
<path d="M18.043 22.1147L17.7573 22.2862L4.04297 14.2862L4.32868 14.1719L18.043 22.1147Z" fill="#5EC363"/>
<path d="M29.0143 15.7143L28.7286 15.8858L15.0714 7.94291L15.3 7.77148L29.0143 15.7143Z" fill="#5EC363"/>
<path d="M18.3862 8.22807L4.72907 16.1709L4.44336 15.9995L18.1005 8.05664L18.3862 8.22807Z" fill="#5EC363"/>
<path d="M22.5004 10.6285L21.1861 11.3713L20.9004 11.1999L22.2147 10.457L22.5004 10.6285Z" fill="#5EC363"/>
<path d="M12.2143 18.9712L10.9 19.7141L10.6143 19.5427L11.9285 18.7998L12.2143 18.9712Z" fill="#5EC363"/>
<path d="M12.4434 11.429L12.1576 11.5432L10.4434 10.5718L10.7291 10.4004L12.4434 11.429Z" fill="#5EC363"/>
<path d="M24.271 18.5144L23.9282 18.6859L22.0996 17.6573L22.4425 17.4287L24.271 18.5144Z" fill="#5EC363"/>
<path d="M8.21378 16.6285L6.84235 17.4285L6.55664 17.257L7.92807 16.457L8.21378 16.6285Z" fill="#5EC363"/>
<path d="M25.1289 15.0859V15.4288L26.2146 16.0574V15.7145L25.1289 15.0859Z" fill="#1D2943"/>
<path d="M26.2139 15.7146V16.0575L27.9282 15.086V14.7432L26.2139 15.7146Z" fill="#111D33"/>
<path d="M25.1289 15.0852L26.2146 15.7138L27.9289 14.7424L26.8432 14.0566L25.1289 15.0852Z" fill="#4C5C75"/>
<path d="M17.7568 10.3428V10.6856L18.8425 11.3713V10.9713L17.7568 10.3428Z" fill="#1D2943"/>
<path d="M18.8428 10.9714V11.3714L20.5571 10.3429V10L18.8428 10.9714Z" fill="#111D33"/>
<path d="M17.7568 10.3425L18.8425 10.9711L20.5568 9.99967L19.4711 9.37109L17.7568 10.3425Z" fill="#4C5C75"/>
<path d="M15.0146 20.9717V21.2574L15.8718 21.7717V21.486L15.0146 20.9717Z" fill="#1D2943"/>
<path d="M15.8711 21.4855V21.7713L17.2997 20.9713V20.6855L15.8711 21.4855Z" fill="#111D33"/>
<path d="M15.0146 20.9719L15.8718 21.4862L17.3004 20.6862L16.3861 20.1719L15.0146 20.9719Z" fill="#4C5C75"/>
<path d="M7.58594 13.5996V13.9425L8.72879 14.571V14.2282L7.58594 13.5996Z" fill="#1D2943"/>
<path d="M8.72852 14.2283V14.5711L10.4428 13.5997V13.2568L8.72852 14.2283Z" fill="#111D33"/>
<path d="M7.58594 13.5999L8.72879 14.2284L10.4431 13.257L9.30022 12.5713L7.58594 13.5999Z" fill="#4C5C75"/>
<path d="M20.3282 20.1713C20.1568 20.1713 19.9282 20.057 19.8139 19.8856C19.6425 19.5999 19.7568 19.257 20.0425 19.0856L21.0139 18.5141C21.2997 18.3427 21.6425 18.457 21.8139 18.7427C21.9854 19.0284 21.8711 19.3713 21.5854 19.5427L20.6139 20.1141C20.5568 20.1713 20.4425 20.1713 20.3282 20.1713Z" fill="#FFDE9B"/>
<path d="M23.9862 13.5424C23.8719 13.5424 23.8148 13.5424 23.7005 13.4853L22.7291 12.9138C22.4434 12.7424 22.3862 12.3995 22.5005 12.1138C22.6148 11.8281 23.0148 11.771 23.3005 11.8853L24.2719 12.4567C24.5576 12.6281 24.6148 12.971 24.5005 13.2567C24.3862 13.4281 24.2148 13.5424 23.9862 13.5424Z" fill="#FFDE9B"/>
<path d="M13.7569 11.0853C13.5855 11.0853 13.3569 10.9711 13.2427 10.7996C13.0712 10.5139 13.1855 10.1711 13.4712 9.99963L14.4427 9.4282C14.7284 9.25677 15.0712 9.37106 15.2427 9.65677C15.4141 9.94249 15.2998 10.2853 15.0141 10.4568L14.0427 11.0282C13.9855 11.0282 13.8712 11.0853 13.7569 11.0853Z" fill="#FFDE9B"/>
<path d="M22.8428 14.6286V15.4857C22.8428 15.5429 22.7857 15.6571 22.6714 15.7143L21.9857 16.1143C21.7 15.9429 21.2428 15.9429 20.9571 16.1143V16.6857L20.2714 17.0857C19.9857 16.9143 19.5286 16.9143 19.2428 17.0857V17.6571L18.5571 18.0571C18.2714 17.8857 17.8143 17.8857 17.5286 18.0571V18.6286L16.8428 19.0286C16.6143 19.1429 16.2714 19.1429 16.0428 19.0286L15.3571 18.6286V18.0571C15.0714 17.8857 14.6143 17.8857 14.3286 18.0571L13.6428 17.6571V17.0857C13.3571 16.9143 12.9 16.9143 12.6143 17.0857L11.9286 16.6857V16.1143C11.6428 15.9429 11.1857 15.9429 10.9 16.1143L10.2143 15.7143C10.1 15.6571 10.0428 15.5429 10.0428 15.4857V14.6286C10.0428 14.5714 10.1 14.4571 10.2143 14.4L10.9 14C11.1857 14.1714 11.6428 14.1714 11.9286 14V13.4286L12.6143 13.0286C12.9 13.2 13.3571 13.2 13.6428 13.0286V12.4571L14.3286 12.0571C14.6143 12.2286 15.0714 12.2286 15.3571 12.0571V11.4857L16.0428 11.0857C16.2714 10.9714 16.6143 10.9714 16.8428 11.0857L17.5286 11.4857V12.0571C17.8143 12.2286 18.2714 12.2286 18.5571 12.0571L19.2428 12.4571V13.0286C19.5286 13.2 19.9857 13.2 20.2714 13.0286L20.9571 13.4286V14C21.2428 14.1714 21.7 14.1714 21.9857 14L22.6714 14.4C22.7857 14.4571 22.8428 14.5714 22.8428 14.6286Z" fill="#1D2943"/>
<path d="M17.3573 12.5716V11.7144C17.3573 11.6001 17.4144 11.4859 17.5859 11.4287V12.2859C17.4144 12.4001 17.3573 12.4573 17.3573 12.5716Z" fill="#1D2943"/>
<path d="M15.6425 11.7711V12.6282C15.6425 12.5139 15.5854 12.3996 15.4139 12.3425V11.4854C15.5282 11.5425 15.6425 11.6568 15.6425 11.7711Z" fill="#1D2943"/>
<path d="M19.0712 13.5432V12.6861C19.0712 12.5718 19.1283 12.4575 19.2997 12.4004V13.2575C19.1283 13.3718 19.0712 13.4861 19.0712 13.5432Z" fill="#1D2943"/>
<path d="M13.9286 12.7427V13.5999C13.9286 13.4856 13.8715 13.3713 13.7001 13.3142V12.457C13.8715 12.5142 13.9286 12.6285 13.9286 12.7427Z" fill="#1D2943"/>
<path d="M20.786 14.5716V13.7144C20.786 13.6001 20.8432 13.4859 21.0146 13.4287V14.2859C20.8432 14.343 20.786 14.4573 20.786 14.5716Z" fill="#1D2943"/>
<path d="M12.2138 13.7144V14.5716C12.2138 14.4573 12.1567 14.343 11.9852 14.2859V13.4287C12.1567 13.4859 12.2138 13.6001 12.2138 13.7144Z" fill="#1D2943"/>
<path d="M22.8432 14.6289V15.486C22.8432 15.5432 22.786 15.6575 22.6718 15.7146V14.8575C22.786 14.8003 22.8432 14.7432 22.8432 14.6289Z" fill="#1D2943"/>
<path d="M10.1571 15.486V14.6289C10.1571 14.686 10.2142 14.8003 10.3285 14.8575V15.7146C10.2142 15.6575 10.1571 15.5432 10.1571 15.486Z" fill="#1D2943"/>
<path d="M22.6709 14.8574V15.7146L21.9852 16.1146V15.2574L22.6709 14.8574Z" fill="#1D2943"/>
<path d="M11.0137 15.2574V16.1146L10.328 15.7146V14.8574L11.0137 15.2574Z" fill="#1D2943"/>
<path d="M20.786 16.4003V15.5432C20.786 15.4289 20.8432 15.3146 21.0146 15.2575C21.3003 15.086 21.7574 15.086 22.0432 15.2575V16.1146C21.7574 15.9432 21.3003 15.9432 21.0146 16.1146C20.8432 16.1718 20.786 16.286 20.786 16.4003Z" fill="#111D33"/>
<path d="M12.2141 15.5432V16.4003C12.2141 16.286 12.1569 16.1718 11.9855 16.1146C11.6998 15.9432 11.2426 15.9432 10.9569 16.1146V15.2575C11.2426 15.086 11.6998 15.086 11.9855 15.2575C12.1569 15.3718 12.2141 15.4289 12.2141 15.5432Z" fill="#111D33"/>
<path d="M20.9571 15.8281V16.6853L20.2714 17.0853L20.3285 16.2281L20.9571 15.8281Z" fill="#1D2943"/>
<path d="M12.7286 16.2281V17.0853L12.0428 16.6853V15.8281L12.7286 16.2281Z" fill="#1D2943"/>
<path d="M19.0712 17.371V16.5139C19.0712 16.3996 19.1283 16.2853 19.2997 16.2282C19.5855 16.0568 20.0426 16.0568 20.3283 16.2282V17.0853C20.0426 16.9139 19.5855 16.9139 19.2997 17.0853C19.1283 17.1425 19.0712 17.2568 19.0712 17.371Z" fill="#111D33"/>
<path d="M13.9289 16.5139V17.371C13.9289 17.2568 13.8718 17.1425 13.7003 17.0853C13.4146 16.9139 12.9575 16.9139 12.6718 17.0853V16.2282C12.9575 16.0568 13.4146 16.0568 13.7003 16.2282C13.8718 16.3425 13.9289 16.4568 13.9289 16.5139Z" fill="#111D33"/>
<path d="M19.2999 16.8574V17.6574L18.6141 18.0574V17.2574L19.2999 16.8574Z" fill="#1D2943"/>
<path d="M14.4424 17.2574V18.0574L13.7567 17.6574V16.8574L14.4424 17.2574Z" fill="#1D2943"/>
<path d="M17.3573 18.3427V17.4856C17.3573 17.3713 17.4144 17.257 17.5859 17.1999C17.8716 17.0284 18.3287 17.0284 18.6144 17.1999V18.057C18.3287 17.8856 17.8716 17.8856 17.5859 18.057C17.4716 18.1713 17.3573 18.2284 17.3573 18.3427Z" fill="#111D33"/>
<path d="M15.6428 17.5432V18.4003C15.6428 18.286 15.5856 18.1718 15.4142 18.1146C15.1285 17.9432 14.6713 17.9432 14.3856 18.1146V17.2575C14.6713 17.086 15.1285 17.086 15.4142 17.2575C15.5856 17.3146 15.6428 17.4289 15.6428 17.5432Z" fill="#111D33"/>
<path d="M17.586 17.8281V18.6281L16.9003 19.0281V18.2281L17.586 17.8281Z" fill="#1D2943"/>
<path d="M16.0997 18.2281V19.0281L15.4139 18.6281L15.4711 17.8281L16.0997 18.2281Z" fill="#1D2943"/>
<path d="M22.6714 14.4C22.9 14.5143 22.9 14.7429 22.6714 14.8571L21.9857 15.2571C21.7 15.0857 21.2428 15.0857 20.9571 15.2571C20.6714 15.4286 20.6714 15.6571 20.9571 15.8286L20.2714 16.2286C19.9857 16.0571 19.5285 16.0571 19.2428 16.2286C18.9571 16.4 18.9571 16.6286 19.2428 16.8L18.5571 17.2C18.2714 17.0286 17.8142 17.0286 17.5285 17.2C17.2428 17.3714 17.2428 17.6 17.5285 17.7714L16.8428 18.1714C16.6142 18.2857 16.2714 18.2857 16.0428 18.1714L15.3571 17.7714C15.6428 17.6 15.6428 17.3714 15.3571 17.2C15.0714 17.0286 14.6142 17.0286 14.3285 17.2L13.6428 16.8C13.9285 16.6286 13.9285 16.4 13.6428 16.2286C13.3571 16.0571 12.9 16.0571 12.6142 16.2286L11.9285 15.8286C12.2142 15.6571 12.2142 15.4286 11.9285 15.2571C11.6428 15.0857 11.1857 15.0857 10.9 15.2571L10.3285 14.8571C10.1 14.7429 10.1 14.5143 10.3285 14.4L11.0142 14C11.3 14.1714 11.7571 14.1714 12.0428 14C12.3285 13.8286 12.3285 13.6 12.0428 13.4286L12.7285 13.0286C13.0142 13.2 13.4714 13.2 13.7571 13.0286C14.0428 12.8571 14.0428 12.6286 13.7571 12.4571L14.4428 12.0571C14.7285 12.2286 15.1857 12.2286 15.4714 12.0571C15.7571 11.8857 15.7571 11.6571 15.4714 11.4857L16.1571 11.0857C16.3857 10.9714 16.7285 10.9714 16.9571 11.0857L17.6428 11.4857C17.3571 11.6571 17.3571 11.8857 17.6428 12.0571C17.9285 12.2286 18.3857 12.2286 18.6714 12.0571L19.3571 12.4571C19.0714 12.6286 19.0714 12.8571 19.3571 13.0286C19.6428 13.2 20.1 13.2 20.3857 13.0286L21.0714 13.4286C20.7857 13.6 20.7857 13.8286 21.0714 14C21.3571 14.1714 21.8142 14.1714 22.1 14L22.6714 14.4Z" fill="#4C5C75"/>
<path d="M16.8995 18.2285V19.0857C16.6709 19.1999 16.3281 19.1999 16.0995 19.0857V18.2285C16.3281 18.3428 16.7281 18.3428 16.8995 18.2285Z" fill="#1D2943"/>
<path d="M16.4996 17.2571L11.9854 14.6857L16.4425 12.1143L20.9568 14.6857L16.4996 17.2571ZM12.4996 14.6285L16.5568 16.9714L20.5568 14.6285L16.4996 12.2857L12.4996 14.6285Z" fill="#B0B8CF"/>
</svg>
