<svg width="40" height="40" viewBox="0 0 40 40" fill="none" xmlns="http://www.w3.org/2000/svg">
<path d="M20.0469 20.0006C20.0469 16.3187 23.0316 13.334 26.7135 13.334C30.3954 13.334 33.3802 16.3188 33.3802 20.0006C33.3802 23.6826 30.3953 26.6673 26.7135 26.6673C23.0316 26.6673 20.0469 23.6825 20.0469 20.0006Z" fill="#00BCFF"/>
<path d="M6.71289 33.3334C6.71289 29.6515 9.69766 26.6667 13.3795 26.6667L16.9323 24.791L20.0462 26.6667V33.3334C20.0462 37.0153 17.0614 40 13.3795 40C9.69766 40 6.71289 37.0152 6.71289 33.3334Z" fill="#00CF7F"/>
<path d="M20.0456 0L16.418 6.30234L20.0456 13.3333H26.6187C30.3007 13.3333 33.2854 10.3485 33.2854 6.66664C33.2854 2.98477 30.3006 0 26.6187 0H20.0456Z" fill="#FF7361"/>
<path d="M6.61914 6.66664C6.61914 10.3485 9.60391 13.3333 13.2858 13.3333L16.8223 14.6992L20.0459 13.3333V0H13.2857C9.60391 0 6.61914 2.98477 6.61914 6.66664Z" fill="#FF4D12"/>
<path d="M6.71289 20.0007C6.71289 23.6827 9.69766 26.6673 13.3795 26.6673H20.0462V13.334H13.3795C9.69766 13.334 6.71289 16.3188 6.71289 20.0007Z" fill="#B659FF"/>
</svg>
