<svg width="100" height="101" viewBox="0 0 100 101" fill="none" xmlns="http://www.w3.org/2000/svg">
<path d="M29.5982 77.9468C29.4166 77.9468 29.2349 77.8868 29.0849 77.7718C28.8182 77.5618 28.7032 77.2118 28.7966 76.8852L29.4982 74.4268L26.7082 76.0368C26.3682 76.2385 25.9366 76.1651 25.6716 75.8718C25.4082 75.5768 25.3866 75.1418 25.6199 74.8218L27.8499 71.7802L23.7199 74.1651C23.3649 74.3735 22.9099 74.2868 22.6516 73.9651C22.3949 73.6435 22.4099 73.1818 22.6899 72.8801L26.5449 68.6951L20.7532 72.0385C20.3799 72.2585 19.9016 72.1468 19.6549 71.7952C19.4066 71.4402 19.4699 70.9568 19.8016 70.6785L23.0449 67.9535L18.7316 70.4435C18.3582 70.6635 17.8782 70.5551 17.6316 70.1985C17.3849 69.8435 17.4499 69.3585 17.7832 69.0818L22.7449 64.9668L16.5216 68.5601C16.1432 68.7868 15.6499 68.6651 15.4066 68.2951C15.1649 67.9235 15.2549 67.4285 15.6116 67.1668L18.0999 65.3401L14.9766 67.1435C14.5932 67.3685 14.0982 67.2468 13.8582 66.8718C13.6166 66.4968 13.7149 66.0001 14.0782 65.7418L15.7582 64.5518L13.5916 65.8018C13.2132 66.0268 12.7199 65.9085 12.4766 65.5368C12.2349 65.1651 12.3249 64.6702 12.6816 64.4085L18.1982 60.3535L11.8449 64.0218C11.4632 64.2468 10.9699 64.1251 10.7282 63.7535C10.4866 63.3801 10.5816 62.8851 10.9416 62.6235L16.8366 58.3851L10.1849 62.2251C9.80322 62.4485 9.30989 62.3302 9.06656 61.9552C8.82656 61.5802 8.92156 61.0851 9.28489 60.8251L16.2382 55.8652L8.52822 60.3168C8.14656 60.5435 7.64655 60.4201 7.40655 60.0418C7.16655 59.6618 7.26989 59.1635 7.63822 58.9085L13.2566 55.0351L7.10655 58.5868C6.72322 58.8152 6.22322 58.6902 5.98322 58.3085C5.74489 57.9268 5.85155 57.4285 6.22322 57.1752L11.3299 53.7118L5.79822 56.9051C5.41655 57.1285 4.92322 57.0085 4.68322 56.6385C4.43989 56.2668 4.53322 55.7701 4.89155 55.5102L17.5732 46.2868L3.84322 54.2135C3.45656 54.4401 2.96322 54.3151 2.72156 53.9385C2.48156 53.5585 2.58489 53.0618 2.95322 52.8068L13.4132 45.5835L2.35489 51.9668C1.96489 52.1935 1.46655 52.0668 1.22822 51.6835C0.991555 51.3018 1.10322 50.7985 1.47822 50.5501L6.98489 46.9185L3.26822 49.0635C2.88155 49.2918 2.38655 49.1668 2.14655 48.7868C1.90655 48.4068 2.01156 47.9085 2.38156 47.6551L12.5516 40.6868L7.13489 43.8135C6.74322 44.0402 6.24655 43.9168 6.00989 43.5302C5.77155 43.1485 5.88322 42.6468 6.25822 42.3968L9.98489 39.9318C9.75989 39.8968 9.54989 39.7718 9.41489 39.5668C9.17156 39.1985 9.25655 38.7051 9.60822 38.4418L20.7266 30.0835C20.4982 30.0401 20.2916 29.9001 20.1666 29.6835C19.9349 29.2851 20.0716 28.7751 20.4716 28.5451L30.4482 22.7851C30.8249 22.5618 31.3166 22.6768 31.5599 23.0468C31.8032 23.4151 31.7182 23.9085 31.3666 24.1718L21.6149 31.5001L30.4482 26.4001C30.8382 26.1701 31.3366 26.2968 31.5732 26.6835C31.8116 27.0651 31.6999 27.5668 31.3249 27.8168L30.1099 28.6201L30.4499 28.4251C30.8349 28.1985 31.3332 28.3235 31.5716 28.7018C31.8116 29.0818 31.7066 29.5801 31.3366 29.8335L21.1532 36.8118L30.4499 31.4451C30.8399 31.2151 31.3366 31.3435 31.5766 31.7285C31.8132 32.1118 31.7016 32.6135 31.3266 32.8618L25.8216 36.4935L30.4499 33.8202C30.8399 33.5951 31.3332 33.7185 31.5716 34.0951C31.8116 34.4751 31.7082 34.9718 31.3399 35.2268L20.8782 42.4518L30.4499 36.9268C30.8316 36.7018 31.3232 36.8235 31.5649 37.1935C31.8082 37.5652 31.7149 38.0618 31.3566 38.3218L18.6816 47.5402L30.4516 40.7451C30.8416 40.5185 31.3366 40.6418 31.5749 41.0235C31.8132 41.4051 31.7066 41.9035 31.3349 42.1568L26.2316 45.6185L30.4516 43.1818C30.8366 42.9568 31.3349 43.0818 31.5732 43.4568C31.8132 43.8368 31.7099 44.3351 31.3416 44.5902L25.7182 48.4668L30.4516 45.7335C30.8332 45.5085 31.3249 45.6285 31.5699 46.0035C31.8099 46.3785 31.7149 46.8735 31.3516 47.1335L24.3966 52.0951L30.4516 48.5985C30.8332 48.3735 31.3249 48.4935 31.5682 48.8668C31.8099 49.2402 31.7149 49.7351 31.3549 49.9968L25.4599 54.2368L30.4516 51.3551C30.8332 51.1318 31.3249 51.2501 31.5666 51.6201C31.8082 51.9902 31.7182 52.4868 31.3616 52.7485L25.8449 56.8018L30.4516 54.1435C30.8349 53.9168 31.3299 54.0401 31.5699 54.4151C31.8116 54.7901 31.7132 55.2868 31.3499 55.5452L29.6749 56.7318L30.4516 56.2835C30.8332 56.0602 31.3249 56.1785 31.5666 56.5485C31.8082 56.9185 31.7182 57.4151 31.3616 57.6768L28.8732 59.5035L30.4516 58.5918C30.8249 58.3718 31.3032 58.4818 31.5516 58.8368C31.7982 59.1918 31.7332 59.6768 31.3999 59.9535L26.4416 64.0651L30.4499 61.7501C30.8216 61.5335 31.2999 61.6401 31.5482 61.9935C31.7966 62.3485 31.7332 62.8318 31.4016 63.1102L28.1549 65.8385L30.4499 64.5135C30.8049 64.3051 31.2599 64.3935 31.5182 64.7135C31.7749 65.0351 31.7599 65.4968 31.4799 65.7985L27.6249 69.9818L30.4516 68.3501C30.7899 68.1518 31.2232 68.2201 31.4882 68.5151C31.7516 68.8101 31.7732 69.2451 31.5399 69.5651L29.3082 72.6085L30.4516 71.9485C30.7482 71.7768 31.1132 71.8068 31.3816 72.0118C31.6482 72.2218 31.7632 72.5718 31.6699 72.8985L30.9149 75.5435C31.1866 75.5585 31.4449 75.7068 31.5899 75.9585C31.8216 76.3568 31.6849 76.8668 31.2849 77.0968L30.0166 77.8285C29.8882 77.9035 29.7432 77.9402 29.5999 77.9402L29.5982 77.9468Z" fill="#B7B7B7"/>
<path d="M69.1332 77.8202C68.8616 77.8202 68.5949 77.6868 68.4349 77.4418C68.1932 77.0702 68.2832 76.5752 68.6399 76.3135L77.4682 69.8368L69.5499 74.4068C69.1632 74.6352 68.6682 74.5102 68.4282 74.1318C68.1882 73.7518 68.2916 73.2535 68.6599 72.9985L77.1282 67.1602L69.5499 71.5352C69.1632 71.7635 68.6666 71.6368 68.4266 71.2568C68.1882 70.8752 68.2949 70.3752 68.6666 70.1235L78.0566 63.7768L69.5499 68.6868C69.1582 68.9152 68.6582 68.7885 68.4216 68.4002C68.1849 68.0152 68.3016 67.5102 68.6816 67.2652L69.3266 66.8485C68.9866 66.9218 68.6149 66.7885 68.4232 66.4735C68.1866 66.0902 68.2999 65.5868 68.6766 65.3402L71.4699 63.5102L69.5499 64.6185C69.1582 64.8468 68.6582 64.7202 68.4232 64.3335C68.1866 63.9502 68.2999 63.4468 68.6766 63.1985L69.6049 62.5952L69.5499 62.6268C69.1682 62.8502 68.6716 62.7302 68.4332 62.3585C68.1916 61.9852 68.2866 61.4885 68.6466 61.2285L79.9349 53.1168L69.5499 59.1135C69.1582 59.3385 68.6632 59.2152 68.4249 58.8318C68.1866 58.4485 68.2966 57.9485 68.6699 57.6985L70.8716 56.2302L69.5482 56.9935C69.1666 57.2152 68.6732 57.0985 68.4299 56.7235C68.1899 56.3485 68.2849 55.8518 68.6482 55.5935L76.4216 50.0602L69.5482 54.0285C69.1649 54.2552 68.6699 54.1318 68.4299 53.7568C68.1882 53.3802 68.2866 52.8852 68.6516 52.6268L74.2282 48.6885L69.5482 51.3902C69.1699 51.6102 68.6866 51.4985 68.4416 51.1368C68.1966 50.7752 68.2716 50.2852 68.6149 50.0152L77.6616 42.8935L69.5482 47.5768C69.1716 47.7985 68.6866 47.6835 68.4399 47.3218C68.1966 46.9568 68.2732 46.4668 68.6199 46.1985L75.0966 41.1652L69.5482 44.3685C69.1782 44.5852 68.7016 44.4802 68.4516 44.1285C68.2032 43.7785 68.2632 43.2952 68.5882 43.0152L75.3182 37.2252L69.5482 40.5568C69.1716 40.7768 68.6899 40.6652 68.4449 40.3068C68.1982 39.9485 68.2716 39.4602 68.6099 39.1868L71.7949 36.6218L69.5482 37.9185C69.1782 38.1335 68.6982 38.0318 68.4516 37.6768C68.2032 37.3252 68.2632 36.8418 68.5916 36.5618L71.2682 34.2802L69.5482 35.2735C69.1982 35.4785 68.7499 35.3968 68.4882 35.0835C68.2299 34.7702 68.2349 34.3152 68.5016 34.0068L71.8616 30.1285L69.5482 31.4635C69.2116 31.6585 68.7882 31.5935 68.5216 31.3102C68.2582 31.0252 68.2232 30.5952 68.4416 30.2752L70.1632 27.7402L69.5482 28.0935C69.2782 28.2535 68.9382 28.2435 68.6749 28.0685C68.4116 27.8952 68.2682 27.5885 68.3032 27.2752L68.6349 24.4085C68.5449 24.3435 68.4682 24.2585 68.4099 24.1585C68.1782 23.7602 68.3149 23.2502 68.7132 23.0185L69.1632 22.7585C69.4349 22.5985 69.7732 22.6085 70.0382 22.7835C70.3016 22.9568 70.4449 23.2618 70.4099 23.5768L70.1499 25.8235L72.4766 24.4818C72.8082 24.2852 73.2349 24.3485 73.5032 24.6352C73.7666 24.9202 73.8016 25.3502 73.5832 25.6702L71.8632 28.2052L75.3182 26.2118C75.6682 26.0068 76.1182 26.0885 76.3782 26.4018C76.6382 26.7152 76.6316 27.1702 76.3649 27.4785L73.0049 31.3568L78.3332 28.2802C78.7016 28.0635 79.1799 28.1652 79.4299 28.5218C79.6782 28.8735 79.6182 29.3568 79.2899 29.6368L76.6149 31.9168L80.3066 29.7868C80.6799 29.5668 81.1666 29.6785 81.4099 30.0368C81.6566 30.3952 81.5832 30.8835 81.2449 31.1568L78.0582 33.7235L82.1949 31.3335C82.5616 31.1168 83.0399 31.2202 83.2916 31.5735C83.5399 31.9235 83.4799 32.4068 83.1549 32.6868L76.4249 38.4768L84.7916 33.6468C85.1699 33.4252 85.6549 33.5385 85.8999 33.9018C86.1432 34.2668 86.0666 34.7568 85.7199 35.0252L79.2399 40.0602L86.8732 35.6535C87.2482 35.4302 87.7332 35.5435 87.9799 35.9068C88.2249 36.2685 88.1499 36.7585 87.8066 37.0285L78.7649 44.1468L89.2166 38.1135C89.5982 37.8868 90.0949 38.0102 90.3349 38.3852C90.5766 38.7618 90.4782 39.2568 90.1132 39.5152L84.5316 43.4568L90.7699 39.8552C91.1499 39.6302 91.6449 39.7502 91.8882 40.1252C92.1282 40.5002 92.0332 40.9968 91.6699 41.2552L83.8866 46.7952L92.4449 41.8552C92.8332 41.6268 93.3299 41.7518 93.5699 42.1368C93.8082 42.5185 93.6982 43.0202 93.3249 43.2702L91.1399 44.7268L93.6016 43.3052C93.9832 43.0802 94.4782 43.2018 94.7182 43.5735C94.9599 43.9468 94.8649 44.4435 94.5049 44.7035L83.2116 52.8185L95.4366 45.7618C95.8282 45.5335 96.3266 45.6618 96.5632 46.0468C96.7999 46.4302 96.6866 46.9335 96.3099 47.1818L95.3999 47.7735L96.4299 47.1802C96.8216 46.9518 97.3199 47.0785 97.5566 47.4652C97.7932 47.8485 97.6799 48.3518 97.3032 48.5985L94.4949 50.4385L97.4549 48.7302C97.8466 48.5018 98.3466 48.6285 98.5832 49.0168C98.8199 49.4018 98.7032 49.9068 98.3232 50.1518L97.8232 50.4752C98.1732 50.3768 98.5532 50.5168 98.7532 50.8352C98.9916 51.2168 98.8849 51.7168 98.5132 51.9685L89.1216 58.3152L94.3166 55.3168C94.7049 55.0902 95.1999 55.2152 95.4382 55.5918C95.6782 55.9718 95.5749 56.4702 95.2066 56.7252L86.7266 62.5718L89.8149 60.7902C90.1966 60.5685 90.6866 60.6852 90.9299 61.0552C91.1716 61.4268 91.0816 61.9218 90.7249 62.1835L81.4916 68.9568C81.8099 68.9035 82.1632 69.0568 82.3416 69.3635C82.5732 69.7618 82.4366 70.2718 82.0366 70.5018L69.5516 77.7102C69.4216 77.7868 69.2766 77.8218 69.1349 77.8218L69.1332 77.8202Z" fill="#B7B7B7"/>
<path d="M50.4317 82.94C50.1517 82.94 49.8767 82.7966 49.72 82.5416C49.4834 82.155 49.6 81.6516 49.98 81.405L51.3284 80.5383L47.5334 82.7283C47.14 82.955 46.6434 82.8316 46.4084 82.445C46.17 82.0633 46.2817 81.5616 46.655 81.3116L59.0517 73.105L43.255 82.225C42.8634 82.455 42.3617 82.3266 42.125 81.935C41.89 81.5466 42.01 81.0416 42.3934 80.7983L46.6617 78.105L40.48 81.6733C40.0884 81.9033 39.5884 81.7733 39.35 81.385C39.115 80.9983 39.2334 80.4933 39.615 80.2483L50.875 73.0666L37.4267 80.83C37.0334 81.06 36.5334 80.93 36.2967 80.5416C36.0617 80.155 36.18 79.65 36.5617 79.405L50.45 70.56L34.4517 79.7966C34.055 80.025 33.555 79.8933 33.32 79.5033C33.085 79.1133 33.2084 78.6083 33.595 78.3666L39.7917 74.5133L32.2317 78.8766C31.84 79.1066 31.3384 78.9766 31.1017 78.5883C30.8667 78.2016 30.985 77.6966 31.3667 77.4516L50.3117 65.3816L29.7217 77.2683C29.33 77.4966 28.83 77.37 28.5934 76.9816C28.3567 76.5966 28.4734 76.0933 28.8517 75.8466L53.7234 59.7833L27.2367 75.075C26.845 75.305 26.345 75.1733 26.1084 74.7866C25.8717 74.4 25.99 73.8966 26.37 73.6516L50.0717 58.49L25.1617 72.8716C24.7684 73.1016 24.265 72.9716 24.03 72.58C23.795 72.1916 23.9184 71.685 24.3017 71.4433L41.25 60.8183L23.6517 70.9783C23.26 71.21 22.76 71.0783 22.5234 70.69C22.2867 70.3016 22.405 69.8 22.785 69.555L48.0217 53.4033L21.945 68.4583C21.5534 68.69 21.0534 68.5583 20.8167 68.17C20.58 67.785 20.6984 67.28 21.0784 67.035L46.9634 50.4366L20.4667 65.735C20.0734 65.965 19.5734 65.835 19.3367 65.445C19.1017 65.0583 19.22 64.5533 19.6017 64.31L42.2467 49.9216L19.3417 63.1466C18.95 63.3766 18.45 63.2466 18.2134 62.8583C17.9767 62.47 18.095 61.9683 18.475 61.7233L42.5934 46.2916L18.3767 60.2733C17.985 60.505 17.485 60.3733 17.2467 59.985C17.0117 59.5983 17.13 59.0933 17.5117 58.8483L39.3017 44.9566L17.7167 57.4183C17.325 57.6483 16.825 57.5183 16.5867 57.13C16.3517 56.7433 16.47 56.2383 16.85 55.995L37.8234 42.5866L17.2917 54.44C16.8967 54.6683 16.3917 54.5366 16.16 54.1466C15.925 53.7566 16.05 53.25 16.435 53.01L21.49 49.8766L17.1584 52.3766C16.7667 52.6066 16.265 52.4783 16.0284 52.0866C15.7934 51.7 15.9117 51.195 16.2934 50.9516L30.9234 41.6533L17.1684 49.595C16.7767 49.8233 16.275 49.695 16.04 49.3083C15.8034 48.9233 15.92 48.4183 16.2984 48.1733L32.16 37.9416L17.4767 46.4183C17.085 46.6466 16.585 46.5183 16.3484 46.13C16.1117 45.745 16.2284 45.24 16.6084 44.995L27.5534 37.9666L18.0367 43.4616C17.645 43.6883 17.15 43.5633 16.9117 43.1816C16.6734 42.8 16.7817 42.3 17.155 42.0483L32.0634 32.04L19.2784 39.4216C18.895 39.6466 18.3984 39.5233 18.1584 39.1466C17.9184 38.7683 18.02 38.2716 18.3867 38.015L30.3317 29.7283L21.4084 34.88C21.015 35.105 20.5234 34.98 20.285 34.6C20.0467 34.2183 20.1534 33.7183 20.5267 33.4666L23.235 31.6433C22.9334 31.66 22.6467 31.5416 22.4717 31.2866C22.225 30.93 22.2934 30.4433 22.6284 30.1683L28.0117 25.7566C27.9234 25.69 27.8467 25.605 27.7884 25.505C27.5567 25.1066 27.6934 24.5966 28.0934 24.3666L33.6184 21.1766C33.9934 20.9583 34.4734 21.0666 34.72 21.4233C34.9667 21.78 34.8984 22.2666 34.5634 22.5416L31.5767 24.9883L42.3567 18.7666C42.7467 18.5383 43.24 18.665 43.48 19.0466C43.7184 19.4283 43.6117 19.9283 43.2384 20.18L41.43 21.3966L46.9 18.2383C47.2867 18.0133 47.78 18.135 48.02 18.5133C48.26 18.8916 48.1584 19.3883 47.7917 19.645L35.8584 27.9233L52.5884 18.2633C52.9784 18.0333 53.475 18.1616 53.7134 18.5433C53.9517 18.925 53.8434 19.425 53.47 19.6766L38.5584 29.6866L57.3184 18.8566C57.71 18.6283 58.21 18.7566 58.4467 19.145C58.6834 19.53 58.5667 20.035 58.1867 20.28L47.225 27.3183L60.605 19.5933C60.9984 19.365 61.4967 19.4916 61.7334 19.88C61.97 20.265 61.8534 20.77 61.475 21.015L45.6167 31.2433L64.005 20.6283C64.3984 20.4 64.9 20.53 65.135 20.9183C65.37 21.3066 65.2517 21.81 64.87 22.0533L50.235 31.355L66.905 21.7316C67.3 21.5016 67.8034 21.6333 68.0367 22.025C68.2717 22.415 68.1467 22.9216 67.7617 23.1616L62.745 26.27L68.9167 22.7066C69.3134 22.48 69.8084 22.6083 70.0467 22.995C70.2817 23.3816 70.1634 23.8866 69.7834 24.13L48.7834 37.555L71.28 24.5683C71.675 24.3416 72.1734 24.47 72.41 24.8566C72.645 25.2433 72.5267 25.7483 72.145 25.9933L50.37 39.875L73.415 26.5716C73.81 26.3433 74.3084 26.4733 74.5434 26.86C74.78 27.2466 74.6617 27.75 74.2817 27.995L50.1634 43.4266L75.4317 28.8383C75.8267 28.6116 76.3267 28.74 76.5617 29.1283C76.7967 29.5166 76.6784 30.02 76.2967 30.2633L53.6584 44.6466L77.1167 31.1033C77.51 30.875 78.01 31.005 78.245 31.3916C78.4817 31.7766 78.3634 32.2816 77.9834 32.5266L52.095 49.1266L78.7367 33.745C79.13 33.5183 79.63 33.6466 79.865 34.0333C80.1017 34.42 79.9834 34.9233 79.6034 35.1683L54.3634 51.3216L80.0817 36.475C80.4767 36.2483 80.9784 36.3783 81.2134 36.7666C81.4484 37.155 81.325 37.6616 80.9417 37.9033L64.0017 48.5216L80.9734 38.725C81.3684 38.4983 81.8667 38.6266 82.1017 39.0133C82.3384 39.4 82.22 39.9033 81.84 40.1483L58.1434 55.3066L81.8417 41.625C82.2334 41.395 82.735 41.525 82.97 41.9116C83.2067 42.2966 83.09 42.8 82.7117 43.0466L57.8234 59.1216L82.4917 44.88C82.8867 44.6516 83.3867 44.78 83.6217 45.1683C83.8567 45.5566 83.7384 46.06 83.3567 46.305L64.4167 58.3716L82.7967 47.7616C83.19 47.5316 83.6934 47.6633 83.9284 48.055C84.1634 48.4433 84.04 48.95 83.6534 49.1916L77.4617 53.045L82.8567 49.93C83.2517 49.7033 83.7534 49.8316 83.9867 50.2183C84.2217 50.605 84.1034 51.11 83.7217 51.355L69.8417 60.1933L82.7184 52.76C83.1134 52.5333 83.6117 52.6616 83.8484 53.0483C84.0834 53.435 83.965 53.94 83.5834 54.185L72.325 61.3666L82.3534 55.5766C82.7484 55.35 83.25 55.4783 83.4834 55.8666C83.7184 56.255 83.5984 56.76 83.215 57.0033L78.9567 59.6916L81.8184 58.04C82.2067 57.81 82.7067 57.9366 82.9434 58.3233C83.1817 58.705 83.07 59.2066 82.6967 59.4566L70.295 67.6666L80.665 61.68C81.0567 61.4516 81.5567 61.58 81.7934 61.9666C82.03 62.3533 81.9134 62.8566 81.5334 63.1033L79.695 64.285C80.0367 64.1883 80.4217 64.3283 80.6217 64.65C80.86 65.0316 80.75 65.5333 80.3767 65.7833L76.9717 68.05L77.645 67.6616C78.0134 67.4466 78.4867 67.55 78.7384 67.8966C78.9867 68.2433 78.9334 68.7233 78.6134 69.0083L71.715 75.1066C71.91 75.1666 72.085 75.2966 72.1934 75.4883C72.425 75.8866 72.2884 76.3966 71.8884 76.6266L66.37 79.8116C66 80.0283 65.5267 79.925 65.2767 79.5766C65.0284 79.23 65.0817 78.75 65.4017 78.465L71.3017 73.2483L55.15 82.5733C54.7567 82.7983 54.2634 82.6733 54.025 82.2916C53.7867 81.91 53.8967 81.4083 54.27 81.1583L57.685 78.885L50.845 82.8333C50.7134 82.91 50.57 82.945 50.4284 82.945L50.4317 82.94Z" fill="url(#paint0_linear_65_72)"/>
<path d="M52.59 76.1368C52.32 76.1368 52.055 76.0052 51.895 75.7618C51.6516 75.3935 51.7366 74.9002 52.09 74.6368L61.5566 67.5285L49.0183 74.7668C48.625 74.9935 48.1283 74.8685 47.8933 74.4852C47.655 74.1018 47.7666 73.6002 48.14 73.3502L51.0266 71.4385L48.795 72.7252C48.4083 72.9518 47.9116 72.8285 47.6716 72.4468C47.4333 72.0668 47.5383 71.5668 47.91 71.3152L55.4316 66.2035L48.7916 70.0368C48.4566 70.2318 48.0316 70.1668 47.7683 69.8852C47.5033 69.6035 47.4666 69.1752 47.6816 68.8535L48.6133 67.4552C48.435 67.3902 48.2766 67.2652 48.1733 67.0868C47.9416 66.6885 48.0783 66.1785 48.4783 65.9485L50.4916 64.7868C50.8233 64.5902 51.25 64.6552 51.515 64.9385C51.78 65.2202 51.8166 65.6485 51.6016 65.9702L51.04 66.8152L74.2666 53.4052C74.6566 53.1802 75.1516 53.3018 75.39 53.6835C75.6283 54.0635 75.5233 54.5635 75.1516 54.8152L67.6316 59.9252L73.625 56.4668C74.0133 56.2385 74.5133 56.3635 74.75 56.7485C74.9883 57.1318 74.8766 57.6335 74.5033 57.8835L71.6133 59.7985L72.695 59.1735C73.0733 58.9485 73.5633 59.0652 73.8066 59.4352C74.05 59.8035 73.965 60.2968 73.6116 60.5602L64.145 67.6702L69.7666 64.4252C70.145 64.2002 70.635 64.3185 70.8783 64.6868C71.1216 65.0552 71.0366 65.5485 70.6833 65.8135L66.6316 68.8452C66.72 68.9118 66.7966 68.9968 66.855 69.0968C67.0866 69.4952 66.95 70.0052 66.55 70.2352L58.7533 74.7368C58.3733 74.9585 57.8833 74.8435 57.6416 74.4752C57.3966 74.1068 57.4833 73.6135 57.8366 73.3485L58.4983 72.8518L53.0066 76.0218C52.8766 76.0985 52.7316 76.1335 52.59 76.1335V76.1368Z" fill="#F2CC2F"/>
<path d="M60.7766 61.8167C60.515 61.8167 60.2566 61.6934 60.0966 61.465C59.8483 61.1134 59.9083 60.63 60.235 60.35L66.6866 54.8217L64.7 55.9684C64.3383 56.18 63.8716 56.0867 63.6183 55.7484C63.365 55.4117 63.4016 54.94 63.7066 54.6467L65.4116 53.0017L65.3466 53.0384C65.0033 53.2367 64.5666 53.165 64.305 52.8684C64.0433 52.57 64.0266 52.1317 64.2666 51.8134L65.0933 50.7184C64.9883 50.65 64.8966 50.555 64.8283 50.4384C64.5983 50.04 64.735 49.53 65.135 49.2984L67.1116 48.1584C67.4516 47.9617 67.89 48.03 68.1533 48.33C68.415 48.6284 68.4316 49.0667 68.1916 49.385L68.0766 49.5384L70.4766 48.1534C70.8366 47.9384 71.3033 48.035 71.5583 48.3734C71.8116 48.71 71.775 49.1817 71.47 49.475L69.7633 51.1217L73.6333 48.8867C74.0066 48.67 74.4833 48.775 74.73 49.1267C74.9783 49.4784 74.9183 49.9617 74.5916 50.2417L68.14 55.77L74.41 52.1517C74.8066 51.9184 75.3183 52.0567 75.5483 52.4567C75.78 52.855 75.6433 53.365 75.2433 53.595L61.195 61.705C61.065 61.7817 60.9183 61.8167 60.7766 61.8167Z" fill="#F2CC2F"/>
<path d="M46.3449 76.0102C46.1183 76.0102 45.8933 75.9169 45.7333 75.7419C45.4683 75.4552 45.4383 75.0235 45.6599 74.7035L47.1816 72.4986L42.8616 74.9935C42.5049 75.2035 42.0466 75.1152 41.7883 74.7869C41.5333 74.4602 41.5549 73.9935 41.8433 73.6952L45.2699 70.1335L39.3199 73.5702C38.9549 73.7869 38.4783 73.6852 38.2283 73.3352C37.9783 72.9885 38.0316 72.5085 38.3499 72.2252L40.6816 70.1585L37.0333 72.2652C36.6716 72.4752 36.2049 72.3835 35.9516 72.0452C35.6983 71.7102 35.7349 71.2369 36.0383 70.9452L38.6233 68.4502L34.7949 70.6586C34.4316 70.8685 33.9666 70.7769 33.7133 70.4385C33.4616 70.1035 33.4966 69.6319 33.7999 69.3386L36.1583 67.0552L32.8733 68.9519C32.5166 69.1602 32.0616 69.0735 31.8033 68.7486C31.5466 68.4269 31.5649 67.9635 31.8466 67.6619L34.7933 64.5119L30.9066 66.7552C30.5416 66.9719 30.0699 66.8702 29.8166 66.5252C29.5666 66.1802 29.6149 65.7019 29.9299 65.4169L31.5066 63.9869L29.6583 65.0552C29.3033 65.2635 28.8449 65.1735 28.5883 64.8519C28.3316 64.5285 28.3499 64.0635 28.6333 63.7635L31.8566 60.3352L28.1466 62.4752C27.7849 62.6852 27.3216 62.5935 27.0683 62.2602C26.8149 61.9285 26.8466 61.4585 27.1433 61.1635L30.2749 58.0519L27.0399 59.9185C26.6833 60.1269 26.2216 60.0385 25.9649 59.7102C25.7099 59.3835 25.7349 58.9152 26.0233 58.6185L30.2149 54.2885L26.0783 56.6769C25.7316 56.8802 25.2883 56.8035 25.0266 56.4969C24.7666 56.1902 24.7616 55.7435 25.0149 55.4302L27.9166 51.8602L25.5549 53.2219C25.2233 53.4185 24.7999 53.3569 24.5316 53.0719C24.2666 52.7902 24.2299 52.3635 24.4433 52.0419L25.2583 50.8069C25.0833 50.7419 24.9283 50.6169 24.8266 50.4419C24.5966 50.0435 24.7333 49.5335 25.1333 49.3019L27.1099 48.1619C27.4433 47.9735 27.8666 48.0302 28.1333 48.3135C28.3983 48.5952 28.4349 49.0219 28.2216 49.3435L27.7799 50.0102L30.9983 48.1535C31.3433 47.9485 31.7849 48.0269 32.0499 48.3335C32.3099 48.6402 32.3149 49.0869 32.0616 49.4002L29.1599 52.9719L34.5416 49.8669C34.8983 49.6569 35.3599 49.7485 35.6166 50.0752C35.8733 50.4019 35.8466 50.8702 35.5583 51.1669L31.3666 55.4969L34.9916 53.4052C35.3516 53.1919 35.8133 53.2852 36.0699 53.6202C36.3233 53.9519 36.2916 54.4219 35.9949 54.7169L32.8649 57.8269L35.9199 56.0635C36.2766 55.8552 36.7316 55.9435 36.9899 56.2669C37.2483 56.5902 37.2283 57.0552 36.9449 57.3552L33.7216 60.7835L37.4383 58.6385C37.8049 58.4252 38.2766 58.5252 38.5283 58.8685C38.7783 59.2135 38.7299 59.6919 38.4149 59.9769L36.8383 61.4069L38.8149 60.2652C39.1699 60.0552 39.6266 60.1419 39.8849 60.4685C40.1416 60.7902 40.1233 61.2535 39.8416 61.5552L36.8949 64.7069L41.1733 62.2369C41.5349 62.0235 41.9999 62.1185 42.2549 62.4569C42.5066 62.7919 42.4716 63.2635 42.1683 63.5569L39.8083 65.8419L43.6683 63.6135C44.0283 63.4019 44.4949 63.4935 44.7499 63.8335C45.0033 64.1685 44.9666 64.6419 44.6633 64.9335L42.0816 67.4269L46.9799 64.5985C47.3483 64.3835 47.8233 64.4852 48.0716 64.8335C48.3216 65.1802 48.2683 65.6602 47.9499 65.9435L45.6216 68.0085L49.5399 65.7469C49.8949 65.5369 50.3566 65.6285 50.6133 65.9535C50.8683 66.2802 50.8466 66.7469 50.5583 67.0452L47.1333 70.6052L49.5583 69.2052C49.8933 69.0085 50.3249 69.0752 50.5866 69.3619C50.8516 69.6486 50.8816 70.0802 50.6599 70.4002L49.1383 72.6052L49.5749 72.3535C49.9716 72.1219 50.4833 72.2569 50.7133 72.6585C50.9449 73.0569 50.8083 73.5669 50.4083 73.7969L46.7633 75.9019C46.6333 75.9785 46.4899 76.0135 46.3466 76.0135L46.3449 76.0102Z" fill="#CB53FF"/>
<path d="M30.6701 51.3052C30.4285 51.3052 30.1901 51.2002 30.0268 51.0019C29.7685 50.6885 29.7735 50.2319 30.0401 49.9252L32.7301 46.8285L25.4735 51.0185C25.1001 51.2385 24.6185 51.1269 24.3718 50.7735C24.1268 50.4169 24.1935 49.9302 24.5268 49.6552L31.4501 43.9485L25.8018 47.2085C25.4368 47.4252 24.9585 47.3235 24.7068 46.9719C24.4585 46.6219 24.5151 46.1402 24.8385 45.8585L31.1168 40.3885L26.9335 42.8019C26.5601 43.0219 26.0801 42.9135 25.8335 42.5569C25.5868 42.2019 25.6518 41.7152 25.9851 41.4402L28.4001 39.4419C28.0501 39.6102 27.6285 39.5135 27.3868 39.2069C27.1301 38.8835 27.1485 38.4185 27.4318 38.1185L30.7985 34.5418C30.7401 34.4885 30.6885 34.4252 30.6468 34.3519C30.4151 33.9535 30.5518 33.4435 30.9518 33.2135L33.4585 31.7669C33.8135 31.5585 34.2701 31.6468 34.5285 31.9702C34.7868 32.2935 34.7668 32.7585 34.4835 33.0585L32.5285 35.1368L36.1335 33.0552C36.5068 32.8369 36.9868 32.9452 37.2335 33.3002C37.4801 33.6552 37.4151 34.1419 37.0818 34.4169L34.6751 36.4085L37.7335 34.6435C38.1018 34.4285 38.5785 34.5302 38.8285 34.8802C39.0768 35.2302 39.0201 35.7118 38.6968 35.9935L32.4185 41.4652L39.3085 37.4869C39.6818 37.2668 40.1635 37.3785 40.4101 37.7319C40.6551 38.0885 40.5885 38.5752 40.2551 38.8502L33.3285 44.5602L36.2051 42.9002C36.5535 42.6952 37.0035 42.7785 37.2651 43.0902C37.5235 43.4035 37.5185 43.8602 37.2518 44.1669L34.5635 47.2619L34.7751 47.1402C35.0835 46.9635 35.4685 46.9985 35.7368 47.2319C36.0051 47.4635 36.0968 47.8402 35.9668 48.1685L35.5135 49.3085C35.5985 49.3735 35.6701 49.4552 35.7268 49.5519C35.9568 49.9502 35.8201 50.4602 35.4201 50.6919L34.5785 51.1769C34.2701 51.3502 33.8851 51.3185 33.6168 51.0835C33.3485 50.8519 33.2568 50.4752 33.3868 50.1469L33.5318 49.7835L31.0901 51.1935C30.9601 51.2702 30.8168 51.3052 30.6735 51.3052H30.6701Z" fill="#A85A82"/>
<path d="M38.3199 39.5949C38.0499 39.5949 37.7849 39.4632 37.6249 39.2216C37.3815 38.8549 37.4649 38.3616 37.8165 38.0966L40.3949 36.1466L37.2199 37.9799C36.8382 38.2016 36.3515 38.0849 36.1082 37.7182C35.8649 37.3482 35.9499 36.8549 36.3032 36.5916L39.2849 34.3632L35.6715 36.4482C35.2932 36.6699 34.8065 36.5566 34.5615 36.1916C34.3182 35.8249 34.3982 35.3332 34.7465 35.0666L37.8865 32.6549L34.0665 34.8599C33.7015 35.0749 33.2282 34.9766 32.9749 34.6266C32.7249 34.2799 32.7765 33.8016 33.0949 33.5166L35.0715 31.7532L34.3132 32.1916C33.9132 32.4216 33.4032 32.2866 33.1749 31.8866C32.9432 31.4882 33.0799 30.9782 33.4799 30.7482L41.2649 26.2549C41.6365 26.0399 42.1065 26.1416 42.3565 26.4882C42.6065 26.8349 42.5549 27.3132 42.2365 27.5982L40.2615 29.3582L48.0215 24.8782C48.3999 24.6549 48.8865 24.7716 49.1315 25.1349C49.3749 25.5016 49.2949 25.9932 48.9465 26.2599L45.8049 28.6732L50.6332 25.8849C51.0115 25.6616 51.5015 25.7799 51.7449 26.1466C51.9882 26.5166 51.9032 27.0099 51.5499 27.2732L48.5732 29.4982L51.2015 27.9816C51.5799 27.7582 52.0699 27.8749 52.3132 28.2416C52.5565 28.6082 52.4732 29.1016 52.1215 29.3666L49.5415 31.3182L51.2082 30.3566C51.5315 30.1649 51.9449 30.2199 52.2149 30.4882C52.4799 30.7532 52.5349 31.1649 52.3482 31.4932L51.1982 33.4982C51.4515 33.5266 51.6915 33.6716 51.8282 33.9099C52.0599 34.3082 51.9232 34.8182 51.5232 35.0482L49.5099 36.2099C49.1832 36.3999 48.7732 36.3449 48.5032 36.0782C48.2365 35.8132 48.1832 35.4016 48.3699 35.0732L49.3615 33.3466L38.7365 39.4816C38.6065 39.5582 38.4615 39.5932 38.3199 39.5932V39.5949Z" fill="#FF634E"/>
<path d="M71.4117 51.3002C71.2001 51.3002 70.9901 51.2185 70.8301 51.0635C70.5634 50.8035 70.5017 50.3985 70.6784 50.0685L72.2051 47.2518L65.4634 51.1435C65.1001 51.3568 64.6301 51.2602 64.3767 50.9168C64.1251 50.5752 64.1701 50.1002 64.4801 49.8118L67.6401 46.8785L65.1751 48.3018C64.8117 48.5135 64.3467 48.4202 64.0934 48.0818C63.8417 47.7468 63.8767 47.2752 64.1801 46.9818L67.1851 44.0718L64.4001 45.6802C64.0284 45.8985 63.5467 45.7902 63.3001 45.4368C63.0534 45.0802 63.1184 44.5952 63.4517 44.3185L63.7467 44.0752L63.6684 44.1185C63.2984 44.3352 62.8167 44.2302 62.5684 43.8752C62.3217 43.5202 62.3867 43.0352 62.7184 42.7585L63.0001 42.5218L62.7767 42.6502C62.4117 42.8652 61.9367 42.7668 61.6867 42.4185C61.4367 42.0735 61.4867 41.5952 61.8034 41.3085L63.3017 39.9585L61.4584 41.0235C61.1017 41.2352 60.6384 41.1435 60.3817 40.8102C60.1267 40.4785 60.1567 40.0102 60.4534 39.7135L62.9934 37.1702L59.4634 39.2085C59.0884 39.4268 58.6117 39.3185 58.3651 38.9652C58.1184 38.6118 58.1801 38.1285 58.5101 37.8502L59.0234 37.4168L57.8017 38.1218C57.4351 38.3402 56.9584 38.2352 56.7101 37.8868C56.4601 37.5402 56.5134 37.0618 56.8317 36.7768L58.3551 35.4235L55.5101 37.0652C55.1351 37.2835 54.6567 37.1752 54.4101 36.8218C54.1634 36.4685 54.2284 35.9818 54.5601 35.7052L55.3684 35.0318L53.0017 36.3968C52.6384 36.6068 52.1734 36.5152 51.9201 36.1768C51.6684 35.8418 51.7034 35.3702 52.0067 35.0768L55.1617 32.0252L50.4751 34.7318C50.1034 34.9502 49.6217 34.8435 49.3751 34.4885C49.1284 34.1352 49.1934 33.6502 49.5251 33.3718L50.5084 32.5502L50.4751 32.5685C50.1117 32.7818 49.6417 32.6835 49.3884 32.3435C49.1384 32.0018 49.1801 31.5268 49.4917 31.2385L50.2301 30.5485C50.0034 30.5918 49.7701 30.5485 49.5767 30.4135C49.3101 30.2252 49.1801 29.8968 49.2401 29.5785L49.7634 26.8118C49.5901 26.7468 49.4367 26.6218 49.3351 26.4485C49.1051 26.0502 49.2417 25.5402 49.6417 25.3085L50.4301 24.8552C50.7134 24.6935 51.0634 24.7102 51.3284 24.8985C51.5951 25.0852 51.7251 25.4135 51.6651 25.7318L51.2151 28.1018L55.6001 25.5702C55.9634 25.3568 56.4334 25.4552 56.6867 25.7952C56.9367 26.1368 56.8951 26.6118 56.5834 26.9018L55.9801 27.4652L58.0101 26.2935C58.3834 26.0752 58.8617 26.1818 59.1101 26.5368C59.3567 26.8902 59.2917 27.3752 58.9601 27.6535L57.9784 28.4735L60.1867 27.1985C60.5467 26.9852 61.0134 27.0802 61.2684 27.4185C61.5201 27.7535 61.4851 28.2252 61.1817 28.5185L58.0234 31.5718L62.9567 28.7252C63.3301 28.5068 63.8101 28.6152 64.0567 28.9685C64.3034 29.3218 64.2384 29.8085 63.9067 30.0852L63.0984 30.7585L64.6251 29.8785C64.9917 29.6635 65.4684 29.7652 65.7167 30.1135C65.9667 30.4602 65.9134 30.9385 65.5951 31.2235L64.0684 32.5785L66.3167 31.2818C66.6884 31.0618 67.1684 31.1718 67.4151 31.5252C67.6617 31.8785 67.6001 32.3618 67.2701 32.6402L66.7651 33.0668L67.6317 32.5668C67.9917 32.3585 68.4551 32.4485 68.7084 32.7802C68.9634 33.1118 68.9334 33.5802 68.6367 33.8768L66.0951 36.4218L69.3467 34.5452C69.7134 34.3302 70.1884 34.4318 70.4367 34.7768C70.6867 35.1218 70.6367 35.6002 70.3201 35.8868L68.8251 37.2335L70.5367 36.2452C70.9084 36.0268 71.3901 36.1352 71.6367 36.4885C71.8834 36.8418 71.8184 37.3285 71.4867 37.6052L71.2067 37.8385L71.4184 37.7185C71.7917 37.4985 72.2701 37.6085 72.5184 37.9618C72.7651 38.3185 72.7001 38.8035 72.3667 39.0802L72.0701 39.3252L72.1984 39.2518C72.5584 39.0385 73.0251 39.1335 73.2801 39.4718C73.5317 39.8068 73.4967 40.2785 73.1934 40.5718L70.1867 43.4835L73.2067 41.7402C73.5734 41.5285 74.0417 41.6252 74.2934 41.9668C74.5451 42.3085 74.5001 42.7835 74.1901 43.0718L71.0334 46.0018L73.9267 44.3318C74.2484 44.1435 74.6567 44.1968 74.9251 44.4552C75.1917 44.7152 75.2534 45.1202 75.0767 45.4502L73.5517 48.2668L74.4451 47.7502C74.8434 47.5152 75.3517 47.6552 75.5834 48.0552C75.8151 48.4552 75.6784 48.9635 75.2784 49.1935L71.8301 51.1852C71.7001 51.2602 71.5567 51.2968 71.4134 51.2968L71.4117 51.3002Z" fill="#FF884C"/>
<path d="M9.42511 62.9169C15.4768 69.4085 22.7318 75.1069 30.6334 78.5152C55.6235 91.0752 84.7485 74.6519 98.4368 52.5785C102.568 43.8652 73.8285 22.3519 65.3084 20.6452C46.3451 13.6502 25.4351 21.7652 11.9618 35.8252C0.685114 47.8519 -3.94322 49.6419 9.42511 62.9169ZM95.7101 48.2735C100.378 54.2869 80.0818 70.1135 74.9901 73.6835C86.8735 61.9452 87.7018 41.2469 76.6434 28.6969C84.1734 33.9185 90.6284 40.8752 95.7101 48.2735ZM30.6651 24.3169C67.9701 4.18854 102.057 48.8835 68.9201 77.0635C31.7984 96.2736 -1.59489 52.3719 30.6651 24.3169ZM3.52345 49.0169C9.05345 40.6785 16.1951 33.1952 24.5784 27.7485C13.1118 39.4785 12.4551 59.8185 23.2701 72.1785C16.1351 66.0902 4.82011 58.3285 3.52178 49.0169H3.52345Z" fill="#262626"/>
<path d="M23.852 50.8619C24.167 84.5036 75.692 83.6502 76.2037 50.4502C76.897 27.3886 46.1887 16.2436 31.1004 32.8786C26.3437 37.6652 23.807 44.3402 23.852 50.8636V50.8619ZM48.792 74.5836V74.6936C36.747 74.0602 26.347 63.1586 26.2787 51.0636H33.807C33.8354 59.2786 40.8354 65.6869 48.792 66.0636V74.5836ZM58.607 73.2636C56.202 74.2019 53.702 74.6852 51.2054 74.7619V65.9669C58.7687 65.2869 65.7354 59.2019 66.1454 51.3786H73.7537C73.3687 60.9269 67.6554 69.7369 58.607 73.2636ZM51.2054 26.4152V26.2886C63.4237 26.9802 73.177 37.5969 73.732 49.6202H66.1587C66.0254 41.8086 59.0204 34.9969 51.2037 34.9619V26.4136L51.2054 26.4152ZM56.882 38.2702C68.4987 44.9619 64.3104 64.8086 50.4887 64.8952C37.7737 65.0236 31.5104 48.1519 40.6487 39.7552C45.0254 35.4802 51.7587 35.0352 56.882 38.2702ZM48.7904 26.2602V35.0286C45.5537 35.3336 42.3037 36.5436 39.7637 38.6186C37.7687 36.6236 35.7737 34.6269 33.777 32.6319C37.857 28.8002 43.1854 26.5002 48.7904 26.2602ZM29.3587 38.2386C30.1637 36.8169 31.1154 35.5136 32.1654 34.3136L38.0554 40.2036C35.5837 42.8552 34.0504 46.2936 33.8304 49.9369H26.262C26.3054 45.8919 27.3137 41.8486 29.357 38.2402L29.3587 38.2386Z" fill="#262626"/>
<defs>
<linearGradient id="paint0_linear_65_72" x1="50.0075" y1="18.1255" x2="50.0075" y2="82.945" gradientUnits="userSpaceOnUse">
<stop stop-color="#7E0197"/>
<stop offset="1" stop-color="#EBAC67"/>
</linearGradient>
</defs>
</svg>
