<svg width="100" height="101" viewBox="0 0 100 101" fill="none" xmlns="http://www.w3.org/2000/svg">
<path d="M17.1934 99.6168C16.9267 99.6168 16.6667 99.4885 16.5051 99.2535C16.2601 98.8918 16.3317 98.4035 16.6734 98.1318L20.7867 94.8468L12.9201 99.3885C12.5417 99.6102 12.0567 99.4952 11.8117 99.1335C11.5684 98.7702 11.6451 98.2785 11.9901 98.0102L19.9267 91.8302L10.6201 97.2035C10.2384 97.4268 9.74341 97.3068 9.50341 96.9335C9.26174 96.5602 9.35674 96.0652 9.71841 95.8052L15.7134 91.5068L10.4667 94.5352C10.0867 94.7618 9.59508 94.6418 9.35174 94.2685C9.11008 93.8985 9.20008 93.4018 9.55841 93.1418L16.9717 87.7218L10.4667 91.4768C10.0751 91.7035 9.58174 91.5785 9.34341 91.1968C9.10508 90.8168 9.21174 90.3168 9.58508 90.0652L10.2267 89.6302C9.90008 89.7035 9.53674 89.5652 9.34507 89.2602C9.10508 88.8818 9.20841 88.3835 9.57841 88.1285L11.9017 86.5335L10.4667 87.3618C10.0867 87.5835 9.60008 87.4668 9.35508 87.1018C9.11174 86.7352 9.19508 86.2418 9.54674 85.9768L18.7851 78.9835L10.4667 83.7852C10.0867 84.0085 9.59841 83.8902 9.35674 83.5268C9.11341 83.1618 9.19507 82.6685 9.54341 82.4018L19.2117 75.0102L10.4651 80.0585C10.0851 80.2785 9.59674 80.1652 9.35341 79.7968C9.11008 79.4285 9.19508 78.9352 9.54841 78.6718L18.4001 72.0252L10.4634 76.6068C10.0817 76.8302 9.59508 76.7135 9.35174 76.3452C9.10841 75.9768 9.19341 75.4818 9.54674 75.2185L18.2117 68.7352L10.4617 73.2118C10.0817 73.4335 9.59341 73.3168 9.35174 72.9535C9.10841 72.5868 9.19008 72.0952 9.53841 71.8285L19.2001 64.4435L10.4601 69.4885C10.0784 69.7118 9.58507 69.5918 9.34507 69.2218C9.10174 68.8502 9.19507 68.3535 9.55341 68.0935L16.6517 62.9302L10.4584 66.5068C10.0717 66.7335 9.57841 66.6102 9.33674 66.2302C9.09674 65.8502 9.20174 65.3518 9.57174 65.0968L11.4551 63.8102L10.4584 64.3852C10.0767 64.6052 9.59007 64.4918 9.34674 64.1235C9.10341 63.7552 9.18841 63.2618 9.54174 62.9968L18.3367 56.4002L10.4551 60.9502C10.0717 61.1785 9.57341 61.0535 9.33341 60.6735C9.09341 60.2952 9.19674 59.7968 9.56674 59.5418L13.8717 56.5768C13.6317 56.5518 13.4084 56.4252 13.2651 56.2118C13.0217 55.8485 13.1001 55.3568 13.4467 55.0885L21.1784 49.1035C21.0051 49.0552 20.8484 48.9518 20.7334 48.7985C20.4817 48.4585 20.5234 47.9852 20.8317 47.6952L27.9834 40.9435C27.9634 40.6368 28.1134 40.3318 28.3984 40.1668L29.5367 39.5085C29.9001 39.2952 30.3684 39.3918 30.6217 39.7318C30.8734 40.0702 30.8317 40.5452 30.5234 40.8352L27.1551 44.0152L29.5351 42.6418C29.9134 42.4202 30.4001 42.5335 30.6434 42.8985C30.8867 43.2618 30.8084 43.7535 30.4617 44.0218L24.2017 48.8685L29.5351 45.7885C29.9251 45.5618 30.4184 45.6868 30.6567 46.0652C30.8967 46.4435 30.7934 46.9418 30.4234 47.1968L27.7717 49.0235L29.5351 48.0068C29.9134 47.7835 30.4034 47.9002 30.6467 48.2685C30.8901 48.6368 30.8051 49.1302 30.4517 49.3952L21.6484 55.9968L29.5351 51.4452C29.9251 51.2185 30.4184 51.3435 30.6567 51.7218C30.8967 52.1018 30.7917 52.6002 30.4217 52.8552L28.5534 54.1335L29.5351 53.5668C29.9167 53.3402 30.4101 53.4635 30.6501 53.8335C30.8934 54.2052 30.8001 54.7018 30.4417 54.9618L23.3401 60.1268L29.5351 56.5502C29.9134 56.3252 30.4017 56.4452 30.6451 56.8085C30.8884 57.1752 30.8067 57.6668 30.4584 57.9335L20.8001 65.3168L29.5351 60.2735C29.9134 60.0485 30.4034 60.1668 30.6467 60.5352C30.8901 60.9035 30.8051 61.3985 30.4517 61.6618L21.7834 68.1468L29.5351 63.6702C29.9134 63.4452 30.4034 63.5618 30.6467 63.9318C30.8901 64.3002 30.8051 64.7935 30.4517 65.0568L21.5984 71.7052L29.5367 67.1235C29.9151 66.9002 30.4034 67.0168 30.6467 67.3818C30.8901 67.7468 30.8084 68.2402 30.4601 68.5068L20.7951 75.8968L29.5367 70.8502C29.9151 70.6268 30.4034 70.7435 30.6484 71.1102C30.8917 71.4768 30.8084 71.9702 30.4567 72.2352L21.2134 79.2335L29.5367 74.4285C29.9267 74.2018 30.4201 74.3268 30.6584 74.7052C30.8984 75.0835 30.7951 75.5818 30.4251 75.8368L28.1101 77.4268L29.5351 76.6035C29.9251 76.3768 30.4201 76.5018 30.6584 76.8835C30.8967 77.2652 30.7901 77.7635 30.4167 78.0152L29.7751 78.4485C30.1051 78.3835 30.4551 78.5118 30.6484 78.8085C30.8917 79.1802 30.8001 79.6768 30.4417 79.9368L23.0217 85.3635L29.5334 81.6035C29.9151 81.3768 30.4084 81.4985 30.6501 81.8735C30.8917 82.2468 30.7967 82.7418 30.4351 83.0018L24.4384 87.3018L29.5334 84.3602C29.9117 84.1385 30.3967 84.2535 30.6417 84.6152C30.8851 84.9785 30.8084 85.4702 30.4634 85.7385L22.5301 91.9152L29.5334 87.8718C29.9084 87.6485 30.3917 87.7635 30.6384 88.1218C30.8834 88.4835 30.8117 88.9718 30.4701 89.2435L26.3517 92.5335L29.5317 90.6968C29.8884 90.4868 30.3484 90.5785 30.6051 90.9052C30.8617 91.2318 30.8384 91.6985 30.5501 91.9952L27.5501 95.1085L29.5317 93.9635C29.8817 93.7568 30.3334 93.8402 30.5951 94.1568C30.8517 94.4735 30.8434 94.9318 30.5717 95.2368L29.8484 96.0518C30.0584 96.1052 30.2484 96.2385 30.3651 96.4418C30.5967 96.8402 30.4601 97.3502 30.0601 97.5802L26.7351 99.4985C26.3851 99.7052 25.9351 99.6235 25.6717 99.3052C25.4151 98.9885 25.4234 98.5302 25.6951 98.2252L25.9217 97.9702L23.2701 99.5002C22.9151 99.7102 22.4551 99.6202 22.1967 99.2918C21.9417 98.9652 21.9634 98.4985 22.2517 98.2018L25.2501 95.0902L17.6084 99.5002C17.4784 99.5768 17.3334 99.6118 17.1917 99.6118L17.1934 99.6168Z" fill="url(#paint0_linear_65_59)"/>
<path d="M67.1299 99.6166C66.8582 99.6166 66.5916 99.4832 66.4316 99.2382C66.1899 98.8682 66.2799 98.3732 66.6366 98.1116L70.6432 95.1632L64.7732 98.5516C64.3916 98.7716 63.9049 98.6566 63.6616 98.2916C63.4182 97.9232 63.5032 97.4299 63.8549 97.1649L71.8899 91.1099L63.7999 95.7816C63.4199 96.0032 62.9316 95.8866 62.6899 95.5232C62.4466 95.1566 62.5282 94.6632 62.8782 94.3982L72.3649 87.1749L63.7966 92.1199C63.4182 92.3416 62.9316 92.2282 62.6866 91.8632C62.4432 91.4982 62.5232 91.0066 62.8716 90.7382L72.7782 83.1182L63.7932 88.3049C63.4116 88.5316 62.9149 88.4082 62.6749 88.0332C62.4332 87.6566 62.5316 87.1599 62.8966 86.9016L67.6182 83.5799L63.7932 85.7866C63.4116 86.0082 62.9182 85.8899 62.6782 85.5199C62.4349 85.1482 62.5282 84.6516 62.8866 84.3916L69.9832 79.2299L63.7916 82.8049C63.4116 83.0299 62.9232 82.9116 62.6782 82.5416C62.4349 82.1716 62.5232 81.6782 62.8782 81.4149L71.1382 75.2849L63.7899 79.5266C63.4066 79.7499 62.9132 79.6316 62.6716 79.2566C62.4316 78.8816 62.5266 78.3849 62.8899 78.1266L68.5199 74.1199L63.7899 76.8499C63.4116 77.0766 62.9199 76.9582 62.6749 76.5832C62.4332 76.2132 62.5232 75.7166 62.8816 75.4566L70.2999 70.0316L63.7882 73.7916C63.4049 74.0199 62.9066 73.8949 62.6666 73.5149C62.4266 73.1349 62.5316 72.6349 62.9016 72.3816L64.6149 71.2116L63.7882 71.6882C63.4099 71.9116 62.9216 71.7932 62.6782 71.4299C62.4349 71.0666 62.5149 70.5732 62.8649 70.3066L72.6349 62.8166L63.7849 67.9249C63.4032 68.1482 62.9116 68.0282 62.6699 67.6582C62.4266 67.2866 62.5182 66.7899 62.8782 66.5299L70.1016 61.2666L63.7832 64.9132C63.3966 65.1366 62.9066 65.0166 62.6649 64.6432C62.4249 64.2682 62.5199 63.7732 62.8816 63.5132L68.7532 59.3199L63.7832 62.1899C63.3966 62.4182 62.8999 62.2916 62.6599 61.9116C62.4216 61.5299 62.5282 61.0299 62.8999 60.7782L63.5999 60.3066C63.2582 60.4032 62.8716 60.2749 62.6666 59.9616C62.4249 59.5899 62.5149 59.0949 62.8716 58.8332L70.6149 53.1416L63.7799 57.0866C63.3932 57.3116 62.9016 57.1899 62.6616 56.8149C62.4199 56.4382 62.5182 55.9432 62.8832 55.6849L67.8732 52.1616L63.7782 54.5249C63.3899 54.7516 62.8966 54.6282 62.6566 54.2482C62.4166 53.8682 62.5216 53.3699 62.8916 53.1149L64.7882 51.8182L63.7799 52.4016C63.3999 52.6266 62.9099 52.5066 62.6666 52.1382C62.4232 51.7699 62.5116 51.2749 62.8649 51.0116L71.2599 44.7666L70.8166 45.0216C70.4382 45.2449 69.9532 45.1282 69.7082 44.7666C69.4649 44.4016 69.5416 43.9116 69.8882 43.6432L75.9932 38.9016C75.9249 38.8516 75.8616 38.7916 75.8099 38.7199C75.5582 38.3799 75.6032 37.9032 75.9132 37.6149L81.2999 32.6099C81.2866 32.3099 81.4382 32.0132 81.7166 31.8532L82.8582 31.1932C83.2199 30.9816 83.6916 31.0782 83.9449 31.4199C84.1966 31.7599 84.1516 32.2366 83.8416 32.5249L82.4599 33.8099L82.8582 33.5799C83.2349 33.3582 83.7199 33.4732 83.9666 33.8349C84.2099 34.1999 84.1332 34.6899 83.7866 34.9582L80.5266 37.4916L82.8582 36.1449C83.2399 35.9216 83.7282 36.0416 83.9716 36.4082C84.2149 36.7749 84.1266 37.2716 83.7732 37.5349L75.3732 43.7832L82.8582 39.4616C83.2482 39.2349 83.7416 39.3599 83.9799 39.7382C84.2199 40.1182 84.1149 40.6166 83.7449 40.8716L81.8482 42.1682L82.8566 41.5849C83.2399 41.3599 83.7349 41.4816 83.9749 41.8566C84.2166 42.2332 84.1182 42.7282 83.7532 42.9866L78.7599 46.5132L82.8566 44.1482C83.2382 43.9249 83.7299 44.0432 83.9716 44.4132C84.2132 44.7832 84.1232 45.2799 83.7666 45.5416L76.0299 51.2266L82.8566 47.2866C83.2466 47.0616 83.7416 47.1849 83.9799 47.5649C84.2182 47.9466 84.1116 48.4466 83.7399 48.6982L83.0366 49.1732C83.3816 49.0732 83.7682 49.2032 83.9732 49.5216C84.2132 49.8966 84.1182 50.3916 83.7566 50.6516L77.8766 54.8516L82.8549 51.9766C83.2366 51.7516 83.7266 51.8732 83.9699 52.2432C84.2132 52.6132 84.1216 53.1116 83.7616 53.3716L76.5416 58.6316L82.8549 54.9866C83.2316 54.7632 83.7216 54.8816 83.9649 55.2449C84.2082 55.6082 84.1282 56.1016 83.7782 56.3682L74.0099 63.8566L82.8566 58.7499C83.2416 58.5249 83.7399 58.6466 83.9782 59.0266C84.2182 59.4066 84.1132 59.9066 83.7432 60.1599L82.0299 61.3299L82.8566 60.8532C83.2382 60.6316 83.7299 60.7466 83.9716 61.1199C84.2149 61.4899 84.1232 61.9866 83.7649 62.2466L76.3432 67.6732L82.8566 63.9132C83.2382 63.6882 83.7299 63.8082 83.9749 64.1832C84.2149 64.5582 84.1199 65.0549 83.7566 65.3132L78.1266 69.3199L82.8566 66.5899C83.2382 66.3666 83.7266 66.4866 83.9699 66.8532C84.2132 67.2232 84.1249 67.7166 83.7699 67.9799L75.5132 74.1082L82.8566 69.8682C83.2382 69.6432 83.7299 69.7649 83.9716 70.1349C84.2149 70.5066 84.1216 71.0032 83.7632 71.2632L76.6632 76.4266L82.8566 72.8516C83.2399 72.6266 83.7349 72.7482 83.9749 73.1232C84.2166 73.4999 84.1182 73.9966 83.7532 74.2549L79.0316 77.5766L82.8566 75.3699C83.2332 75.1482 83.7216 75.2616 83.9666 75.6266C84.2099 75.9916 84.1299 76.4832 83.7816 76.7516L73.8716 84.3732L82.8582 79.1866C83.2366 78.9616 83.7249 79.0816 83.9682 79.4449C84.2116 79.8116 84.1299 80.3049 83.7799 80.5699L74.2966 87.7916L82.8599 82.8482C83.2382 82.6249 83.7282 82.7416 83.9716 83.1082C84.2149 83.4749 84.1299 83.9699 83.7782 84.2349L75.7382 90.2932L82.8599 86.1816C83.2416 85.9582 83.7332 86.0766 83.9749 86.4466C84.2166 86.8166 84.1266 87.3116 83.7699 87.5732L79.7699 90.5166L82.8599 88.7332C83.2282 88.5149 83.7049 88.6199 83.9566 88.9732C84.2032 89.3232 84.1449 89.8066 83.8199 90.0866L79.7116 93.6232L82.8599 91.8066C83.1916 91.6099 83.6182 91.6749 83.8866 91.9599C84.1499 92.2449 84.1849 92.6749 83.9666 92.9966L81.7632 96.2416L82.7249 95.6866C83.1216 95.4532 83.6332 95.5916 83.8632 95.9916C84.0949 96.3899 83.9582 96.8999 83.5582 97.1299L79.4482 99.5032C79.1132 99.6982 78.6882 99.6349 78.4216 99.3499C78.1582 99.0649 78.1232 98.6349 78.3416 98.3132L80.5449 95.0682L72.8616 99.5032C72.4916 99.7232 72.0166 99.6149 71.7649 99.2632C71.5182 98.9132 71.5766 98.4299 71.9016 98.1499L76.0066 94.6149L67.5416 99.5032C67.4116 99.5799 67.2666 99.6149 67.1249 99.6149L67.1299 99.6166Z" fill="url(#paint1_linear_65_59)"/>
<path d="M42.8 99.6166C42.5283 99.6166 42.2617 99.4816 42.1017 99.2366C41.8583 98.8649 41.95 98.3699 42.3083 98.1082L43.515 97.2299L39.72 99.4199C39.3433 99.6416 38.855 99.5282 38.61 99.1616C38.3667 98.7966 38.4467 98.3049 38.795 98.0382L46.0367 92.4799L37.3917 97.4699C37.0117 97.6932 36.5233 97.5749 36.2783 97.2066C36.035 96.8382 36.1233 96.3432 36.4767 96.0799L44.6667 89.9799L37.1333 94.3282C36.7467 94.5566 36.255 94.4316 36.0117 94.0532C35.7733 93.6749 35.875 93.1766 36.2417 92.9216L39.4717 90.6849L37.135 92.0349C36.7483 92.2632 36.255 92.1382 36.0133 91.7582C35.7733 91.3799 35.8767 90.8816 36.2467 90.6266L38.6517 88.9732L37.135 89.8482C36.7433 90.0749 36.25 89.9482 36.0117 89.5682C35.7733 89.1866 35.88 88.6882 36.2533 88.4349L36.8733 88.0166C36.56 88.0816 36.2 87.9399 36.0117 87.6399C35.7733 87.2599 35.8783 86.7616 36.25 86.5082L37.72 85.5049L37.135 85.8416C36.7483 86.0682 36.255 85.9449 36.015 85.5666C35.775 85.1882 35.8767 84.6916 36.2433 84.4349L39.6017 82.1082L37.1367 83.5316C36.7567 83.7532 36.2683 83.6366 36.025 83.2699C35.7817 82.9032 35.8667 82.4082 36.22 82.1432L45.0383 75.5249L37.1367 80.0866C36.7533 80.3099 36.2617 80.1899 36.02 79.8182C35.7783 79.4466 35.8717 78.9499 36.2333 78.6882L42.6517 74.0699L37.1367 77.2532C36.7567 77.4749 36.2683 77.3582 36.025 76.9932C35.7817 76.6249 35.8667 76.1316 36.2183 75.8666L45.2183 69.0866L37.135 73.7532C36.7517 73.9749 36.2583 73.8582 36.0167 73.4832C35.7767 73.1082 35.8717 72.6132 36.235 72.3532L42.0683 68.1882L37.135 71.0366C36.7517 71.2616 36.26 71.1399 36.02 70.7699C35.7767 70.3982 35.87 69.9016 36.2283 69.6416L42.98 64.7266L37.135 68.0999C36.7567 68.3249 36.2633 68.2066 36.0217 67.8349C35.7783 67.4649 35.8683 66.9699 36.2233 66.7082L39.4367 64.3416L37.135 65.6699C36.7517 65.8932 36.26 65.7732 36.02 65.4032C35.7767 65.0316 35.87 64.5349 36.2283 64.2749L36.8983 63.7866C36.5683 63.8582 36.22 63.7282 36.025 63.4349C35.7817 63.0682 35.8633 62.5766 36.2117 62.3099L37.2967 61.4816L37.1333 61.5749C36.7733 61.7866 36.3083 61.6932 36.0533 61.3566C35.8 61.0216 35.835 60.5516 36.1367 60.2566L40.3733 56.1249L37.135 57.9949C36.7733 58.2066 36.3067 58.1099 36.0533 57.7749C35.8 57.4382 35.8383 56.9649 36.1417 56.6732L38.435 54.4699L37.1367 55.2199C36.7867 55.4266 36.335 55.3432 36.075 55.0266C35.8167 54.7116 35.825 54.2549 36.095 53.9482L38.08 51.6949L37.1367 52.2399C36.7867 52.4466 36.335 52.3632 36.075 52.0482C35.815 51.7332 35.825 51.2749 36.095 50.9699L36.8283 50.1349C36.5767 50.1666 36.3133 50.0832 36.1267 49.8932C35.86 49.6249 35.81 49.2082 36.0017 48.8832L36.7833 47.5632C36.6033 47.5782 36.425 47.5332 36.27 47.4349C36.0083 47.2666 35.8617 46.9682 35.8883 46.6582L36.1183 44.1416C36.0733 44.0949 36.0317 44.0399 35.9983 43.9799C35.7667 43.5816 35.9033 43.0716 36.3033 42.8416L36.6083 42.6666C36.8767 42.5082 37.2117 42.5166 37.475 42.6866C37.7367 42.8549 37.8833 43.1532 37.8567 43.4632L37.6967 45.2082L38.6217 44.6766C38.9467 44.4832 39.36 44.5399 39.63 44.8116C39.8967 45.0816 39.9467 45.4966 39.755 45.8216L39.0583 46.9966L40.255 46.3066C40.6067 46.0999 41.0567 46.1832 41.3167 46.4982C41.5767 46.8132 41.5667 47.2716 41.2967 47.5766L40.695 48.2616L41.6583 47.7066C42.01 47.5016 42.46 47.5816 42.72 47.8999C42.9783 48.2149 42.97 48.6716 42.7 48.9782L40.715 51.2316L43.55 49.5949C43.91 49.3816 44.3767 49.4782 44.6317 49.8149C44.885 50.1516 44.8467 50.6249 44.5433 50.9166L42.25 53.1182L45.31 51.3516C45.67 51.1382 46.135 51.2316 46.39 51.5699C46.6433 51.9049 46.6083 52.3749 46.3067 52.6699L42.0683 56.8016L47.66 53.5732C48.0383 53.3499 48.5283 53.4666 48.77 53.8316C49.0133 54.1982 48.9317 54.6899 48.5833 54.9566L47.5 55.7849L49.4333 54.6682C49.8133 54.4432 50.3083 54.5649 50.5483 54.9349C50.7917 55.3066 50.6983 55.8032 50.34 56.0632L49.9617 56.3382L51.57 55.4099C51.9517 55.1866 52.4433 55.3049 52.6833 55.6749C52.9267 56.0449 52.8367 56.5399 52.4817 56.8016L49.2617 59.1732L55.795 55.4016C56.1767 55.1749 56.6683 55.2982 56.91 55.6682C57.1533 56.0399 57.06 56.5366 56.7017 56.7966L49.955 61.7082L56.2017 58.1016C56.5817 57.8749 57.0767 57.9966 57.32 58.3716C57.56 58.7466 57.465 59.2416 57.1017 59.5016L51.2683 63.6666L56.2017 60.8182C56.58 60.5949 57.07 60.7116 57.3133 61.0782C57.5567 61.4466 57.4717 61.9399 57.12 62.2049L48.12 68.9849L56.2033 64.3182C56.5833 64.0932 57.0767 64.2132 57.32 64.5866C57.5617 64.9599 57.4683 65.4549 57.1067 65.7166L50.6883 70.3349L56.2033 67.1516C56.5817 66.9266 57.0717 67.0432 57.315 67.4132C57.5583 67.7816 57.4733 68.2749 57.12 68.5399L48.3017 75.1582L56.2033 70.5966C56.59 70.3716 57.0833 70.4949 57.3233 70.8716C57.5633 71.2499 57.4617 71.7466 57.095 72.0032L53.7367 74.3299L56.2017 72.9066C56.5933 72.6816 57.085 72.8032 57.325 73.1849C57.5633 73.5649 57.4583 74.0632 57.0867 74.3166L55.6167 75.3199L56.2017 74.9832C56.59 74.7532 57.085 74.8816 57.325 75.2632C57.5633 75.6449 57.4567 76.1432 57.0833 76.3966L56.4633 76.8149C56.7833 76.7549 57.135 76.8916 57.3233 77.1899C57.5633 77.5682 57.46 78.0666 57.09 78.3216L54.685 79.9749L56.2017 79.0999C56.5933 78.8749 57.0833 78.9999 57.3233 79.3749C57.5617 79.7532 57.46 80.2516 57.0933 80.5066L53.8633 82.7432L56.2 81.3932C56.5817 81.1716 57.07 81.2899 57.3133 81.6566C57.5567 82.0232 57.4683 82.5199 57.115 82.7832L48.92 88.8866L56.2 84.6849C56.5767 84.4649 57.0633 84.5766 57.31 84.9432C57.5533 85.3082 57.4733 85.7999 57.125 86.0666L49.8867 91.6216L56.2 87.9766C56.5817 87.7549 57.0717 87.8716 57.315 88.2432C57.5583 88.6149 57.4667 89.1099 57.1083 89.3716L55.9 90.2516L56.2 90.0783C56.555 89.8682 57.0133 89.9566 57.2717 90.2832C57.5283 90.6082 57.5083 91.0732 57.2217 91.3716L53.61 95.1799L56.2017 93.6849C56.5433 93.4866 56.9767 93.5549 57.24 93.8516C57.5033 94.1466 57.5233 94.5849 57.2867 94.9032L56.2133 96.3516C56.475 96.3749 56.7217 96.5216 56.8617 96.7649C57.0933 97.1632 56.9567 97.6732 56.5567 97.9032L53.8 99.4949C53.46 99.6966 53.0267 99.6249 52.7617 99.3282C52.4983 99.0332 52.4783 98.5949 52.715 98.2766L53.5617 97.1332L49.4667 99.4966C49.1117 99.7049 48.6517 99.6166 48.395 99.2916C48.1383 98.9666 48.1583 98.5016 48.445 98.2033L52.0583 94.3932L43.2167 99.4966C43.0867 99.5732 42.9417 99.6082 42.8 99.6082V99.6166Z" fill="url(#paint2_linear_65_59)"/>
<path d="M93.4186 22.9254C93.1886 22.9254 92.9619 22.8287 92.7986 22.6487C92.5369 22.3554 92.5136 21.9187 92.7452 21.6004L92.9002 21.3904L92.2469 21.7671C91.8986 21.9721 91.4502 21.8921 91.1902 21.5804C90.9319 21.2687 90.9319 20.8171 91.1936 20.5071L92.6702 18.7621L90.4802 20.0271C90.1186 20.2387 89.6552 20.1454 89.4019 19.8121C89.1486 19.4787 89.1802 19.0104 89.4769 18.7137L91.7652 16.4471L88.6619 18.2371C88.2636 18.4687 87.7519 18.3304 87.5236 17.9321C87.2919 17.5337 87.4286 17.0237 87.8286 16.7937L96.5019 11.7871C96.8602 11.5737 97.3252 11.6671 97.5802 12.0021C97.8336 12.3354 97.8019 12.8037 97.5052 13.1004L95.2202 15.3637L95.9802 14.9254C96.3269 14.7221 96.7769 14.8004 97.0369 15.1121C97.2952 15.4237 97.2952 15.8754 97.0336 16.1854L95.5486 17.9387C95.8802 17.7937 96.2686 17.8704 96.5119 18.1421C96.7736 18.4354 96.7969 18.8721 96.5652 19.1904L95.8569 20.1604C95.9969 20.2304 96.1169 20.3404 96.2019 20.4854C96.4319 20.8837 96.2952 21.3937 95.8952 21.6254L93.8352 22.8137C93.7052 22.8887 93.5619 22.9254 93.4186 22.9254Z" fill="#4FCE7E"/>
<path d="M55.3367 41.3503C55.0584 41.3503 54.7867 41.2103 54.6301 40.9586C54.3917 40.5769 54.4984 40.0769 54.8734 39.8253L62.7634 34.5253L62.0267 34.9503C61.6334 35.1786 61.1384 35.0503 60.9001 34.6669C60.6634 34.2836 60.7751 33.7803 61.1517 33.5319L72.5484 26.0453L68.6817 28.2786C68.2951 28.5053 67.8017 28.3819 67.5601 28.0036C67.3217 27.6253 67.4234 27.1269 67.7901 26.8719L80.6817 17.9436L76.6934 20.2453C76.3067 20.4703 75.8134 20.3503 75.5734 19.9703C75.3334 19.5936 75.4334 19.0953 75.8017 18.8403L82.3901 14.2619C82.1051 14.2536 81.8267 14.1386 81.6601 13.8853C81.4167 13.5153 81.5051 13.0203 81.8601 12.7569L84.9517 10.4686L82.4167 11.9319C82.0367 12.1553 81.5484 12.0353 81.3067 11.6736C81.0634 11.3069 81.1451 10.8153 81.4934 10.5486L82.2717 9.95692L81.1117 10.6253C80.7551 10.8353 80.2917 10.7436 80.0351 10.4136C79.7784 10.0836 79.8084 9.61526 80.1017 9.31859L81.7917 7.60859L79.4467 8.96192C79.1267 9.14692 78.7217 9.10026 78.4534 8.84359C78.1867 8.58859 78.1201 8.18526 78.2901 7.85692L78.7917 6.89026C78.4201 7.01359 78.0034 6.86692 77.8034 6.51692C77.5717 6.11859 77.7084 5.60859 78.1084 5.37859L80.4134 4.04859C80.7351 3.86026 81.1384 3.91026 81.4067 4.16692C81.6734 4.42192 81.7401 4.82526 81.5701 5.15359L81.0834 6.09192L86.3201 3.07026C86.6801 2.86026 87.1401 2.95359 87.3967 3.28192C87.6517 3.61192 87.6234 4.08026 87.3301 4.37692L85.6401 6.08692L92.6984 2.01192C93.0751 1.78692 93.5651 1.90692 93.8084 2.27026C94.0517 2.63692 93.9701 3.12859 93.6217 3.39526L92.8501 3.98526L96.8184 1.69359C97.2001 1.47026 97.6901 1.59026 97.9317 1.95692C98.1751 2.32692 98.0867 2.82192 97.7317 3.08526L94.6351 5.37692L97.8501 3.52192C98.2317 3.29526 98.7301 3.41859 98.9701 3.79692C99.2101 4.17359 99.1101 4.67192 98.7417 4.92692L93.0917 8.85359L97.3967 6.36859C97.7867 6.14192 98.2767 6.26692 98.5184 6.64359C98.7567 7.02192 98.6551 7.52025 98.2884 7.77525L85.4017 16.7003L96.7717 10.1369C97.1634 9.90859 97.6601 10.0369 97.8984 10.4203C98.1351 10.8036 98.0234 11.3069 97.6467 11.5553L83.7401 20.6886C83.9784 20.7219 84.2001 20.8553 84.3351 21.0736C84.5751 21.4553 84.4667 21.9553 84.0917 22.2069L76.1951 27.5119L76.8951 27.1086C77.2901 26.8753 77.8034 27.0119 78.0334 27.4136C78.2651 27.8119 78.1284 28.3219 77.7284 28.5519L55.7517 41.2386C55.6201 41.3153 55.4784 41.3503 55.3367 41.3503Z" fill="#4FCE7E"/>
<path d="M53.5902 50.3971C53.3269 50.3971 53.0702 50.2721 52.9069 50.0421C52.6602 49.6871 52.7253 49.2021 53.0553 48.9254L57.9736 44.8021L51.4619 48.5621C51.0819 48.7871 50.5919 48.6688 50.3469 48.2971C50.1052 47.9254 50.1952 47.4288 50.5536 47.1688L61.4419 39.2004L49.1736 46.2838C48.8436 46.4804 48.4186 46.4154 48.1536 46.1354C47.8886 45.8571 47.8486 45.4321 48.0586 45.1088L49.8486 42.3554L46.9219 44.0438C46.5769 44.2454 46.1319 44.1704 45.8719 43.8654C45.6119 43.5604 45.6052 43.1138 45.8552 42.8004L47.2302 41.0921L45.1586 42.2888C44.8052 42.4938 44.3536 42.4104 44.0953 42.0938C43.8369 41.7754 43.8486 41.3171 44.1219 41.0121L45.0602 39.9621L43.6419 40.7804C43.3019 40.9821 42.8686 40.9088 42.6052 40.6154C42.3419 40.3204 42.3202 39.8838 42.5536 39.5654L44.1619 37.3788L41.6703 38.8171C41.3386 39.0138 40.9152 38.9504 40.6486 38.6688C40.3836 38.3888 40.3452 37.9621 40.5552 37.6404L42.3419 34.9071L39.4303 36.5871C39.0869 36.7854 38.6519 36.7154 38.3902 36.4171C38.1269 36.1204 38.1103 35.6804 38.3486 35.3638L39.9053 33.2988L37.5153 34.6771C37.1836 34.8721 36.7603 34.8104 36.4969 34.5321C36.2319 34.2538 36.1886 33.8304 36.3952 33.5071L38.2036 30.6771L35.2236 32.3971C34.8719 32.6038 34.4236 32.5204 34.1636 32.2071C33.9036 31.8938 33.9102 31.4371 34.1786 31.1304L35.2586 29.8888L33.6402 30.8221C33.2836 31.0338 32.8202 30.9404 32.5636 30.6104C32.3069 30.2804 32.3369 29.8121 32.6302 29.5154L32.9302 29.2104L32.3552 29.5421C31.9569 29.7721 31.4469 29.6354 31.2169 29.2371C30.9852 28.8388 31.1219 28.3288 31.5219 28.0988L37.4569 24.6721C37.8153 24.4621 38.2786 24.5554 38.5336 24.8838C38.7886 25.2138 38.7602 25.6821 38.4669 25.9788L38.1669 26.2838L38.7419 25.9521C39.0936 25.7454 39.5402 25.8304 39.8019 26.1421C40.0603 26.4554 40.0536 26.9121 39.7869 27.2188L38.7086 28.4604L40.3269 27.5254C40.6586 27.3304 41.0802 27.3921 41.3452 27.6704C41.6102 27.9488 41.6536 28.3721 41.4469 28.6954L39.6386 31.5271L42.6186 29.8071C42.9586 29.6054 43.3952 29.6788 43.6586 29.9771C43.9219 30.2738 43.9386 30.7138 43.7002 31.0304L42.1453 33.0938L44.5336 31.7154C44.8669 31.5221 45.2886 31.5838 45.5552 31.8638C45.8202 32.1438 45.8586 32.5704 45.6486 32.8921L43.8619 35.6254L46.7736 33.9454C47.1152 33.7454 47.5469 33.8188 47.8102 34.1104C48.0736 34.4054 48.0952 34.8421 47.8619 35.1604L46.2519 37.3471L48.7436 35.9104C49.0952 35.7038 49.5469 35.7871 49.8069 36.1054C50.0669 36.4238 50.0536 36.8821 49.7802 37.1871L48.8419 38.2371L50.2602 37.4188C50.6036 37.2138 51.0486 37.2921 51.3102 37.5971C51.5702 37.9021 51.5769 38.3488 51.3269 38.6621L49.9519 40.3704L52.0236 39.1738C52.3569 38.9788 52.7802 39.0421 53.0436 39.3221C53.3086 39.6004 53.3486 40.0254 53.1386 40.3488L51.3486 43.1021L73.9502 30.0538C74.3319 29.8304 74.8219 29.9504 75.0653 30.3188C75.3069 30.6904 75.2169 31.1871 74.8586 31.4471L63.9686 39.4171L65.4236 38.5771C65.7953 38.3588 66.2752 38.4671 66.5219 38.8204C66.7702 39.1754 66.7052 39.6604 66.3753 39.9371L58.8436 46.2488C58.9019 46.3038 58.9536 46.3688 58.9969 46.4421C59.2286 46.8404 59.0919 47.3504 58.6919 47.5804L54.0069 50.2838C53.8769 50.3604 53.7319 50.3971 53.5902 50.3971Z" fill="#4FCE7E"/>
<path d="M5.03182 54.6155C4.77015 54.6155 4.51182 54.4921 4.35182 54.2638C4.10348 53.9121 4.16348 53.4305 4.49015 53.1488L7.00682 50.9905L2.93848 53.3388C2.55515 53.5621 2.06348 53.4421 1.82182 53.0705C1.58015 52.6971 1.67515 52.2021 2.03515 51.9405L6.37515 48.8188L2.14015 51.2638C1.75182 51.4905 1.26348 51.3671 1.02182 50.9938C0.780149 50.6171 0.878482 50.1221 1.24182 49.8638L13.9418 40.8455L7.38348 44.6305C7.00015 44.8571 6.50182 44.7338 6.26182 44.3538C6.02182 43.9755 6.12515 43.4771 6.49515 43.2221L18.3268 35.0888L15.0135 37.0005C14.6302 37.2255 14.1335 37.1055 13.8935 36.7255C13.6535 36.3471 13.7551 35.8505 14.1218 35.5938L19.9885 31.5238C19.7952 31.4821 19.6151 31.3688 19.4918 31.1971C19.2418 30.8505 19.2952 30.3705 19.6152 30.0871L27.8401 22.8038C27.8301 22.7905 27.8201 22.7738 27.8118 22.7605C27.5801 22.3621 27.7168 21.8521 28.1168 21.6221L31.2318 19.8238C31.5985 19.6088 32.0735 19.7105 32.3235 20.0588C32.5735 20.4055 32.5201 20.8855 32.2001 21.1688L26.9035 25.8588L34.3435 21.5638C34.7252 21.3388 35.2235 21.4588 35.4635 21.8388C35.7035 22.2171 35.6018 22.7138 35.2351 22.9705L31.5285 25.5421L35.8401 23.0538C36.2251 22.8288 36.7235 22.9505 36.9618 23.3305C37.2018 23.7088 37.0985 24.2071 36.7285 24.4621L24.9002 32.5938L28.4885 30.5221C28.8718 30.2971 29.3635 30.4188 29.6068 30.7921C29.8485 31.1688 29.7501 31.6638 29.3868 31.9221L16.6751 40.9488L19.9468 39.0605C20.3285 38.8338 20.8201 38.9571 21.0635 39.3288C21.3051 39.7021 21.2101 40.1971 20.8502 40.4588L14.5652 44.9805C14.7485 45.0271 14.9168 45.1388 15.0335 45.3038C15.2818 45.6555 15.2218 46.1371 14.8952 46.4188L8.88848 51.5738C9.10848 51.9688 8.97015 52.4705 8.57515 52.6988L5.44848 54.5038C5.31848 54.5805 5.17348 54.6155 5.03182 54.6155Z" fill="#4FCE7E"/>
<path d="M8.79326 84.3782C9.12493 91.2049 6.09493 101.348 16.6666 99.4016C22.8533 99.3782 33.1899 101.182 31.2083 91.6332C31.2083 74.1932 31.2083 56.7516 31.2083 39.3099C31.2083 38.5816 29.1133 39.4582 28.8949 39.6766C22.2649 46.4366 15.2766 53.0432 8.82159 59.8816C8.73826 68.0282 8.82159 76.2182 8.79326 84.3782ZM28.7933 95.2549C29.1583 99.5716 24.0616 98.2232 21.3333 98.2649C17.9433 97.8382 11.5699 100.028 11.2083 94.9549C11.1049 83.1416 11.2733 71.3099 11.2083 59.4899L28.7933 41.9049C28.7816 59.6882 28.8099 77.4716 28.7933 95.2549Z" fill="#262626"/>
<path d="M62.1184 89.0218C60.5901 100.833 65.6151 100.017 75.3401 99.6218C79.4901 100.157 85.4268 99.3518 84.5484 93.8285C84.4368 72.8785 84.7701 51.7935 84.4651 30.9085C79.8201 30.5368 68.9084 45.8935 63.9068 49.4535C63.1901 50.1718 62.2668 50.7768 62.1184 51.7835C62.0218 64.1568 62.1834 76.6168 62.1184 89.0218ZM69.7734 46.1385C73.8884 42.0268 78.0034 37.9152 82.1184 33.8035V94.5768C82.1184 96.2218 81.8818 97.8468 79.8701 98.0435C75.8951 97.4652 65.2918 100.372 64.5501 95.1668C64.5134 80.5685 64.5834 65.9335 64.5468 51.3402C66.4218 49.7968 68.0634 47.8585 69.7751 46.1385H69.7734Z" fill="#262626"/>
<path d="M43.7351 99.4651C48.5651 98.9834 57.5918 101.603 57.8751 94.3901C57.8801 81.4851 57.8718 68.5818 57.8751 55.6768C57.1451 54.8434 55.6384 55.9351 54.6518 55.7018C47.6818 57.0418 39.3934 39.2101 35.4601 43.2884V92.5251C34.4318 98.4984 38.3368 100.325 43.7351 99.4634V99.4651ZM37.8735 91.8784V45.7518C43.0501 50.3484 47.5618 58.0051 55.4585 56.7984V91.6084C56.7935 99.2818 52.0784 98.4634 46.3184 98.2018C40.9151 98.6518 36.8035 98.6151 37.8735 91.8784Z" fill="#262626"/>
<path d="M54.2866 40.0848C47.69 36.0031 35.8533 15.0281 28.3016 21.0848C25.1833 26.5164 -12.84 54.5314 5.8733 54.6498C15.4883 48.1681 22.7666 37.8364 31.5533 30.0781C63.0466 62.9898 50.05 52.2431 87.8183 18.8114C98.2483 32.0031 97.8883 11.1931 99.5283 4.3681C98.9333 -2.13523 87.2383 3.7681 82.97 3.44477C74.5783 3.93477 76.6516 8.65977 81.7216 12.6464C72.5766 21.7931 63.4333 30.9381 54.2866 40.0848ZM84.2733 12.9248C84.56 9.89143 74.1933 5.87977 83.4416 5.2081C86.345 5.49143 96.6116 1.11477 97.075 4.52477C95.8166 7.78143 96.0166 20.2798 93.3283 20.9614C91.2383 20.0664 89.5733 14.8781 86.9483 16.8548C77.5433 26.2564 68.1366 35.6581 58.7316 45.0581C53.5833 53.2464 49.4633 43.6498 44.8866 40.1098C26.8266 20.4864 32.9166 28.3898 15.5733 43.2198C12.5483 44.9448 5.58497 56.9631 2.9833 51.0198C6.61163 42.7398 16.58 37.0314 22.4483 29.7648C25.8516 27.6864 28.6616 20.3281 33.0066 22.1148C39.71 28.7514 46.3633 35.5048 53.0683 42.1614C53.6916 42.7848 54.6066 42.5931 55.19 42.0098C64.885 32.3148 74.5783 22.6198 84.2733 12.9248Z" fill="#262626"/>
<defs>
<linearGradient id="paint0_linear_65_59" x1="19.9959" y1="39.3955" x2="19.9959" y2="99.6168" gradientUnits="userSpaceOnUse">
<stop stop-color="#F9C32C"/>
<stop offset="1" stop-color="#BE7679"/>
</linearGradient>
<linearGradient id="paint1_linear_65_59" x1="73.319" y1="31.0815" x2="73.319" y2="99.6172" gradientUnits="userSpaceOnUse">
<stop stop-color="#F9C32C"/>
<stop offset="1" stop-color="#BE7679"/>
</linearGradient>
<linearGradient id="paint2_linear_65_59" x1="46.6685" y1="42.5532" x2="46.6685" y2="99.6166" gradientUnits="userSpaceOnUse">
<stop stop-color="#F9C32C"/>
<stop offset="1" stop-color="#BE7679"/>
</linearGradient>
</defs>
</svg>
