<svg width="100" height="101" viewBox="0 0 100 101" fill="none" xmlns="http://www.w3.org/2000/svg">
<path d="M77.1768 89.6132C77.0047 89.6136 76.8367 89.5608 76.6958 89.462C76.5549 89.3631 76.4481 89.2231 76.39 89.0611C76.3319 88.899 76.3254 88.723 76.3714 88.5572C76.4174 88.3913 76.5136 88.2438 76.6468 88.1348L80.3818 85.0682L75.7868 87.7215C75.6029 87.8276 75.3854 87.8596 75.1787 87.8108C74.9721 87.7619 74.7918 87.6361 74.6748 87.4589C74.5578 87.2817 74.5129 87.0665 74.5492 86.8573C74.5855 86.6481 74.7003 86.4606 74.8701 86.3332L79.9468 82.5382L75.8168 84.9215C75.6434 85.0206 75.4402 85.0541 75.2441 85.016C75.0481 84.9778 74.8722 84.8705 74.7487 84.7136C74.6251 84.5567 74.5619 84.3606 74.5708 84.1611C74.5796 83.9616 74.6598 83.7718 74.7968 83.6265L75.3135 83.0848C75.144 83.0617 74.9854 82.9879 74.8585 82.8732C74.7283 82.7535 74.6395 82.5954 74.605 82.422C74.5706 82.2485 74.5922 82.0685 74.6668 81.9082L75.5501 80.0015C75.3988 80.0033 75.2495 79.9658 75.1169 79.8928C74.9843 79.8198 74.8729 79.7137 74.7935 79.5848C74.6835 79.3936 74.6539 79.1665 74.711 78.9534C74.7682 78.7404 74.9075 78.5587 75.0985 78.4482L76.9318 77.3898C77.0849 77.3041 77.2611 77.2689 77.4353 77.2892C77.6095 77.3095 77.7729 77.3842 77.9022 77.5028C78.0315 77.6213 78.1201 77.7777 78.1553 77.9495C78.1905 78.1214 78.1707 78.2999 78.0985 78.4598L77.2835 80.2182L79.0735 79.1865C79.2469 79.0862 79.4507 79.0517 79.6474 79.0894C79.8442 79.1271 80.0208 79.2345 80.1449 79.3917C80.269 79.549 80.3322 79.7457 80.3231 79.9459C80.314 80.146 80.233 80.3362 80.0951 80.4815L80.0001 80.5832L91.3001 74.0598C91.4841 73.9537 91.7016 73.9217 91.9082 73.9706C92.1149 74.0194 92.2951 74.1452 92.4121 74.3224C92.5291 74.4996 92.5741 74.7148 92.5378 74.924C92.5015 75.1332 92.3867 75.3207 92.2168 75.4482L87.1285 79.2498L88.3335 78.5532C88.5145 78.4501 88.7276 78.4186 88.9307 78.4649C89.1338 78.5111 89.3122 78.6318 89.4308 78.8031C89.5494 78.9743 89.5995 79.1838 89.5713 79.3902C89.5431 79.5966 89.4386 79.785 89.2785 79.9182L84.4251 83.9032C84.5133 83.9247 84.5972 83.9607 84.6735 84.0098C84.8022 84.0934 84.9054 84.211 84.9715 84.3495C85.0377 84.488 85.0643 84.6421 85.0485 84.7948L84.8135 87.1665L85.6368 86.6915C85.8273 86.5919 86.0488 86.5697 86.2553 86.6296C86.4617 86.6894 86.637 86.8268 86.7446 87.0129C86.8521 87.1989 86.8836 87.4194 86.8325 87.6281C86.7814 87.8369 86.6515 88.0178 86.4701 88.1332L84.2368 89.4232C84.1039 89.4997 83.9524 89.5381 83.7991 89.5341C83.6457 89.5301 83.4964 89.4838 83.3677 89.4004C83.239 89.317 83.1357 89.1997 83.0694 89.0614C83.0031 88.923 82.9762 88.7691 82.9918 88.6165L83.2301 86.2548L77.5935 89.4998C77.4672 89.5741 77.3233 89.6132 77.1768 89.6132Z" fill="#CB53FF"/>
<path d="M83.3333 76.3734C83.1609 76.3731 82.9927 76.3193 82.8522 76.2194C82.7116 76.1195 82.6054 75.9785 82.5484 75.8157C82.4913 75.653 82.4862 75.4766 82.5336 75.3108C82.5811 75.145 82.6788 74.998 82.8133 74.8901L86.755 71.7401L86.6916 71.7767C86.5123 71.8795 86.3012 71.912 86.0992 71.8679C85.8973 71.8237 85.7189 71.7061 85.5988 71.5378C85.4788 71.3695 85.4255 71.1626 85.4495 70.9573C85.4734 70.752 85.5728 70.5629 85.7283 70.4267L89.915 66.7801L88.8733 67.3801C88.6923 67.4814 88.4801 67.5116 88.278 67.4647C88.0759 67.4178 87.8986 67.2973 87.7807 67.1267C87.6628 66.956 87.6127 66.7476 87.6403 66.542C87.6679 66.3364 87.7712 66.1485 87.93 66.0151L89.51 64.7217H89.5C89.3307 64.7218 89.1654 64.6703 89.026 64.5741C88.8867 64.4779 88.78 64.3416 88.7201 64.1832C88.6602 64.0249 88.6499 63.852 88.6907 63.6877C88.7315 63.5234 88.8213 63.3754 88.9483 63.2634L91.1233 61.3334L90.8466 61.5C90.6734 61.6003 90.4698 61.6348 90.2732 61.5973C90.0766 61.5598 89.9 61.4528 89.7758 61.2958C89.6516 61.1389 89.588 60.9424 89.5967 60.7424C89.6055 60.5424 89.6859 60.3523 89.8233 60.2067L93.7433 56.0401L91.695 57.2217C91.5226 57.3219 91.3199 57.3569 91.1239 57.3204C90.9279 57.2839 90.7514 57.1783 90.6266 57.0229C90.5017 56.8674 90.4368 56.6723 90.4435 56.473C90.4503 56.2737 90.5283 56.0834 90.6633 55.9367L93.9266 52.3967L92.07 53.4667C91.8925 53.5669 91.6845 53.5987 91.4853 53.5559C91.286 53.5131 91.1094 53.3989 90.9887 53.2347C90.868 53.0705 90.8117 52.8677 90.8303 52.6648C90.849 52.4619 90.9414 52.2728 91.09 52.1334L92.005 51.3001C91.8254 51.3669 91.6283 51.3698 91.4468 51.3084C91.2654 51.2469 91.1106 51.1247 91.0087 50.9625C90.9067 50.8003 90.8638 50.6079 90.8871 50.4177C90.9104 50.2275 90.9985 50.0512 91.1366 49.9184L92.4416 48.6584L92.0633 48.8751C91.8894 48.9743 91.6856 49.0076 91.4891 48.9688C91.2927 48.9301 91.1167 48.8219 90.9935 48.6641C90.8703 48.5063 90.808 48.3093 90.8181 48.1094C90.8281 47.9094 90.9099 47.7197 91.0483 47.5751L92.815 45.7417L91.835 46.3067C91.6574 46.413 91.4467 46.4494 91.2438 46.4088C91.0408 46.3683 90.8603 46.2537 90.7372 46.0874C90.6141 45.921 90.5573 45.7148 90.5778 45.5089C90.5984 45.303 90.6948 45.1121 90.8483 44.9734L91.405 44.4501C91.2261 44.5069 91.0332 44.5017 90.8576 44.4353C90.682 44.3688 90.534 44.245 90.4376 44.084C90.3412 43.9229 90.3019 43.734 90.3262 43.5479C90.3506 43.3617 90.437 43.1893 90.5716 43.0584L91.25 42.4034L91.1983 42.4317C91.0297 42.5288 90.8324 42.5638 90.6407 42.5306C90.4489 42.4975 90.2748 42.3983 90.1486 42.2503C90.0223 42.1022 89.9518 41.9147 89.9493 41.7201C89.9469 41.5256 90.0125 41.3363 90.135 41.1851L92.3833 38.4184L90.4583 39.5284C90.2928 39.6242 90.0994 39.6602 89.9105 39.6303C89.7216 39.6003 89.5487 39.5064 89.4209 39.3641C89.2931 39.2218 89.2181 39.0399 89.2085 38.8489C89.1989 38.6579 89.2554 38.4694 89.3683 38.3151L91.7533 35.0484L89.4116 36.4017C89.2433 36.499 89.0463 36.5343 88.8547 36.5017C88.663 36.469 88.4888 36.3703 88.3623 36.2228C88.2357 36.0752 88.1647 35.8881 88.1615 35.6937C88.1584 35.4993 88.2233 35.31 88.345 35.1584L90.225 32.8251L88.36 33.9017C88.1937 33.9977 87.9994 34.0333 87.8098 34.0026C87.6203 33.9718 87.4472 33.8766 87.3198 33.7329C87.1925 33.5893 87.1186 33.406 87.1107 33.2142C87.1028 33.0223 87.1615 32.8337 87.2766 32.6801L89.2383 30.0684L87.0716 31.3167C86.908 31.4111 86.7171 31.447 86.5303 31.4186C86.3435 31.3902 86.1719 31.2991 86.0437 31.1604C85.9154 31.0217 85.8381 30.8435 85.8244 30.6551C85.8107 30.4667 85.8615 30.2792 85.9683 30.1234L87.985 27.1901L85.47 28.6417C85.3075 28.7351 85.1183 28.7709 84.9329 28.7435C84.7475 28.7161 84.5768 28.6269 84.4483 28.4906C84.3198 28.3542 84.2411 28.1784 84.2247 27.9918C84.2084 27.8051 84.2555 27.6184 84.3583 27.4617L86.3333 24.4801L83.6483 26.0284C83.4824 26.1242 83.2886 26.1599 83.0995 26.1295C82.9104 26.0992 82.7375 26.0046 82.61 25.8617C82.4826 25.7189 82.4082 25.5365 82.3994 25.3453C82.3906 25.1541 82.4479 24.9657 82.5616 24.8117L84.24 22.5417L81.9066 23.8901C81.7372 23.9877 81.5388 24.0226 81.3462 23.9887C81.1536 23.9549 80.9791 23.8543 80.8531 23.7047C80.7272 23.5551 80.6579 23.366 80.6573 23.1705C80.6567 22.9749 80.7249 22.7854 80.85 22.6351L82.1116 21.1251L80.3116 22.1667C80.1414 22.264 79.9423 22.2981 79.7494 22.2631C79.5565 22.2281 79.3821 22.1262 79.2569 21.9754C79.1317 21.8245 79.0637 21.6343 79.0649 21.4382C79.066 21.2421 79.1363 21.0528 79.2633 20.9034L80.3983 19.5701L78.6783 20.5701C78.5149 20.6639 78.3246 20.6996 78.1383 20.6714C77.952 20.6431 77.7808 20.5526 77.6526 20.4145C77.5243 20.2764 77.4467 20.099 77.4323 19.9111C77.4179 19.7232 77.4676 19.536 77.5733 19.3801L79.2583 16.9101L76.355 18.5851C76.1836 18.6831 75.983 18.717 75.7889 18.6809C75.5948 18.6448 75.4198 18.541 75.2951 18.3879C75.1704 18.2348 75.1042 18.0424 75.1081 17.845C75.1121 17.6476 75.186 17.458 75.3166 17.3101L76.265 16.2434L74.555 17.2301C74.3919 17.3243 74.2017 17.3605 74.0154 17.3327C73.8291 17.305 73.6577 17.2149 73.5291 17.0773C73.4005 16.9396 73.3224 16.7625 73.3074 16.5747C73.2924 16.387 73.3415 16.1997 73.4466 16.0434L75.1133 13.5667L71.85 15.4451C71.6904 15.5371 71.5048 15.5737 71.3222 15.5491C71.1396 15.5245 70.9704 15.4401 70.8409 15.309C70.7113 15.178 70.6289 15.0077 70.6064 14.8249C70.584 14.642 70.6227 14.4569 70.7166 14.2984L72.45 11.3684L68.5183 13.6384C68.3438 13.7444 68.1364 13.7826 67.9356 13.7458C67.7347 13.709 67.5544 13.5998 67.4288 13.4388C67.3031 13.2778 67.241 13.0763 67.2541 12.8725C67.2673 12.6688 67.3547 12.4769 67.5 12.3334L68.085 11.7317L66.4183 12.6967C66.256 12.7903 66.0668 12.8263 65.8815 12.7992C65.6961 12.772 65.5253 12.6831 65.3966 12.547C65.2679 12.4108 65.1889 12.2352 65.1723 12.0486C65.1556 11.8619 65.2024 11.6752 65.305 11.5184L67.04 8.87505L62.7383 11.3617C62.5686 11.4592 62.3699 11.4938 62.1772 11.4595C61.9845 11.4251 61.81 11.3241 61.6843 11.174C61.5587 11.0239 61.4899 10.8343 61.49 10.6386C61.4901 10.4428 61.5591 10.2533 61.685 10.1034L63.1666 8.35505L59.4466 10.5001C59.2822 10.5944 59.0905 10.6298 58.9033 10.6005C58.716 10.5712 58.5443 10.4789 58.4165 10.3389C58.2887 10.1989 58.2125 10.0195 58.2004 9.83035C58.1883 9.64118 58.2411 9.45353 58.35 9.29839L60.2283 6.63172L54.8466 9.74172C54.6716 9.83901 54.4673 9.87 54.2713 9.82902C54.0753 9.78804 53.9006 9.67782 53.7791 9.51855C53.6577 9.35929 53.5977 9.16162 53.6101 8.96173C53.6225 8.76183 53.7065 8.57309 53.8466 8.43005L55.065 7.21505L51.07 9.52005C50.9054 9.61506 50.7133 9.65095 50.5255 9.62178C50.3377 9.5926 50.1655 9.50011 50.0375 9.35964C49.9095 9.21918 49.8333 9.03918 49.8216 8.84949C49.81 8.6598 49.8635 8.47182 49.9733 8.31672L52.2383 5.12672L43.7083 10.0501C43.5309 10.1503 43.3229 10.182 43.1236 10.1392C42.9244 10.0965 42.7477 9.98219 42.627 9.81799C42.5063 9.65379 42.45 9.45106 42.4686 9.24813C42.4873 9.0452 42.5797 8.85615 42.7283 8.71672L44.8633 6.75672L34.91 12.5001C34.7195 12.5997 34.4979 12.6219 34.2915 12.562C34.0851 12.5021 33.9098 12.3648 33.8022 12.1787C33.6947 11.9926 33.6632 11.7722 33.7143 11.5634C33.7654 11.3546 33.8953 11.1737 34.0766 11.0584L50.6033 1.51839C50.7807 1.41817 50.9888 1.38644 51.188 1.4292C51.3872 1.47196 51.5639 1.58625 51.6846 1.75045C51.8053 1.91465 51.8616 2.11738 51.843 2.32031C51.8243 2.52324 51.7319 2.71229 51.5833 2.85172L49.4483 4.81339L54.71 1.77672C54.8744 1.68326 55.0657 1.6485 55.2525 1.67815C55.4393 1.7078 55.6104 1.80011 55.7378 1.93989C55.8651 2.07968 55.9412 2.25864 55.9534 2.44736C55.9656 2.63608 55.9133 2.82335 55.805 2.97839L53.5416 6.16672L59.76 2.57839C59.935 2.4811 60.1393 2.45011 60.3353 2.49109C60.5314 2.53207 60.7061 2.64228 60.8275 2.80155C60.9489 2.96082 61.0089 3.15849 60.9965 3.35838C60.9841 3.55827 60.9002 3.74701 60.76 3.89005L59.5433 5.10339L62.6733 3.29505C62.8376 3.20057 63.0292 3.16491 63.2165 3.19395C63.4037 3.22299 63.5755 3.315 63.7035 3.4548C63.8314 3.5946 63.9079 3.77384 63.9203 3.96295C63.9327 4.15206 63.8803 4.33975 63.7716 4.49505L61.8983 7.16672L66.46 4.53339C66.6297 4.43591 66.8284 4.4013 67.0211 4.43563C67.2138 4.46996 67.3883 4.57104 67.514 4.72115C67.6396 4.87125 67.7084 5.0608 67.7083 5.25655C67.7082 5.4523 67.6391 5.64177 67.5133 5.79172L66.0366 7.53339L69.2466 5.68005C69.409 5.58652 69.5981 5.55043 69.7835 5.5776C69.9689 5.60477 70.1397 5.69362 70.2684 5.82981C70.397 5.966 70.4761 6.14158 70.4927 6.3282C70.5093 6.51482 70.4626 6.7016 70.36 6.85839L68.625 9.50005L72.5 7.26839C72.6742 7.16906 72.8785 7.13591 73.0752 7.17504C73.2719 7.21417 73.448 7.32294 73.5709 7.48139C73.6939 7.63984 73.7556 7.83733 73.7448 8.03762C73.7339 8.23791 73.6511 8.42754 73.5116 8.57172L72.9233 9.17505L74.3733 8.34172C74.5329 8.24931 74.7186 8.21243 74.9013 8.23686C75.0841 8.26129 75.2536 8.34565 75.3833 8.47672C75.5132 8.60773 75.5959 8.77813 75.6185 8.96121C75.6412 9.14429 75.6024 9.32971 75.5083 9.48839L73.775 12.4151L77.4 10.3234C77.5619 10.2366 77.748 10.2058 77.9293 10.2357C78.1106 10.2656 78.2769 10.3546 78.4024 10.4888C78.5279 10.623 78.6055 10.7949 78.6231 10.9778C78.6408 11.1607 78.5975 11.3443 78.5 11.5001L76.8333 13.9767L79.9016 12.2051C80.073 12.107 80.2736 12.0731 80.4678 12.1092C80.6618 12.1453 80.8368 12.2491 80.9615 12.4022C81.0862 12.5553 81.1524 12.7477 81.1485 12.9451C81.1446 13.1425 81.0707 13.3321 80.94 13.4801L80 14.5517L81.5866 13.6351C81.75 13.5412 81.9404 13.5055 82.1267 13.5337C82.313 13.562 82.4842 13.6525 82.6124 13.7906C82.7406 13.9287 82.8182 14.1061 82.8326 14.294C82.847 14.4819 82.7973 14.6691 82.6916 14.8251L81 17.2967L83.7783 15.6934C83.9485 15.5961 84.1476 15.562 84.3405 15.597C84.5335 15.632 84.7079 15.7339 84.8331 15.8848C84.9583 16.0356 85.0263 16.2258 85.0251 16.4219C85.0239 16.618 84.9537 16.8073 84.8266 16.9567L83.6916 18.2901L85.3366 17.3417C85.5061 17.2441 85.7045 17.2092 85.8971 17.243C86.0896 17.2769 86.2642 17.3775 86.3901 17.527C86.5161 17.6766 86.5854 17.8658 86.586 18.0613C86.5866 18.2569 86.5184 18.4464 86.3933 18.5967L85.13 20.1084L86.8633 19.1084C87.0291 19.0129 87.2228 18.9773 87.4117 19.0077C87.6006 19.0381 87.7733 19.1326 87.9008 19.2754C88.0283 19.4181 88.1027 19.6003 88.1117 19.7915C88.1207 19.9826 88.0635 20.171 87.95 20.3251L86.2733 22.5951L88.545 21.2834C88.7075 21.1901 88.8967 21.1542 89.082 21.1816C89.2674 21.2091 89.4381 21.2982 89.5666 21.4346C89.6951 21.5709 89.7739 21.7467 89.7902 21.9333C89.8066 22.12 89.7595 22.3067 89.6566 22.4634L87.6883 25.4484L90.3383 23.9184C90.502 23.8241 90.6929 23.7881 90.8797 23.8165C91.0664 23.8449 91.238 23.936 91.3663 24.0747C91.4945 24.2134 91.5718 24.3916 91.5855 24.58C91.5992 24.7684 91.5485 24.9559 91.4416 25.1117L89.425 28.0451L91.9333 26.5967C92.0997 26.5009 92.2942 26.4654 92.4837 26.4964C92.6733 26.5274 92.8463 26.623 92.9735 26.7668C93.1007 26.9107 93.1743 27.0941 93.1819 27.2861C93.1895 27.478 93.1305 27.6666 93.015 27.8201L91.0533 30.4317L93.2416 29.1684C93.41 29.0711 93.607 29.0358 93.7986 29.0685C93.9903 29.1011 94.1644 29.1998 94.291 29.3473C94.4176 29.4949 94.4886 29.682 94.4918 29.8764C94.4949 30.0708 94.43 30.2601 94.3083 30.4117L92.4316 32.7451L94.3266 31.6517C94.492 31.5566 94.685 31.5212 94.8733 31.5512C95.0617 31.5812 95.234 31.675 95.3616 31.8168C95.4892 31.9586 95.5642 32.1399 95.5742 32.3304C95.5843 32.5208 95.5286 32.709 95.4166 32.8634L93.03 36.1317L95.4533 34.7334C95.6219 34.6363 95.8192 34.6013 96.011 34.6345C96.2027 34.6676 96.3768 34.7668 96.503 34.9148C96.6293 35.0629 96.6998 35.2504 96.7023 35.445C96.7048 35.6395 96.6391 35.8288 96.5166 35.9801L94.2683 38.7467L96.2983 37.5801C96.4744 37.4756 96.6828 37.4397 96.8837 37.4791C97.0846 37.5185 97.264 37.6304 97.3876 37.7936C97.5112 37.9568 97.5704 38.1598 97.554 38.3639C97.5375 38.5679 97.4465 38.7588 97.2983 38.9001L96.62 39.5584L96.7516 39.4817C96.9292 39.3755 97.1399 39.3391 97.3429 39.3796C97.5458 39.4202 97.7263 39.5348 97.8494 39.7011C97.9725 39.8674 98.0293 40.0736 98.0088 40.2795C97.9882 40.4854 97.8918 40.6763 97.7383 40.8151L97.215 41.3151C97.3919 41.2427 97.5884 41.2334 97.7714 41.2888C97.9544 41.3441 98.1128 41.4606 98.2201 41.6189C98.3273 41.7772 98.3769 41.9675 98.3605 42.158C98.3441 42.3484 98.2627 42.5275 98.13 42.6651L96.3633 44.4984L97.485 43.8517C97.6611 43.7473 97.8694 43.7114 98.0704 43.7508C98.2713 43.7901 98.4506 43.9021 98.5743 44.0653C98.6979 44.2285 98.7571 44.4315 98.7406 44.6355C98.7242 44.8396 98.6332 45.0305 98.485 45.1717L97.1766 46.4367L97.715 46.1251C97.8924 46.0248 98.1004 45.9931 98.2997 46.0359C98.4989 46.0786 98.6756 46.1929 98.7963 46.3571C98.917 46.5213 98.9733 46.7241 98.9546 46.927C98.936 47.1299 98.8436 47.319 98.695 47.4584L97.8216 48.2601C97.994 48.161 98.1962 48.1269 98.3915 48.1639C98.5869 48.2008 98.7626 48.3064 98.8869 48.4615C99.0113 48.6166 99.076 48.8111 99.0696 49.0098C99.0631 49.2085 98.9858 49.3983 98.8516 49.5451L95.5866 53.0867L97.8166 51.8017C97.9897 51.7015 98.1931 51.6669 98.3896 51.7042C98.5861 51.7415 98.7626 51.8482 98.887 52.0049C99.0113 52.1616 99.0751 52.3577 99.0668 52.5576C99.0585 52.7574 98.9786 52.9476 98.8416 53.0934L94.92 57.2601L97.4883 55.7784C97.6671 55.6765 97.8772 55.6444 98.0782 55.6881C98.2793 55.7319 98.457 55.8485 98.5772 56.0155C98.6974 56.1825 98.7516 56.388 98.7294 56.5926C98.7071 56.7971 98.61 56.9862 98.4566 57.1234L96.275 59.0484L97.0633 58.5951C97.2444 58.492 97.4574 58.4605 97.6605 58.5068C97.8637 58.553 98.0421 58.6737 98.1607 58.845C98.2792 59.0162 98.3294 59.2257 98.3012 59.4321C98.273 59.6385 98.1685 59.8269 98.0083 59.9601L96.765 60.9767C96.9459 60.9356 97.1353 60.9559 97.3033 61.0346C97.4713 61.1133 97.6083 61.2458 97.6925 61.4111C97.7767 61.5764 97.8033 61.7651 97.7681 61.9473C97.7329 62.1294 97.638 62.2946 97.4983 62.4167L93.31 66.0634L95.4766 64.8101C95.6587 64.7042 95.8742 64.6712 96.0796 64.7178C96.285 64.7643 96.4652 64.887 96.5839 65.061C96.7026 65.235 96.7509 65.4475 96.7193 65.6557C96.6877 65.864 96.5783 66.0525 96.4133 66.1834L92.4833 69.2917L94.1683 68.3201C94.3596 68.2113 94.5862 68.1826 94.7985 68.2403C95.0109 68.2979 95.1918 68.4372 95.3019 68.6278C95.4119 68.8184 95.4421 69.0447 95.3858 69.2575C95.3296 69.4702 95.1915 69.6521 95.0016 69.7634L83.7466 76.2634C83.6211 76.3361 83.4784 76.374 83.3333 76.3734Z" fill="#CB53FF"/>
<path d="M49.8617 99.6132C49.7047 99.6136 49.5508 99.5698 49.4177 99.4866C49.2846 99.4035 49.1777 99.2845 49.1092 99.1432C49.0408 99.002 49.0136 98.8443 49.0309 98.6883C49.0481 98.5323 49.109 98.3844 49.2067 98.2615L51.9783 94.7615L44.4183 99.1248C44.2513 99.2211 44.056 99.2564 43.8658 99.2249C43.6756 99.1933 43.5022 99.0967 43.3752 98.9517C43.2483 98.8066 43.1755 98.622 43.1694 98.4292C43.1632 98.2365 43.2241 98.0477 43.3417 97.8948L45.5633 95.0065L39.805 98.3332C39.6287 98.4393 39.4194 98.4765 39.2173 98.4375C39.0153 98.3985 38.8348 98.2861 38.7106 98.122C38.5865 97.9579 38.5274 97.7537 38.5448 97.5487C38.5622 97.3436 38.6549 97.1523 38.805 97.0115L39.785 96.0682L37.0733 97.6315C36.9092 97.7253 36.7181 97.7605 36.5313 97.7314C36.3445 97.7022 36.1732 97.6104 36.0455 97.4711C35.9177 97.3317 35.8412 97.1531 35.8284 96.9645C35.8156 96.7759 35.8673 96.5885 35.975 96.4332L37.8467 93.7665L33.305 96.3865C33.1293 96.4878 32.9227 96.5216 32.7239 96.4815C32.5251 96.4414 32.3477 96.3301 32.225 96.1686C32.1024 96.0071 32.0428 95.8064 32.0575 95.6041C32.0723 95.4019 32.1602 95.2119 32.305 95.0698L32.8667 94.5198L31.1667 95.4998C30.9976 95.5956 30.8003 95.6293 30.609 95.5951C30.4177 95.5609 30.2444 95.4609 30.119 95.3124C29.9937 95.1639 29.9242 94.9762 29.9225 94.7819C29.9209 94.5876 29.9872 94.3988 30.11 94.2482L31.5483 92.5065L28.5283 94.2498C28.3633 94.3452 28.1705 94.3811 27.9822 94.3516C27.7938 94.322 27.6213 94.2288 27.4934 94.0874C27.3655 93.9461 27.2899 93.7651 27.2793 93.5748C27.2687 93.3845 27.3236 93.1962 27.435 93.0415L29.0617 90.7832L25.7283 92.7082C25.5625 92.8037 25.3689 92.8392 25.1799 92.8088C24.991 92.7784 24.8183 92.6839 24.6908 92.5412C24.5634 92.3985 24.4889 92.2162 24.4799 92.0251C24.471 91.8339 24.5281 91.6455 24.6417 91.4915L26.1983 89.3898L23.22 91.1082C23.0545 91.204 22.861 91.2399 22.6721 91.21C22.4832 91.1801 22.3104 91.0861 22.1826 90.9439C22.0548 90.8016 21.9798 90.6197 21.9702 90.4287C21.9606 90.2377 22.017 90.0492 22.13 89.8948L23.6783 87.7832L20.8817 89.3982C20.7137 89.4937 20.5177 89.5279 20.3273 89.4949C20.1369 89.4619 19.9639 89.3638 19.8379 89.2173C19.7118 89.0708 19.6406 88.885 19.6365 88.6918C19.6323 88.4986 19.6954 88.31 19.815 88.1582L21.1717 86.4532L18.8933 87.7682C18.7299 87.862 18.5396 87.8977 18.3533 87.8695C18.167 87.8412 17.9958 87.7507 17.8676 87.6126C17.7394 87.4745 17.6617 87.2971 17.6473 87.1092C17.6329 86.9214 17.6826 86.7342 17.7883 86.5782L19.4667 84.1148L16.6683 85.7298C16.5039 85.825 16.3118 85.8611 16.124 85.8322C15.9362 85.8033 15.764 85.711 15.6358 85.5708C15.5076 85.4305 15.4312 85.2507 15.4192 85.0611C15.4073 84.8714 15.4604 84.6834 15.57 84.5282L17.2367 82.1548L14.6483 83.6548C14.4756 83.7539 14.2731 83.7878 14.0775 83.7504C13.882 83.7131 13.7062 83.6069 13.5821 83.4512C13.4581 83.2955 13.3938 83.1005 13.4011 82.9015C13.4083 82.7026 13.4866 82.5128 13.6217 82.3665L14.3717 81.5565L13.3333 82.1465C13.1691 82.2401 12.9778 82.2751 12.7911 82.2457C12.6043 82.2163 12.4331 82.1243 12.3055 81.9847C12.1779 81.8451 12.1017 81.6663 12.0891 81.4777C12.0766 81.289 12.1286 81.1017 12.2367 80.9465L14.0017 78.4465L11.5417 79.8648C11.3803 79.9574 11.1927 79.9933 11.0086 79.9669C10.8245 79.9405 10.6546 79.8533 10.5258 79.7191C10.397 79.585 10.3168 79.4116 10.2979 79.2266C10.279 79.0416 10.3226 78.8556 10.4217 78.6982L12.4317 75.5415L9.67332 77.1348C9.51053 77.2286 9.32083 77.2646 9.135 77.237C8.94917 77.2094 8.77811 77.1199 8.64958 76.9828C8.52106 76.8458 8.4426 76.6694 8.42694 76.4822C8.41128 76.295 8.45934 76.108 8.56332 75.9515L10.6317 72.8482L8.01832 74.3565C7.85341 74.452 7.66073 74.4882 7.4724 74.4589C7.28408 74.4296 7.11148 74.3366 6.9834 74.1955C6.85532 74.0543 6.7795 73.8735 6.76856 73.6833C6.75763 73.493 6.81225 73.3047 6.92332 73.1498L9.02332 70.2115L6.62998 71.5932C6.45892 71.6912 6.25862 71.7255 6.06469 71.6898C5.87077 71.6541 5.69577 71.5508 5.57082 71.3983C5.44587 71.2458 5.37906 71.0538 5.38226 70.8567C5.38546 70.6595 5.45848 70.4699 5.58832 70.3215L7.03832 68.6815L5.69665 69.4548C5.52559 69.5529 5.32529 69.5872 5.13136 69.5515C4.93743 69.5158 4.76244 69.4125 4.63749 69.26C4.51253 69.1074 4.44572 68.9155 4.44893 68.7184C4.45213 68.5212 4.52514 68.3316 4.65498 68.1832L6.24832 66.3732L4.83832 67.1865C4.66674 67.2856 4.46549 67.3203 4.27064 67.2844C4.0758 67.2485 3.90011 67.1443 3.7751 66.9906C3.65009 66.8369 3.58393 66.6437 3.58849 66.4457C3.59305 66.2476 3.66803 66.0576 3.79998 65.9098L5.48332 64.0215L4.08165 64.8298C3.91155 64.9282 3.71217 64.9633 3.5187 64.929C3.32523 64.8946 3.15013 64.793 3.02431 64.642C2.8985 64.4911 2.83007 64.3006 2.83111 64.1041C2.83214 63.9076 2.90258 63.7178 3.02998 63.5682L5.18665 61.0332L3.36665 62.0832C3.19626 62.1804 2.99703 62.2144 2.80404 62.1791C2.61104 62.1439 2.43667 62.0418 2.31161 61.8906C2.18654 61.7395 2.11882 61.549 2.12035 61.3528C2.12188 61.1567 2.19258 60.9673 2.31998 60.8182L4.68665 58.0632L2.78665 59.1598C2.61721 59.2575 2.41883 59.2924 2.22624 59.2585C2.03364 59.2246 1.8591 59.1241 1.73315 58.9745C1.6072 58.8249 1.53787 58.6358 1.53729 58.4402C1.53671 58.2447 1.60492 58.0552 1.72998 57.9048L4.66832 54.3748L2.33498 55.7182C2.16308 55.8172 1.96149 55.8517 1.76645 55.8153C1.57141 55.779 1.39572 55.6743 1.27098 55.5201C1.14624 55.3658 1.08063 55.1721 1.08595 54.9738C1.09126 54.7754 1.16716 54.5855 1.29998 54.4382L4.19332 51.2348L2.16665 52.4115C1.98909 52.5177 1.77835 52.5541 1.57543 52.5136C1.37252 52.473 1.19195 52.3585 1.06886 52.1921C0.945774 52.0258 0.888973 51.8196 0.909513 51.6137C0.930052 51.4078 1.02646 51.2169 1.17998 51.0782L2.79832 49.5565L2.16665 49.9215C1.9893 50.0191 1.78251 50.0488 1.58488 50.005C1.38724 49.9613 1.21228 49.8471 1.09267 49.6838C0.973059 49.5205 0.91697 49.3193 0.934877 49.1176C0.952784 48.916 1.04346 48.7278 1.18998 48.5882L2.72165 47.1998L2.29165 47.4465C2.11617 47.5464 1.91038 47.5792 1.71253 47.5388C1.51469 47.4983 1.33825 47.3875 1.21602 47.2267C1.09379 47.066 1.03408 46.8663 1.04799 46.6649C1.0619 46.4634 1.14849 46.2739 1.29165 46.1315L4.77165 42.6998L2.70332 43.8948C2.52722 43.9992 2.31884 44.0352 2.11794 43.9958C1.91704 43.9564 1.73766 43.8444 1.61404 43.6812C1.49041 43.5181 1.43118 43.3151 1.44765 43.111C1.46411 42.9069 1.55512 42.7161 1.70332 42.5748L6.16665 38.2632L3.49998 39.8015C3.3206 39.906 3.10869 39.9397 2.90572 39.8962C2.70275 39.8526 2.52334 39.7349 2.40263 39.566C2.28191 39.3971 2.22857 39.1893 2.25305 38.9831C2.27753 38.777 2.37807 38.5874 2.53498 38.4515L6.80832 34.7332L4.57998 36.0198C4.3995 36.1233 4.18685 36.1555 3.98383 36.1101C3.78081 36.0647 3.60211 35.945 3.48284 35.7746C3.36357 35.6041 3.31236 35.3953 3.33928 35.189C3.3662 34.9827 3.4693 34.7939 3.62832 34.6598L10.4517 28.9315L6.46665 31.2298C6.28102 31.3326 6.06316 31.3607 5.85752 31.3084C5.65188 31.2561 5.47394 31.1273 5.35999 30.9483C5.24604 30.7693 5.20467 30.5536 5.24431 30.3451C5.28395 30.1367 5.40162 29.9512 5.57332 29.8265L7.57332 28.4332C7.38595 28.453 7.19738 28.4088 7.03839 28.3076C6.8794 28.2065 6.75936 28.0545 6.69787 27.8764C6.63637 27.6983 6.63705 27.5046 6.69979 27.327C6.76253 27.1493 6.88362 26.9981 7.04332 26.8982L9.54332 25.3282C9.35331 25.3849 9.14929 25.3721 8.9679 25.2919C8.78652 25.2118 8.63966 25.0696 8.55371 24.8909C8.46777 24.7122 8.44837 24.5086 8.49901 24.3169C8.54965 24.1252 8.667 23.9578 8.82998 23.8448L23.0267 13.9848L14.585 18.8565C14.3991 18.9651 14.1784 18.9975 13.9692 18.947C13.7599 18.8965 13.5783 18.767 13.4624 18.5856C13.3465 18.4042 13.3053 18.185 13.3474 17.9739C13.3895 17.7628 13.5117 17.5762 13.6883 17.4532L20.1567 12.8965C20.0373 12.8187 19.9398 12.7116 19.8736 12.5854C19.8074 12.4593 19.7746 12.3182 19.7785 12.1758C19.7823 12.0333 19.8226 11.8942 19.8956 11.7718C19.9685 11.6494 20.0716 11.5477 20.195 11.4765L31.18 5.13315C31.3659 5.02458 31.5865 4.99215 31.7958 5.04264C32.005 5.09314 32.1866 5.22264 32.3025 5.40403C32.4184 5.58542 32.4596 5.80463 32.4175 6.01573C32.3754 6.22682 32.2533 6.41344 32.0767 6.53649L29.7433 8.18149L39.48 2.56149C39.6663 2.45308 39.8873 2.42107 40.0967 2.47218C40.3061 2.52329 40.4876 2.65354 40.603 2.83559C40.7184 3.01764 40.7587 3.23732 40.7156 3.4485C40.6725 3.65968 40.5492 3.84594 40.3717 3.96816L26.1667 13.8332L47.44 1.54982C47.6286 1.44765 47.8493 1.42215 48.0563 1.47861C48.2632 1.53507 48.4404 1.66915 48.551 1.85295C48.6616 2.03675 48.697 2.25611 48.6499 2.46538C48.6029 2.67465 48.4769 2.85772 48.2983 2.97649L24.0783 18.1665C24.1446 18.3399 24.1511 18.5305 24.0968 18.7081C24.0424 18.8856 23.9304 19.0399 23.7783 19.1465L18.6667 22.7198C18.7863 22.7844 18.8884 22.8773 18.9639 22.9904C19.0394 23.1034 19.0861 23.2333 19.0999 23.3686C19.1137 23.5039 19.0942 23.6405 19.0431 23.7665C18.992 23.8925 18.9108 24.0041 18.8067 24.0915L11.9733 29.8215L13.43 28.9882C13.6091 28.8857 13.8199 28.8533 14.0216 28.8973C14.2232 28.9414 14.4013 29.0587 14.5214 29.2265C14.6416 29.3943 14.6951 29.6008 14.6718 29.8058C14.6484 30.0109 14.5498 30.2 14.395 30.3365L10.1283 34.0532L11.1967 33.4365C11.3727 33.3321 11.5811 33.2961 11.782 33.3355C11.9829 33.3749 12.1623 33.4869 12.2859 33.6501C12.4096 33.8133 12.4688 34.0162 12.4523 34.2203C12.4359 34.4244 12.3448 34.6152 12.1967 34.7565L7.73665 39.0632L9.56998 38.0065C9.74547 37.9066 9.95126 37.8738 10.1491 37.9142C10.3469 37.9546 10.5234 38.0655 10.6456 38.2262C10.7678 38.387 10.8276 38.5866 10.8136 38.7881C10.7997 38.9895 10.7131 39.1791 10.57 39.3215L7.08665 42.7548L8.62832 41.8648C8.80566 41.7673 9.01246 41.7376 9.21009 41.7813C9.40773 41.825 9.58268 41.9392 9.7023 42.1025C9.82191 42.2658 9.878 42.467 9.86009 42.6687C9.84218 42.8703 9.7515 43.0585 9.60498 43.1982L8.07665 44.5848L8.20998 44.5082C8.38754 44.4019 8.59829 44.3655 8.8012 44.4061C9.00411 44.4466 9.18468 44.5612 9.30777 44.7275C9.43086 44.8939 9.48766 45.1 9.46712 45.3059C9.44658 45.5118 9.35017 45.7027 9.19665 45.8415L7.57832 47.3615L7.95832 47.1415C8.13022 47.0425 8.33182 47.008 8.52685 47.0443C8.72189 47.0806 8.89758 47.1853 9.02232 47.3396C9.14706 47.4939 9.21267 47.6876 9.20735 47.8859C9.20204 48.0842 9.12614 48.2741 8.99332 48.4215L6.09832 51.6265L7.88665 50.5948C8.05609 50.4972 8.25447 50.4623 8.44706 50.4961C8.63966 50.53 8.8142 50.6306 8.94015 50.7801C9.0661 50.9297 9.13543 51.1189 9.13601 51.3144C9.13659 51.51 9.06838 51.6995 8.94332 51.8498L5.99998 55.3782L8.09832 54.1665C8.26873 54.0682 8.46842 54.0334 8.66203 54.0682C8.85564 54.103 9.0307 54.2052 9.15622 54.3567C9.28175 54.5081 9.34964 54.6991 9.34789 54.8958C9.34614 55.0925 9.27485 55.2823 9.14665 55.4315L6.77832 58.1898L8.53665 57.1765C8.70675 57.0781 8.90613 57.043 9.0996 57.0774C9.29307 57.1117 9.46817 57.2134 9.59399 57.3643C9.7198 57.5152 9.78823 57.7058 9.78719 57.9023C9.78616 58.0988 9.71572 58.2886 9.58832 58.4382L7.42998 60.9732L9.13332 59.9898C9.30491 59.8896 9.50666 59.8541 9.70217 59.8895C9.89768 59.925 10.0741 60.0291 10.1996 60.1832C10.3251 60.3372 10.3914 60.531 10.3866 60.7297C10.3818 60.9283 10.3061 61.1187 10.1733 61.2665L8.49998 63.1532L9.83332 62.3882C10.0044 62.2901 10.2047 62.2558 10.3986 62.2915C10.5925 62.3272 10.7675 62.4305 10.8925 62.583C11.0174 62.7356 11.0842 62.9275 11.081 63.1246C11.0778 63.3218 11.0048 63.5114 10.875 63.6598L9.26665 65.4698L10.6283 64.6848C10.7993 64.5888 10.9987 64.5562 11.1914 64.5927C11.3841 64.6292 11.5577 64.7325 11.6817 64.8844C11.8058 65.0363 11.8722 65.2271 11.8695 65.4232C11.8667 65.6193 11.7949 65.8081 11.6667 65.9565L10.22 67.5965L11.525 66.8432C11.6897 66.7483 11.8819 66.7127 12.0697 66.7421C12.2575 66.7715 12.4296 66.8643 12.5575 67.0049C12.6853 67.1456 12.7612 67.3258 12.7726 67.5155C12.784 67.7053 12.7301 67.8932 12.62 68.0482L10.52 70.9865L12.8883 69.6198C13.0511 69.5261 13.2408 69.49 13.4266 69.5176C13.6125 69.5452 13.7835 69.6348 13.9121 69.7718C14.0406 69.9088 14.119 70.0853 14.1347 70.2725C14.1504 70.4597 14.1023 70.6467 13.9983 70.8032L11.9333 73.9048L14.5517 72.3948C14.713 72.3023 14.9006 72.2663 15.0847 72.2928C15.2688 72.3192 15.4387 72.4064 15.5675 72.5405C15.6963 72.6747 15.7765 72.8481 15.7954 73.0331C15.8143 73.2181 15.7707 73.4041 15.6717 73.5615L13.6667 76.7182L16.465 75.1048C16.6292 75.0112 16.8205 74.9762 17.0072 75.0056C17.194 75.035 17.3652 75.1271 17.4928 75.2666C17.6204 75.4062 17.6967 75.585 17.7092 75.7737C17.7217 75.9623 17.6697 76.1496 17.5617 76.3048L15.7967 78.8048L18.3167 77.3498C18.4894 77.2496 18.6924 77.2148 18.8887 77.2517C19.0849 77.2886 19.2614 77.3948 19.386 77.5509C19.5106 77.7069 19.575 77.9026 19.5674 78.1021C19.5599 78.3017 19.481 78.4919 19.345 78.6382L18.5933 79.4482L19.6767 78.8332C19.8411 78.738 20.0331 78.7019 20.2209 78.7308C20.4087 78.7597 20.581 78.852 20.7092 78.9922C20.8374 79.1325 20.9138 79.3123 20.9257 79.5019C20.9377 79.6916 20.8845 79.8796 20.775 80.0348L19.1083 82.4065L21.785 80.8615C21.9484 80.7676 22.1387 80.7319 22.325 80.7602C22.5113 80.7884 22.6825 80.879 22.8107 81.0171C22.9389 81.1551 23.0166 81.3326 23.031 81.5204C23.0454 81.7083 22.9957 81.8955 22.89 82.0515L21.2233 84.5132L24.155 82.8215C24.323 82.725 24.5193 82.69 24.7103 82.7226C24.9013 82.7553 25.0749 82.8534 25.2014 83.0002C25.3279 83.1469 25.3992 83.3332 25.4032 83.5269C25.4072 83.7206 25.3436 83.9096 25.2233 84.0615L23.8667 85.7648L26.2833 84.3698C26.449 84.2742 26.6425 84.2384 26.8314 84.2686C27.0203 84.2987 27.1931 84.393 27.3208 84.5355C27.4484 84.678 27.5231 84.86 27.5324 85.0511C27.5417 85.2422 27.4849 85.4306 27.3717 85.5848L25.8233 87.6965L28.84 85.9548C29.0058 85.8602 29.199 85.8254 29.3874 85.8561C29.5758 85.8869 29.748 85.9815 29.875 86.1239C30.0021 86.2664 30.0764 86.4482 30.0855 86.6389C30.0946 86.8295 30.0379 87.0176 29.925 87.1715L28.3717 89.2715L31.5883 87.4148C31.7532 87.3193 31.9459 87.2831 32.1342 87.3124C32.3226 87.3417 32.4952 87.4347 32.6232 87.5759C32.7513 87.717 32.8271 87.8978 32.8381 88.0881C32.849 88.2783 32.7944 88.4666 32.6833 88.6215L31.0567 90.8832L34.735 88.7598C34.9041 88.663 35.1018 88.6286 35.2936 88.6624C35.4855 88.6962 35.6595 88.7962 35.7853 88.945C35.9111 89.0938 35.9808 89.282 35.9823 89.4768C35.9837 89.6716 35.9169 89.8608 35.7933 90.0115L34.3333 91.7432L37.7417 89.7765C37.9173 89.6752 38.124 89.6414 38.3228 89.6815C38.5216 89.7216 38.6989 89.8328 38.8216 89.9944C38.9443 90.1559 39.0038 90.3566 38.9891 90.5589C38.9744 90.7611 38.8864 90.9511 38.7417 91.0932L38.1833 91.6415L40.27 90.4365C40.4343 90.342 40.6259 90.3064 40.8131 90.3354C41.0004 90.3644 41.1722 90.4564 41.3002 90.5962C41.4281 90.736 41.5046 90.9153 41.517 91.1044C41.5294 91.2935 41.4769 91.4812 41.3683 91.6365L39.4967 94.3032L44.845 91.2165C45.0213 91.1104 45.2306 91.0732 45.4327 91.1122C45.6347 91.1512 45.8152 91.2635 45.9394 91.4276C46.0635 91.5917 46.1226 91.796 46.1052 92.001C46.0877 92.206 45.9951 92.3974 45.845 92.5382L44.865 93.4815L48.365 91.4615C48.5319 91.366 48.7266 91.3312 48.9163 91.3629C49.1059 91.3947 49.2787 91.491 49.4054 91.6356C49.5322 91.7801 49.605 91.9641 49.6116 92.1562C49.6182 92.3484 49.5582 92.5369 49.4417 92.6898L47.2233 95.5832L54.9183 91.1415C55.0859 91.0445 55.2821 91.0089 55.4731 91.0409C55.6641 91.0728 55.838 91.1703 55.965 91.3165C56.0924 91.4631 56.1646 91.6495 56.1692 91.8437C56.1738 92.0378 56.1104 92.2274 55.99 92.3798L53.22 95.8798L66.1667 88.4048C66.3458 88.3023 66.5566 88.27 66.7582 88.314C66.9599 88.358 67.138 88.4753 67.2581 88.6432C67.3782 88.811 67.4318 89.0174 67.4084 89.2225C67.3851 89.4276 67.2864 89.6166 67.1317 89.7532L62.94 93.4198L68.81 90.0315C68.985 89.9342 69.1893 89.9032 69.3853 89.9442C69.5814 89.9852 69.7561 90.0954 69.8775 90.2547C69.9989 90.4139 70.0589 90.6116 70.0465 90.8115C70.0341 91.0114 69.9502 91.2001 69.81 91.3432L68.04 93.0998L69.165 92.4498C69.2598 92.3895 69.3659 92.349 69.4768 92.3308C69.5877 92.3126 69.7011 92.3169 69.8103 92.3437C69.9195 92.3704 70.0221 92.419 70.112 92.4864C70.2019 92.5538 70.2773 92.6387 70.3335 92.7361C70.3898 92.8334 70.4258 92.941 70.4393 93.0526C70.4529 93.1642 70.4437 93.2773 70.4124 93.3853C70.3811 93.4932 70.3282 93.5937 70.2571 93.6807C70.1859 93.7677 70.0979 93.8394 69.9983 93.8915L63.3067 97.7548C63.1314 97.8534 62.9264 97.8853 62.7295 97.8446C62.5325 97.8038 62.357 97.6933 62.2352 97.5333C62.1133 97.3733 62.0535 97.1747 62.0666 96.974C62.0798 96.7734 62.165 96.5842 62.3067 96.4415L64.0733 94.6882L56.3833 99.1265C56.2042 99.229 55.9934 99.2613 55.7917 99.2173C55.5901 99.1733 55.412 99.056 55.2919 98.8882C55.1717 98.7203 55.1182 98.5139 55.1415 98.3088C55.1649 98.1038 55.2635 97.9147 55.4183 97.7782L59.6117 94.1115L50.2783 99.4982C50.1523 99.5732 50.0084 99.6129 49.8617 99.6132Z" fill="#CB53FF"/>
<path d="M51.6132 82.8951C51.4348 82.8953 51.261 82.8383 51.1175 82.7323C50.9739 82.6264 50.8681 82.4772 50.8156 82.3067C50.7632 82.1361 50.7669 81.9532 50.8262 81.7849C50.8854 81.6166 50.9972 81.4718 51.1449 81.3718L59.7249 75.5384L47.3332 82.6834C47.161 82.7836 46.9585 82.8187 46.7626 82.7824C46.5667 82.7461 46.3903 82.6409 46.2653 82.4857C46.1403 82.3305 46.0751 82.1356 46.0815 81.9365C46.0878 81.7373 46.1653 81.547 46.2999 81.4001L48.6882 78.7801L43.1332 81.9884C42.9647 82.0866 42.7672 82.1225 42.5749 82.09C42.3826 82.0575 42.2078 81.9586 42.081 81.8105C41.9541 81.6625 41.8832 81.4746 41.8806 81.2796C41.8779 81.0846 41.9438 80.8949 42.0666 80.7434L43.9799 78.3734L39.5716 80.9168C39.4086 81.0103 39.2189 81.0461 39.0331 81.0183C38.8472 80.9904 38.6763 80.9006 38.5479 80.7634C38.4196 80.6262 38.3414 80.4496 38.326 80.2623C38.3106 80.0751 38.359 79.8881 38.4632 79.7318L40.2632 77.0484L36.1482 79.4234C35.9899 79.5136 35.8064 79.5494 35.6258 79.5253C35.4452 79.5012 35.2774 79.4186 35.1482 79.2901C35.0198 79.1609 34.9371 78.9932 34.9131 78.8126C34.889 78.632 34.9248 78.4484 35.0149 78.2901L36.7582 75.2534L32.8649 77.5001C32.7002 77.5949 32.508 77.6306 32.3202 77.6012C32.1323 77.5718 31.9603 77.479 31.8324 77.3383C31.7046 77.1976 31.6287 77.0175 31.6173 76.8277C31.6059 76.638 31.6598 76.45 31.7699 76.2951L33.3682 74.0584L30.4682 75.7251C30.2975 75.8233 30.0975 75.8578 29.9038 75.8225C29.71 75.7873 29.535 75.6846 29.4097 75.5326C29.2845 75.3806 29.2171 75.1891 29.2196 74.9922C29.2221 74.7953 29.2942 74.6056 29.4232 74.4568L30.4699 73.2551L28.7749 74.2334C28.6136 74.3276 28.4253 74.3648 28.2403 74.3391C28.0552 74.3133 27.8842 74.2262 27.7547 74.0917C27.6251 73.9571 27.5445 73.7829 27.5258 73.597C27.5071 73.4112 27.5514 73.2244 27.6516 73.0668L29.4549 70.1918L26.5199 71.8851C26.3501 71.9836 26.151 72.019 25.9577 71.9851C25.7644 71.9512 25.5892 71.8501 25.4631 71.6997C25.337 71.5493 25.268 71.3592 25.2684 71.1629C25.2687 70.9666 25.3383 70.7768 25.4649 70.6268L26.7082 69.1518L25.0749 70.0951C24.9092 70.1908 24.7157 70.2265 24.5268 70.1964C24.3379 70.1662 24.1651 70.072 24.0375 69.9295C23.9098 69.787 23.8351 69.6049 23.8258 69.4138C23.8166 69.2227 23.8733 69.0343 23.9866 68.8801L25.7666 66.4501L23.4866 67.7668C23.3131 67.8671 23.1094 67.9015 22.9126 67.8638C22.7159 67.8261 22.5393 67.7188 22.4152 67.5615C22.2911 67.4042 22.2278 67.2075 22.237 67.0074C22.2461 66.8072 22.327 66.6171 22.4649 66.4718L23.2332 65.6634L22.5149 66.0784C22.3503 66.1734 22.1582 66.2093 21.9704 66.1802C21.7826 66.151 21.6104 66.0585 21.4824 65.918C21.3544 65.7776 21.2782 65.5976 21.2666 65.4079C21.2549 65.2182 21.3084 65.0302 21.4182 64.8751L23.6199 61.7718L21.1466 63.1968C20.9778 63.2928 20.7808 63.3268 20.5896 63.293C20.3984 63.2593 20.225 63.1598 20.0994 63.0118C19.9737 62.8638 19.9036 62.6766 19.9013 62.4824C19.899 62.2883 19.9645 62.0994 20.0866 61.9484L22.1349 59.4484L20.2032 60.5634C20.0343 60.6613 19.8363 60.6967 19.6439 60.6635C19.4515 60.6303 19.2768 60.5306 19.1504 60.3818C19.024 60.233 18.9539 60.0445 18.9522 59.8492C18.9506 59.654 19.0176 59.4643 19.1416 59.3134L21.5599 56.3734L19.4449 57.5951C19.2722 57.6953 19.0692 57.7301 18.8729 57.6932C18.6766 57.6563 18.5002 57.5501 18.3756 57.3941C18.251 57.238 18.1866 57.0424 18.1941 56.8428C18.2017 56.6432 18.2806 56.453 18.4166 56.3068L20.5949 53.9534L19.0066 54.8701C18.8375 54.9669 18.6398 55.0014 18.4479 54.9675C18.256 54.9337 18.0821 54.8337 17.9563 54.6849C17.8305 54.5361 17.7608 54.348 17.7593 54.1531C17.7578 53.9583 17.8247 53.7691 17.9482 53.6184L20.8832 50.0684L18.7999 51.2701C18.6377 51.3638 18.4487 51.4001 18.2633 51.3732C18.078 51.3463 17.9071 51.2577 17.7782 51.1218C17.6492 50.9855 17.57 50.8096 17.5533 50.6227C17.5367 50.4358 17.5836 50.2487 17.6866 50.0918L19.0816 47.9634C18.9066 48.0035 18.7235 47.9868 18.5587 47.9157C18.3939 47.8447 18.256 47.7231 18.1649 47.5684C18.0549 47.3772 18.0253 47.1501 18.0825 46.9371C18.1396 46.724 18.279 46.5423 18.4699 46.4318L21.2382 44.8334C21.4006 44.7399 21.5897 44.7038 21.7751 44.731C21.9605 44.7582 22.1313 44.847 22.26 44.9832C22.3887 45.1194 22.4677 45.295 22.4843 45.4816C22.5009 45.6682 22.4542 45.855 22.3516 46.0118L20.9999 48.0784L24.0582 46.3134C24.2273 46.2166 24.425 46.1822 24.6169 46.216C24.8088 46.2498 24.9828 46.3498 25.1086 46.4986C25.2344 46.6474 25.3041 46.8356 25.3055 47.0304C25.307 47.2252 25.2401 47.4144 25.1166 47.5651L22.1832 51.1134L24.5332 49.7584C24.7058 49.6594 24.9081 49.6254 25.1036 49.6625C25.299 49.6997 25.4747 49.8055 25.599 49.961C25.7232 50.1164 25.7877 50.3111 25.7808 50.5099C25.774 50.7088 25.6962 50.8986 25.5616 51.0451L23.3832 53.3968L24.7032 52.6351C24.8722 52.5372 25.0702 52.5018 25.2626 52.535C25.455 52.5682 25.6297 52.6679 25.7561 52.8167C25.8825 52.9656 25.9526 53.1541 25.9542 53.3493C25.9559 53.5446 25.8888 53.7342 25.7649 53.8851L23.3466 56.8334L25.2582 55.7301C25.427 55.6331 25.6244 55.5983 25.8162 55.6317C26.008 55.6651 26.1821 55.7645 26.3082 55.9128C26.4343 56.0611 26.5045 56.2488 26.5066 56.4435C26.5088 56.6381 26.4427 56.8274 26.3199 56.9784L24.2699 59.4784L26.0866 58.4301C26.2512 58.3342 26.4437 58.2976 26.632 58.3264C26.8203 58.3552 26.9931 58.4477 27.1215 58.5884C27.2499 58.7291 27.3263 58.9096 27.3378 59.0997C27.3493 59.2899 27.2954 59.4782 27.1849 59.6334L24.9816 62.7334L27.3849 61.3468C27.5583 61.2477 27.7616 61.2141 27.9576 61.2523C28.1537 61.2904 28.3295 61.3977 28.4531 61.5546C28.5767 61.7115 28.6398 61.9076 28.6309 62.1071C28.6221 62.3067 28.5419 62.4964 28.4049 62.6418L27.6382 63.4484L28.3632 63.0318C28.5287 62.9368 28.7218 62.9016 28.9102 62.9319C29.0985 62.9622 29.2708 63.0562 29.3982 63.1982C29.5256 63.3402 29.6004 63.5217 29.6101 63.7122C29.6198 63.9028 29.5639 64.0909 29.4516 64.2451L27.6666 66.6768L29.9999 65.3334C30.1697 65.2349 30.3688 65.1995 30.5621 65.2334C30.7555 65.2673 30.9306 65.3684 31.0567 65.5188C31.1828 65.6692 31.2518 65.8593 31.2515 66.0556C31.2511 66.2519 31.1815 66.4418 31.0549 66.5918L29.8116 68.0668L31.5349 67.0668C31.6963 66.9726 31.8846 66.9354 32.0696 66.9611C32.2546 66.9869 32.4256 67.074 32.5552 67.2085C32.6847 67.3431 32.7653 67.5173 32.784 67.7032C32.8027 67.889 32.7584 68.0758 32.6582 68.2334L30.8549 71.1068L33.9782 69.3051C34.149 69.2069 34.349 69.1724 34.5427 69.2077C34.7365 69.2429 34.9115 69.3456 35.0368 69.4976C35.162 69.6496 35.2293 69.8411 35.2269 70.038C35.2244 70.2349 35.1523 70.4246 35.0232 70.5734L33.9766 71.7751L35.8716 70.6801C36.0365 70.5845 36.2292 70.5484 36.4175 70.5777C36.6058 70.607 36.7784 70.7 36.9065 70.8411C37.0346 70.9823 37.1104 71.163 37.1213 71.3533C37.1323 71.5436 37.0777 71.7319 36.9666 71.8868L35.3682 74.1234L38.6082 72.2534C38.7659 72.1614 38.9497 72.1244 39.1308 72.1482C39.3118 72.172 39.4798 72.2554 39.6082 72.3851C39.7367 72.5143 39.8194 72.682 39.8434 72.8626C39.8675 73.0432 39.8317 73.2268 39.7416 73.3851L37.9999 76.4334L42.5416 73.8101C42.7045 73.7165 42.8943 73.6807 43.0801 73.7086C43.2659 73.7364 43.4369 73.8263 43.5652 73.9635C43.6936 74.1007 43.7718 74.2773 43.7872 74.4645C43.8025 74.6518 43.7542 74.8388 43.6499 74.9951L41.8499 77.6801L47.0166 74.6951C47.1849 74.5976 47.382 74.5621 47.5738 74.5946C47.7656 74.6272 47.9399 74.7258 48.0666 74.8734C48.1932 75.0211 48.2642 75.2084 48.2673 75.4029C48.2703 75.5974 48.2052 75.7869 48.0832 75.9384L46.1666 78.3101L52.4999 74.6568C52.6721 74.557 52.8743 74.5222 53.0699 74.5586C53.2656 74.5949 53.4417 74.7001 53.5666 74.8551C53.6916 75.0101 53.7569 75.2047 53.7508 75.4038C53.7447 75.6028 53.6675 75.7931 53.5332 75.9401L51.1466 78.5601L78.3649 62.8468C78.5515 62.7418 78.7713 62.7127 78.9788 62.7655C79.1862 62.8182 79.3654 62.9488 79.4792 63.1301C79.593 63.3114 79.6327 63.5296 79.59 63.7393C79.5473 63.9491 79.4255 64.1344 79.2499 64.2568L70.6766 70.0901L76.1299 66.9418C76.3165 66.8368 76.5363 66.8077 76.7438 66.8605C76.9512 66.9132 77.1304 67.0438 77.2442 67.2251C77.358 67.4064 77.3977 67.6246 77.355 67.8343C77.3123 68.0441 77.1905 68.2294 77.0149 68.3518L73.7999 70.5368C73.977 70.5509 74.1449 70.6212 74.2792 70.7375C74.4135 70.8538 74.5071 71.01 74.5464 71.1833C74.5857 71.3565 74.5685 71.5378 74.4975 71.7006C74.4265 71.8635 74.3053 71.9993 74.1516 72.0884L56.6066 82.2201C56.4204 82.3212 56.2027 82.3477 55.9977 82.294C55.7928 82.2403 55.6159 82.1106 55.5032 81.9312C55.3905 81.7518 55.3503 81.5362 55.3909 81.3283C55.4314 81.1203 55.5497 80.9356 55.7216 80.8118L57.2766 79.7534L52.0299 82.7818C51.9034 82.8555 51.7597 82.8946 51.6132 82.8951Z" fill="#EB6374"/>
<path d="M68.9668 67.6668C68.791 67.669 68.6191 67.6155 68.4756 67.514C68.3321 67.4125 68.2243 67.2682 68.1677 67.1018C68.1112 66.9354 68.1087 66.7553 68.1606 66.5874C68.2125 66.4195 68.3162 66.2723 68.4568 66.1668L71.5668 63.7685C71.4151 63.7388 71.2747 63.6676 71.1611 63.5626C71.0476 63.4577 70.9655 63.3233 70.924 63.1744C70.8825 63.0255 70.8833 62.868 70.9261 62.7195C70.969 62.571 71.0523 62.4374 71.1668 62.3335L74.3185 59.5852L73.9451 59.8002C73.768 59.8941 73.5628 59.921 73.3674 59.8759C73.172 59.8308 72.9995 59.7168 72.8813 59.5547C72.7632 59.3926 72.7075 59.1934 72.7244 58.9936C72.7414 58.7938 72.8298 58.6067 72.9735 58.4668L74.9735 56.6802L74.8468 56.7535C74.6679 56.8557 74.4574 56.8879 74.2561 56.844C74.0547 56.8001 73.8768 56.6832 73.7566 56.5158C73.6365 56.3484 73.5826 56.1424 73.6054 55.9376C73.6282 55.7328 73.7261 55.5437 73.8801 55.4068L74.9668 54.4502C74.8193 54.47 74.6692 54.4495 74.5324 54.3908C74.3957 54.3321 74.2774 54.2374 74.1901 54.1168C74.0684 53.9518 74.0118 53.7476 74.0311 53.5434C74.0505 53.3392 74.1445 53.1494 74.2951 53.0102L75.4135 51.9768C75.2347 52.0698 75.0284 52.0949 74.8326 52.0474C74.6368 51.9999 74.4648 51.8831 74.3485 51.7186C74.2322 51.5541 74.1794 51.353 74.1999 51.1526C74.2205 50.9522 74.3129 50.766 74.4601 50.6285L75.4151 49.7302C75.2454 49.8266 75.0472 49.8605 74.8551 49.8257C74.663 49.791 74.4891 49.6899 74.3639 49.5401C74.2387 49.3903 74.1701 49.2013 74.17 49.006C74.1699 48.8108 74.2384 48.6217 74.3635 48.4718L76.9335 45.3685L75.0135 46.4768C74.8384 46.5832 74.6303 46.6214 74.4289 46.5841C74.2274 46.5468 74.0468 46.4366 73.9215 46.2746C73.7961 46.1126 73.7349 45.91 73.7494 45.7057C73.7639 45.5014 73.8532 45.3095 74.0001 45.1668L75.3218 43.7752L74.4768 44.2635C74.303 44.3651 74.0983 44.4004 73.9005 44.3628C73.7028 44.3251 73.5253 44.2172 73.4009 44.0589C73.2765 43.9006 73.2137 43.7026 73.224 43.5016C73.2342 43.3005 73.3169 43.11 73.4568 42.9652L74.5235 41.8502L73.8051 42.2635C73.6332 42.3625 73.4316 42.397 73.2366 42.3607C73.0416 42.3244 72.8659 42.2197 72.7411 42.0654C72.6164 41.9111 72.5508 41.7174 72.5561 41.5191C72.5614 41.3208 72.6373 41.1309 72.7701 40.9835L74.0368 39.5802L72.8985 40.2368C72.7355 40.3304 72.5458 40.3662 72.3599 40.3383C72.1741 40.3105 72.0032 40.2207 71.8748 40.0834C71.7465 39.9462 71.6683 39.7696 71.6529 39.5824C71.6375 39.3951 71.6859 39.2081 71.7901 39.0518L73.8851 35.9285L71.2818 37.4285C71.1192 37.5225 70.9295 37.5587 70.7437 37.5314C70.5579 37.504 70.3867 37.4147 70.258 37.2779C70.1293 37.1411 70.0506 36.9648 70.0346 36.7777C70.0187 36.5905 70.0664 36.4034 70.1701 36.2468L72.0951 33.3485L69.3801 34.9135C69.2123 35.0101 69.0161 35.0452 68.8251 35.0129C68.6342 34.9805 68.4605 34.8826 68.3339 34.7361C68.2073 34.5896 68.1356 34.4035 68.1313 34.2099C68.127 34.0163 68.1902 33.8272 68.3101 33.6752L69.7418 31.8718L67.6335 33.0885C67.4734 33.1809 67.2871 33.2175 67.104 33.1924C66.9208 33.1674 66.7512 33.0822 66.6218 32.9502C66.4918 32.818 66.4096 32.6463 66.3882 32.4621C66.3667 32.278 66.4073 32.092 66.5035 31.9335L68.3018 28.9752L64.9835 30.8885C64.8205 30.9829 64.6304 31.0193 64.4441 30.9918C64.2578 30.9644 64.0863 30.8746 63.9575 30.7371C63.8288 30.5997 63.7504 30.4227 63.7351 30.235C63.7199 30.0473 63.7686 29.8599 63.8735 29.7035L65.5535 27.2035L62.1835 29.1435C62.0097 29.2451 61.805 29.2804 61.6072 29.2428C61.4094 29.2051 61.232 29.0972 61.1076 28.9389C60.9832 28.7806 60.9204 28.5826 60.9306 28.3816C60.9409 28.1805 61.0236 27.99 61.1635 27.8452L61.8201 27.1668L60.1268 28.1435C59.9517 28.2408 59.7475 28.2718 59.5515 28.2308C59.3554 28.1898 59.1807 28.0796 59.0593 27.9203C58.9379 27.7611 58.8779 27.5634 58.8903 27.3635C58.9027 27.1636 58.9866 26.9749 59.1268 26.8318L59.5585 26.4002L57.9285 27.3418C57.7572 27.441 57.5563 27.4759 57.3616 27.4404C57.167 27.405 56.9913 27.3014 56.866 27.1483C56.7407 26.9951 56.674 26.8024 56.6778 26.6045C56.6816 26.4067 56.7557 26.2167 56.8868 26.0685L58.1868 24.5952L54.7751 26.5652C54.6122 26.6587 54.4224 26.6945 54.2366 26.6667C54.0508 26.6388 53.8798 26.549 53.7515 26.4118C53.6231 26.2745 53.5449 26.098 53.5296 25.9107C53.5142 25.7234 53.5626 25.5365 53.6668 25.3802L55.5918 22.5002L49.1668 26.2152C48.9924 26.3146 48.7879 26.3476 48.591 26.3083C48.3942 26.269 48.2181 26.1599 48.0952 26.0012C47.9724 25.8424 47.9109 25.6446 47.9222 25.4442C47.9335 25.2437 48.0168 25.0541 48.1568 24.9102L49.9901 23.0385L42.0835 27.6052C41.8922 27.7139 41.6656 27.7426 41.4533 27.685C41.2409 27.6273 41.0599 27.488 40.9499 27.2974C40.8399 27.1068 40.8097 26.8805 40.8659 26.6677C40.9222 26.455 41.0603 26.2731 41.2501 26.1618L54.4535 18.5385C54.6279 18.4391 54.8324 18.406 55.0292 18.4453C55.2261 18.4847 55.4022 18.5937 55.525 18.7525C55.6479 18.9113 55.7094 19.109 55.698 19.3095C55.6867 19.5099 55.6034 19.6996 55.4635 19.8435L53.6301 21.7152L57.8785 19.2618C58.0414 19.1682 58.2312 19.1325 58.417 19.1603C58.6028 19.1882 58.7738 19.278 58.9021 19.4152C59.0305 19.5524 59.1087 19.729 59.1241 19.9163C59.1394 20.1035 59.0911 20.2905 58.9868 20.4468L57.0501 23.3185L61.7685 20.5968C61.9395 20.4987 62.1398 20.4645 62.3338 20.5002C62.5277 20.5359 62.7027 20.6392 62.8276 20.7917C62.9526 20.9442 63.0194 21.1361 63.0162 21.3333C63.013 21.5305 62.94 21.7201 62.8101 21.8685L61.5085 23.3418L64.2351 21.7685C64.4102 21.6712 64.6144 21.6402 64.8105 21.6812C65.0065 21.7222 65.1812 21.8324 65.3027 21.9917C65.4241 22.1509 65.4841 22.3486 65.4717 22.5485C65.4593 22.7484 65.3753 22.9371 65.2351 23.0802L64.8018 23.5102L66.0351 22.7985C66.2087 22.6994 66.4121 22.6659 66.6083 22.7043C66.8045 22.7426 66.9804 22.8502 67.1038 23.0074C67.2273 23.1646 67.2901 23.361 67.2809 23.5606C67.2716 23.7603 67.1909 23.95 67.0535 24.0952L66.3968 24.7818L67.8085 23.9668C67.9714 23.8724 68.1616 23.836 68.3479 23.8635C68.5342 23.891 68.7057 23.9807 68.8344 24.1182C68.9632 24.2556 69.0416 24.4326 69.0568 24.6203C69.0721 24.808 69.0233 24.9954 68.9185 25.1518L67.2451 27.6668L70.2785 25.9168C70.4386 25.8241 70.6251 25.7874 70.8085 25.8124C70.9918 25.8374 71.1616 25.9227 71.2912 26.0549C71.4207 26.187 71.5025 26.3586 71.5237 26.5424C71.545 26.7262 71.5044 26.9119 71.4085 27.0702L69.6118 30.0285L72.6918 28.2502C72.8598 28.1527 73.0566 28.117 73.2481 28.1492C73.4397 28.1814 73.614 28.2795 73.7409 28.4266C73.8678 28.5736 73.9393 28.7604 73.9431 28.9546C73.947 29.1488 73.8828 29.3382 73.7618 29.4902L72.3335 31.2902L74.3335 30.1352C74.4961 30.0412 74.6857 30.0049 74.8716 30.0323C75.0574 30.0596 75.2286 30.1489 75.3573 30.2857C75.486 30.4225 75.5647 30.5988 75.5807 30.786C75.5966 30.9732 75.5488 31.1602 75.4451 31.3168L73.5168 34.2152L76.1568 32.6902C76.3197 32.5966 76.5095 32.5608 76.6953 32.5886C76.8812 32.6165 77.0521 32.7063 77.1805 32.8435C77.3088 32.9808 77.387 33.1573 77.4024 33.3446C77.4178 33.5319 77.3694 33.7188 77.2651 33.8752L75.1668 37.0002L77.7685 35.5002C77.9404 35.4011 78.142 35.3667 78.337 35.403C78.532 35.4393 78.7077 35.544 78.8325 35.6983C78.9572 35.8525 79.0228 36.0462 79.0175 36.2446C79.0122 36.4429 78.9363 36.6328 78.8035 36.7802L77.5335 38.1852L78.7101 37.5085C78.8837 37.4094 79.0871 37.3759 79.2833 37.4143C79.4795 37.4526 79.6554 37.5602 79.7788 37.7174C79.9023 37.8746 79.9651 38.071 79.9559 38.2706C79.9466 38.4703 79.8659 38.66 79.7285 38.8052L78.6635 39.9202L79.4685 39.4568C79.6419 39.3577 79.8451 39.3242 80.0412 39.3623C80.2372 39.4005 80.413 39.5078 80.5366 39.6647C80.6602 39.8216 80.7233 40.0177 80.7145 40.2172C80.7057 40.4167 80.6254 40.6065 80.4885 40.7518L79.1668 42.1435L80.1168 41.5952C80.2861 41.4975 80.4843 41.4624 80.6769 41.496C80.8694 41.5297 81.044 41.6299 81.1701 41.7793C81.2962 41.9286 81.3658 42.1175 81.3667 42.313C81.3676 42.5084 81.2998 42.698 81.1751 42.8485L78.6051 45.9535L80.7885 44.6935C80.9653 44.5913 81.1734 44.5576 81.3734 44.5988C81.5735 44.64 81.7514 44.7531 81.8735 44.9168C81.9956 45.081 82.053 45.2843 82.0349 45.4881C82.0168 45.6918 81.9243 45.8818 81.7751 46.0218L80.8218 46.9185L81.0468 46.7885C81.2243 46.6869 81.4329 46.6541 81.633 46.6963C81.8331 46.7385 82.0107 46.8529 82.132 47.0176C82.2532 47.1823 82.3097 47.3858 82.2906 47.5894C82.2715 47.793 82.1782 47.9825 82.0285 48.1218L80.9118 49.1552L81.1668 49.0002C81.3458 48.898 81.5562 48.8657 81.7575 48.9096C81.9589 48.9536 82.1368 49.0705 82.257 49.2379C82.3771 49.4053 82.431 49.6113 82.4082 49.8161C82.3854 50.0209 82.2875 50.21 82.1335 50.3468L81.2568 51.1168C81.4389 51.0454 81.6404 51.0402 81.8259 51.1024C82.0114 51.1645 82.1691 51.2899 82.2714 51.4566C82.3738 51.6233 82.4142 51.8208 82.3856 52.0143C82.357 52.2078 82.2613 52.3851 82.1151 52.5152L80.1151 54.3018L80.9351 53.8335C81.1145 53.7307 81.3256 53.6982 81.5276 53.7423C81.7295 53.7865 81.9079 53.9041 82.0279 54.0724C82.148 54.2407 82.2013 54.4476 82.1773 54.6529C82.1534 54.8582 82.054 55.0473 81.8985 55.1835L78.7451 57.9318L80.3551 57.0018C80.538 56.8975 80.7536 56.8662 80.9585 56.9143C81.1635 56.9624 81.3427 57.0862 81.46 57.261C81.5774 57.4358 81.6243 57.6485 81.5912 57.8565C81.5581 58.0644 81.4476 58.2521 81.2818 58.3818L79.3451 59.8818L79.5785 59.7485C79.6733 59.6882 79.7794 59.6477 79.8903 59.6295C80.0012 59.6112 80.1146 59.6156 80.2238 59.6424C80.333 59.6691 80.4356 59.7176 80.5255 59.7851C80.6154 59.8525 80.6908 59.9374 80.747 60.0347C80.8033 60.132 80.8392 60.2397 80.8528 60.3513C80.8663 60.4628 80.8572 60.576 80.8259 60.6839C80.7946 60.7919 80.7417 60.8924 80.6706 60.9794C80.5994 61.0664 80.5114 61.1381 80.4118 61.1902L69.3835 67.5535C69.2572 67.6277 69.1133 67.6669 68.9668 67.6668Z" fill="#EB6374"/>
<path d="M30.0216 26.8331C29.8382 26.8331 29.6598 26.7726 29.5143 26.6609C29.3688 26.5492 29.2642 26.3926 29.2167 26.2155C29.1692 26.0383 29.1815 25.8504 29.2517 25.6809C29.3219 25.5114 29.4461 25.3698 29.6049 25.2781L38.3883 20.2048C38.4831 20.1445 38.5892 20.104 38.7001 20.0858C38.811 20.0675 38.9244 20.0719 39.0336 20.0986C39.1427 20.1254 39.2454 20.1739 39.3353 20.2413C39.4252 20.3088 39.5005 20.3937 39.5568 20.491C39.613 20.5883 39.649 20.696 39.6626 20.8076C39.6761 20.9191 39.667 21.0323 39.6357 21.1402C39.6043 21.2482 39.5515 21.3487 39.4804 21.4356C39.4092 21.5226 39.3212 21.5943 39.2216 21.6464L30.4383 26.7198C30.3117 26.7935 30.168 26.8326 30.0216 26.8331Z" fill="#EB6374"/>
<path d="M25.8716 37.7567C25.6975 37.7546 25.5285 37.6981 25.3882 37.5951C25.2479 37.492 25.1434 37.3476 25.0894 37.1822C25.0353 37.0167 25.0344 36.8385 25.0868 36.6725C25.1393 36.5065 25.2423 36.3611 25.3816 36.2567L37.4816 27.4234L23.9433 35.24C23.7592 35.3447 23.5422 35.3753 23.3363 35.3258C23.1305 35.2762 22.9512 35.1501 22.835 34.9732C22.7187 34.7962 22.6741 34.5817 22.7103 34.3731C22.7466 34.1644 22.8608 33.9774 23.0299 33.85L31.5616 27.53L23.9799 31.9067C23.8304 31.9932 23.6576 32.0311 23.4856 32.0151C23.3135 31.9992 23.1507 31.9301 23.0196 31.8175C22.8886 31.7049 22.7957 31.5544 22.754 31.3867C22.7122 31.2191 22.7236 31.0426 22.7866 30.8817L23.8666 28.13C23.691 28.1738 23.506 28.1593 23.3394 28.0887C23.1728 28.018 23.0338 27.895 22.9433 27.7384C22.8326 27.5472 22.8024 27.3199 22.8593 27.1064C22.9162 26.8929 23.0555 26.7108 23.2466 26.6L25.0799 25.5417C25.2296 25.4548 25.4026 25.4168 25.575 25.4327C25.7473 25.4487 25.9104 25.5179 26.0416 25.6308C26.1727 25.7437 26.2655 25.8946 26.3071 26.0626C26.3486 26.2306 26.3368 26.4074 26.2733 26.5684L25.2099 29.2734L43.3766 18.7834C43.5606 18.6787 43.7776 18.6481 43.9835 18.6976C44.1893 18.7472 44.3686 18.8732 44.4849 19.0502C44.6012 19.2271 44.6457 19.4417 44.6095 19.6503C44.5733 19.8589 44.459 20.0459 44.2899 20.1734L35.7583 26.5L50.1616 18.1834C50.3464 18.0756 50.5655 18.043 50.7737 18.0923C50.9819 18.1416 51.1631 18.2692 51.2798 18.4484C51.3966 18.6277 51.4399 18.845 51.4008 19.0554C51.3617 19.2657 51.2433 19.453 51.0699 19.5784L33.2466 32.5784C33.3162 32.6752 33.3639 32.7861 33.3863 32.9032C33.4088 33.0203 33.4054 33.141 33.3766 33.2567L32.9149 35.1567L33.7983 34.6467C33.8931 34.5911 33.9979 34.5548 34.1068 34.5399C34.2157 34.5251 34.3265 34.5319 34.4327 34.5599C34.539 34.588 34.6386 34.6369 34.7259 34.7036C34.8132 34.7704 34.8864 34.8537 34.9414 34.9489C34.9963 35.0441 35.0319 35.1492 35.0461 35.2582C35.0603 35.3672 35.0527 35.4779 35.0239 35.5839C34.9951 35.69 34.9456 35.7893 34.8783 35.8762C34.811 35.963 34.7271 36.0357 34.6316 36.09L32.0599 37.5734C31.9187 37.6545 31.7567 37.6924 31.5941 37.6825C31.4315 37.6725 31.2754 37.6152 31.1451 37.5175C31.0148 37.4198 30.9159 37.286 30.8608 37.1327C30.8057 36.9794 30.7967 36.8134 30.8349 36.655L31.2966 34.7567L26.2966 37.6484C26.1674 37.7223 26.0204 37.7598 25.8716 37.7567Z" fill="#EB6374"/>
<path d="M54.6816 63.7451C54.4987 63.7444 54.3211 63.6836 54.1762 63.572C54.0312 63.4605 53.927 63.3043 53.8796 63.1276C53.8323 62.951 53.8443 62.7636 53.9139 62.5945C53.9836 62.4253 54.1069 62.2838 54.265 62.1917L61.2833 58.1384C61.4737 58.0388 61.6953 58.0166 61.9017 58.0765C62.1082 58.1363 62.2835 58.2737 62.391 58.4598C62.4986 58.6458 62.5301 58.8663 62.479 59.075C62.4278 59.2838 62.298 59.4648 62.1166 59.5801L55.0983 63.6334C54.9716 63.7065 54.8279 63.745 54.6816 63.7451Z" fill="#FEC854"/>
<path d="M47.5351 37.3884C47.3516 37.3884 47.1733 37.3279 47.0278 37.2162C46.8823 37.1045 46.7777 36.9479 46.7302 36.7708C46.6827 36.5936 46.695 36.4057 46.7652 36.2362C46.8354 36.0667 46.9596 35.9251 47.1184 35.8334L48.8184 34.8517C48.9132 34.7962 49.0181 34.7599 49.127 34.745C49.2359 34.7301 49.3466 34.7369 49.4529 34.765C49.5591 34.7931 49.6588 34.8419 49.7461 34.9087C49.8334 34.9754 49.9066 35.0588 49.9615 35.154C50.0165 35.2491 50.0521 35.3542 50.0662 35.4632C50.0804 35.5722 50.0729 35.6829 50.0441 35.789C50.0153 35.895 49.9658 35.9944 49.8985 36.0812C49.8311 36.1681 49.7473 36.2407 49.6517 36.2951L47.9517 37.2751C47.8252 37.3488 47.6815 37.3879 47.5351 37.3884Z" fill="#FEC854"/>
<path d="M48.715 66.2269C48.5415 66.2269 48.3723 66.1728 48.231 66.0721C48.0897 65.9714 47.9834 65.8291 47.9269 65.665C47.8703 65.5009 47.8664 65.3233 47.9157 65.1569C47.965 64.9906 48.0649 64.8437 48.2017 64.7369L52.975 60.9869L47.475 64.1636C47.2925 64.2653 47.0783 64.2948 46.8751 64.2461C46.6718 64.1974 46.4943 64.0741 46.3777 63.9006C46.2611 63.7272 46.2139 63.5162 46.2455 63.3096C46.2771 63.103 46.3852 62.9159 46.5483 62.7852L54.8283 56.3485L43.7933 62.7186C43.61 62.8209 43.3947 62.8502 43.1907 62.8007C42.9866 62.7511 42.8088 62.6264 42.6927 62.4514C42.5767 62.2764 42.531 62.064 42.5648 61.8567C42.5986 61.6495 42.7094 61.4626 42.875 61.3336L51.6667 54.6669L39.6667 61.6052C39.4822 61.7093 39.2651 61.7393 39.0593 61.689C38.8536 61.6387 38.6747 61.512 38.559 61.3346C38.4433 61.1572 38.3996 60.9423 38.4366 60.7338C38.4736 60.5253 38.5887 60.3386 38.7583 60.2119L48.8867 52.7969L39.21 58.3819C39.0241 58.4821 38.8071 58.5079 38.6028 58.4542C38.3986 58.4005 38.2223 58.2713 38.1097 58.0926C37.9971 57.914 37.9565 57.6992 37.9962 57.4918C38.0358 57.2844 38.1528 57.0997 38.3233 56.9752L43.4217 53.4752L38.2333 56.4752C38.0495 56.579 37.8331 56.6092 37.6279 56.5596C37.4227 56.51 37.244 56.3844 37.1278 56.2082C37.0116 56.0319 36.9667 55.8181 37.002 55.61C37.0374 55.4018 37.1505 55.2149 37.3183 55.0869L48.23 46.9035L36.48 53.6869C36.2944 53.7939 36.0747 53.8253 35.8666 53.7746C35.6584 53.7239 35.4777 53.595 35.3621 53.4146C35.2465 53.2342 35.2048 53.0163 35.2457 52.806C35.2866 52.5956 35.4069 52.4092 35.5817 52.2852L41.0483 48.4102L35.475 51.6286C35.2894 51.7356 35.0697 51.767 34.8615 51.7163C34.6534 51.6656 34.4727 51.5367 34.3571 51.3563C34.2415 51.1759 34.1998 50.9579 34.2407 50.7476C34.2816 50.5373 34.4019 50.3508 34.5767 50.2269L38.4017 47.5219L37.5433 48.0219C37.3612 48.1244 37.1471 48.1546 36.9436 48.1067C36.7402 48.0587 36.5622 47.9361 36.4449 47.763C36.3277 47.59 36.2797 47.3792 36.3106 47.1724C36.3415 46.9657 36.449 46.7781 36.6117 46.6469L42.3 42.1469L39.1833 43.9452C39.022 44.0378 38.8344 44.0737 38.6503 44.0473C38.4662 44.0209 38.2963 43.9337 38.1675 43.7995C38.0387 43.6654 37.9585 43.492 37.9396 43.307C37.9207 43.122 37.9643 42.9359 38.0633 42.7786L39.2033 40.9819C39.0208 40.9797 38.8439 40.9176 38.7001 40.8052C38.5562 40.6927 38.4533 40.5361 38.4071 40.3595C38.3609 40.1828 38.374 39.9958 38.4444 39.8274C38.5148 39.6589 38.6385 39.5182 38.7967 39.4269L41.1717 38.0569C41.333 37.9643 41.5206 37.9284 41.7047 37.9548C41.8888 37.9812 42.0587 38.0684 42.1875 38.2026C42.3163 38.3367 42.3965 38.5101 42.4154 38.6951C42.4343 38.8801 42.3907 39.0662 42.2917 39.2235L41.2917 40.8069L51.3933 34.9736C51.5756 34.8691 51.7906 34.8374 51.9952 34.8847C52.1999 34.932 52.3791 35.0548 52.4971 35.2286C52.6151 35.4024 52.6631 35.6143 52.6315 35.822C52.5999 36.0296 52.491 36.2177 52.3267 36.3486L46.6367 40.8485L53.25 37.0302C53.4356 36.9232 53.6553 36.8918 53.8635 36.9425C54.0716 36.9932 54.2523 37.1221 54.3679 37.3025C54.4835 37.4829 54.5252 37.7008 54.4843 37.9111C54.4434 38.1215 54.3231 38.3079 54.1483 38.4319L50.315 41.1385L55.7283 38.0152C55.914 37.9082 56.1336 37.8768 56.3418 37.9275C56.55 37.9782 56.7306 38.1071 56.8462 38.2875C56.9618 38.4679 57.0035 38.6858 56.9626 38.8961C56.9218 39.1065 56.8014 39.2929 56.6267 39.4169L51.1667 43.2886L59.4267 38.5202C59.6106 38.4141 59.8281 38.3821 60.0348 38.431C60.2414 38.4798 60.4216 38.6056 60.5387 38.7828C60.6557 38.96 60.7006 39.1752 60.6643 39.3844C60.628 39.5936 60.5132 39.7811 60.3433 39.9086L49.4367 48.0869L61.36 41.2036C61.5463 41.0999 61.7652 41.0717 61.9718 41.1245C62.1783 41.1774 62.3567 41.3074 62.4702 41.4878C62.5838 41.6682 62.6239 41.8853 62.5824 42.0944C62.5408 42.3035 62.4206 42.4887 62.2467 42.6119L57.1333 46.1119L61.365 43.6669C61.5495 43.5628 61.7666 43.5328 61.9724 43.5831C62.1781 43.6334 62.357 43.7601 62.4727 43.9375C62.5884 44.1149 62.6321 44.3298 62.5951 44.5383C62.5581 44.7468 62.443 44.9335 62.2733 45.0602L52.1467 52.4752L62.4583 46.5219C62.6417 46.4196 62.857 46.3902 63.061 46.4398C63.2651 46.4893 63.4429 46.614 63.559 46.7891C63.675 46.9641 63.7207 47.1764 63.6869 47.3837C63.6531 47.591 63.5423 47.7778 63.3767 47.9069L54.5733 54.5736L64.5 48.8336C64.6826 48.7299 64.8977 48.699 65.1021 48.747C65.3066 48.7951 65.4853 48.9185 65.6026 49.0927C65.7199 49.2669 65.7672 49.479 65.7349 49.6865C65.7025 49.894 65.5931 50.0816 65.4284 50.2119L57.1483 56.6469L62.2667 53.6936C62.4492 53.5885 62.6646 53.5564 62.8698 53.6037C63.075 53.651 63.2547 53.7743 63.3727 53.9486C63.4907 54.123 63.5383 54.3356 63.506 54.5437C63.4736 54.7518 63.3637 54.9399 63.1983 55.0702L58.42 58.8336L60.9517 57.3719C61.0465 57.3116 61.1526 57.2711 61.2635 57.2529C61.3744 57.2346 61.4878 57.239 61.597 57.2657C61.7062 57.2925 61.8088 57.341 61.8987 57.4085C61.9886 57.4759 62.064 57.5608 62.1202 57.6581C62.1765 57.7554 62.2124 57.8631 62.226 57.9747C62.2396 58.0862 62.2304 58.1994 62.1991 58.3073C62.1678 58.4153 62.1149 58.5158 62.0438 58.6028C61.9726 58.6898 61.8846 58.7615 61.785 58.8135L49.1317 66.1185C49.0049 66.1911 48.8611 66.2285 48.715 66.2269Z" fill="#FEC854"/>
<path d="M50.0134 57.9502C49.846 57.9503 49.6825 57.9 49.5441 57.8058C49.4056 57.7116 49.2988 57.578 49.2375 57.4222C49.1761 57.2664 49.1631 57.0958 49.2002 56.9325C49.2372 56.7693 49.3226 56.6209 49.4451 56.5069L50.6718 55.3619L47.5318 57.1752C47.3542 57.2815 47.1435 57.3179 46.9406 57.2773C46.7376 57.2368 46.5571 57.1222 46.434 56.9558C46.3109 56.7895 46.2541 56.5833 46.2746 56.3774C46.2952 56.1715 46.3916 55.9806 46.5451 55.8419L50.2768 52.3419L45.1934 55.2769C45.0159 55.38 44.8066 55.4139 44.6056 55.3722C44.4046 55.3305 44.2261 55.2161 44.1043 55.0509C43.9824 54.8857 43.9259 54.6813 43.9454 54.477C43.9649 54.2726 44.0592 54.0827 44.2101 53.9435L48.4301 50.0369L43.9634 52.6135C43.7816 52.7168 43.5676 52.7479 43.3639 52.7007C43.1602 52.6535 42.9817 52.5315 42.8638 52.3588C42.7459 52.1861 42.6972 51.9754 42.7274 51.7685C42.7576 51.5616 42.8644 51.3737 43.0268 51.2419L43.6934 50.7102C43.5301 50.7659 43.3537 50.7703 43.1878 50.723C43.0219 50.6756 42.8744 50.5787 42.7651 50.4452C42.6408 50.2896 42.5763 50.0946 42.5833 49.8956C42.5904 49.6966 42.6685 49.5066 42.8034 49.3602L44.8768 47.1052C44.6963 47.0979 44.523 47.0321 44.3832 46.9177C44.2433 46.8034 44.1444 46.6467 44.1013 46.4712C44.0582 46.2957 44.0734 46.111 44.1444 45.9449C44.2154 45.7788 44.3385 45.6403 44.4951 45.5502L48.4568 43.2635C48.6292 43.1645 48.8313 43.1304 49.0266 43.1673C49.222 43.2043 49.3977 43.3098 49.522 43.465C49.6464 43.6201 49.7112 43.8146 49.7047 44.0133C49.6982 44.212 49.6209 44.4018 49.4868 44.5485L47.7101 46.4835L52.3868 43.7852C52.5685 43.6838 52.7817 43.654 52.9843 43.7018C53.1869 43.7496 53.3642 43.8715 53.4815 44.0435C53.5987 44.2155 53.6473 44.4252 53.6178 44.6312C53.5882 44.8372 53.4826 45.0248 53.3218 45.1569L52.7401 45.6219L54.0234 44.8819C54.201 44.7788 54.4103 44.7448 54.6113 44.7865C54.8123 44.8282 54.9908 44.9427 55.1126 45.1079C55.2345 45.2731 55.291 45.4774 55.2715 45.6818C55.252 45.8861 55.1577 46.0761 55.0068 46.2152L50.7884 50.1219L55.7084 47.2885C55.886 47.1823 56.0967 47.1459 56.2997 47.1864C56.5026 47.227 56.6831 47.3416 56.8062 47.5079C56.9293 47.6742 56.9861 47.8804 56.9656 48.0863C56.945 48.2922 56.8486 48.4831 56.6951 48.6219L52.9601 52.1219L56.1668 50.2619C56.3443 50.1572 56.5543 50.1221 56.7563 50.1632C56.9582 50.2044 57.1377 50.3189 57.2602 50.4846C57.3826 50.6504 57.4393 50.8556 57.4193 51.0607C57.3993 51.2658 57.304 51.4563 57.1518 51.5952L55.6518 52.9985C55.8397 52.9856 56.0265 53.0368 56.1817 53.1436C56.3368 53.2505 56.4512 53.4068 56.5061 53.587C56.561 53.7672 56.5532 53.9607 56.484 54.1359C56.4148 54.3112 56.2883 54.4578 56.1251 54.5519L50.4301 57.8335C50.3042 57.9092 50.1603 57.9495 50.0134 57.9502Z" fill="#8D6C57"/>
<path d="M98.6668 40.9902C90.5185 -5.30812 23.8785 -12.4881 5.00013 30.1085C-7.75154 56.0152 7.37346 89.6769 35.1668 97.4419C40.8518 101.629 83.3568 99.2085 67.2601 88.3402C52.4085 93.3752 35.1351 92.2835 23.2385 80.9469C-4.24987 57.9435 13.3135 8.66688 49.5485 9.57854C84.0635 8.57854 103.882 53.7919 79.6301 78.4219C73.2968 73.5485 73.2001 85.3435 74.6385 88.8752C77.6185 90.4635 92.2368 90.4402 85.6085 84.4052C91.0951 78.7382 95.144 71.8389 97.4159 64.2853C99.6879 56.7317 100.117 48.7437 98.6668 40.9902ZM90.5001 74.9652C88.7385 78.7585 84.8335 81.7419 83.0735 85.1069C83.6751 85.7102 84.8801 86.5235 84.8901 87.4785C85.1518 88.4519 83.6985 87.8835 83.1351 88.0135C80.7651 87.6802 75.6435 89.5852 76.5368 85.4852C76.6868 83.5319 76.3585 81.3969 76.6018 79.5052C77.6018 78.2835 78.5418 82.1135 80.4551 80.1469C85.3922 75.1707 89.0273 69.0548 91.0389 62.3399C93.0504 55.625 93.3766 48.5178 91.9885 41.6469C78.8935 -14.3631 -5.53321 6.38187 8.6668 62.0719C17.2301 89.7652 42.2835 96.5835 67.6051 90.5002C71.3518 96.2602 60.5535 96.6669 57.0285 97.6069C49.7634 98.6126 42.3642 97.9244 35.4092 95.5961C28.4542 93.2677 22.132 89.3623 16.9368 84.1852C-17.5632 51.0502 16.9001 -9.64813 63.1151 4.88021C92.1051 12.8335 106.373 49.4569 90.5101 74.9652H90.5001Z" fill="#262626"/>
<path d="M25.2769 46.1136C6.33359 39.3169 21.6169 83.0169 45.9719 82.5002C110.297 82.1669 80.0636 -10.2798 28.0003 26.8186C23.2203 22.8186 21.3469 29.1786 22.2919 33.1519C22.2703 35.1086 21.8053 37.3586 24.4386 37.4852C27.3053 37.1986 37.1869 38.9736 34.9119 33.7702C34.6869 33.4919 33.8219 32.9669 33.7453 32.6036C42.8036 22.4619 60.2869 24.7419 68.2836 35.2286C92.6169 75.2752 27.3769 94.1669 25.2769 46.1136ZM36.6219 72.6869C60.3136 86.8536 89.0536 55.4569 70.2019 33.9719C60.2753 22.2752 42.0453 22.3902 31.2886 32.8819C30.9686 33.3819 32.0119 33.7819 32.2386 34.2152C32.8786 34.9419 32.8403 35.6286 33.2386 36.4002C23.2386 36.9402 24.4953 36.9002 24.7569 27.4286C25.4353 26.2036 26.4119 30.1652 28.7453 27.9919C41.1119 15.1119 63.3769 17.3036 73.8369 31.4819C102.409 74.1669 32.6536 105.955 20.0119 55.6986C19.1786 52.7769 18.7836 41.7919 23.6286 47.9652C23.4719 57.7919 27.5169 67.8452 36.6219 72.6869Z" fill="#262626"/>
<path d="M51.4452 57.6669C58.8402 56.5636 60.2618 45.6586 52.7918 43.4852C40.3485 40.0136 38.0668 59.8436 51.4452 57.6669ZM45.4002 47.1202C48.2835 41.9802 55.6752 45.4536 55.4502 50.7336C55.0902 61.0002 40.6102 55.2169 45.4002 47.1202Z" fill="#262626"/>
<path d="M41.0202 39.4868H41.0085L40.9785 39.5185C40.9936 39.5095 41.0075 39.4989 41.0202 39.4868Z" fill="#262626"/>
<path d="M35.9019 47.3569C33.2869 47.7835 32.9019 52.4085 35.0085 53.5635C36.4102 53.8319 36.1935 55.3419 36.6969 56.4085C37.2735 57.2419 37.8519 58.0169 37.0852 58.9085C36.6752 61.2902 40.2052 63.9919 42.4185 62.6169C43.5405 63.2403 44.7358 63.7212 45.9769 64.0485C46.5252 67.3985 53.2169 66.9335 53.9052 63.8585C54.9482 63.5491 55.9585 63.1388 56.9219 62.6335C59.3885 63.9769 62.5052 61.2785 63.0635 58.9535C61.9085 57.1385 63.8119 55.5569 64.0919 53.6452C66.7085 53.2652 67.1652 48.5269 64.9869 47.4335C64.0569 47.3302 63.9769 46.6485 63.7852 45.7819C63.2852 44.4485 62.0569 43.3669 62.9785 41.9285C63.1702 39.5585 59.8252 36.9485 57.5785 38.3835C56.4545 37.7588 55.257 37.2767 54.0135 36.9485C53.4652 33.5985 46.7735 34.0635 46.0852 37.1385C45.0419 37.4469 44.0315 37.8573 43.0685 38.3635C40.6019 37.0202 37.4852 39.7185 36.9269 42.0435C38.0869 43.8619 36.1819 45.4452 35.9019 47.3569ZM38.2585 47.2035C38.5802 45.5869 40.2285 44.0085 39.7002 42.3919C39.0835 41.1002 40.0335 40.3735 40.9785 39.5119C40.6102 39.5235 40.6735 39.1785 41.0085 39.4802C41.0454 39.4482 41.0794 39.4131 41.1102 39.3752C41.0875 39.4178 41.057 39.4557 41.0202 39.4869C42.3085 40.6135 48.1869 38.1769 48.5702 36.7002C48.9535 35.5585 50.9802 36.0702 51.3269 36.9185C51.5985 37.5285 51.5902 37.8219 52.1469 38.1385C54.4002 38.6685 56.5685 40.7702 58.8135 39.2402C58.5952 39.1535 58.9652 39.9069 58.9302 39.8352C59.7635 40.7302 61.2385 41.6435 60.2369 43.0019C60.0602 44.2335 61.4652 46.9919 62.0419 48.1902C62.6119 48.7052 63.4452 48.3469 63.7085 49.2919C64.7902 54.1535 61.6885 51.4585 61.1835 55.5302C58.6835 58.5852 62.2302 59.1969 58.9952 61.5035C56.7552 60.2885 54.3469 62.6919 52.1302 63.1585C51.4719 63.5352 51.6469 64.5669 50.9635 64.8152C50.6887 64.9194 50.394 64.9604 50.1011 64.935C49.8083 64.9097 49.525 64.8187 49.2721 64.6688C49.0193 64.5189 48.8035 64.314 48.6407 64.0693C48.4779 63.8246 48.3724 63.5463 48.3319 63.2552C45.9152 62.2302 43.5685 60.2069 41.1652 61.7552C41.3835 61.8419 41.0135 61.0885 41.0485 61.1602C40.3302 60.2919 38.9652 59.5519 39.6269 58.2602C40.2219 56.6769 38.5269 54.9685 38.2435 53.3152C37.9585 52.6769 37.6369 52.7769 37.0419 52.4502C35.7702 51.7219 36.2085 49.7919 36.2485 48.5685C36.9335 48.1669 38.0002 48.1569 38.2585 47.2035Z" fill="#262626"/>
</svg>
