<svg width="18" height="19" viewBox="0 0 18 19" fill="none" xmlns="http://www.w3.org/2000/svg">
<g clip-path="url(#clip0_317_4942)">
<path d="M10.9336 18.7832H4.21875C2.66789 18.7832 1.40625 17.5216 1.40625 15.9707V6.44336C1.40625 4.8925 2.66789 3.63086 4.21875 3.63086H10.9336C12.4845 3.63086 13.7461 4.8925 13.7461 6.44336V15.9707C13.7461 17.5216 12.4845 18.7832 10.9336 18.7832ZM4.21875 5.03711C3.44339 5.03711 2.8125 5.668 2.8125 6.44336V15.9707C2.8125 16.7461 3.44339 17.377 4.21875 17.377H10.9336C11.709 17.377 12.3398 16.7461 12.3398 15.9707V6.44336C12.3398 5.668 11.709 5.03711 10.9336 5.03711H4.21875ZM16.5586 14.2129V3.5957C16.5586 2.04485 15.297 0.783203 13.7461 0.783203H5.94141C5.55304 0.783203 5.23828 1.09796 5.23828 1.48633C5.23828 1.87469 5.55304 2.18945 5.94141 2.18945H13.7461C14.5215 2.18945 15.1523 2.82034 15.1523 3.5957V14.2129C15.1523 14.6013 15.4671 14.916 15.8555 14.916C16.2438 14.916 16.5586 14.6013 16.5586 14.2129Z" fill="white"/>
</g>
<defs>
<clipPath id="clip0_317_4942">
<rect width="18" height="18" fill="white" transform="translate(0 0.783203)"/>
</clipPath>
</defs>
</svg>
