<svg width="53" height="52" viewBox="0 0 53 52" fill="none" xmlns="http://www.w3.org/2000/svg">
<g clip-path="url(#clip0_401_27676)">
<path d="M25.4951 23.9227H9.86892C7.89608 23.9227 6.29102 22.3177 6.29102 20.3448V4.71863C6.29102 2.74569 7.89608 1.14062 9.86892 1.14062H25.4952C27.4681 1.14062 29.0731 2.74569 29.0731 4.71863V20.3447C29.073 22.3177 27.4681 23.9227 25.4951 23.9227ZM9.86892 4.23972C9.60495 4.23972 9.39011 4.45455 9.39011 4.71863V20.3447C9.39011 20.6087 9.60484 20.8235 9.86892 20.8235H25.4952C25.7592 20.8235 25.974 20.6088 25.974 20.3447V4.71863C25.974 4.45466 25.7592 4.23972 25.4952 4.23972H9.86892Z" fill="url(#paint0_linear_401_27676)"/>
<path d="M43.7218 11.5351H39.4267C39.1187 11.5351 38.8691 11.2855 38.8691 10.9776V6.68252C38.8691 6.3746 39.1187 6.125 39.4267 6.125H43.7218C44.0297 6.125 44.2793 6.3746 44.2793 6.68252V10.9776C44.2793 11.2855 44.0297 11.5351 43.7218 11.5351Z" fill="url(#paint1_linear_401_27676)"/>
<path d="M49.1319 6.12499H44.8368C44.5289 6.12499 44.2793 5.87539 44.2793 5.56746V1.27237C44.2793 0.964444 44.5289 0.714844 44.8368 0.714844H49.1319C49.4398 0.714844 49.6894 0.964444 49.6894 1.27237V5.56746C49.6894 5.87539 49.4398 6.12499 49.1319 6.12499Z" fill="url(#paint2_linear_401_27676)"/>
<path d="M8.32821 42.4746H4.03311C3.72519 42.4746 3.47559 42.225 3.47559 41.9171V37.622C3.47559 37.3141 3.72519 37.0645 4.03311 37.0645H8.32821C8.63613 37.0645 8.88573 37.3141 8.88573 37.622V41.9171C8.88573 42.225 8.63613 42.4746 8.32821 42.4746Z" fill="url(#paint3_linear_401_27676)"/>
<path d="M30.1564 7.40848L14.5711 31.0224C13.3172 32.9222 14.6797 35.4539 16.956 35.4539H48.1264C50.4027 35.4539 51.7652 32.9222 50.5113 31.0224L34.9261 7.40848C33.7967 5.69717 31.2858 5.69717 30.1564 7.40848Z" fill="url(#paint4_linear_401_27676)"/>
<path d="M39.8412 14.8554L36.6673 18.0293L33.3685 14.7305L28.7744 19.3245L44.9045 35.4546H48.1271C50.4034 35.4546 51.7659 32.9229 50.5119 31.0231L39.8412 14.8554Z" fill="url(#paint5_linear_401_27676)"/>
<path d="M14.5711 31.0216C13.3172 32.9214 14.6797 35.4531 16.956 35.4531H48.1264C50.4027 35.4531 51.7652 32.9214 50.5113 31.0216L46.0859 24.3164H18.9964L14.5711 31.0216Z" fill="url(#paint6_linear_401_27676)"/>
<path d="M48.1266 35.4526H21.2666L32.1517 24.3164H46.0864L50.5109 31.0208C51.765 32.9216 50.4025 35.4526 48.1266 35.4526Z" fill="url(#paint7_linear_401_27676)"/>
<path d="M29.6563 19.6726C29.3399 19.6726 29.0229 19.557 28.7737 19.3238C28.2533 18.8362 28.2265 18.0191 28.7141 17.4985L31.8856 14.1127C32.32 13.6489 32.9338 13.3828 33.5695 13.3828C34.2051 13.3828 34.8189 13.6488 35.2535 14.1129L37.0011 15.9786L38.7488 14.1129C39.1832 13.649 39.797 13.3829 40.4327 13.3829C41.0683 13.3829 41.6821 13.6489 42.1166 14.113L43.8644 15.9787L45.612 14.113C46.0464 13.649 46.6602 13.3829 47.2959 13.3829C47.9316 13.3829 48.5454 13.6489 48.9799 14.113L52.1513 17.4987C52.6389 18.0191 52.6122 18.8363 52.0916 19.3239C51.571 19.8116 50.7538 19.7847 50.2664 19.2641L47.2959 16.0929L45.5483 17.9587C45.114 18.4226 44.5001 18.6888 43.8644 18.6888C43.2286 18.6888 42.6148 18.4226 42.1803 17.9586L40.4327 16.0929L38.685 17.9587C38.2507 18.4225 37.6368 18.6888 37.0011 18.6888C36.3654 18.6888 35.7516 18.4226 35.3171 17.9586L33.5695 16.0929L30.599 19.2642C30.3449 19.5353 30.001 19.6726 29.6563 19.6726Z" fill="url(#paint8_linear_401_27676)"/>
<path d="M51.2091 27.9168C50.8644 27.9168 50.5206 27.7797 50.2664 27.5083L47.2959 24.3371L45.5483 26.2028C45.114 26.6668 44.5001 26.9329 43.8644 26.9329C43.2286 26.9329 42.6148 26.6668 42.1803 26.2027L40.4327 24.3371L38.6851 26.2028C38.2506 26.6667 37.6368 26.9328 37.0011 26.9328C36.3655 26.9328 35.7517 26.6668 35.3172 26.2027L33.5696 24.337L30.599 27.5083C30.1114 28.0285 29.2944 28.0554 28.7737 27.5679C28.2533 27.0803 28.2265 26.2632 28.7141 25.7426L31.8856 22.3569C32.32 21.8931 32.9339 21.627 33.5695 21.627C34.2051 21.627 34.8189 21.893 35.2535 22.357L37.0012 24.2228L38.7488 22.357C39.1832 21.8932 39.797 21.6271 40.4327 21.6271C41.0683 21.6271 41.6821 21.8931 42.1166 22.3571L43.8644 24.2229L45.612 22.3571C46.0464 21.8932 46.6602 21.6271 47.2959 21.6271C47.9316 21.6271 48.5454 21.8931 48.9799 22.3571L52.1513 25.7428C52.6389 26.2632 52.6122 27.0804 52.0916 27.568C51.8425 27.8013 51.5254 27.9168 51.2091 27.9168Z" fill="url(#paint9_linear_401_27676)"/>
<path d="M24.7166 21.2901C18.2762 14.8498 8.10657 14.4119 1.15906 19.9761C0.333585 20.6372 0.277404 21.8752 1.02518 22.6231L23.3837 44.9815C24.1315 45.7294 25.3694 45.6732 26.0307 44.8477C31.595 37.9002 31.1569 27.7305 24.7166 21.2901Z" fill="url(#paint10_linear_401_27676)"/>
<path d="M19.9711 26.0352L12.2041 33.8021L23.3834 44.9813C24.1313 45.7292 25.3692 45.673 26.0304 44.8475C28.1599 42.1886 29.4092 39.0576 29.7804 35.8445L19.9711 26.0352Z" fill="url(#paint11_linear_401_27676)"/>
<path d="M23.3841 44.9801C24.132 45.728 25.3699 45.6718 26.0311 44.8463C28.849 41.3279 30.1265 36.9831 29.8655 32.7148L20.4922 42.0882L23.3841 44.9801Z" fill="url(#paint12_linear_401_27676)"/>
<path d="M19.9714 26.0345C15.6545 21.7176 8.83788 21.424 4.18103 25.1537C3.62769 25.5969 3.59006 26.4267 4.0913 26.928L19.0779 41.9146C19.5791 42.4158 20.409 42.3782 20.8521 41.8248C24.5819 37.168 24.2882 30.3514 19.9714 26.0345Z" fill="url(#paint13_linear_401_27676)"/>
<path d="M19.9714 26.0345C15.6545 21.7176 8.83788 21.424 4.18103 25.1537C3.62769 25.5969 3.59006 26.4267 4.0913 26.928L19.0779 41.9146C19.5791 42.4158 20.409 42.3782 20.8521 41.8248C24.5819 37.168 24.2882 30.3514 19.9714 26.0345Z" fill="url(#paint14_linear_401_27676)"/>
<path d="M17.2771 46.2612C16.8806 46.2612 16.484 46.1099 16.1815 45.8073C15.5762 45.2022 15.5762 44.221 16.1815 43.616L31.41 28.3874C32.0152 27.7823 32.9963 27.7823 33.6014 28.3874C34.2066 28.9926 34.2066 29.9737 33.6014 30.5788L18.3729 45.8073C18.0703 46.1099 17.6738 46.2612 17.2771 46.2612Z" fill="url(#paint15_linear_401_27676)"/>
<path d="M22.3025 51.2846C21.906 51.2846 21.5094 51.1333 21.2069 50.8308C20.6016 50.2256 20.6016 49.2445 21.2069 48.6394L36.4354 33.4109C37.0406 32.8057 38.0217 32.8057 38.6268 33.4109C39.232 34.016 39.232 34.9972 38.6268 35.6022L23.3982 50.8308C23.0957 51.1333 22.6991 51.2846 22.3025 51.2846Z" fill="url(#paint16_linear_401_27676)"/>
</g>
<defs>
<linearGradient id="paint0_linear_401_27676" x1="8.96891" y1="3.81852" x2="23.1007" y2="17.9504" gradientUnits="userSpaceOnUse">
<stop stop-color="#A274BF"/>
<stop offset="0.1435" stop-color="#976FBB"/>
<stop offset="0.3928" stop-color="#7B61B3"/>
<stop offset="0.7158" stop-color="#4D4BA4"/>
<stop offset="1" stop-color="#1F3596"/>
</linearGradient>
<linearGradient id="paint1_linear_401_27676" x1="40.0525" y1="7.30836" x2="43.9877" y2="11.2436" gradientUnits="userSpaceOnUse">
<stop stop-color="#A274BF"/>
<stop offset="0.1435" stop-color="#976FBB"/>
<stop offset="0.3928" stop-color="#7B61B3"/>
<stop offset="0.7158" stop-color="#4D4BA4"/>
<stop offset="1" stop-color="#1F3596"/>
</linearGradient>
<linearGradient id="paint2_linear_401_27676" x1="45.2904" y1="1.72609" x2="48.8776" y2="5.31328" gradientUnits="userSpaceOnUse">
<stop stop-color="#A274BF"/>
<stop offset="0.1435" stop-color="#976FBB"/>
<stop offset="0.3928" stop-color="#7B61B3"/>
<stop offset="0.7158" stop-color="#4D4BA4"/>
<stop offset="1" stop-color="#1F3596"/>
</linearGradient>
<linearGradient id="paint3_linear_401_27676" x1="4.33777" y1="37.9266" x2="8.26876" y2="41.8576" gradientUnits="userSpaceOnUse">
<stop stop-color="#6CF5C2"/>
<stop offset="1" stop-color="#00C285"/>
</linearGradient>
<linearGradient id="paint4_linear_401_27676" x1="23.1115" y1="19.1529" x2="45.6143" y2="41.6557" gradientUnits="userSpaceOnUse">
<stop stop-color="#6CF5C2"/>
<stop offset="1" stop-color="#00C285"/>
</linearGradient>
<linearGradient id="paint5_linear_401_27676" x1="39.293" y1="23.149" x2="37.3991" y2="14.6091" gradientUnits="userSpaceOnUse">
<stop stop-color="#02905D" stop-opacity="0"/>
<stop offset="0.4381" stop-color="#028B59" stop-opacity="0.438"/>
<stop offset="0.994" stop-color="#017B4E" stop-opacity="0.994"/>
<stop offset="1" stop-color="#017B4E"/>
</linearGradient>
<linearGradient id="paint6_linear_401_27676" x1="32.5412" y1="31.4746" x2="32.5412" y2="36.3343" gradientUnits="userSpaceOnUse">
<stop stop-color="#02905D" stop-opacity="0"/>
<stop offset="0.4381" stop-color="#028B59" stop-opacity="0.438"/>
<stop offset="0.994" stop-color="#017B4E" stop-opacity="0.994"/>
<stop offset="1" stop-color="#017B4E"/>
</linearGradient>
<linearGradient id="paint7_linear_401_27676" x1="36.1275" y1="30.9061" x2="36.1275" y2="23.154" gradientUnits="userSpaceOnUse">
<stop stop-color="#02905D" stop-opacity="0"/>
<stop offset="0.4381" stop-color="#028B59" stop-opacity="0.438"/>
<stop offset="0.994" stop-color="#017B4E" stop-opacity="0.994"/>
<stop offset="1" stop-color="#017B4E"/>
</linearGradient>
<linearGradient id="paint8_linear_401_27676" x1="40.4327" y1="14.034" x2="40.4327" y2="19.5475" gradientUnits="userSpaceOnUse">
<stop stop-color="#FEF0AE"/>
<stop offset="1" stop-color="#FAC600"/>
</linearGradient>
<linearGradient id="paint9_linear_401_27676" x1="40.4329" y1="21.8846" x2="40.4329" y2="27.745" gradientUnits="userSpaceOnUse">
<stop stop-color="#FEF0AE"/>
<stop offset="1" stop-color="#FAC600"/>
</linearGradient>
<linearGradient id="paint10_linear_401_27676" x1="12.0845" y1="13.8509" x2="19.7978" y2="45.4619" gradientUnits="userSpaceOnUse">
<stop stop-color="#FEAEE1"/>
<stop offset="1" stop-color="#FE2AA8"/>
</linearGradient>
<linearGradient id="paint11_linear_401_27676" x1="28.363" y1="35.3727" x2="20.0298" y2="35.9236" gradientUnits="userSpaceOnUse">
<stop stop-color="#FE0364" stop-opacity="0"/>
<stop offset="0.2859" stop-color="#F70361" stop-opacity="0.286"/>
<stop offset="0.6976" stop-color="#E40257" stop-opacity="0.698"/>
<stop offset="1" stop-color="#D2024E"/>
</linearGradient>
<linearGradient id="paint12_linear_401_27676" x1="27.7615" y1="39.9841" x2="26.3569" y2="38.5794" gradientUnits="userSpaceOnUse">
<stop stop-color="#FE0364" stop-opacity="0"/>
<stop offset="0.2859" stop-color="#F70361" stop-opacity="0.286"/>
<stop offset="0.6976" stop-color="#E40257" stop-opacity="0.698"/>
<stop offset="1" stop-color="#D2024E"/>
</linearGradient>
<linearGradient id="paint13_linear_401_27676" x1="9.7748" y1="24.2248" x2="22.3974" y2="36.8473" gradientUnits="userSpaceOnUse">
<stop stop-color="#EAF9FA"/>
<stop offset="1" stop-color="#B3DAFE"/>
</linearGradient>
<linearGradient id="paint14_linear_401_27676" x1="13.7103" y1="32.2955" x2="11.1612" y2="34.8446" gradientUnits="userSpaceOnUse">
<stop stop-color="#B3DAFE" stop-opacity="0"/>
<stop offset="0.2438" stop-color="#ACD5FA" stop-opacity="0.244"/>
<stop offset="0.589" stop-color="#9AC5F0" stop-opacity="0.589"/>
<stop offset="0.9932" stop-color="#7CACDF" stop-opacity="0.993"/>
<stop offset="1" stop-color="#7BACDF"/>
</linearGradient>
<linearGradient id="paint15_linear_401_27676" x1="24.3269" y1="36.5328" x2="25.8768" y2="38.0827" gradientUnits="userSpaceOnUse">
<stop stop-color="#A274BF"/>
<stop offset="0.1435" stop-color="#976FBB"/>
<stop offset="0.3928" stop-color="#7B61B3"/>
<stop offset="0.7158" stop-color="#4D4BA4"/>
<stop offset="1" stop-color="#1F3596"/>
</linearGradient>
<linearGradient id="paint16_linear_401_27676" x1="29.148" y1="41.3519" x2="30.7697" y2="42.9737" gradientUnits="userSpaceOnUse">
<stop stop-color="#A274BF"/>
<stop offset="0.1435" stop-color="#976FBB"/>
<stop offset="0.3928" stop-color="#7B61B3"/>
<stop offset="0.7158" stop-color="#4D4BA4"/>
<stop offset="1" stop-color="#1F3596"/>
</linearGradient>
<clipPath id="clip0_401_27676">
<rect width="52" height="52" fill="white" transform="translate(0.5)"/>
</clipPath>
</defs>
</svg>
