<svg width="33" height="32" viewBox="0 0 33 32" fill="none" xmlns="http://www.w3.org/2000/svg">
<g clip-path="url(#clip0_317_4865)" filter="url(#filter0_f_317_4865)">
<path d="M20.0974 27.5801C19.8625 27.6492 19.6233 27.7027 19.3813 27.7404C19.6196 27.6944 19.8592 27.6428 20.0974 27.5801Z" fill="url(#paint0_linear_317_4865)" stroke="#F7921E" stroke-width="0.0311688" stroke-miterlimit="10"/>
<path d="M7.2459 9.19336L7.05225 9.4721C7.12748 9.36061 7.19296 9.26583 7.2459 9.19336Z" fill="white" stroke="#F7921E" stroke-width="0.0311688" stroke-miterlimit="10"/>
<path d="M19.9262 20.3593C17.9391 19.4298 16.0839 18.2408 14.4092 16.8235C14.4288 16.9168 14.8272 18.7621 16.5575 20.5963C16.6968 20.7454 16.8445 20.8903 17.0005 21.0367C17.0772 21.1092 17.158 21.1761 17.2415 21.2527C17.3251 21.3294 17.4185 21.4046 17.5118 21.4813C17.6052 21.5579 17.6706 21.6109 17.7528 21.6736C17.874 21.7656 17.9966 21.8548 18.1262 21.944L18.3533 22.0973C18.4675 22.1726 18.5832 22.2464 18.7016 22.3189L18.7308 22.337C18.8423 22.4039 18.9565 22.468 19.0694 22.5308C19.1432 22.5726 19.2198 22.6144 19.2978 22.6534C19.4065 22.7133 19.518 22.7677 19.635 22.8248C19.8732 22.9391 20.1226 23.052 20.3831 23.1579L20.5628 23.2276C20.62 23.2499 20.6757 23.2722 20.7342 23.2931C20.8373 23.3308 20.9446 23.3698 21.0532 23.406C21.1619 23.4423 21.2706 23.4799 21.3834 23.5147C21.4489 23.5384 21.5144 23.5593 21.584 23.5775C21.6537 23.5956 21.715 23.6179 21.7846 23.6374C20.9415 23.6883 20.0956 23.6084 19.277 23.4005C19.2017 23.3837 19.1251 23.3656 19.0471 23.3419C18.9691 23.3182 18.8938 23.2987 18.813 23.2764C18.7322 23.2541 18.6556 23.229 18.5748 23.2025L18.3101 23.1133C18.2014 23.0743 18.09 23.0311 17.9785 22.9851C17.6182 22.8411 17.2678 22.6735 16.9295 22.4834C16.818 22.4235 16.708 22.3579 16.5993 22.2883C16.538 22.2548 16.4837 22.2172 16.4238 22.1768C16.2482 22.0653 16.0727 21.9454 15.8985 21.8088C15.8088 21.7458 15.7223 21.6784 15.6394 21.6067C15.5335 21.5231 15.4276 21.4367 15.3273 21.3419C15.227 21.2471 15.1448 21.1789 15.0487 21.0938C14.9526 21.0088 14.8634 20.9126 14.7701 20.8151C14.7241 20.7649 14.6726 20.7175 14.6308 20.6632C14.589 20.6088 14.5137 20.5377 14.4594 20.4736C13.4772 19.3586 12.5967 17.8478 11.967 15.8102C11.7134 17.2382 11.7762 18.7046 12.1509 20.1057C12.7082 22.1656 14.0916 24.5085 17.3614 26.0276C18.3366 26.6255 18.2321 27.0562 18.4508 27.8478C18.4508 27.8478 18.8604 27.8214 19.3369 27.7447C18.4486 27.8999 17.5461 27.9578 16.6453 27.9175C15.639 27.8772 14.6396 27.7338 13.6625 27.4896L13.6263 27.4799L13.5887 27.4687L13.5566 27.4604L13.4981 27.4437H13.4814H13.473C12.2302 27.0306 11.0624 26.4187 10.0152 25.6318C8.20335 24.2433 6.78171 22.4091 5.88867 20.3078C6.33588 18.2172 6.90289 16.6046 7.51588 15.3768C8.27098 13.8646 9.09155 12.921 9.83968 12.3384L10.3217 11.3489L10.6338 11.0465L11.5324 10.8304L12.5466 10.7301C11.2309 10.5464 9.89062 10.7762 8.71122 11.3879C8.96199 10.567 12.548 9.86736 12.548 9.86736C11.6424 9.59976 10.5725 9.73495 9.6516 9.97189C9.28381 10.0681 8.94248 10.1796 8.64156 10.2897C8.61509 10.2994 8.59001 10.3064 8.56633 10.3175C8.23476 10.4388 7.95891 10.5586 7.77362 10.6437L7.70535 10.6743C7.67053 10.6911 7.64266 10.705 7.61619 10.7147C7.60737 10.7215 7.59748 10.7266 7.58694 10.7301L7.50474 10.7705C7.52548 10.7436 7.54781 10.718 7.57161 10.6938C7.5939 10.6674 7.61758 10.6423 7.64405 10.6158C7.72388 10.5367 7.80856 10.4627 7.89761 10.3942C7.92826 10.3691 7.95752 10.344 7.99095 10.3217C8.1248 10.2208 8.26434 10.1278 8.4089 10.043L8.52453 9.97746C8.68753 9.88826 8.86307 9.80046 9.04558 9.71823C9.09991 9.69454 9.15424 9.66805 9.21136 9.64436C9.32699 9.59697 9.44263 9.54819 9.56244 9.50499L9.70175 9.45063C9.79649 9.4144 9.88983 9.37955 9.98735 9.3461L10.1267 9.29593L10.3134 9.23461C11.6403 8.82215 12.9964 8.51046 14.3702 8.3022L11.2203 8.46109L7.66913 8.63112C7.57161 8.75377 7.47688 8.87642 7.3905 9.00046C7.77647 8.4531 8.20904 7.94016 8.68335 7.46736C8.76834 7.38234 8.84635 7.30708 8.91322 7.24157L8.93691 7.21928L8.97731 7.18304C9.13474 7.04367 9.22947 6.96004 9.22947 6.96004C9.23236 6.95645 9.23563 6.95318 9.23922 6.95029C9.59805 6.63079 9.98142 6.34 10.3858 6.0806L10.4847 6.01788C11.1211 5.61264 11.792 5.26426 12.4895 4.97677L12.5229 4.96004L12.5438 4.95168H12.5563C12.6399 4.91823 12.7235 4.88896 12.8071 4.8583L12.9241 4.81928L13.0258 4.78443C13.4117 4.659 13.8102 4.55447 14.1989 4.46945H14.2128H14.2323C14.4705 4.41649 14.7032 4.3705 14.9289 4.33008C16.3402 5.0367 17.158 5.813 17.6177 6.50987C18.4815 7.82415 18.1192 8.89454 18.1192 8.89454L22.8128 11.806L19.217 8.3022C19.217 8.3022 19.0415 7.53008 18.7615 6.659C20.3652 6.96241 21.8638 7.67382 23.113 8.72472C24.3622 9.77562 25.3198 11.1306 25.8937 12.6592C26.4676 14.1877 26.6384 15.8384 26.3897 17.4521C26.1409 19.0659 25.481 20.5883 24.4734 21.8729C22.9042 21.5461 21.3783 21.0382 19.9262 20.3593Z" fill="white"/>
<path d="M19.6353 17.7635C19.6353 17.7635 24.2522 17.3454 24.4027 15.0276C24.4027 15.0276 23.3452 13.9377 23.3452 13.6492C23.3452 13.6492 23.1781 13.0123 24.5127 13.1558C25.8474 13.2994 25.6579 14.452 25.6579 14.452C25.6579 14.452 24.9711 15.1921 25.0616 15.8722C25.0616 15.8722 25.2901 17.2659 24.7691 18.2778C24.7691 18.2778 24.4361 18.6694 24.2118 17.8597L19.6353 17.7635Z" fill="url(#paint1_linear_317_4865)" stroke="#F7921E" stroke-width="0.0311688" stroke-miterlimit="10"/>
<path d="M17.5913 11.6145L19.78 11.3887V12.2305L17.5913 11.6145Z" fill="url(#paint2_linear_317_4865)" stroke="#F7921E" stroke-width="0.0311688" stroke-miterlimit="10"/>
<path d="M12.5481 9.86594C11.6425 9.59834 10.5726 9.73353 9.65172 9.97047C9.28393 10.0666 8.9426 10.1781 8.64168 10.2882C8.61521 10.298 8.59013 10.305 8.56645 10.3161C8.23487 10.4374 7.95903 10.5572 7.77374 10.6422L7.70547 10.6729C7.67064 10.6896 7.64278 10.7036 7.61631 10.7133C7.60749 10.72 7.5976 10.7252 7.58705 10.7287L7.50486 10.7691C7.5256 10.7422 7.54793 10.7166 7.57173 10.6924C7.59402 10.6659 7.6177 10.6409 7.64417 10.6144C7.724 10.5353 7.80868 10.4613 7.89773 10.3928C7.92838 10.3677 7.95764 10.3426 7.99107 10.3203C8.12491 10.2194 8.26446 10.1263 8.40902 10.0415L8.52465 9.97604C8.68765 9.88684 8.86319 9.79904 9.04569 9.71681C9.10003 9.69312 9.15436 9.66663 9.21148 9.64294C9.32711 9.59555 9.44275 9.54677 9.56256 9.50357L9.70187 9.44921C9.79661 9.41298 9.88995 9.37813 9.98747 9.34468L10.1268 9.29451L10.3135 9.23319C11.6404 8.82073 12.9965 8.50904 14.3704 8.30078L11.2204 8.46106L7.66925 8.63109C7.57173 8.75374 7.47699 8.87639 7.39062 9.00043C7.39062 9.00043 7.39062 9.0074 7.38365 9.01158L7.35997 9.04224L7.25409 9.18162L7.06044 9.46036L6.95038 9.6304C6.90301 9.70287 6.85425 9.77953 6.8027 9.86315C6.78181 9.8966 6.76091 9.93144 6.74001 9.96907C6.3632 10.6035 6.04204 11.2694 5.78012 11.9593L5.71743 12.1321V12.1419C5.66588 12.2938 5.61573 12.4443 5.56976 12.5949C5.54886 12.6604 5.52935 12.7342 5.51124 12.79C5.49313 12.8457 5.47502 12.9294 5.45691 12.9907C5.4388 13.052 5.42347 13.13 5.40815 13.1914C5.37611 13.3168 5.34824 13.4436 5.32177 13.5677C5.30227 13.6638 5.28276 13.7586 5.26605 13.8548C5.2549 13.9119 5.24515 13.9691 5.23679 14.0248C5.23612 14.0369 5.23612 14.049 5.23679 14.0611C5.22565 14.1294 5.2145 14.2004 5.20475 14.2673C5.18942 14.3649 5.17688 14.4625 5.16713 14.5614C5.16713 14.5795 5.16713 14.599 5.16713 14.6185V14.6046C5.12534 14.8081 5.10723 15.0116 5.09608 15.2067C5.09608 15.183 5.09608 15.1565 5.09608 15.1314L5.08912 15.3238C5.08912 15.3907 5.08215 15.4631 5.07936 15.5245C5.07658 15.5858 5.07936 15.6861 5.07936 15.7684C5.07936 15.9496 5.07936 16.128 5.07936 16.3036C5.07869 16.3161 5.07869 16.3287 5.07936 16.3412C5.07936 16.436 5.07936 16.5266 5.08772 16.6199L5.10862 16.9238C5.11698 17.0241 5.12673 17.1231 5.13648 17.222C5.13648 17.2722 5.14624 17.3224 5.15181 17.3726C5.16574 17.4952 5.18246 17.6151 5.19918 17.7335C5.21589 17.852 5.234 17.9663 5.25351 18.0764L5.27441 18.1949C5.398 18.9199 5.60028 19.6293 5.87765 20.3105V20.3217C5.87765 20.3119 5.87765 20.3022 5.87765 20.2924C6.336 18.2172 6.90301 16.6046 7.516 15.3767C8.2711 13.8645 9.09167 12.921 9.8398 12.3384L9.86209 12.3203L9.87323 12.3119L9.99583 12.2172C10.4138 11.8994 11.5283 11.1022 12.5286 10.744C11.2203 10.5598 9.88699 10.7847 8.71134 11.3879C8.9621 10.5656 12.5481 9.86594 12.5481 9.86594ZM5.36218 18.6464V18.6604C5.36368 18.6708 5.36601 18.681 5.36914 18.691C5.36914 18.6757 5.36635 18.6604 5.36218 18.6464Z" fill="#F7921E"/>
<path d="M12.5885 5.87111C12.6185 5.87545 12.6488 5.87778 12.6791 5.87808L12.7682 5.88923C12.8212 5.88923 12.8699 5.88922 12.9215 5.90177L13.0608 5.92407L13.1374 5.93382C13.1639 5.93382 13.1932 5.94497 13.2196 5.94776C13.3422 5.96867 13.4565 5.99236 13.5679 6.02024L13.7267 6.06205L13.8354 6.09271L13.9942 6.14567C13.9942 6.14567 14.0096 6.14567 14.0109 6.14567C14.0685 6.16265 14.1248 6.18361 14.1795 6.20839L14.2896 6.2502L14.4749 6.33243L14.5919 6.39236C14.6379 6.41327 14.6824 6.43696 14.7312 6.46205L14.8538 6.53452C14.9325 6.57921 15.0088 6.62806 15.0823 6.68086C15.6173 7.03088 16.05 7.51662 16.3361 8.08853C15.4972 7.64028 14.6023 7.30564 13.6752 7.09341C10.8763 6.45926 8.9468 7.33173 8.68071 7.46135L8.6626 7.4725C8.76708 7.37076 8.87157 7.27041 8.97885 7.17285C9.13627 7.03348 9.23101 6.94985 9.23101 6.94985C9.23101 6.94985 9.23101 6.94288 9.24076 6.9401C9.6057 6.62811 9.98854 6.33772 10.3873 6.07041L10.4862 6.00769C11.1225 5.6054 11.7929 5.25982 12.4896 4.97494L12.523 4.95821L12.5439 4.94985H12.5565C12.6401 4.9164 12.7237 4.88713 12.8073 4.85647L12.9243 4.81605L13.026 4.7826C13.4083 4.65115 13.7988 4.54454 14.1948 4.46344L14.2422 4.45508C15.7733 4.80072 16.5758 5.6718 16.9993 6.49271C17.2839 7.05293 17.4436 7.66824 17.4674 8.29619C17.1002 7.61716 16.5953 7.02234 15.9851 6.54985C15.9567 6.52524 15.9264 6.50287 15.8945 6.48295L15.8221 6.43139L15.6827 6.3394L15.5434 6.25717C15.4905 6.22511 15.4389 6.20142 15.3874 6.17355C15.3358 6.14567 15.2996 6.12755 15.2578 6.11083L15.2188 6.08992C15.163 6.06282 15.1058 6.03863 15.0475 6.01745C15.0318 6.00951 15.0155 6.00299 14.9987 5.99794L14.9151 5.96588C14.8617 5.94735 14.8073 5.93199 14.7521 5.91989C14.5918 5.87004 14.4285 5.83047 14.2631 5.80142C14.2102 5.79166 14.1586 5.7847 14.1113 5.77773C14.0639 5.77076 14.0304 5.76658 13.9887 5.76379C13.9526 5.75934 13.9163 5.75701 13.88 5.75682C13.8452 5.75682 13.8117 5.75682 13.7769 5.75682C13.7422 5.75242 13.7073 5.75009 13.6724 5.74985C13.3071 5.73548 12.9417 5.77636 12.5885 5.87111Z" fill="#F7921E"/>
<path d="M28.9301 16.0048C28.9284 18.0157 28.4198 19.9936 27.4513 21.7557C26.4829 23.5177 25.0858 25.007 23.3895 26.0856C22.1851 26.9368 20.8039 27.5048 19.3493 27.747C18.877 27.8362 18.4688 27.8696 18.4688 27.8696V27.8487C18.2501 27.0571 18.3518 26.6264 17.3794 26.0285C14.1096 24.5093 12.7206 22.1665 12.1689 20.1065C11.7875 18.7064 11.7181 17.2396 11.9655 15.8097C12.5953 17.8473 13.4757 19.3539 14.4579 20.4731C14.5122 20.5372 14.568 20.6013 14.6293 20.6626C14.6906 20.724 14.7254 20.7644 14.7686 20.8146C14.8591 20.9093 14.9511 21.0027 15.0472 21.0933C15.1433 21.1839 15.2269 21.2619 15.3258 21.3414C15.4248 21.4208 15.532 21.5226 15.6379 21.6062C15.7209 21.6779 15.8073 21.7453 15.897 21.8083C16.0712 21.9477 16.2467 22.0647 16.4223 22.1762C16.4822 22.2167 16.5365 22.2543 16.5978 22.2877C16.7065 22.3574 16.8165 22.4271 16.928 22.4829C17.2663 22.673 17.6167 22.8406 17.977 22.9846C18.0885 23.0306 18.1999 23.0738 18.3086 23.1128L18.5733 23.202C18.6541 23.2285 18.7335 23.2522 18.8115 23.2759C18.8896 23.2996 18.9704 23.3219 19.0456 23.3414C19.1208 23.3609 19.2002 23.3832 19.2755 23.3999C20.0941 23.6079 20.94 23.6878 21.7832 23.6369C21.7135 23.6173 21.6438 23.5978 21.5825 23.5769C21.5212 23.556 21.4432 23.5379 21.3819 23.5142C21.2691 23.4794 21.1618 23.4459 21.0517 23.4055C20.9417 23.3651 20.8358 23.3302 20.7327 23.2926C20.6742 23.2717 20.6185 23.2494 20.5613 23.2271L20.3816 23.1574C20.1211 23.0515 19.8717 22.9386 19.6335 22.8243C19.5165 22.7672 19.405 22.7128 19.2964 22.6529C19.2183 22.6139 19.1417 22.5721 19.0679 22.5302C18.955 22.4675 18.8408 22.4034 18.7293 22.3365L18.7001 22.3184C18.5817 22.2459 18.466 22.179 18.3518 22.0968L18.1247 21.9435C17.9951 21.8543 17.8725 21.7651 17.7513 21.6731C17.6691 21.6104 17.5883 21.5435 17.5103 21.4808C17.4323 21.418 17.3278 21.3288 17.2401 21.2522C17.1523 21.1755 17.0757 21.1128 16.999 21.0362C16.843 20.8968 16.6967 20.7449 16.556 20.5957C14.8257 18.7588 14.4287 16.9135 14.4091 16.8229C16.0837 18.2413 17.9388 19.4312 19.9261 20.3616C21.38 21.0409 22.9078 21.5488 24.4789 21.8752C25.4864 20.5906 26.1464 19.0681 26.3951 17.4544C26.6439 15.8406 26.4731 14.19 25.8992 12.6614C25.3253 11.1329 24.3677 9.77788 23.1185 8.72698C21.8693 7.67608 20.3707 6.96466 18.767 6.66125C19.0456 7.53233 19.2225 8.30446 19.2225 8.30446L22.8127 11.8055L18.1219 8.89819C18.1219 8.89819 18.4841 7.8278 17.6204 6.51352C17.1606 5.81665 16.3429 5.03617 14.9344 4.3184C15.6181 4.19843 16.3078 4.11561 17.0004 4.07031C18.5671 4.07013 20.1185 4.3787 21.5659 4.9784C23.0134 5.5781 24.3286 6.45718 25.4364 7.56544C26.5442 8.67369 27.4229 9.98941 28.0224 11.4375C28.6218 12.8855 28.9303 14.4375 28.9301 16.0048Z" fill="#F7921E"/>
<path d="M16.6511 27.9187C15.6161 27.9141 14.587 27.7625 13.5945 27.4685L13.5625 27.4602L13.4984 27.4421H13.4817H13.4733C12.2304 27.029 11.0627 26.4171 10.0155 25.6302C5.24671 20.9152 10.5505 15.541 10.5505 15.541C10.159 17.5313 10.2496 18.5724 10.2496 18.5724C10.4335 23.8016 15.4265 26.3898 15.4265 26.3898C17.005 27.3487 16.6776 27.8797 16.6511 27.9187Z" fill="#F7921E"/>
</g>
<path d="M20.0974 27.5801C19.8625 27.6492 19.6233 27.7027 19.3813 27.7404C19.6196 27.6944 19.8592 27.6428 20.0974 27.5801Z" fill="url(#paint3_linear_317_4865)" stroke="#F7921E" stroke-width="0.0311688" stroke-miterlimit="10"/>
<path d="M7.2459 9.19336L7.05225 9.4721C7.12748 9.36061 7.19296 9.26583 7.2459 9.19336Z" fill="white" stroke="#F7921E" stroke-width="0.0311688" stroke-miterlimit="10"/>
<path d="M19.9262 20.3593C17.9391 19.4298 16.0839 18.2408 14.4092 16.8235C14.4288 16.9168 14.8272 18.7621 16.5575 20.5963C16.6968 20.7454 16.8445 20.8903 17.0005 21.0367C17.0772 21.1092 17.158 21.1761 17.2415 21.2527C17.3251 21.3294 17.4185 21.4046 17.5118 21.4813C17.6052 21.5579 17.6706 21.6109 17.7528 21.6736C17.874 21.7656 17.9966 21.8548 18.1262 21.944L18.3533 22.0973C18.4675 22.1726 18.5832 22.2464 18.7016 22.3189L18.7308 22.337C18.8423 22.4039 18.9565 22.468 19.0694 22.5308C19.1432 22.5726 19.2198 22.6144 19.2978 22.6534C19.4065 22.7133 19.518 22.7677 19.635 22.8248C19.8732 22.9391 20.1226 23.052 20.3831 23.1579L20.5628 23.2276C20.62 23.2499 20.6757 23.2722 20.7342 23.2931C20.8373 23.3308 20.9446 23.3698 21.0532 23.406C21.1619 23.4423 21.2706 23.4799 21.3834 23.5147C21.4489 23.5384 21.5144 23.5593 21.584 23.5775C21.6537 23.5956 21.715 23.6179 21.7846 23.6374C20.9415 23.6883 20.0956 23.6084 19.277 23.4005C19.2017 23.3837 19.1251 23.3656 19.0471 23.3419C18.9691 23.3182 18.8938 23.2987 18.813 23.2764C18.7322 23.2541 18.6556 23.229 18.5748 23.2025L18.3101 23.1133C18.2014 23.0743 18.09 23.0311 17.9785 22.9851C17.6182 22.8411 17.2678 22.6735 16.9295 22.4834C16.818 22.4235 16.708 22.3579 16.5993 22.2883C16.538 22.2548 16.4837 22.2172 16.4238 22.1768C16.2482 22.0653 16.0727 21.9454 15.8985 21.8088C15.8088 21.7458 15.7223 21.6784 15.6394 21.6067C15.5335 21.5231 15.4276 21.4367 15.3273 21.3419C15.227 21.2471 15.1448 21.1789 15.0487 21.0938C14.9526 21.0088 14.8634 20.9126 14.7701 20.8151C14.7241 20.7649 14.6726 20.7175 14.6308 20.6632C14.589 20.6088 14.5137 20.5377 14.4594 20.4736C13.4772 19.3586 12.5967 17.8478 11.967 15.8102C11.7134 17.2382 11.7762 18.7046 12.1509 20.1057C12.7082 22.1656 14.0916 24.5085 17.3614 26.0276C18.3366 26.6255 18.2321 27.0562 18.4508 27.8478C18.4508 27.8478 18.8604 27.8214 19.3369 27.7447C18.4486 27.8999 17.5461 27.9578 16.6453 27.9175C15.639 27.8772 14.6396 27.7338 13.6625 27.4896L13.6263 27.4799L13.5887 27.4687L13.5566 27.4604L13.4981 27.4437H13.4814H13.473C12.2302 27.0306 11.0624 26.4187 10.0152 25.6318C8.20335 24.2433 6.78171 22.4091 5.88867 20.3078C6.33588 18.2172 6.90289 16.6046 7.51588 15.3768C8.27098 13.8646 9.09155 12.921 9.83968 12.3384L10.3217 11.3489L10.6338 11.0465L11.5324 10.8304L12.5466 10.7301C11.2309 10.5464 9.89062 10.7762 8.71122 11.3879C8.96199 10.567 12.548 9.86736 12.548 9.86736C11.6424 9.59976 10.5725 9.73495 9.6516 9.97189C9.28381 10.0681 8.94248 10.1796 8.64156 10.2897C8.61509 10.2994 8.59001 10.3064 8.56633 10.3175C8.23476 10.4388 7.95891 10.5586 7.77362 10.6437L7.70535 10.6743C7.67053 10.6911 7.64266 10.705 7.61619 10.7147C7.60737 10.7215 7.59748 10.7266 7.58694 10.7301L7.50474 10.7705C7.52548 10.7436 7.54781 10.718 7.57161 10.6938C7.5939 10.6674 7.61758 10.6423 7.64405 10.6158C7.72388 10.5367 7.80856 10.4627 7.89761 10.3942C7.92826 10.3691 7.95752 10.344 7.99095 10.3217C8.1248 10.2208 8.26434 10.1278 8.4089 10.043L8.52453 9.97746C8.68753 9.88826 8.86307 9.80046 9.04558 9.71823C9.09991 9.69454 9.15424 9.66805 9.21136 9.64436C9.32699 9.59697 9.44263 9.54819 9.56244 9.50499L9.70175 9.45063C9.79649 9.4144 9.88983 9.37955 9.98735 9.3461L10.1267 9.29593L10.3134 9.23461C11.6403 8.82215 12.9964 8.51046 14.3702 8.3022L11.2203 8.46109L7.66913 8.63112C7.57161 8.75377 7.47688 8.87642 7.3905 9.00046C7.77647 8.4531 8.20904 7.94016 8.68335 7.46736C8.76834 7.38234 8.84635 7.30708 8.91322 7.24157L8.93691 7.21928L8.97731 7.18304C9.13474 7.04367 9.22947 6.96004 9.22947 6.96004C9.23236 6.95645 9.23563 6.95318 9.23922 6.95029C9.59805 6.63079 9.98142 6.34 10.3858 6.0806L10.4847 6.01788C11.1211 5.61264 11.792 5.26426 12.4895 4.97677L12.5229 4.96004L12.5438 4.95168H12.5563C12.6399 4.91823 12.7235 4.88896 12.8071 4.8583L12.9241 4.81928L13.0258 4.78443C13.4117 4.659 13.8102 4.55447 14.1989 4.46945H14.2128H14.2323C14.4705 4.41649 14.7032 4.3705 14.9289 4.33008C16.3402 5.0367 17.158 5.813 17.6177 6.50987C18.4815 7.82415 18.1192 8.89454 18.1192 8.89454L22.8128 11.806L19.217 8.3022C19.217 8.3022 19.0415 7.53008 18.7615 6.659C20.3652 6.96241 21.8638 7.67382 23.113 8.72472C24.3622 9.77562 25.3198 11.1306 25.8937 12.6592C26.4676 14.1877 26.6384 15.8384 26.3897 17.4521C26.1409 19.0659 25.481 20.5883 24.4734 21.8729C22.9042 21.5461 21.3783 21.0382 19.9262 20.3593Z" fill="white"/>
<path d="M19.6353 17.7635C19.6353 17.7635 24.2522 17.3454 24.4027 15.0276C24.4027 15.0276 23.3452 13.9377 23.3452 13.6492C23.3452 13.6492 23.1781 13.0123 24.5127 13.1558C25.8474 13.2994 25.6579 14.452 25.6579 14.452C25.6579 14.452 24.9711 15.1921 25.0616 15.8722C25.0616 15.8722 25.2901 17.2659 24.7691 18.2778C24.7691 18.2778 24.4361 18.6694 24.2118 17.8597L19.6353 17.7635Z" fill="url(#paint4_linear_317_4865)" stroke="#F7921E" stroke-width="0.0311688" stroke-miterlimit="10"/>
<path d="M17.5913 11.6145L19.78 11.3887V12.2305L17.5913 11.6145Z" fill="url(#paint5_linear_317_4865)" stroke="#F7921E" stroke-width="0.0311688" stroke-miterlimit="10"/>
<path d="M12.5481 9.86594C11.6425 9.59834 10.5726 9.73353 9.65172 9.97047C9.28393 10.0666 8.9426 10.1781 8.64168 10.2882C8.61521 10.298 8.59013 10.305 8.56645 10.3161C8.23487 10.4374 7.95903 10.5572 7.77374 10.6422L7.70547 10.6729C7.67064 10.6896 7.64278 10.7036 7.61631 10.7133C7.60749 10.72 7.5976 10.7252 7.58705 10.7287L7.50486 10.7691C7.5256 10.7422 7.54793 10.7166 7.57173 10.6924C7.59402 10.6659 7.6177 10.6409 7.64417 10.6144C7.724 10.5353 7.80868 10.4613 7.89773 10.3928C7.92838 10.3677 7.95764 10.3426 7.99107 10.3203C8.12491 10.2194 8.26446 10.1263 8.40902 10.0415L8.52465 9.97604C8.68765 9.88684 8.86319 9.79904 9.04569 9.71681C9.10003 9.69312 9.15436 9.66663 9.21148 9.64294C9.32711 9.59555 9.44275 9.54677 9.56256 9.50357L9.70187 9.44921C9.79661 9.41298 9.88995 9.37813 9.98747 9.34468L10.1268 9.29451L10.3135 9.23319C11.6404 8.82073 12.9965 8.50904 14.3704 8.30078L11.2204 8.46106L7.66925 8.63109C7.57173 8.75374 7.47699 8.87639 7.39062 9.00043C7.39062 9.00043 7.39062 9.0074 7.38365 9.01158L7.35997 9.04224L7.25409 9.18162L7.06044 9.46036L6.95038 9.6304C6.90301 9.70287 6.85425 9.77953 6.8027 9.86315C6.78181 9.8966 6.76091 9.93144 6.74001 9.96907C6.3632 10.6035 6.04204 11.2694 5.78012 11.9593L5.71743 12.1321V12.1419C5.66588 12.2938 5.61573 12.4443 5.56976 12.5949C5.54886 12.6604 5.52935 12.7342 5.51124 12.79C5.49313 12.8457 5.47502 12.9294 5.45691 12.9907C5.4388 13.052 5.42347 13.13 5.40815 13.1914C5.37611 13.3168 5.34824 13.4436 5.32177 13.5677C5.30227 13.6638 5.28276 13.7586 5.26605 13.8548C5.2549 13.9119 5.24515 13.9691 5.23679 14.0248C5.23612 14.0369 5.23612 14.049 5.23679 14.0611C5.22565 14.1294 5.2145 14.2004 5.20475 14.2673C5.18942 14.3649 5.17688 14.4625 5.16713 14.5614C5.16713 14.5795 5.16713 14.599 5.16713 14.6185V14.6046C5.12534 14.8081 5.10723 15.0116 5.09608 15.2067C5.09608 15.183 5.09608 15.1565 5.09608 15.1314L5.08912 15.3238C5.08912 15.3907 5.08215 15.4631 5.07936 15.5245C5.07658 15.5858 5.07936 15.6861 5.07936 15.7684C5.07936 15.9496 5.07936 16.128 5.07936 16.3036C5.07869 16.3161 5.07869 16.3287 5.07936 16.3412C5.07936 16.436 5.07936 16.5266 5.08772 16.6199L5.10862 16.9238C5.11698 17.0241 5.12673 17.1231 5.13648 17.222C5.13648 17.2722 5.14624 17.3224 5.15181 17.3726C5.16574 17.4952 5.18246 17.6151 5.19918 17.7335C5.21589 17.852 5.234 17.9663 5.25351 18.0764L5.27441 18.1949C5.398 18.9199 5.60028 19.6293 5.87765 20.3105V20.3217C5.87765 20.3119 5.87765 20.3022 5.87765 20.2924C6.336 18.2172 6.90301 16.6046 7.516 15.3767C8.2711 13.8645 9.09167 12.921 9.8398 12.3384L9.86209 12.3203L9.87323 12.3119L9.99583 12.2172C10.4138 11.8994 11.5283 11.1022 12.5286 10.744C11.2203 10.5598 9.88699 10.7847 8.71134 11.3879C8.9621 10.5656 12.5481 9.86594 12.5481 9.86594ZM5.36218 18.6464V18.6604C5.36368 18.6708 5.36601 18.681 5.36914 18.691C5.36914 18.6757 5.36635 18.6604 5.36218 18.6464Z" fill="#F7921E"/>
<path d="M12.5885 5.87111C12.6185 5.87545 12.6488 5.87778 12.6791 5.87808L12.7682 5.88923C12.8212 5.88923 12.8699 5.88922 12.9215 5.90177L13.0608 5.92407L13.1374 5.93382C13.1639 5.93382 13.1932 5.94497 13.2196 5.94776C13.3422 5.96867 13.4565 5.99236 13.5679 6.02024L13.7267 6.06205L13.8354 6.09271L13.9942 6.14567C13.9942 6.14567 14.0096 6.14567 14.0109 6.14567C14.0685 6.16265 14.1248 6.18361 14.1795 6.20839L14.2896 6.2502L14.4749 6.33243L14.5919 6.39236C14.6379 6.41327 14.6824 6.43696 14.7312 6.46205L14.8538 6.53452C14.9325 6.57921 15.0088 6.62806 15.0823 6.68086C15.6173 7.03088 16.05 7.51662 16.3361 8.08853C15.4972 7.64028 14.6023 7.30564 13.6752 7.09341C10.8763 6.45926 8.9468 7.33173 8.68071 7.46135L8.6626 7.4725C8.76708 7.37076 8.87157 7.27041 8.97885 7.17285C9.13627 7.03348 9.23101 6.94985 9.23101 6.94985C9.23101 6.94985 9.23101 6.94288 9.24076 6.9401C9.6057 6.62811 9.98854 6.33772 10.3873 6.07041L10.4862 6.00769C11.1225 5.6054 11.7929 5.25982 12.4896 4.97494L12.523 4.95821L12.5439 4.94985H12.5565C12.6401 4.9164 12.7237 4.88713 12.8073 4.85647L12.9243 4.81605L13.026 4.7826C13.4083 4.65115 13.7988 4.54454 14.1948 4.46344L14.2422 4.45508C15.7733 4.80072 16.5758 5.6718 16.9993 6.49271C17.2839 7.05293 17.4436 7.66824 17.4674 8.29619C17.1002 7.61716 16.5953 7.02234 15.9851 6.54985C15.9567 6.52524 15.9264 6.50287 15.8945 6.48295L15.8221 6.43139L15.6827 6.3394L15.5434 6.25717C15.4905 6.22511 15.4389 6.20142 15.3874 6.17355C15.3358 6.14567 15.2996 6.12755 15.2578 6.11083L15.2188 6.08992C15.163 6.06282 15.1058 6.03863 15.0475 6.01745C15.0318 6.00951 15.0155 6.00299 14.9987 5.99794L14.9151 5.96588C14.8617 5.94735 14.8073 5.93199 14.7521 5.91989C14.5918 5.87004 14.4285 5.83047 14.2631 5.80142C14.2102 5.79166 14.1586 5.7847 14.1113 5.77773C14.0639 5.77076 14.0304 5.76658 13.9887 5.76379C13.9526 5.75934 13.9163 5.75701 13.88 5.75682C13.8452 5.75682 13.8117 5.75682 13.7769 5.75682C13.7422 5.75242 13.7073 5.75009 13.6724 5.74985C13.3071 5.73548 12.9417 5.77636 12.5885 5.87111Z" fill="#F7921E"/>
<path d="M28.9301 16.0048C28.9284 18.0157 28.4198 19.9936 27.4513 21.7557C26.4829 23.5177 25.0858 25.007 23.3895 26.0856C22.1851 26.9368 20.8039 27.5048 19.3493 27.747C18.877 27.8362 18.4688 27.8696 18.4688 27.8696V27.8487C18.2501 27.0571 18.3518 26.6264 17.3794 26.0285C14.1096 24.5093 12.7206 22.1665 12.1689 20.1065C11.7875 18.7064 11.7181 17.2396 11.9655 15.8097C12.5953 17.8473 13.4757 19.3539 14.4579 20.4731C14.5122 20.5372 14.568 20.6013 14.6293 20.6626C14.6906 20.724 14.7254 20.7644 14.7686 20.8146C14.8591 20.9093 14.9511 21.0027 15.0472 21.0933C15.1433 21.1839 15.2269 21.2619 15.3258 21.3414C15.4248 21.4208 15.532 21.5226 15.6379 21.6062C15.7209 21.6779 15.8073 21.7453 15.897 21.8083C16.0712 21.9477 16.2467 22.0647 16.4223 22.1762C16.4822 22.2167 16.5365 22.2543 16.5978 22.2877C16.7065 22.3574 16.8165 22.4271 16.928 22.4829C17.2663 22.673 17.6167 22.8406 17.977 22.9846C18.0885 23.0306 18.1999 23.0738 18.3086 23.1128L18.5733 23.202C18.6541 23.2285 18.7335 23.2522 18.8115 23.2759C18.8896 23.2996 18.9704 23.3219 19.0456 23.3414C19.1208 23.3609 19.2002 23.3832 19.2755 23.3999C20.0941 23.6079 20.94 23.6878 21.7832 23.6369C21.7135 23.6173 21.6438 23.5978 21.5825 23.5769C21.5212 23.556 21.4432 23.5379 21.3819 23.5142C21.2691 23.4794 21.1618 23.4459 21.0517 23.4055C20.9417 23.3651 20.8358 23.3302 20.7327 23.2926C20.6742 23.2717 20.6185 23.2494 20.5613 23.2271L20.3816 23.1574C20.1211 23.0515 19.8717 22.9386 19.6335 22.8243C19.5165 22.7672 19.405 22.7128 19.2964 22.6529C19.2183 22.6139 19.1417 22.5721 19.0679 22.5302C18.955 22.4675 18.8408 22.4034 18.7293 22.3365L18.7001 22.3184C18.5817 22.2459 18.466 22.179 18.3518 22.0968L18.1247 21.9435C17.9951 21.8543 17.8725 21.7651 17.7513 21.6731C17.6691 21.6104 17.5883 21.5435 17.5103 21.4808C17.4323 21.418 17.3278 21.3288 17.2401 21.2522C17.1523 21.1755 17.0757 21.1128 16.999 21.0362C16.843 20.8968 16.6967 20.7449 16.556 20.5957C14.8257 18.7588 14.4287 16.9135 14.4091 16.8229C16.0837 18.2413 17.9388 19.4312 19.9261 20.3616C21.38 21.0409 22.9078 21.5488 24.4789 21.8752C25.4864 20.5906 26.1464 19.0681 26.3951 17.4544C26.6439 15.8406 26.4731 14.19 25.8992 12.6614C25.3253 11.1329 24.3677 9.77788 23.1185 8.72698C21.8693 7.67608 20.3707 6.96466 18.767 6.66125C19.0456 7.53233 19.2225 8.30446 19.2225 8.30446L22.8127 11.8055L18.1219 8.89819C18.1219 8.89819 18.4841 7.8278 17.6204 6.51352C17.1606 5.81665 16.3429 5.03617 14.9344 4.3184C15.6181 4.19843 16.3078 4.11561 17.0004 4.07031C18.5671 4.07013 20.1185 4.3787 21.5659 4.9784C23.0134 5.5781 24.3286 6.45718 25.4364 7.56544C26.5442 8.67369 27.4229 9.98941 28.0224 11.4375C28.6218 12.8855 28.9303 14.4375 28.9301 16.0048Z" fill="#F7921E"/>
<path d="M16.6511 27.9187C15.6161 27.9141 14.587 27.7625 13.5945 27.4685L13.5625 27.4602L13.4984 27.4421H13.4817H13.4733C12.2304 27.029 11.0627 26.4171 10.0155 25.6302C5.24671 20.9152 10.5505 15.541 10.5505 15.541C10.159 17.5313 10.2496 18.5724 10.2496 18.5724C10.4335 23.8016 15.4265 26.3898 15.4265 26.3898C17.005 27.3487 16.6776 27.8797 16.6511 27.9187Z" fill="#F7921E"/>
<defs>
<filter id="filter0_f_317_4865" x="1" y="0" width="32" height="32" filterUnits="userSpaceOnUse" color-interpolation-filters="sRGB">
<feFlood flood-opacity="0" result="BackgroundImageFix"/>
<feBlend mode="normal" in="SourceGraphic" in2="BackgroundImageFix" result="shape"/>
<feGaussianBlur stdDeviation="2" result="effect1_foregroundBlur_317_4865"/>
</filter>
<linearGradient id="paint0_linear_317_4865" x1="19.3813" y1="27.6609" x2="20.0974" y2="27.6609" gradientUnits="userSpaceOnUse">
<stop stop-color="#EF6111"/>
<stop offset="1" stop-color="#F7921E"/>
</linearGradient>
<linearGradient id="paint1_linear_317_4865" x1="19.6353" y1="15.7537" x2="25.6676" y2="15.7537" gradientUnits="userSpaceOnUse">
<stop stop-color="#EF6111"/>
<stop offset="1" stop-color="#F7921E"/>
</linearGradient>
<linearGradient id="paint2_linear_317_4865" x1="17.5913" y1="11.8096" x2="19.78" y2="11.8096" gradientUnits="userSpaceOnUse">
<stop stop-color="#EF6111"/>
<stop offset="1" stop-color="#F7921E"/>
</linearGradient>
<linearGradient id="paint3_linear_317_4865" x1="19.3813" y1="27.6609" x2="20.0974" y2="27.6609" gradientUnits="userSpaceOnUse">
<stop stop-color="#EF6111"/>
<stop offset="1" stop-color="#F7921E"/>
</linearGradient>
<linearGradient id="paint4_linear_317_4865" x1="19.6353" y1="15.7537" x2="25.6676" y2="15.7537" gradientUnits="userSpaceOnUse">
<stop stop-color="#EF6111"/>
<stop offset="1" stop-color="#F7921E"/>
</linearGradient>
<linearGradient id="paint5_linear_317_4865" x1="17.5913" y1="11.8096" x2="19.78" y2="11.8096" gradientUnits="userSpaceOnUse">
<stop stop-color="#EF6111"/>
<stop offset="1" stop-color="#F7921E"/>
</linearGradient>
<clipPath id="clip0_317_4865">
<rect width="24" height="24" fill="white" transform="translate(5 4)"/>
</clipPath>
</defs>
</svg>
