<svg width="14" height="14" viewBox="0 0 14 14" fill="none" xmlns="http://www.w3.org/2000/svg">
<path d="M13.0812 0.266806L4.83159 0.266807C4.61312 0.270604 4.40488 0.360058 4.25172 0.515901C4.09856 0.671745 4.01274 0.881509 4.01274 1.10001C4.01274 1.31852 4.09856 1.52828 4.25172 1.68413C4.40488 1.83997 4.61312 1.92942 4.83159 1.93322L11.0695 1.93322L0.706804 12.2959C0.550524 12.4522 0.462727 12.6641 0.462727 12.8851C0.462726 13.1061 0.550524 13.3181 0.706804 13.4744C0.863084 13.6307 1.07505 13.7185 1.29606 13.7185C1.51707 13.7185 1.72904 13.6307 1.88532 13.4744L12.248 3.11173L12.248 9.34959C12.246 9.46023 12.2662 9.57014 12.3072 9.67292C12.3482 9.77569 12.4093 9.86927 12.4868 9.94819C12.5644 10.0271 12.6569 10.0898 12.7589 10.1326C12.861 10.1754 12.9705 10.1974 13.0812 10.1974C13.1918 10.1974 13.3014 10.1754 13.4034 10.1326C13.5055 10.0898 13.598 10.0271 13.6755 9.94819C13.7531 9.86927 13.8142 9.77569 13.8552 9.67292C13.8962 9.57014 13.9163 9.46023 13.9144 9.34959L13.9144 1.10001C13.9143 0.879044 13.8266 0.667134 13.6703 0.510884C13.5141 0.354635 13.3021 0.26684 13.0812 0.266806Z" fill="white"/>
</svg>
